<?xml version="1.0" encoding="UTF-8"?>
<svg width="140px" height="160px" viewBox="0 0 140 160" version="1.1" xmlns="http://www.w3.org/2000/svg" xmlns:xlink="http://www.w3.org/1999/xlink">
    <title>Group</title>
    <g id="Logos" stroke="none" stroke-width="1" fill="none" fill-rule="evenodd">
        <g id="Vertical---White" transform="translate(-29.000000, -35.000000)" fill="#FFFFFF">
            <g id="Group" transform="translate(29.000000, 35.000000)">
                <g id="word-mark" transform="translate(0.000000, 103.000000)">
                    <path d="M104.490736,0.903058824 C102.060336,0.903058824 100.061136,2.89694118 100.061136,5.377 C100.061136,7.74864706 102.060336,9.74252941 104.490736,9.74252941 C106.974896,9.74252941 108.920336,7.74864706 108.920336,5.377 C108.920336,2.89694118 106.974896,0.903058824 104.490736,0.903058824" id="Fill-36"></path>
                    <path d="M80.33592,36.0098059 C76.2748,36.0098059 72.98312,32.7250412 72.98312,28.6724529 C72.98312,24.6198647 76.2748,21.3351 80.33592,21.3351 C84.39704,21.3351 87.68872,24.6198647 87.68872,28.6724529 C87.68872,32.7250412 84.39704,36.0098059 80.33592,36.0098059 M93.8756,13.7842765 L89.50648,13.7842765 C88.54888,13.7842765 87.99,14.4224529 87.6764,15.1858059 C87.56216,15.4618647 87.24968,15.5881588 86.97976,15.4585118 C84.91,14.4705118 82.63528,13.8714529 80.33592,13.8714529 C71.60664,13.8714529 64.63912,21.3965706 65.59112,30.3008647 C66.3012,36.9385706 71.52936,42.3602765 78.14968,43.3147471 C81.11432,43.7428059 83.92888,43.2801 86.39064,42.1736294 C86.39288,42.1725118 86.39176,42.1758647 86.394,42.1747471 C86.9988,41.8863941 87.31128,42.1032176 87.34824,42.5301588 C87.24744,47.8367471 84.52696,50.1961 79.72328,50.1961 C77.08344,50.1961 75.04952,49.0192176 73.91944,47.1918647 C73.70776,46.8498647 73.32696,46.6486882 72.92488,46.6486882 L67.19048,46.6486882 C66.58008,46.6486882 66.11304,47.2209235 66.27096,47.8088059 C67.60712,52.7879235 72.6516,57.0003353 79.95624,57.0003353 C90.73848,57.0003353 94.99224,49.8473941 94.99224,41.9959235 L94.99224,14.8985706 C94.99224,14.2838647 94.49272,13.7842765 93.8756,13.7842765" id="Fill-38"></path>
                    <path d="M14.656544,36.0098059 C10.595424,36.0098059 7.303744,32.7250412 7.303744,28.6724529 C7.303744,24.6198647 10.595424,21.3351 14.656544,21.3351 C18.717664,21.3351 22.009344,24.6198647 22.009344,28.6724529 C22.009344,32.7250412 18.717664,36.0098059 14.656544,36.0098059 M16.842784,14.0301588 C13.703424,13.5763941 10.730944,14.1195706 8.168384,15.3724529 C7.920864,15.4931588 7.634144,15.3210412 7.634144,15.0472176 L7.634144,9.16504118 L7.634144,2.02662941 C7.634144,1.40633529 7.130144,0.903394118 6.507424,0.903394118 L1.125824,0.903394118 C0.504224,0.903394118 0.000224,1.40633529 0.000224,2.02662941 L0.000224,41.8886294 C0.000224,42.5066882 0.501984,43.0073941 1.121344,43.0073941 L5.875744,43.0073941 C6.548864,43.0073941 7.124544,42.6016882 7.375424,42.0216294 C7.463904,41.8193353 7.691264,41.7276882 7.887264,41.8293941 C9.916704,42.8755118 12.213824,43.4723353 14.656544,43.4723353 C23.385824,43.4723353 30.353344,35.9483353 29.401344,27.0451588 C28.691264,20.4074529 23.464224,14.9857471 16.842784,14.0301588" id="Fill-41"></path>
                    <path d="M139.106464,19.1578118 C137.120704,14.0132824 131.457984,12.1736353 126.325024,13.1694588 C124.921664,13.4421647 123.558624,13.9305765 122.310944,14.6313412 C122.215744,14.6838706 122.014144,14.8436941 121.817024,14.9744588 C121.618784,15.0661059 121.296224,14.9778118 121.209984,14.7788706 C120.957984,14.1988118 120.383424,13.7931059 119.709184,13.7931059 L119.687904,13.7931059 C119.665504,13.7919882 119.646464,13.7841647 119.622944,13.7841647 L114.961504,13.7841647 C114.338784,13.7841647 113.833664,14.2882235 113.833664,14.9107529 L113.833664,41.9175765 C113.833664,42.5222235 114.324224,43.0117529 114.930144,43.0117529 L120.487584,43.0117529 C121.093504,43.0117529 121.585184,42.5222235 121.585184,41.9175765 L121.585184,25.9385765 C121.585184,22.6236353 123.565344,20.0072235 126.945504,20.0072235 C130.676224,20.0072235 132.249824,22.5074 132.249824,25.7061059 L132.249824,41.8795765 C132.249824,42.5054588 132.757184,43.0117529 133.384384,43.0117529 L138.865664,43.0117529 C139.491744,43.0117529 140.000224,42.5054588 140.000224,41.8795765 L140.000224,24.3694 C140.000224,22.6012824 139.744864,20.8130471 139.106464,19.1578118" id="Fill-43"></path>
                    <path d="M107.243248,13.7846118 L101.738448,13.7846118 C101.117968,13.7846118 100.615088,14.2864353 100.615088,14.9056118 L100.615088,41.8867294 C100.615088,42.5059059 101.117968,43.0077294 101.738448,43.0077294 L107.243248,43.0077294 C107.863728,43.0077294 108.366608,42.5059059 108.366608,41.8867294 L108.366608,14.9056118 C108.366608,14.2864353 107.863728,13.7846118 107.243248,13.7846118" id="Fill-46"></path>
                    <path d="M53.702208,25.0907294 L41.054048,25.0907294 C40.765088,25.0907294 40.534368,24.8448471 40.579168,24.5721412 C40.962208,22.2384941 43.859648,20.0210824 47.378688,20.0210824 C50.896608,20.0210824 53.795168,22.2384941 54.177088,24.5721412 C54.221888,24.8448471 53.992288,25.0907294 53.702208,25.0907294 M47.311488,13.8002588 C38.558688,13.8002588 32.032448,21.4147882 32.566688,29.8608471 C33.018048,36.9981412 38.852128,42.7920235 46.050368,43.3955529 L46.051488,43.4112 C56.387968,44.1600235 60.314688,37.9023176 61.422368,35.2624353 C61.653088,34.7125529 61.242048,34.1101412 60.637248,34.1101412 L54.535488,34.1101412 C54.178208,34.1101412 53.843328,34.2565529 53.576768,34.4934941 C50.435168,37.2753176 46.131008,36.5734353 45.576608,36.4683765 C45.565408,36.4661412 45.522848,36.4572 45.520608,36.4572 C42.916608,35.8592588 40.813248,33.9827294 39.921728,31.5384353 C39.820928,31.2612588 40.019168,30.9673176 40.313728,30.9673176 L60.752608,30.9673176 C61.479488,30.9673176 62.068608,30.3872588 62.068608,29.6719647 L62.068608,28.2234941 C61.692288,20.5262588 56.064288,13.8002588 47.311488,13.8002588" id="Fill-48"></path>
                </g>
                <g id="logo-mark---new" transform="translate(22.000000, 0.000000)">
                    <path d="M44.473056,19.707984 L44.473056,1.761264 C44.473056,0.728784 43.573056,-0.104496 42.543936,0.010704 C33.293376,1.047984 24.836256,4.685904 17.921856,10.178544 C17.112576,10.821744 17.069856,12.041904 17.801856,12.771504 L30.535296,25.463664 C31.142016,26.067984 32.083296,26.124144 32.790816,25.641264 C35.811936,23.580624 39.270336,22.118544 43.004256,21.421104 C43.846656,21.264144 44.473056,20.561904 44.473056,19.707984" id="Fill-1"></path>
                    <path d="M25.725888,63.003168 C23.658528,59.992608 22.190208,56.546688 21.490368,52.824768 C21.332448,51.985248 20.628288,51.361248 19.771488,51.361248 L1.766688,51.361248 C0.731328,51.361248 -0.104832,52.257888 0.010848,53.283648 C1.050528,62.504928 4.700928,70.933728 10.211328,77.826048 C10.856448,78.633408 12.080448,78.675648 12.812448,77.946048 L25.547328,65.251488 C26.154048,64.646688 26.210208,63.708768 25.725888,63.003168" id="Fill-3"></path>
                    <path d="M78.07824,10.179024 C71.1648,4.685904 62.70816,1.047984 53.45712,0.010704 C52.428,-0.104496 51.528,0.728784 51.528,1.761264 L51.528,19.708464 C51.528,20.562384 52.1544,21.264144 52.9968,21.421584 C56.73024,22.119024 60.18864,23.580624 63.20928,25.641264 C63.9168,26.124144 64.85808,26.067984 65.4648,25.463664 L78.19872,12.771504 C78.93024,12.041904 78.888,10.822224 78.07824,10.179024" id="Fill-5"></path>
                    <path d="M46.762464,54.053328 L17.800704,82.922928 C17.069664,83.651568 17.112384,84.868848 17.920704,85.511568 C26.173824,92.070768 36.623424,96.000048 48.000384,96.000048 C59.376864,96.000048 69.826464,92.070768 78.080064,85.511088 C78.888864,84.868368 78.932064,83.651088 78.200544,82.922448 L49.238304,54.053328 C48.554784,53.371728 47.446464,53.371728 46.762464,54.053328" id="Fill-11"></path>
                    <path d="M25.545168,30.437472 L12.811248,17.745792 C12.079248,17.016192 10.855248,17.058912 10.210608,17.865792 C4.700688,24.757152 1.051728,33.185952 0.011088,42.406272 C-0.105072,43.432032 0.731568,44.328672 1.766928,44.328672 L19.772208,44.328672 C20.629008,44.328672 21.333648,43.704672 21.491088,42.865152 C22.190928,39.143232 23.656848,35.696832 25.723728,32.685792 C26.208048,31.979712 26.151408,31.041792 25.545168,30.437472" id="Fill-9"></path>
                    <path d="M76.228512,44.328864 L94.233312,44.328864 C95.268672,44.328864 96.104832,43.431744 95.989152,42.405984 C94.949472,33.186144 91.299072,24.757344 85.789632,17.866464 C85.144512,17.059104 83.920512,17.016864 83.188992,17.745984 L70.455072,30.438144 C69.848352,31.042464 69.792192,31.980384 70.276512,32.685984 C72.342912,35.697024 73.810272,39.143424 74.510112,42.864864 C74.667552,43.704384 75.371712,44.328864 76.228512,44.328864" id="Fill-14"></path>
                    <path d="M74.510112,52.82496 C73.810272,56.54688 72.343872,59.99424 70.276512,63.00528 C69.792192,63.71088 69.848352,64.6488 70.455072,65.2536 L83.188512,77.94576 C83.920512,78.67536 85.144512,78.63264 85.789632,77.82576 C91.299552,70.93392 94.949472,62.50464 95.989152,53.28384 C96.104832,52.25808 95.268672,51.36144 94.233312,51.36144 L76.228512,51.36144 C75.372192,51.36144 74.667552,51.98544 74.510112,52.82496" id="Fill-7"></path>
                </g>
            </g>
        </g>
    </g>
</svg>