<?xml version="1.0" encoding="UTF-8"?>
<svg width="800px" height="600px" viewBox="0 0 800 600" version="1.1" xmlns="http://www.w3.org/2000/svg" xmlns:xlink="http://www.w3.org/1999/xlink">
    <title>Artboard</title>
    <defs>
        <path d="M341.960938,311 C351.270833,311 359.213542,307.71224 365.789062,301.136719 C372.364583,294.561198 375.652344,286.61849 375.652344,277.308594 C375.652344,267.998698 372.364583,260.039714 365.789062,253.431641 C359.213542,246.823568 351.270833,243.519531 341.960938,243.519531 L341.960938,243.519531 L325.066406,243.519531 L325.066406,226.625 L341.960938,226.625 C351.270833,226.625 359.213542,223.33724 365.789062,216.761719 C372.364583,210.186198 375.652344,202.24349 375.652344,192.933594 C375.652344,183.623698 372.364583,175.68099 365.789062,169.105469 C359.213542,162.529948 351.270833,159.242188 341.960938,159.242188 C332.651042,159.242188 324.708333,162.529948 318.132812,169.105469 C311.557292,175.68099 308.269531,183.623698 308.269531,192.933594 L308.269531,192.933594 L308.269531,209.828125 L291.375,209.828125 L291.375,192.933594 C291.375,183.623698 288.070964,175.68099 281.462891,169.105469 C274.854818,162.529948 266.895833,159.242188 257.585938,159.242188 C248.276042,159.242188 240.333333,162.529948 233.757812,169.105469 C227.182292,175.68099 223.894531,183.623698 223.894531,192.933594 C223.894531,202.24349 227.182292,210.186198 233.757812,216.761719 C240.333333,223.33724 248.276042,226.625 257.585938,226.625 L257.585938,226.625 L274.480469,226.625 L274.480469,243.519531 L257.585938,243.519531 C248.276042,243.519531 240.333333,246.823568 233.757812,253.431641 C227.182292,260.039714 223.894531,267.998698 223.894531,277.308594 C223.894531,286.61849 227.182292,294.561198 233.757812,301.136719 C240.333333,307.71224 248.276042,311 257.585938,311 C266.895833,311 274.854818,307.71224 281.462891,301.136719 C288.070964,294.561198 291.375,286.61849 291.375,277.308594 L291.375,277.308594 L291.375,260.414062 L308.269531,260.414062 L308.269531,277.308594 C308.269531,286.61849 311.557292,294.561198 318.132812,301.136719 C324.708333,307.71224 332.651042,311 341.960938,311 Z M274.480469,209.828125 L257.585938,209.828125 C252.963542,209.828125 249.008464,208.184245 245.720703,204.896484 C242.432943,201.608724 240.789062,197.621094 240.789062,192.933594 C240.789062,188.311198 242.432943,184.339844 245.720703,181.019531 C249.008464,177.699219 252.963542,176.039062 257.585938,176.039062 C262.273438,176.039062 266.261068,177.699219 269.548828,181.019531 C272.836589,184.339844 274.480469,188.311198 274.480469,192.933594 L274.480469,192.933594 L274.480469,209.828125 Z M341.960938,209.828125 L325.066406,209.828125 L325.066406,192.933594 C325.066406,188.311198 326.710286,184.339844 329.998047,181.019531 C333.285807,177.699219 337.273438,176.039062 341.960938,176.039062 C346.583333,176.039062 350.554688,177.699219 353.875,181.019531 C357.195312,184.339844 358.855469,188.311198 358.855469,192.933594 C358.855469,197.55599 357.211589,201.527344 353.923828,204.847656 C350.636068,208.167969 346.648438,209.828125 341.960938,209.828125 L341.960938,209.828125 Z M308.269531,243.519531 L291.375,243.519531 L291.375,226.625 L308.269531,226.625 L308.269531,243.519531 Z M341.960938,294.105469 C337.338542,294.105469 333.367188,292.461589 330.046875,289.173828 C326.726562,285.886068 325.066406,281.93099 325.066406,277.308594 L325.066406,277.308594 L325.066406,260.414062 L341.960938,260.414062 C346.583333,260.414062 350.554688,262.057943 353.875,265.345703 C357.195312,268.633464 358.855469,272.588542 358.855469,277.210938 C358.855469,281.898438 357.211589,285.886068 353.923828,289.173828 C350.636068,292.461589 346.648438,294.105469 341.960938,294.105469 Z M257.585938,294.105469 C252.963542,294.105469 249.008464,292.461589 245.720703,289.173828 C242.432943,285.886068 240.789062,281.93099 240.789062,277.308594 C240.789062,272.621094 242.432943,268.633464 245.720703,265.345703 C249.008464,262.057943 252.963542,260.414062 257.585938,260.414062 L257.585938,260.414062 L274.480469,260.414062 L274.480469,277.308594 C274.480469,281.93099 272.836589,285.886068 269.548828,289.173828 C266.261068,292.461589 262.273438,294.105469 257.585938,294.105469 Z M422.625,311 L422.625,258.167969 L450.554688,258.167969 L478.191406,311 L507,311 L476.238281,254.261719 C493.035156,248.207031 502.800781,232.679688 502.800781,214.125 C502.800781,187.074219 484.246094,170.082031 454.65625,170.082031 L397.429688,170.082031 L397.429688,311 L422.625,311 Z M451.726562,238.148438 L422.625,238.148438 L422.625,190.980469 L451.140625,190.980469 C467.15625,190.980469 476.921875,199.964844 476.921875,214.613281 C476.921875,229.554688 467.742188,238.148438 451.726562,238.148438 Z" id="path-1"></path>
        <filter x="-7.1%" y="-9.9%" width="115.1%" height="126.4%" filterUnits="objectBoundingBox" id="filter-2">
            <feMorphology radius="4" operator="dilate" in="SourceAlpha" result="shadowSpreadOuter1"></feMorphology>
            <feOffset dx="0" dy="5" in="shadowSpreadOuter1" result="shadowOffsetOuter1"></feOffset>
            <feGaussianBlur stdDeviation="4.5" in="shadowOffsetOuter1" result="shadowBlurOuter1"></feGaussianBlur>
            <feComposite in="shadowBlurOuter1" in2="SourceAlpha" operator="out" result="shadowBlurOuter1"></feComposite>
            <feColorMatrix values="0 0 0 0 0   0 0 0 0 0   0 0 0 0 0  0 0 0 0.5 0" type="matrix" in="shadowBlurOuter1"></feColorMatrix>
        </filter>
    </defs>
    <g id="Artboard" stroke="none" stroke-width="1" fill="none" fill-rule="evenodd">
        <g id="unicorn" transform="translate(85.000000, 37.000000)" fill-rule="nonzero">
            <g id="rainbow" transform="translate(0.000000, 114.000000)">
                <ellipse id="Oval" fill="#C9C1F5" cx="507.316504" cy="143.234473" rx="25.9024922" ry="19.1989705"></ellipse>
                <path d="M34.7895818,275.451627 L0.0852096038,257.866683 L29.3401179,220.233724 C43.194939,203.907765 62.8515048,192.664851 84.8128412,188.505135 L109.842986,184.772785 C118.449494,182.715656 126.182247,178.29279 132.023862,172.086098 L146.845042,153.024685 C160.697311,136.696067 180.354986,125.452451 202.317721,121.295934 L227.347866,117.563584 C235.954374,115.506454 243.687127,111.083589 249.528742,104.876896 L264.349922,85.8154836 C278.203448,69.4861137 297.862274,58.2418093 319.826287,54.0845372 L344.856431,50.3521877 C353.465501,48.2935735 361.200629,43.8693063 367.044766,37.6611099 L396.299674,0.0281505033 L431.004046,17.6130947 L401.749138,55.246054 C387.890562,71.570183 368.233992,82.8131973 346.272773,86.9770005 L321.242629,90.70935 C312.63187,92.7608066 304.896001,97.185504 299.058023,103.398314 L284.236843,122.459727 C270.384443,138.788319 250.726638,150.031852 228.763813,154.188234 L203.733668,157.920584 C195.124206,159.971285 187.389528,164.395251 181.552792,170.607271 L166.731612,189.668684 C152.879391,205.997247 133.221802,217.240843 111.259152,221.397395 L86.2290077,225.129745 C77.6195454,227.180446 69.8848678,231.604412 64.0481316,237.816432 L34.7895818,275.451627 Z" id="Path" fill="#FF91A9"></path>
                <path d="M52.9673458,302.732599 L18.2629737,285.147655 L47.5178819,247.514696 C61.3727102,231.188752 81.0292752,219.945853 102.990605,215.786147 L128.02075,212.053798 C136.627258,209.996668 144.360011,205.573803 150.201626,199.36711 L165.022718,180.305494 C178.874987,163.976876 198.532662,152.73326 220.495397,148.576743 L245.525542,144.844393 C254.13205,142.787264 261.864803,138.364398 267.706418,132.157706 L282.527598,113.096293 C296.381124,96.766923 316.03995,85.5226185 338.003963,81.3653464 L363.034107,77.6329969 C371.643177,75.5743827 379.378306,71.1501155 385.222442,64.9419191 L414.477131,27.309163 L449.181503,44.8941072 L419.926551,82.526782 C406.067975,98.850911 386.411405,110.093925 364.450186,114.257728 L339.420042,117.990078 C330.809283,120.041535 323.073414,124.466232 317.235436,130.679042 L302.414256,149.740455 C288.561999,166.069003 268.904377,177.312571 246.941709,181.469084 L221.911564,185.201434 C213.302102,187.252135 205.567424,191.676101 199.730688,197.888121 L184.909508,216.949534 C171.057282,233.278182 151.399639,244.52184 129.436916,248.678407 L104.406772,252.410757 C95.7973095,254.461459 88.0626318,258.885425 82.2258956,265.097445 L52.9673458,302.732599 Z" id="Path" fill="#FFC587"></path>
                <path d="M71.1451538,330.013612 L36.4407816,312.428667 L65.6956899,274.795708 C79.5504714,258.469697 99.2070238,247.226724 121.168369,243.066957 L146.198514,239.334607 C154.805022,237.277478 162.537775,232.854612 168.37939,226.64792 L183.200614,207.586588 C197.052883,191.25797 216.710558,180.014354 238.673293,175.857837 L263.703438,172.125487 C272.309946,170.068357 280.042699,165.645492 285.884314,159.438799 L300.705494,140.377387 C314.55902,124.048017 334.217845,112.803712 356.181859,108.64644 L381.212003,104.914091 C389.820978,102.855431 397.556008,98.4311678 403.400075,92.2230129 L432.654983,54.5900535 L467.359355,72.1749977 L438.104447,109.807794 C424.245871,126.131923 404.589301,137.374938 382.628082,141.538741 L357.597937,145.27109 C348.987179,147.322547 341.25131,151.747244 335.413332,157.960054 L320.592196,177.021345 C306.739927,193.349963 287.082252,204.593579 265.119516,208.750097 L240.089372,212.482446 C231.47991,214.533148 223.745232,218.957114 217.908496,225.169134 L203.08736,244.230791 C189.235091,260.559409 169.577416,271.803024 147.61468,275.959542 L122.584536,279.691891 C113.975074,281.742593 106.240396,286.166559 100.40366,292.378579 L71.1451538,330.013612 Z" id="Path" fill="#FFF27D"></path>
                <path d="M89.3229178,357.294624 L54.6185456,339.70968 L83.8734539,302.076721 C97.7282497,285.75074 117.3848,274.507796 139.346133,270.34805 L164.376278,266.615701 C172.982786,264.558571 180.715539,260.135706 186.557154,253.929013 L201.378334,234.8676 C215.230603,218.538982 234.888278,207.295367 256.851013,203.138849 L281.881158,199.4065 C290.487666,197.34937 298.220419,192.926505 304.062034,186.719812 L318.883214,167.658399 C332.73674,151.329029 352.395566,140.084725 374.359579,135.927453 L399.389723,132.195103 C407.998793,130.136489 415.733922,125.712222 421.578058,119.504025 L450.832966,81.871066 L485.537338,99.4560102 L456.28243,137.08897 C442.423854,153.413099 422.767284,164.656113 400.806065,168.819916 L375.775921,172.552265 C367.165162,174.603722 359.429293,179.028419 353.591315,185.241229 L338.770135,204.302642 C324.917866,220.631261 305.260191,231.874876 283.297456,236.031394 L258.267312,239.763743 C249.657877,241.814348 241.923188,246.238198 236.086392,252.450106 L221.265212,271.511518 C207.412943,287.840137 187.755268,299.083752 165.792532,303.24027 L140.762388,306.972619 C132.152925,309.023321 124.418248,313.447287 118.581512,319.659307 L89.3229178,357.294624 Z" id="Path" fill="#B1F1A8"></path>
                <path d="M107.500682,384.575596 L72.7963097,366.990652 L102.051174,329.357855 C115.905956,313.031844 135.562508,301.788871 157.523853,297.629104 L182.553998,293.896754 C191.160506,291.839624 198.893259,287.416759 204.734874,281.210066 L219.556054,262.148654 C233.408323,245.820035 253.065998,234.57642 275.028734,230.419902 L300.058878,226.687553 C308.665386,224.630423 316.398139,220.207558 322.239754,214.000865 L337.060803,194.93929 C350.914329,178.60992 370.573154,167.365615 392.537167,163.208343 L417.567312,159.475994 C426.176381,157.41738 433.91151,152.993112 439.755647,146.784916 L469.010555,109.151957 L503.714927,126.736901 L474.460019,164.36986 C460.601443,180.693989 440.944873,191.937003 418.983654,196.100806 L393.953509,199.833156 C385.342751,201.884613 377.606882,206.30931 371.768904,212.52212 L356.947724,231.583533 C343.095455,247.912151 323.43778,259.155767 301.475045,263.312284 L276.4449,267.044634 C267.835438,269.095335 260.10076,273.519301 254.264024,279.731321 L239.442756,298.792653 C225.590531,315.121239 205.932924,326.364851 183.970252,330.521404 L158.940108,334.253754 C150.330646,336.304455 142.595968,340.728421 136.759232,346.940441 L107.500682,384.575596 Z" id="Path" fill="#96D7FF"></path>
                <path d="M125.678446,411.856608 L90.9740738,394.271664 L120.228982,356.638705 C134.083764,340.312694 153.740316,329.06972 175.701661,324.909953 L200.731806,321.177604 C209.338314,319.120474 217.071067,314.697609 222.912682,308.490916 L237.733862,289.429503 C251.586123,273.100932 271.243763,261.857348 293.206454,257.700833 L318.236598,253.968484 C326.843106,251.911354 334.57586,247.488489 340.417474,241.281796 L355.238654,222.220383 C369.092181,205.891014 388.751006,194.646709 410.715019,190.489437 L435.745164,186.757087 C444.354197,184.698388 452.089263,180.27405 457.933323,174.065806 L487.188231,136.432847 L521.892603,154.017791 L492.637651,191.650751 C478.779042,207.974904 459.122422,219.217921 437.161155,223.381697 L412.13101,227.114047 C403.520252,229.165503 395.784383,233.590201 389.946405,239.803011 L375.125444,258.864342 C361.273175,275.19296 341.6155,286.436576 319.652765,290.593093 L294.62262,294.325443 C286.013158,296.376145 278.27848,300.800111 272.441744,307.012131 L257.620564,326.073543 C243.768295,342.402162 224.11062,353.645777 202.147885,357.802295 L177.11774,361.534644 C168.508278,363.585346 160.7736,368.009312 154.936864,374.221332 L125.678446,411.856608 Z" id="Path" fill="#C9C1F5"></path>
            </g>
            <path d="M521.488741,280.213229 C523.13805,278.993831 528.085977,253.691321 520.6311,253.691321 C509.4158,254.42296 479.068516,265.946272 469.370579,271.433563 C463.960846,272.104232 462.641399,261.06868 453.009435,257.105636 C434.273285,287.041859 378.526644,296.187344 357.613407,288.261257 C350.620337,319.599787 312.526711,340.127744 302.753698,340.807396 C292.842715,343.069705 287.489586,372.40322 266.501976,388.897814 C264.158814,394.163338 254.08378,406.009546 249.489333,406 C241.404245,405.917563 235,378.808189 235,378.808189 C239.670166,374.285928 245.32617,370.731705 251.593807,368.380669 C243.819009,361.865019 285.64689,360.863202 271.309998,330.983112 C308.635969,318.805797 287.880582,304.784101 287.088914,275.152727 C286.954681,268.566369 288.048195,262.007804 290.321559,255.764298 C291.297131,252.779468 292.509923,249.865308 293.950039,247.045602 C297.921409,238.359746 304.347198,230.820744 312.554244,225.218376 C319.58375,220.639069 327.35523,217.119998 335.578596,214.792522 C345.408477,211.683057 355.964054,209.305231 366.387687,205.829947 C379.175647,201.911213 390.836761,195.365866 400.495395,186.685397 C410.787083,151.018003 425.432946,128.154289 440.342698,113.216663 C446.213851,107.263319 452.836384,101.982198 460.068433,97.4864274 C463.037189,95.6573303 465.939973,94.0721128 468.710812,92.669805 C466.623259,89.2183602 465.363289,85.392373 465.01636,81.4513426 C463.828857,70.4767599 468.710812,59.9289666 473.856655,61.0873947 C479.728195,62.4287326 486.457376,76.8785999 489.228215,79.1954562 C490.019883,79.8661251 493.450445,82.5488009 497.936566,86.6337845 L498.134483,86.8166942 C504.128433,92.2241541 509.500806,98.190333 514.165765,104.619906 C516.175156,107.359102 517.961336,110.232612 519.509526,113.216663 C524.641165,123.880645 531.739943,133.638876 540.488736,142.055427 C552.165843,153.15195 535.540809,172.906198 520.037305,167.357937 C511.90782,164.308555 504.16475,160.444347 496.94698,155.834625 C489.202371,156.931665 481.286287,156.304594 473.856655,154.005528 C473.724711,174.674326 478.342776,165.65078 479.398333,209.000382 C487.71085,213.634094 495.957395,226.071955 495.957395,232.290885 C510.141452,230.217908 528.085933,228.8156 539.301233,232.290885 L549,241.253461 C549.131114,262.227108 533.495666,298.93099 533.231776,300.028448 C532.434804,305.044782 528.540308,309.168357 523.269951,310.576242 C515.947019,312.466309 511.131037,306.491258 507.634502,299.174869 C501.499117,286.37119 500.245642,283.139785 521.488741,280.213229 Z" id="Path" fill="#FFFFFF"></path>
            <path d="M469.652896,268 C466.798612,268.000728 464.261156,266.320499 463.344112,263.822503 C458.004363,249.26445 433.035762,253.861469 431.149507,254.228143 C427.630878,254.913402 432.983636,241.497351 436.560785,240.764043 C445.247512,238.97441 463.617174,239.225288 472.566617,254.035779 C474.068055,256.520518 496.77442,252.161781 497.957864,255.382209 C499.13518,258.59796 475.27876,266.581469 471.79281,267.675421 C471.103553,267.891192 470.380621,268.000844 469.652896,268 L469.652896,268 Z" id="Path" fill="#2C4B75" opacity="0.2"></path>
            <path d="M478.722404,139.504675 C485.239043,144.020674 493.619667,145.573512 501.520108,143.728839 C506.055355,146.74234 526.554589,159.968272 535.987886,159.968272 C536.187813,161.982214 533.992398,166.330092 523.470645,167 C522.433478,167.065788 495.31012,152.735348 494.46291,153.295176 C488.207642,157.429699 476.538571,156.071896 469.310877,151.6531 C461.104661,146.635983 464.041489,124.751019 467.306856,125.002144 C470.572223,125.253269 469.864901,132.828767 478.722404,139.504675 Z" id="Path" fill="#2C4B75" opacity="0.2"></path>
            <path d="M366,205.512131 C386.870107,192.766557 378.640569,122.147541 439.539146,113 L440,113.365902 C425.120996,128.306885 410.505338,151.175738 400.234875,186.851148 C390.596161,195.533568 378.959096,202.080386 366.197509,206 L366,205.512131 Z" id="Path" fill="#FFD599"></path>
            <path d="M459,97.0717592 C451.804034,101.591373 445.214543,106.900504 439.372684,112.885421 L438.913182,112.517662 C378.193224,121.711652 386.398624,192.689252 365.58973,205.499544 L365.78666,205.98989 C355.415034,209.483606 344.912123,211.874044 335.131286,215 L335,214.693534 C361.782425,195.753915 354.10217,149.783967 381.8036,119.81156 C400.612898,99.1463638 430.112552,89.8782866 458.474854,95.7233074 L459,97.0717592 Z" id="Path" fill="#FF9797"></path>
            <path d="M458.901605,95.3622016 C430.620149,89.5676338 401.204585,98.7557109 382.448902,119.24253 C354.826436,148.956221 362.484797,194.529366 335.778716,213.305502 L335.909628,213.609323 C327.750616,215.928946 320.039952,219.436143 313.065456,224 L313,223.939236 C340.098818,194.529366 324.389358,132.732181 379.372466,92.2024636 C417.075169,64.433227 463.745355,80.7787951 463.745355,80.7787951 L464.334459,80.7180309 C464.678674,84.6457644 465.928783,88.4588429 468,91.8986426 C465.250845,93.296219 462.370777,94.8760881 459.425253,96.6990139 L458.901605,95.3622016 Z" id="Path" fill="#89DBBA"></path>
            <path d="M427.784826,87.7524484 C444.207286,86.3709934 465.243724,93.4703347 468,92.0587645 C465.92332,88.5843342 464.66993,84.7328458 464.324848,80.7655482 L463.734199,80.8269244 C463.734199,80.8269244 416.94199,64.3167331 379.140385,92.3656454 C364.908884,102.933764 350.398947,118.594018 337,159 C357.508441,124.731594 376.102959,92.0999275 427.784826,87.7524484 Z" id="Path" fill="#FFFFFF" opacity="0.5"></path>
            <path d="M420.766322,109.02484 C429.44595,106.038339 438.73771,104.980299 447.920491,105.932832 C452.495394,103.421868 454.838767,98.4160554 453.725918,93.5315279 L453.166395,93.7178317 C425.571945,90.0506048 398.009338,100.60917 380.922078,121.392875 C369.639673,134.799494 364.535593,153.295229 361,167 C375.432873,150.190069 384.56417,121.257939 420.766322,109.02484 Z" id="Path" fill="#FFFFFF" opacity="0.5"></path>
            <path d="M418.726492,133.954081 C426.839592,128.667381 426.282076,129.094507 428.926265,128.672854 C431.851507,125.265667 436.333428,118.24926 434.621403,116 L434.272425,116.228592 C414.301411,118.867817 397.406575,131.056955 389.989426,148.177504 C385.024089,159.269289 379.029904,173.437545 380.132587,184 C389.229678,168.407804 395.570149,149.043303 418.726492,133.954081 Z" id="Path" fill="#FFFFFF" opacity="0.5"></path>
            <path d="M292.205605,247.496373 C287.639502,252.533962 284.035294,258.268524 281.550847,264.448884 L281.064754,264.26838 C262.081263,271.355513 245.740245,336.102237 209,330.677693 C227.782028,310.825663 223.177533,289.718819 242.151609,263.954625 C260.254145,239.24755 287.341848,239.575318 298.488975,240.164168 L299,240.616956 C296.55706,242.750627 294.286084,245.050021 292.205605,247.496373 L292.205605,247.496373 Z" id="Path" fill="#C9C1F5"></path>
            <path d="M215.94468,327.141671 C223.646001,311.459466 227.069392,298.222374 241.424836,278.669969 C251.585022,264.40576 268.39576,255.542431 286.675445,254.811944 C288.344983,252.269348 290.192328,249.833204 292.20535,247.51951 C294.285833,245.065555 296.5569,242.759071 299,240.618897 L298.488671,240.164721 C287.341642,239.573904 260.254052,239.245336 242.151664,264.027853 C223.177868,289.871054 227.782359,311.042556 209,330.955319 C212.328674,331.448477 212.934197,327.708789 215.94468,327.141671 Z" id="Path" fill="#FFFFFF" opacity="0.5"></path>
            <g id="Group" opacity="0.2" transform="translate(233.000000, 369.000000)" fill="#2C4B75">
                <path d="M15.4184901,0.151099812 C9.81533193,2.50337735 4.73312145,5.76404921 0.422089173,9.77257116 C0.422089173,9.77257116 6.94934526,36.8419962 15.1595865,36.9241796 C17.9330752,36.9298036 22.6560005,32.7487458 26.544646,28.2633187 C22.4496636,19.419923 18.8458701,9.90655034 15.4184901,0.151099812 Z" id="Path"></path>
            </g>
            <path d="M517.618534,281 C498.662227,283.815424 499.989864,287.226821 505.868109,299.393534 C509.453831,306.617642 514.234173,312.51784 521.604278,310.65154 C525.238104,309.746336 528.284859,307.497731 530,304.455222 C525.648318,297.031922 521.586838,289.097897 517.618534,281 Z" id="Path" fill="#2C4B75" opacity="0.2"></path>
            <path d="M268.29843,276 C271.396568,270.885428 275.975177,266.633298 281.541511,263.70122 C284.422972,257.43642 288.418935,251.642366 293.370248,246.549827 C295.697748,244.106563 298.250184,241.846977 301,239.795464 L300.05617,239 C288.716278,241.350184 265.079316,262.265927 268.29843,276 Z" id="Path" fill="#2C4B75" opacity="0.2"></path>
            <path d="M358.496542,260.95426 C380.374136,268.407694 407.37621,261.262254 434.57538,253.500827 C440.163792,252.365357 446.001943,253.175483 451,255.779976 C432.341632,286.0249 376.826418,295.264693 356,287.256872 C359.387789,278.86962 360.251432,269.770614 358.496542,260.95426 Z" id="Path" fill="#2C4B75" opacity="0.2"></path>
            <path d="M472.387931,151.942733 C472.1875,172.634987 476.931034,163.601201 478,207 C469.179246,200.684647 458.19956,197.420172 447,197.783096 C455.418103,181.91293 453.369253,159.167605 459.849856,131.577932 L463.190374,127 C462.188218,139.08562 472.387931,151.942733 472.387931,151.942733 Z" id="Path" fill="#2C4B75" opacity="0.2"></path>
            <g id="Group" opacity="0.2" transform="translate(312.000000, 167.000000)" fill="#2C4B75">
                <path d="M94.2460094,0.487312904 C85.2188424,7.88085001 74.724374,13.5325068 63.3636156,17.1186166 C52.9770839,20.6310833 42.4584596,23.03435 32.6632764,26.1770833 C25.8078684,28.2252156 19.2468399,31.055013 13.1276053,34.6028951 C10.5951594,43.2937039 6.19775263,51.408827 0.20440597,58.4518043 L0.270145455,58.5134266 C7.27485224,53.885146 15.0188966,50.3284268 23.2132255,47.9760266 C33.0084087,44.8332932 43.5267262,42.430232 53.9135647,38.9175599 C66.6564512,34.9568505 78.2764928,28.3414837 87.9011849,19.5681821 C89.8540421,12.7030557 92.006309,6.44790721 94.2460094,0.487312904 Z" id="Path"></path>
            </g>
            <path d="M503.400182,126.457402 C501.417773,129.606774 493.980459,127.328971 489.570801,124.993795 C487.819356,124.191951 486.559473,122.704183 486.14579,120.949276 C485.732106,119.19437 486.209357,117.362097 487.443203,115.968216 C489.425613,112.818845 493.360392,113.864719 497.77005,116.199895 C502.179708,118.535071 505.382592,123.308031 503.400182,126.457402 Z" id="Path" fill="#2C4B75" opacity="0.2"></path>
            <path d="M564,62 C545.177388,76.9171348 513.563353,104.094101 513.563353,104.094101 L512.105263,105 C507.418776,98.6312369 502.021611,92.7214854 496,87.3651685 L496.795322,86.7008427 C496.795322,86.7008427 543.520468,62.5435393 564,62 Z" id="Path" fill="#CED8EE"></path>
            <path d="M361.869305,289.826048 C362.307532,277.669739 361.92808,259.698627 356.191563,256.071352 C356.191563,256.071352 351.874163,254.489204 349.291785,266.225302 C345.355908,282.641733 336.897512,297.851787 324.728777,310.394987 C314.241181,320.802786 302.925573,332.479829 291.33402,335.779863 C289.402139,339.841443 272.566744,375.380269 258.215298,381.218791 C252.986312,387.380256 246.85655,392.847424 240,397.465112 L240.886213,399.6119 C242.955073,403.285762 245.33547,405.974 247.882963,406 C252.496092,406.009417 262.611742,394.172226 264.964098,388.910815 C286.036438,372.428475 291.410503,343.117392 301.361266,340.856797 C311.17399,340.177539 349.420595,319.665137 356.441632,288.350517 C358.203194,288.980071 360.01869,289.47362 361.869305,289.826048 Z" id="Path" fill="#2C4B75" opacity="0.2"></path>
            <path d="M249.843392,410 L249.832687,410 C239.736385,409.896831 233.766006,390.921177 231.101088,379.615922 C230.802457,378.350827 231.174141,377.029714 232.101387,376.060465 C236.549536,371.707514 241.835595,368.161482 247.688188,365.604416 C248.808566,361.386263 253.808435,359.378385 257.660243,357.834789 C266.216305,354.398389 274.298893,351.152441 267.448252,332.236315 C266.687834,330.13158 267.888672,327.8507 270.147434,327.109468 C292.632215,319.760482 290.980582,313.57029 286.993866,298.622176 C284.702642,290.990365 283.350161,283.143145 282.96218,275.229954 C282.814209,268.195597 283.974375,261.190119 286.391888,254.520212 C287.418215,251.374171 288.693435,248.302447 290.207193,245.329986 C294.48426,236.022257 301.372686,227.944133 310.157709,221.933823 C317.520699,217.086553 325.680472,213.372228 334.321982,210.934256 C338.797002,209.517641 343.512137,208.223983 348.072928,206.974047 C353.623444,205.45028 359.362438,203.874908 364.962223,202.005916 C376.750111,198.423795 387.535712,192.469375 396.545026,184.569957 C405.741586,153.130376 419.346875,128.210405 436.998766,110.49265 C443.083475,104.300882 449.952525,98.8116332 457.457021,94.1438894 C459.177227,93.084404 460.942403,92.0566535 462.793306,91.0447503 C461.551775,88.105723 460.768432,85.0179322 460.466866,81.8743543 C459.468586,72.6325648 462.31562,63.0375863 467.23643,59.0733946 C469.230965,57.3387965 472.023476,56.6314764 474.693524,57.1845735 C479.963387,58.3909094 484.037892,64.2042231 488.819363,71.6762486 C489.767701,73.260516 490.819332,74.7898227 491.968417,76.2556766 L492.647523,76.8112217 C494.08282,77.9818405 497.073362,80.4182831 500.753714,83.7792663 C507.028014,89.4407282 512.651445,95.6895937 517.533766,102.425584 C519.652918,105.323017 521.535426,108.363013 523.165578,111.520198 C528.091013,121.76816 534.893622,131.149637 543.272457,139.249589 C549.670868,145.568852 550.214845,155.241053 544.559946,162.141812 C539.128681,170.519102 528.136698,174.269417 518.135612,171.157434 C510.189238,168.1756 502.594511,164.445817 495.470953,160.026783 C495.348856,160.038689 495.226758,160.046612 495.102422,160.058518 C489.445729,160.724185 483.707854,160.490682 478.135999,159.368069 C478.29409,162.856861 478.820007,166.322987 479.706249,169.717007 C482.41571,181.917087 483.692054,194.352861 483.512999,206.807245 C490.855345,212.193828 496.340876,219.447819 499.29692,227.679684 C512.632259,225.961485 529.251649,224.993263 540.331096,228.429662 C540.974043,228.630379 541.558315,228.965788 542.038448,229.40979 L551.712739,238.369865 C552.528735,239.126276 552.990506,240.149746 552.999115,241.218985 C553.077488,253.885309 547.948984,273.472055 537.754143,299.431641 C537.409259,300.3086 537.177874,300.891938 537.094341,301.130134 C535.914765,307.540055 530.83904,312.739847 524.07177,314.471019 C515.687118,316.629689 508.69705,312.034577 503.335055,300.78885 C499.935356,293.677937 497.478044,288.539185 500.215966,283.928226 C502.707368,279.737866 508.461365,277.976026 518.067127,276.523652 C519.785628,270.425279 520.233486,264.079442 519.386731,257.82577 C508.823447,259.04003 480.837419,269.563531 471.471598,274.876887 C470.950794,275.17378 470.368322,275.365768 469.762097,275.440355 C464.406551,276.09907 461.497393,271.920616 459.164504,268.55561 C457.814554,266.395398 456.147739,264.418967 454.211666,262.682768 C433.489955,290.297084 384.300187,298.745255 360.823575,293.408088 C351.451217,323.113542 316.775035,342.613006 304.581527,344.660624 C298.696832,348.501777 295.907666,354.493676 292.411535,361.997436 C288.040737,373.465441 280.42041,383.633731 270.348898,391.437022 C267.317511,397.095603 257.285482,410 249.843392,410 Z M240.207666,380.032581 C242.915447,390.441007 247.259858,400.258212 249.881956,401.781979 C255.310317,397.925849 259.713622,392.97006 262.754526,387.294286 C263.048104,386.631079 263.526378,386.051868 264.140554,385.615745 C275.676409,377.413611 280.089393,367.941631 284.354569,358.7792 C288.253408,350.406404 291.935779,342.497891 300.605472,337.343291 C301.218172,336.97944 301.919048,336.762611 302.644852,336.71237 C311.010244,336.129072 346.939607,316.439117 353.400571,287.412167 C353.664337,286.228037 354.483957,285.214288 355.63655,284.646589 C356.789144,284.07889 358.154886,284.016258 359.362394,284.475725 C378.839478,291.872334 431.521078,283.138467 449.059427,255.051945 C450.181421,253.250559 452.592859,252.527227 454.642058,253.377386 C459.699102,255.768927 463.850452,259.529373 466.54425,264.158831 C467.194143,265.137402 467.899932,266.083169 468.658609,266.992103 C479.785307,261.250183 508.30044,250.385439 520.003407,249.623556 C523.551108,249.600117 526.663573,251.809511 527.561189,254.988476 C530.116864,261.722429 527.698291,280.551192 523.912995,283.360693 C523.306817,283.809751 522.583422,284.102696 521.815877,284.20994 C510.262868,285.805141 508.238448,287.285267 507.904269,287.848736 C507.261621,288.928091 509.727313,294.086673 511.359687,297.499261 C516.372498,308.014838 520.294897,306.998994 521.764459,306.629958 C525.45077,305.609809 528.133998,302.663486 528.598165,299.126197 C528.641028,298.947612 528.947348,298.078617 529.508612,296.654037 C540.980237,267.436596 543.915061,251.429118 544.19997,242.905531 L536.595069,235.858128 C528.169704,233.568496 513.960331,233.715346 496.3857,236.294617 C495.118319,236.489432 493.82304,236.152077 492.851049,235.374017 C491.874672,234.601712 491.312563,233.472046 491.312914,232.282843 C491.312914,227.858351 484.339956,216.624531 476.915021,212.477934 C475.628302,211.75934 474.828709,210.480367 474.796362,209.089076 C474.200834,184.561993 472.497738,177.2844 471.128864,171.439351 C469.682996,165.725743 469.057063,159.860475 469.267256,153.995266 C469.275,152.695492 469.953599,151.477576 471.092927,150.71864 C472.232255,149.959705 473.694821,149.751336 475.027747,150.158055 C481.197046,152.136223 487.778856,152.75709 494.252081,151.9715 C495.010421,151.904048 495.715237,151.840537 496.375039,151.796775 C497.401662,151.723053 498.422897,151.991881 499.254188,152.554676 C506.157361,156.958082 513.555541,160.655504 521.319106,163.582158 C527.468127,165.269409 534.062367,162.815937 537.242236,157.657752 C540.451835,153.894239 540.340569,148.554112 536.976586,144.908088 C527.918629,136.180965 520.564532,126.064227 515.241591,115.008121 C513.785791,112.194979 512.105178,109.486464 510.213774,106.905175 C505.724207,100.709578 500.556198,94.9596913 494.791891,89.7469071 C491.090128,86.3661759 488.225984,84.0327805 486.850661,82.9137666 L486.023748,82.231119 C484.139959,80.2977532 482.541473,78.1414371 481.270136,75.8186195 C479.098447,71.9112058 476.290724,68.3364333 472.945459,65.2197021 C469.585449,69.8827743 468.248228,75.5481002 469.200833,81.0843522 C469.48141,84.4495281 470.544709,87.7186564 472.317772,90.6674249 C472.910174,91.614012 473.065258,92.7419009 472.747919,93.7957888 C472.430581,94.8496767 471.667654,95.7404495 470.63183,96.2664766 C467.630583,97.7902437 464.916396,99.305884 462.332862,100.901288 C455.407767,105.211297 449.069532,110.279533 443.455605,115.996091 C426.572759,132.944038 413.53944,157.078273 404.713472,187.736142 C404.514679,188.426834 404.122239,189.056566 403.57594,189.561493 C393.464389,198.635922 381.288144,205.499257 367.940041,209.648238 C362.10036,211.600569 356.234794,213.211821 350.564461,214.76716 C345.883722,216.048872 341.464289,217.259149 337.139138,218.632124 C329.35832,220.809513 322.006494,224.132325 315.365579,228.47314 C307.796255,233.667676 301.868682,240.646422 298.199929,248.682884 L298.15066,248.782071 C296.807911,251.421003 295.676626,254.147862 294.765966,256.940563 C292.645715,262.753571 291.619652,268.860773 291.732561,274.995618 C292.103731,282.330694 293.371454,289.603162 295.511452,296.673745 C299.376026,311.157456 302.737292,323.760228 276.996233,333.40287 C283.634969,356.259376 269.127832,362.084596 261.150188,365.290886 C259.366291,365.870742 257.688227,366.699008 256.17379,367.747158 C256.568301,369.596886 255.461122,371.439664 253.555992,372.104197 C248.625135,373.976971 244.102364,376.663329 240.207666,380.032581 L240.207666,380.032581 Z" id="Shape" fill="#6D6DAA"></path>
            <path d="M356.693621,293 C356.19266,293.001291 355.69483,292.931895 355.219883,292.794548 C354.037595,292.45793 353.059053,291.729992 352.499816,290.771091 C351.940579,289.81219 351.846528,288.700992 352.23838,287.682281 C355.601282,280.05566 356.469336,271.779369 354.747818,263.756533 C354.293465,261.558683 355.990202,259.458947 358.53941,259.064383 C361.088618,258.669818 363.526867,260.129545 363.988014,262.326343 C365.990658,271.676434 365.009208,281.319817 361.148487,290.226541 C360.512474,291.882173 358.71695,293 356.693621,293 Z" id="Path" fill="#6D6DAA"></path>
            <path d="M451.658404,261 C450.913645,261.000779 450.181455,260.818059 449.533613,260.46975 C445.537089,258.401226 440.89999,257.73281 436.435621,258.581737 C434.127817,259.153301 431.766217,257.851207 431.148871,255.66683 C430.531526,253.482453 431.890044,251.235301 434.190089,250.636287 C440.848372,249.227451 447.820237,250.176124 453.791828,253.303527 C455.509922,254.221913 456.358424,256.123469 455.857134,257.932034 C455.355844,259.740598 453.630927,261.000994 451.658577,261 L451.658404,261 Z" id="Path" fill="#6D6DAA"></path>
            <path d="M471.771859,158 C471.09905,157.999032 470.436141,157.841317 469.837951,157.539897 C464.075284,154.625955 454.832383,144.645121 461.089844,127.726544 C461.884645,125.580038 464.306824,124.470574 466.499932,125.248486 C468.69304,126.026399 469.826591,128.397108 469.03179,130.543614 C463.706236,144.939747 473.301716,149.988684 473.714086,150.194497 C475.446023,151.069701 476.340901,152.991419 475.879653,154.844972 C475.418405,156.698524 473.720887,158.002261 471.771733,158 L471.771859,158 Z" id="Path" fill="#6D6DAA"></path>
            <path d="M500.666358,123 C498.856704,123.000173 497.237352,121.971137 496.604679,120.418956 C494.973658,119.190437 493.082755,118.283978 491.050754,117.756519 C489.569466,117.336282 488.446401,116.22339 488.105868,114.838312 C487.765336,113.453234 488.259256,112.007145 489.401019,111.046401 C490.542782,110.085656 492.158307,109.756736 493.637225,110.183911 C495.77496,110.792355 502.893043,113.140887 504.728125,117.644132 C505.222819,118.862557 505.034997,120.225485 504.225249,121.293246 C503.415501,122.361008 502.086304,122.998472 500.666445,123 L500.666358,123 Z" id="Path" fill="#6D6DAA"></path>
            <path d="M479.526509,213 C478.491229,213.001548 477.487858,212.681172 476.689771,212.094226 C468.727299,206.560752 458.836448,203.688392 448.73962,203.977344 C446.275546,204.108841 444.157823,202.43836 444.008349,200.245271 C443.858876,198.052181 445.734197,196.166097 448.19806,196.031513 C460.547995,195.626314 472.658006,199.139521 482.36763,205.944367 C483.82647,207.011871 484.374707,208.779945 483.737532,210.362328 C483.100357,211.94471 481.415118,213.000308 479.526554,213 L479.526509,213 Z" id="Path" fill="#6D6DAA"></path>
            <path d="M212.551612,336 C211.306514,336 210.06272,335.925414 208.82787,335.777811 C207.239205,335.587576 205.888488,334.611432 205.303416,333.230736 C204.718344,331.85004 204.991767,330.28391 206.016865,329.144197 C214.887007,319.296908 217.792309,309.398064 221.154001,297.939996 C224.260304,285.276958 229.607438,273.176838 236.978904,262.129549 C249.937074,243.478434 270.096301,234.353249 296.732528,235.035619 C299.154811,235.098587 301.064019,236.966595 300.998356,239.209391 C300.864988,241.424107 298.888282,243.157693 296.492551,243.161015 C275.776151,241.392563 255.705314,250.390114 244.355697,266.533432 C237.466849,276.877089 232.487927,288.211364 229.623524,300.070515 C227.371949,309.495202 223.620832,318.557955 218.492976,326.962082 C231.755363,322.970806 242.178881,306.390692 252.31964,290.262919 C263.283095,272.82582 273.64018,256.356861 288.27595,256.356861 C290.699344,256.356861 292.663894,258.175793 292.663894,260.419559 C292.663894,262.663325 290.699344,264.482257 288.27595,264.482257 C278.685877,264.482257 269.138676,279.665778 259.90429,294.349424 C247.586628,313.94085 233.715721,336 212.551612,336 Z" id="Path" fill="#6D6DAA"></path>
            <path d="M364.378369,210 C362.44643,210.00236 360.741838,208.821261 360.185534,207.09481 C359.629229,205.368359 360.353099,203.505861 361.966059,202.513567 C367.911405,198.85611 371.617398,187.345816 375.541206,175.154237 C383.657657,149.950346 394.771308,115.431419 436.926795,109.052736 C438.468941,108.819298 440.0274,109.371327 441.015116,110.500877 C442.002832,111.630428 442.269748,113.165895 441.715318,114.528882 C441.160889,115.89187 439.869345,116.875309 438.327199,117.108746 C401.570555,122.670653 391.78259,153.073921 383.915956,177.504894 C379.332585,191.74037 375.372577,204.039534 366.782198,209.326503 C366.068621,209.765291 365.232942,210 364.378369,210 L364.378369,210 Z" id="Path" fill="#6D6DAA"></path>
            <path d="M513.889147,107 C512.102583,107.00082 510.496487,105.976992 509.837132,104.416989 C509.177778,102.856985 509.598766,101.076899 510.899241,99.9260171 C511.146105,99.7060838 530.918793,82.1911061 548.267522,67.4633151 C531.428851,73.3271361 515.120467,80.4561669 499.500685,88.7812017 C497.40714,89.8890168 494.754228,89.1967996 493.568569,87.2333506 C492.382911,85.2699015 493.111421,82.7753125 495.197575,81.6552568 C497.119308,80.6315494 542.474559,56.5785215 563.513511,56.0025837 C565.358064,55.9409558 567.04066,56.9867963 567.701732,58.6058306 C568.370676,60.218328 567.890463,62.0517954 566.501455,63.1885179 C548.214218,78.1282574 517.192077,105.608412 516.87927,105.884321 C516.070983,106.601615 515.001,107.000848 513.889147,107 L513.889147,107 Z" id="Path" fill="#6D6DAA"></path>
            <path d="M335.401939,219 C333.512507,219.001807 331.833057,217.879313 331.230148,216.211697 C330.62724,214.54408 331.235673,212.704195 332.74151,211.64138 C345.332506,202.759005 349.880211,186.402034 354.696335,169.085262 C359.467517,151.92845 364.876058,132.484036 379.096775,117.134864 C393.235876,101.857686 418.488708,85.0048227 458.408901,91.3876261 C458.743851,91.4396357 459.027308,91.487591 459.259183,91.5235881 C460.518227,91.4258889 461.760576,91.8434271 462.662465,92.6673893 C463.499939,93.4223887 463.980894,94.4563945 464,95.5417579 C464.017992,96.6271213 463.572613,97.6748572 462.761363,98.454294 C461.889168,99.27368 460.708399,99.7442282 459.469731,99.766041 C458.61233,99.7163109 457.759441,99.6134289 456.916731,99.4580788 C430.449306,94.2736964 403.071995,103.131676 385.757389,122.481817 C372.874362,136.387252 367.961672,154.056133 363.20997,171.140828 C358.000939,189.873366 353.07963,207.570095 338.053749,218.168131 C337.291066,218.707652 336.3597,219 335.401939,219 Z" id="Path" fill="#6D6DAA"></path>
            <path d="M312.37567,228 C310.66692,228 309.115093,227.07851 308.400919,225.643334 C307.686744,224.208159 307.940659,222.520022 309.051281,221.319447 C319.208249,210.342008 323.000682,194.304701 327.394131,175.73752 C334.203242,146.959769 341.918759,114.343591 376.248559,89.1432998 C415.572428,60.3022801 463.167645,76.414675 465.17297,77.1103811 C467.430032,77.9019363 468.568489,80.2329253 467.718166,82.3216691 C466.867844,84.410413 464.349507,85.4689812 462.088033,84.6882629 C461.645514,84.5340798 417.056074,69.5483264 381.693685,95.483912 C349.807482,118.89351 342.444641,150.011452 335.949851,177.468953 C331.496682,196.285199 327.291502,214.057824 315.704393,226.584866 C314.872073,227.48395 313.655704,228 312.37567,228 Z" id="Path" fill="#6D6DAA"></path>
            <path d="M426.076952,4.26918289 C427.871834,9.72430554 432.487179,13.9935509 438.384583,15.6538781 C444.538472,17.5512927 444.538472,19.4487073 438.384583,21.3461219 C432.487179,23.0064491 427.871834,27.2756945 426.076952,32.7308171 C424.025696,38.423061 421.974394,38.423061 419.923048,32.7308171 C418.128208,27.275671 413.512846,23.00641 407.615417,21.3461219 C401.461528,19.4487073 401.461528,17.5512927 407.615417,15.6538781 C413.512846,13.99359 418.128208,9.72432901 419.923048,4.26918289 C421.974454,-1.42306096 424.025755,-1.42306096 426.076952,4.26918289 Z" id="Path" fill="#FF99B1"></path>
            <path d="M614.192331,104.807653 C615.762855,109.673041 619.80129,113.480749 624.961525,114.961572 C630.346158,116.653871 630.346158,118.346156 624.961525,120.038428 C619.80129,121.519251 615.762855,125.326959 614.192331,130.192347 C612.397473,135.269218 610.602585,135.269218 608.807669,130.192347 C607.237172,125.326944 603.198726,121.519225 598.038475,120.038428 C592.653842,118.346129 592.653842,116.653844 598.038475,114.961572 C603.198726,113.480775 607.237172,109.673056 608.807669,104.807653 C610.602644,99.7307825 612.397531,99.7307825 614.192331,104.807653 Z" id="Path" fill="#96D7FF"></path>
            <path d="M270.192331,472.807634 C271.762855,477.673026 275.80129,481.480736 280.961525,482.96156 C286.346158,484.65386 286.346158,486.346147 280.961525,488.038419 C275.80129,489.519243 271.762855,493.326954 270.192331,498.192345 C268.397473,503.269218 266.602585,503.269218 264.807669,498.192345 C263.237172,493.326938 259.198726,489.519217 254.038475,488.038419 C248.653842,486.346119 248.653842,484.653833 254.038475,482.96156 C259.198726,481.480762 263.237172,477.673041 264.807669,472.807634 C266.602644,467.730789 268.397531,467.730789 270.192331,472.807634 Z" id="Path" fill="#C9C1F5"></path>
            <path d="M163.192331,288.807597 C164.762855,293.672967 168.80129,297.480661 173.961525,298.961478 C179.346158,300.653771 179.346158,302.34605 173.961525,304.038316 C168.801249,305.519165 164.762805,309.326928 163.192331,314.192362 C161.397473,319.269213 159.602585,319.269213 157.807669,314.192362 C156.237172,309.326976 152.198726,305.519272 147.038475,304.038481 C141.653842,302.346188 141.653842,300.653909 147.038475,298.961643 C152.198717,297.480784 156.237116,293.673017 157.807537,288.807597 C159.6026,283.730801 161.397531,283.730801 163.192331,288.807597 Z" id="Path" fill="#FFFFFF"></path>
            <path d="M376.192331,318.807653 C377.762855,323.673041 381.80129,327.480749 386.961525,328.961572 C392.346158,330.653871 392.346158,332.346156 386.961525,334.038428 C381.80129,335.519251 377.762855,339.326959 376.192331,344.192347 C374.397473,349.269218 372.602585,349.269218 370.807669,344.192347 C369.237172,339.326944 365.198726,335.519225 360.038475,334.038428 C354.653842,332.346129 354.653842,330.653844 360.038475,328.961572 C365.198726,327.480775 369.237172,323.673056 370.807669,318.807653 C372.602644,313.730782 374.397531,313.730782 376.192331,318.807653 Z" id="Path" fill="#FFFFFF"></path>
        </g>
        <g id="⌘R" fill-rule="nonzero">
            <use fill="black" fill-opacity="1" filter="url(#filter-2)" xlink:href="#path-1"></use>
            <path stroke="#FFFFFF" stroke-width="4" d="M341.960938,157.242188 C351.82349,157.242188 360.237494,160.725473 367.203276,167.691255 C374.169058,174.657037 377.652344,183.071041 377.652344,192.933594 C377.652344,202.796147 374.169058,211.21015 367.203276,218.175932 C360.368924,225.010284 352.140484,228.492315 342.517648,228.62128 L341.960938,228.625 L327.066406,228.625 L327.066406,241.519531 L341.967916,241.519531 L342.527889,241.523439 C352.146761,241.656418 360.373704,245.154036 367.206764,252.020923 C374.170785,259.01942 377.652344,267.448767 377.652344,277.308594 C377.652344,287.171147 374.169058,295.58515 367.203276,302.550932 C360.237494,309.516714 351.82349,313 341.960938,313 C332.098385,313 323.684381,309.516714 316.718599,302.550932 C309.884247,295.71658 306.402216,287.488141 306.273251,277.865304 L306.269531,277.308594 L306.269531,262.414062 L293.375,262.414062 L293.375,277.315572 L293.371092,277.875546 C293.238113,287.494417 289.740495,295.72136 282.873608,302.55442 C275.875112,309.518441 267.445764,313 257.585938,313 C247.723385,313 239.309381,309.516714 232.343599,302.550932 C225.377817,295.58515 221.894531,287.171147 221.894531,277.308594 C221.894531,267.448767 225.37609,259.01942 232.340111,252.020923 C239.175408,245.151789 247.405211,241.652859 257.029163,241.523269 L257.585938,241.519531 L272.480469,241.519531 L272.480469,228.625 L257.578993,228.625 L257.019088,228.621112 C247.401307,228.488795 239.175726,225.00806 232.343599,218.175932 C225.377817,211.21015 221.894531,202.796147 221.894531,192.933594 C221.894531,183.071041 225.377817,174.657037 232.343599,167.691255 C239.309381,160.725473 247.723385,157.242188 257.585938,157.242188 C267.445764,157.242188 275.875112,160.723747 282.873608,167.687768 C289.742742,174.523064 293.241672,182.752868 293.371262,192.376819 L293.375,192.933594 L293.375,207.828125 L306.269531,207.828125 L306.269531,192.926649 L306.273419,192.366744 C306.405736,182.748963 309.886472,174.523382 316.718599,167.691255 C323.684381,160.725473 332.098385,157.242188 341.960938,157.242188 Z M341.960938,262.414062 L327.066968,262.414062 L327.071263,277.716418 L327.085818,278.117485 C327.26732,281.842388 328.727206,285.052501 331.454105,287.752665 C334.382239,290.652092 337.883518,292.105469 341.960938,292.105469 C346.093524,292.105469 349.610522,290.658707 352.509615,287.759615 C355.408707,284.860522 356.855469,281.343524 356.855469,277.210938 C356.855469,273.14115 355.390391,269.660834 352.46777,266.766866 C349.539636,263.86744 346.038357,262.414062 341.960938,262.414062 L341.960938,262.414062 Z M272.480469,262.414619 L257.177875,262.418872 L256.776584,262.433281 C253.049571,262.612958 249.836867,264.057966 247.134917,266.759917 C244.235824,269.659009 242.789062,273.176007 242.789062,277.308594 C242.789063,281.380602 244.239023,284.863721 247.134917,287.759615 C250.03081,290.655508 253.513929,292.105469 257.585938,292.105469 C261.718524,292.105469 265.235522,290.658707 268.134615,287.759615 C271.030508,284.863721 272.480469,281.380602 272.480469,277.308594 L272.480469,277.308594 L272.480469,262.414619 Z M306.269531,228.625 L293.375,228.625 L293.375,241.519531 L306.269531,241.519531 L306.269531,228.625 Z M257.585938,178.039062 C253.51615,178.039062 250.035834,179.50414 247.141866,182.426761 C244.24244,185.354895 242.789062,188.856174 242.789062,192.933594 C242.789062,197.06618 244.235824,200.583179 247.134917,203.482271 C250.03081,206.378164 253.513929,207.828125 257.585938,207.828125 L257.585938,207.828125 L272.479877,207.828125 L272.475344,192.512392 L272.460624,192.110981 C272.278037,188.382405 270.83003,185.155882 268.127665,182.426761 C265.230483,179.500894 261.716267,178.039063 257.585938,178.039062 Z M341.960938,178.039062 C337.830608,178.039063 334.316392,179.500894 331.41921,182.426761 C328.519783,185.354895 327.066406,188.856174 327.066406,192.933594 L327.066406,192.933594 L327.066406,207.828125 L341.960938,207.828125 L342.371917,207.823252 C346.324862,207.729043 349.702056,206.268765 352.502665,203.440426 C355.402092,200.512293 356.855469,197.011013 356.855469,192.933594 C356.855469,188.858404 355.386974,185.359932 352.460786,182.433745 C349.534599,179.507557 346.036127,178.039062 341.960938,178.039062 Z M454.65625,168.082031 C470.036702,168.082031 482.513142,172.560174 491.170453,180.479945 C499.89308,188.459468 504.800781,199.959371 504.800781,214.125 C504.800781,223.914678 502.18197,232.890655 497.346914,240.196566 C493.087591,246.632528 487.108155,251.781213 479.652569,255.05196 L479.076155,255.299842 L510.359373,313 L476.980504,313 L449.343786,260.167969 L424.625,260.167969 L424.625,313 L395.429688,313 L395.429688,168.082031 L454.65625,168.082031 Z M451.140625,192.980469 L424.625,192.980469 L424.625,236.148437 L451.726562,236.148438 L452.264647,236.145042 C459.402569,236.054517 465.076475,234.154494 468.960756,230.526154 C472.898582,226.847797 474.921875,221.431548 474.921875,214.613281 C474.921875,207.928804 472.747604,202.501464 468.678261,198.771233 C464.553036,194.989777 458.54945,192.980469 451.140625,192.980469 L451.140625,192.980469 Z" fill="#000000" fill-rule="evenodd"></path>
        </g>
    </g>
</svg>