<?xml version="1.0" encoding="UTF-8"?>
<svg width="800px" height="600px" viewBox="0 0 800 600" version="1.1" xmlns="http://www.w3.org/2000/svg" xmlns:xlink="http://www.w3.org/1999/xlink">
    <title>Artboard</title>
    <g id="Artboard" stroke="none" stroke-width="1" fill="none" fill-rule="evenodd">
        <g id="balloons" transform="translate(24.000000, 47.000000)">
            <g id="balloon-3" transform="translate(539.000000, 73.000000)">
                <path d="M59.1387722,259.623338 L76.9409821,263.886552 C78.3765637,264.230339 79.8872458,263.780109 80.895576,262.70796 C81.9039063,261.635811 82.2539929,260.107502 81.8120164,258.707224 L76.825477,242.908495 L68.856021,241 L57.1760628,252.807416 C56.1407904,253.85394 55.7519903,255.373016 56.1582854,256.783961 C56.5645804,258.194906 57.703153,259.279573 59.1387722,259.623338 L59.1387722,259.623338 Z" id="Path" fill="#94D5FF" fill-rule="nonzero"></path>
                <path d="M77.4524112,268 C76.7818289,267.999414 76.1135588,267.921613 75.4609271,267.768091 L57.539645,263.461516 C54.5486418,262.74478 52.1761887,260.480296 51.3297,257.534182 C50.4832113,254.588068 51.2936534,251.416139 53.4510487,249.231592 L65.2060443,237.315906 C66.2907166,236.209529 67.8819295,235.75712 69.3894542,236.126492 L77.4114489,238.054458 C78.9181314,238.414425 80.1243631,239.536098 80.5883685,241.008669 L85.6080631,256.947549 C86.4225406,259.532388 85.9520946,262.349114 84.3413137,264.532024 C82.7305328,266.714934 80.1721287,268.002867 77.4524112,268 L77.4524112,268 Z M60.104425,255.032597 L77.0322825,259.09888 L72.9134942,246.019721 L69.7495077,245.255402 L60.104425,255.032597 Z" id="Shape" fill="#6D6DA8" fill-rule="nonzero"></path>
                <path d="M8.63353233,87.6477012 C-7.28679088,153.705426 18.8114349,233.526515 71.6667096,246.260636 C124.521984,258.994758 184.119127,199.819549 200.03945,133.761825 C215.959773,67.7041 182.174473,19.7784695 129.319286,7.04439163 C76.4640988,-5.68968625 24.5538555,21.5899765 8.63353233,87.6477012 Z" id="Path" fill="#94D5FF" fill-rule="nonzero"></path>
                <path d="M164.879978,23 C180.691702,45.4451098 186.755437,75.9732888 178.09909,111.879859 C162.179154,177.909668 102.584391,237.061406 49.7312899,224.332329 C42.3287834,222.510514 35.3091841,219.388183 29,215.111014 C38.9154874,230.378138 54.1041887,241.465776 71.6720882,246.261318 C124.52497,258.990395 184.119733,199.838877 200.039669,133.808848 C211.983055,84.2705165 195.95065,44.9343397 164.879978,23 Z" id="Path" fill="#1C64B8" fill-rule="nonzero" opacity="0.15"></path>
                <path d="M87.2129452,251.999976 C81.7929869,252.004459 76.3915906,251.369586 71.1217657,250.108616 C44.7363372,243.777171 23.2706703,221.824119 10.6795135,188.290466 C-1.15951273,155.746702 -3.20538948,120.472497 4.79249874,86.7888663 C12.6440186,54.35031 29.40646,29.3553459 53.2655315,14.5086882 C76.5454021,0.467979262 104.54455,-3.59331053 130.882039,3.25037671 C190.730332,17.6039369 220.478483,70.4649705 204.906287,134.787081 C190.470709,194.410795 139.314736,251.999976 87.2129452,251.999976 Z M104.865249,8.86226375 C88.294081,8.72994683 72.0220303,13.2568749 57.9212772,21.9222023 C36.0545574,35.5307606 20.6346398,58.6685317 13.3321466,88.8379384 L13.3321466,88.8379384 C-1.31329213,149.332782 21.6385679,229.244628 73.1806155,241.604245 C124.696881,253.989612 181.718478,193.232459 196.366332,132.73779 C212.929367,64.3234811 174.377377,22.6759478 128.823189,11.7506379 C120.979728,9.85047653 112.937886,8.88100025 104.865469,8.86243862 L104.865249,8.86226375 Z" id="Shape" fill="#6D6DA8" fill-rule="nonzero"></path>
                <path d="M88.446729,22.9103084 C71.4403649,26.3180191 59.2448112,38.2988178 61.2072296,49.6701464 C63.169648,61.041475 78.5469069,67.4972792 95.553271,64.089787 C112.559635,60.6822949 124.755189,48.7012777 122.79277,37.3299491 C120.830352,25.9586205 105.453093,19.5025541 88.446729,22.9103084 Z" id="Path" fill="#FFFFFF" opacity="0.75"></path>
                <path d="M142.196574,44.7796149 C147.393034,45.703042 152.18916,43.6400764 152.908995,40.1718589 C153.628829,36.7036414 149.999845,33.143529 144.803427,32.2203132 C139.607009,31.2970973 134.81084,33.3598516 134.091006,36.8280691 C133.371172,40.2962866 137.000113,43.8561878 142.196574,44.7796149 Z" id="Path" fill="#FFFFFF" opacity="0.75"></path>
                <path d="M64.5003975,266 C63.2980926,265.99466 62.1477985,265.505876 61.305552,264.642441 C60.8708381,264.240303 60.532095,263.744465 60.3146549,263.192009 C60.0986488,262.644955 59.99189,262.060426 60.0004801,261.471831 C59.9957018,260.869186 60.1022347,260.270893 60.3146549,259.707413 C60.5480983,259.1637 60.8846809,258.671025 61.305552,258.256981 C63.0919984,256.581006 65.8623139,256.581006 67.6487603,258.256981 C68.0827857,258.65972 68.4214132,259.155388 68.6396574,259.707413 C68.8663041,260.26833 68.988452,260.866428 69,261.471831 C68.9927607,262.063413 68.8703377,262.647827 68.6396574,263.192009 C68.4214132,263.744034 68.0827857,264.239702 67.6487603,264.642441 C66.8194116,265.496738 65.6871084,265.984981 64.5003975,266 L64.5003975,266 Z" id="Path" fill="#6D6DA8" fill-rule="nonzero"></path>
                <path d="M16.0290208,404.13164 C15.895624,402.971819 16.2256256,401.80618 16.9463567,400.891407 C17.6670879,399.976633 18.7194445,399.387741 19.8716894,399.25441 L19.8716894,399.25441 C22.2675467,398.988363 24.4295181,400.713774 24.7187415,403.122711 L24.7187415,403.122711 C24.9654209,405.528995 23.2597882,407.693855 20.8760729,407.999992 L20.3514771,407.999992 C18.1433026,408.004155 16.2834959,406.339737 16.0290208,404.13164 L16.0290208,404.13164 Z M20.0465547,390.637606 C17.6612476,390.267287 16.0218318,388.02588 16.3787513,385.622988 L16.3787513,385.622988 C16.5440529,384.47337 17.1576418,383.437461 18.0837336,382.744506 C19.0098255,382.05155 20.1720585,381.758684 21.3132361,381.930719 L21.3132361,381.930719 C22.4656294,382.099401 23.504235,382.72208 24.2005088,383.661736 C24.8967827,384.601392 25.1936724,385.78103 25.0258476,386.941072 L25.0258476,386.941072 C24.6746255,389.077652 22.8523682,390.65338 20.7012513,390.680602 L20.7012513,390.680602 C20.4836305,390.680602 20.2640008,390.637606 20.0464673,390.637606 L20.0465547,390.637606 Z M23.6269254,373.623026 C21.3851421,372.69765 20.3108688,370.11984 21.2258034,367.861329 L21.2258034,367.861329 C22.1450425,365.630542 24.6719769,364.554549 26.9023738,365.44419 L26.9023738,365.44419 C27.98529,365.879662 28.8494159,366.73424 29.3011647,367.816474 C29.7529136,368.898709 29.7545242,370.118138 29.3056357,371.201579 L29.3483039,371.201579 C28.6674526,372.854534 27.0635225,373.930953 25.2859618,373.927872 L25.2859618,373.927872 C24.7187317,373.933178 24.155683,373.829737 23.6268818,373.62307 L23.6269254,373.623026 Z M30.9647158,357.840667 C29.9962365,357.204396 29.3215121,356.203892 29.0914745,355.062961 C28.8614368,353.922031 29.0952829,352.735886 29.7407026,351.76986 L29.7407026,351.76986 C30.3720508,350.794592 31.3659273,350.115325 32.4993272,349.884471 C33.632727,349.653618 34.8107441,349.890509 35.7690561,350.541991 L35.7690561,350.541991 C37.7784376,351.868214 38.3446206,354.5802 37.0355627,356.60849 L37.0355627,356.60849 C36.2153614,357.841596 34.8397904,358.583463 33.3656194,358.587747 L33.3656194,358.587747 C32.5075586,358.596328 31.6682216,358.335165 30.9646284,357.840667 L30.9647158,357.840667 Z M41.0959832,343.771321 C40.234541,342.990151 39.721394,341.893032 39.6720581,340.726938 C39.6227222,339.560844 40.0413435,338.423775 40.8336853,337.571699 L40.8336853,337.571699 C41.6087855,336.707147 42.6937986,336.188652 43.8492375,336.130658 C45.0046763,336.072664 46.1355421,336.47994 46.9922269,337.262589 L46.9922269,337.262589 C47.8541645,338.043462 48.3676685,339.140669 48.4170117,340.306935 C48.4663549,341.473201 48.0473851,342.610388 47.2545248,343.462211 L47.2545248,343.462211 C46.4401568,344.399336 45.2584882,344.929775 44.0217447,344.913373 L44.0217447,344.913373 C42.9402527,344.90733 41.8987947,344.500826 41.0959395,343.771365 L41.0959832,343.771321 Z M52.2764422,330.491963 C51.3077572,329.856871 50.6328577,328.856923 50.4031252,327.716411 C50.1733928,326.575898 50.4080568,325.390285 51.0544816,324.425508 L51.0544816,324.425508 C52.3719173,322.402723 55.0659329,321.832764 57.0807825,323.150553 L57.0807825,323.150553 C59.0879166,324.500193 59.6512551,327.219576 58.3472892,329.264314 L58.3472892,329.264314 C57.5325356,330.502907 56.1530279,331.245277 54.6773458,331.239299 L54.6773458,331.239299 C53.8220618,331.229303 52.9880241,330.969723 52.2763985,330.492007 L52.2764422,330.491963 Z M61.1431682,315.546811 C60.0708415,315.109656 59.2150805,314.26138 58.7643259,313.188775 C58.3135713,312.116171 58.3047866,310.907195 58.7399062,309.828067 L58.7399062,309.828067 C59.1711653,308.746709 60.0133031,307.883336 61.0794443,307.429533 C62.1455855,306.975731 63.3475506,306.969034 64.4186165,307.410928 L64.4186165,307.410928 C65.4925638,307.844729 66.3500965,308.692092 66.8008989,309.764958 C67.2517014,310.837823 67.2584829,312.047444 66.8197385,313.125364 L66.8197385,313.125364 C66.1483424,314.786116 64.5384696,315.866523 62.7573965,315.851657 L62.7573965,315.851657 C62.2047257,315.856815 61.6563732,315.753276 61.1431245,315.546855 L61.1431682,315.546811 Z M66.6875414,299.103279 C64.305625,298.730442 62.6681516,296.493594 63.019738,294.092926 L63.019738,294.092926 C63.1843018,292.942657 63.7975289,291.905862 64.7236647,291.212064 C65.6498005,290.518267 66.8124479,290.224698 67.9542228,290.396348 L67.9542228,290.396348 C70.3405883,290.738506 72.0014568,292.960715 71.6668343,295.363748 L71.6668343,295.363748 C71.3484946,297.524416 69.5141017,299.129617 67.3443343,299.146187 L67.3443343,299.146187 C67.1246609,299.146187 66.9071275,299.103279 66.6874977,299.103279 L66.6875414,299.103279 Z M63.2819923,277.868334 L63.2819923,277.911287 C63.1485954,276.751466 63.4785971,275.585828 64.1993282,274.671054 C64.9200593,273.756281 65.972416,273.167389 67.1246609,273.034057 L67.1246609,273.034057 C68.2718276,272.889026 69.4290483,273.210936 70.3394765,273.928338 C71.2499047,274.645741 71.8382228,275.699287 71.973853,276.855141 L71.973853,276.855141 L71.973853,276.902358 L71.973853,276.902358 C72.2346542,279.305063 70.5150661,281.46721 68.1290444,281.736679 L68.1290444,281.736679 C67.9572546,281.772184 67.7818246,281.786607 67.6065885,281.779632 L67.6065885,281.779632 C65.3899139,281.764387 63.5335255,280.08543 63.2819486,277.868334 L63.2819923,277.868334 Z" id="Shape" fill="#6D6DA8" fill-rule="nonzero"></path>
            </g>
            <g id="balloon-2" transform="translate(0.000000, 83.000000)">
                <path d="M283.500371,423.99661 C282.296565,424.045191 281.130886,423.569757 280.305378,422.693499 C279.046176,421.39415 278.659239,419.481927 279.314436,417.796319 C279.550575,417.258263 279.88684,416.769851 280.305378,416.357011 C280.519172,416.150086 280.744372,415.955245 280.979927,415.773397 C281.215734,415.605542 281.472872,415.469784 281.744565,415.369703 C282.01797,415.245293 282.305831,415.155375 282.601498,415.102026 C283.178033,414.965991 283.778383,414.965991 284.354919,415.102026 C284.652999,415.142066 284.942055,415.23259 285.209647,415.369703 C285.486322,415.459907 285.745629,415.596416 285.97649,415.773397 C286.2349,415.943502 286.475605,416.139015 286.695003,416.357011 C287.510342,417.204876 287.976226,418.328119 288,419.503349 C287.992536,420.69491 287.525095,421.83768 286.695003,422.693724 C286.257774,423.103491 285.755938,423.438547 285.209647,423.685436 C284.66595,423.900481 284.085086,424.006227 283.500371,423.99661 L283.500371,423.99661 Z" id="Path" fill="#6D6DA8" fill-rule="nonzero"></path>
                <path d="M149.861228,259.623338 L132.059018,263.886552 C130.623436,264.230339 129.112754,263.780109 128.104424,262.70796 C127.096094,261.635811 126.746007,260.107502 127.187984,258.707224 L132.174523,242.908495 L140.143979,241 L151.823937,252.807416 C152.85921,253.85394 153.24801,255.373016 152.841715,256.783961 C152.43542,258.194906 151.296847,259.279573 149.861228,259.623338 L149.861228,259.623338 Z" id="Path" fill="#C7BFF3" fill-rule="nonzero"></path>
                <path d="M130.546915,267.999989 C127.827944,268.003068 125.270105,266.715834 123.659362,264.533818 C122.04862,262.351803 121.577634,259.535994 122.391127,256.951626 L127.410906,241.008081 C127.874932,239.535502 129.081181,238.41383 130.587878,238.053865 L138.610006,236.125865 C140.117533,235.75771 141.708167,236.209954 142.793486,237.3153 L154.550796,249.231186 C156.707231,251.416461 157.516767,254.588354 156.669906,257.534204 C155.823046,260.480055 153.450745,262.744324 150.459968,263.46135 L132.540551,267.763908 C131.887724,267.920903 131.218497,267.999989 130.546915,267.999989 Z M135.085908,246.019261 L130.967051,259.09864 L148.060984,254.993639 L138.273783,245.250621 L135.085908,246.019261 Z" id="Shape" fill="#6D6DA8" fill-rule="nonzero"></path>
                <path d="M200.366468,87.647728 C216.286791,153.705442 190.188565,233.526517 137.33329,246.260637 C84.4780157,258.994756 24.8808734,199.819557 8.96055023,133.7618 C-6.95977298,67.7040424 26.8255273,19.7784639 79.6807142,7.04438813 C132.535901,-5.68968762 184.446144,21.5900145 200.366468,87.647728 Z" id="Path" fill="#C7BFF3" fill-rule="nonzero"></path>
                <path d="M139.264135,12 C155.51066,25.8941598 168.124249,46.3756486 174.658705,73.3869236 C190.560232,139.118408 164.493066,218.544705 111.70012,231.215886 C96.3122685,234.565315 80.2442629,232.750516 66,226.054289 C87.8123473,243.251871 112.782322,251.944136 136.413329,246.272207 C189.206275,233.601026 215.273441,154.174729 199.371914,88.443245 C189.806636,48.9036416 167.225439,23.3478737 139.264135,12 Z" id="Path" fill="#554DAB" fill-rule="nonzero" opacity="0.200000003"></path>
                <path d="M121.946813,251.999976 C100.071817,251.999976 77.1027014,241.855472 55.8026877,222.493076 C30.3612892,198.888179 12.3916711,168.412029 4.09525525,134.798195 C-11.4828343,70.4729001 18.2766636,17.6092488 78.1475211,3.25497787 C104.494591,-3.59599813 132.507088,0.465891797 155.793406,14.5138468 C179.661508,29.3612835 196.430337,54.3574416 204.284785,86.7976043 L204.284785,86.7976043 C220.212583,152.566153 195.218111,236.386141 137.930413,250.125616 C132.695458,251.375309 127.330316,252.004459 121.946813,251.999976 Z M104.173895,8.86731769 C96.0984221,8.88588024 88.0535366,9.85540453 80.2071062,11.75566 C34.6356767,22.6816858 -3.93086107,64.3311504 12.6384428,132.748803 C27.2920171,193.250709 84.3178402,254.010914 135.870784,241.62065 C187.432296,229.260246 210.392887,149.344443 195.741729,88.8469965 L195.741729,88.8469965 C188.43634,58.6760958 173.010718,35.5371789 151.13559,21.9279467 C137.028985,13.2633915 120.751149,8.73632368 104.173895,8.86731769 Z" id="Shape" fill="#6D6DA8" fill-rule="nonzero"></path>
                <path d="M71.4089652,83.911465 C62.7072345,99.5448432 46.9633828,107.780729 36.2440845,102.306745 C25.5247863,96.8327603 23.8892115,79.7219133 32.5909423,64.088535 C41.292673,48.4551568 57.0365247,40.2192709 67.7558229,45.6932553 C78.4751212,51.1672397 80.1109173,68.2780867 71.4089652,83.911465 Z" id="Path" fill="#FFFFFF" opacity="0.75"></path>
                <path d="M89.0057471,39.3772324 C83.5411922,42.0444885 77.5416936,41.3515068 75.6055593,37.8294782 C73.6694249,34.3074496 76.5296979,29.2900236 81.9942529,26.6227676 C87.4588078,23.9555115 93.4583064,24.6484932 95.3944407,28.1705218 C97.3305751,31.6925504 94.4703021,36.7099764 89.0057471,39.3772324 Z" id="Path" fill="#FFFFFF" opacity="0.75"></path>
                <path d="M145.543863,266 C144.341575,265.99467 143.191296,265.506785 142.349061,264.644939 C141.914986,264.243445 141.576973,263.7485 141.360338,263.197176 C141.12863,262.654322 141.006165,262.070774 141,261.480162 C141.010469,260.875753 141.132655,260.278559 141.360338,259.71899 C141.576973,259.167665 141.914986,258.672721 142.349061,258.271227 C144.127622,256.576258 146.915828,256.576258 148.694388,258.271227 C149.113904,258.685187 149.449657,259.176822 149.683112,259.71899 C149.897258,260.281017 150.004572,260.8784 149.999487,261.480162 C150.008406,262.06791 149.900862,262.651569 149.683112,263.197176 C149.466477,263.7485 149.128464,264.243445 148.694388,264.644939 C147.864441,265.498098 146.731299,265.98547 145.543863,266 Z" id="Path" fill="#6D6DA8" fill-rule="nonzero"></path>
                <path d="M169.08395,408.905033 C167.848468,406.841239 168.480457,404.147504 170.49818,402.877146 L170.49818,402.877146 C171.462621,402.268569 172.625722,402.078537 173.72838,402.349384 C174.831037,402.620231 175.781657,403.329459 176.368467,404.319072 L176.368467,404.319072 L176.368467,404.361883 L176.368467,404.361883 C176.962313,405.346016 177.146957,406.530887 176.881529,407.654222 C176.616101,408.777556 175.922493,409.746701 174.954238,410.347134 L174.954238,410.347134 C174.286136,410.773 173.514217,410.999137 172.726295,410.999818 L172.726295,410.999818 C171.232652,411.013838 169.844762,410.215634 169.08395,408.905033 L169.08395,408.905033 Z M161.629981,392.480802 C161.27513,391.379968 161.364708,390.180388 161.878929,389.147018 C162.39315,388.113648 163.289704,387.331514 164.370565,386.973369 L164.370565,386.973369 C166.606029,386.224455 169.015766,387.452441 169.770114,389.724945 L169.770114,389.724945 C170.506557,392.015863 169.305589,394.485736 167.071389,395.275058 L167.071389,395.275058 C166.62597,395.411795 166.16413,395.485005 165.699019,395.492605 L165.699019,395.492605 C163.848706,395.484863 162.210325,394.272173 161.629981,392.480802 Z M157.901947,374.917552 C157.648502,372.531618 159.333078,370.385129 161.671798,370.114 L161.671798,370.114 C162.802649,369.980045 163.939354,370.309831 164.831624,371.030743 C165.723893,371.751656 166.298563,372.804582 166.429099,373.95768 L166.429099,373.95768 C166.680842,376.367431 164.97715,378.532322 162.615289,378.803911 L162.144593,378.803911 C159.969969,378.788747 158.148794,377.120528 157.901947,374.917595 L157.901947,374.917552 Z M161.586022,361.726996 C160.455194,361.640026 159.404589,361.098523 158.665403,360.22165 C157.926217,359.344778 157.55902,358.20439 157.644619,357.051439 L157.644619,357.051439 C157.722006,355.895726 158.250563,354.819878 159.112027,354.064612 C159.973491,353.309346 161.095955,352.937707 162.228269,353.032848 L162.228269,353.032848 C164.592491,353.207248 166.373851,355.297109 166.213631,357.708405 L166.213631,357.708405 C166.015386,359.973936 164.159932,361.714233 161.929125,361.726996 L161.586022,361.726996 L161.586022,361.726996 Z M163.556895,344.731158 C162.448686,344.470683 161.48743,343.771851 160.884748,342.788512 C160.282066,341.805172 160.087368,340.617941 160.343515,339.488188 L160.343515,339.488188 C160.604108,338.363908 161.292752,337.391554 162.257488,336.78569 C163.222225,336.179825 164.383758,335.99025 165.485779,336.258795 L165.485779,336.258795 C166.593623,336.518364 167.5548,337.216357 168.157542,338.198991 C168.760283,339.181625 168.955132,340.368271 168.699159,341.497484 L168.699159,341.497484 C168.243038,343.464146 166.524357,344.855799 164.542288,344.86339 L164.542288,344.86339 C164.209525,344.86339 163.878194,344.818958 163.556766,344.731158 L163.556895,344.731158 Z M166.770274,327.957149 C165.639195,327.870834 164.588192,327.329518 163.848874,326.452489 C163.109555,325.57546 162.742599,324.434698 162.828871,323.281592 L162.828871,323.281592 C162.913841,322.128539 163.444804,321.057195 164.304846,320.303464 C165.164887,319.549734 166.283483,319.175424 167.414321,319.262957 L167.414321,319.262957 C168.552189,319.340309 169.612719,319.877498 170.360557,320.755311 C171.108395,321.633123 171.481684,322.778952 171.397584,323.938514 L171.397584,323.938514 C171.233058,326.227439 169.364058,327.999059 167.113077,327.999785 L167.113077,327.999785 C166.997187,328.006561 166.881043,327.992121 166.770146,327.957149 L166.770274,327.957149 Z M162.61546,307.032448 C162.357604,304.635952 164.038122,302.473718 166.385311,302.181979 L166.385311,302.181979 C167.51638,302.060565 168.648424,302.402274 169.532372,303.131924 C170.416319,303.861574 170.979749,304.919386 171.098696,306.07262 L171.098696,306.07262 C171.228421,307.22026 170.903166,308.373189 170.195218,309.275165 C169.487271,310.17714 168.455288,310.75343 167.328631,310.875953 L167.328631,310.875953 C167.157251,310.875953 166.985528,310.918632 166.855836,310.918632 L166.855836,310.918632 C164.676033,310.918189 162.847263,309.242148 162.615332,307.032273 L162.61546,307.032448 Z M159.2307,291.260945 L159.2307,291.218266 C158.505763,288.940286 159.707088,286.490564 161.929425,285.71507 L161.929425,285.71507 C164.175663,284.965812 166.596456,286.189962 167.370748,288.466646 L167.370748,288.466646 C168.1062,290.757491 166.905566,293.226677 164.672023,294.016759 L164.672023,294.016759 C164.225458,294.148286 163.764304,294.221387 163.299653,294.234306 L163.299653,294.234306 C161.461426,294.225118 159.829567,293.032665 159.2304,291.260771 L159.2307,291.260945 Z M152.588474,276.671143 L152.63239,276.671143 C151.395803,274.607527 152.027991,271.912946 154.046619,270.643256 L154.046619,270.643256 C155.011967,270.038242 156.173932,269.850245 157.275556,270.120838 C158.377181,270.391431 159.327697,271.098321 159.916907,272.085182 L159.916907,272.085182 C161.156897,274.148209 160.524022,276.845376 158.502549,278.11285 L158.502549,278.11285 C157.835496,278.541608 157.063147,278.769354 156.274605,278.76984 L156.274605,278.76984 C154.770536,278.774894 153.372945,277.979168 152.588174,276.670924 L152.588474,276.671143 Z" id="Shape" fill="#6D6DA8" fill-rule="nonzero"></path>
            </g>
            <path d="M313.499984,506.996597 C312.314674,507.018126 311.173898,506.54419 310.3513,505.688474 C309.490212,504.846059 309.003248,503.691931 309,502.485829 C309.005485,501.293094 309.493036,500.153522 310.3513,499.327389 C311.637879,498.037371 313.570831,497.646722 315.255562,498.336238 C315.803367,498.554263 316.295235,498.893006 316.694747,499.327389 C317.539413,500.158992 318.010479,501.299098 317.999743,502.485829 C318.012617,503.685952 317.54214,504.84057 316.694747,505.688474 C315.869241,506.568102 314.703563,507.045365 313.499759,506.996597 L313.499984,506.996597 Z" id="Path" fill="#6D6DA8" fill-rule="nonzero"></path>
            <circle id="Oval" fill="#FF97AF" fill-rule="nonzero" cx="170.5" cy="348.5" r="7.5"></circle>
            <circle id="Oval" fill="#C7BFF3" fill-rule="nonzero" cx="465" cy="17" r="9"></circle>
            <circle id="Oval" fill="#95BFFF" fill-rule="nonzero" cx="412" cy="332" r="9"></circle>
            <circle id="Oval" fill="#C7BFF3" fill-rule="nonzero" cx="605" cy="284" r="9"></circle>
            <path d="M221.99915,513 C220.832778,513 219.717076,512.513487 218.911423,511.652637 C218.105769,510.791787 217.68035,509.63193 217.734066,508.442709 C216.857385,507.926837 216.030408,507.327591 215.264157,506.652956 C212.28175,504.337064 210.68748,500.60964 211.051119,496.802817 C211.414758,492.995993 213.684407,489.65308 217.048924,487.968791 L217.773646,487.543652 C217.552886,487.369348 217.33838,487.190865 217.130131,487.008202 C214.149203,484.689411 212.556508,480.961036 212.920458,477.153686 C213.284408,473.346335 215.553146,470.002499 218.916987,468.315548 L223.619412,465.573521 C224.942294,464.80196 226.567973,464.809348 227.884071,465.5929 C229.200169,466.376452 230.006741,467.81713 230,469.372243 C229.993174,470.927355 229.174067,472.360645 227.851185,473.132206 L223.15085,475.874233 C222.196949,476.150528 221.506465,476.995331 221.411179,478.002712 C221.315892,479.010094 221.835281,479.974118 222.719778,480.431568 C223.382965,481 224.131934,481.455093 224.937622,481.779204 C227.019031,482.57001 228.543074,484.415071 228.954861,486.642616 C229.363267,489.117487 228.176937,491.581973 226.00803,492.764379 L221.282701,495.527694 C220.330374,495.799575 219.639162,496.640163 219.541979,497.644599 C219.444797,498.649035 219.961568,499.611382 220.843398,500.068137 C221.498446,500.640511 222.243327,501.096104 223.04674,501.415774 C225.144919,502.205053 226.680274,504.064518 227.086925,506.308831 C227.496198,508.793213 226.292446,511.264208 224.104694,512.430594 C223.463287,512.804017 222.737564,513 221.99915,513 L221.99915,513 Z" id="Path" fill="#FF97AF" fill-rule="nonzero"></path>
            <circle id="Oval" fill="#95BFFF" fill-rule="nonzero" cx="119" cy="78" r="9"></circle>
            <path d="M613.704154,77 C612.46543,76.999388 611.289246,76.4341951 610.486208,75.4536772 C609.68317,74.4731593 609.33403,73.1759152 609.530988,71.9045206 C608.721795,71.2834166 607.972234,70.5824668 607.292758,69.8114458 C604.615526,67.1402656 603.459863,63.2182561 604.238608,59.4464847 C605.017353,55.6747132 607.619421,52.5912135 611.11527,51.2975104 L611.876485,50.9586639 C611.680499,50.7592209 611.490723,50.5554738 611.305088,50.3474663 C608.71477,47.6155082 607.574432,43.7386404 608.25203,39.9678251 C609.123838,36.2455934 611.692682,33.2025224 615.129626,31.8205744 L617.343099,30.8319242 C617.18605,29.2070261 617.909039,27.6256783 619.2202,26.7262587 C620.531361,25.826839 622.214241,25.7578282 623.589476,26.5470853 C625.545144,27.5789332 626.836494,29.6020181 626.99116,31.8763095 C627.127186,34.4130986 625.682576,36.754464 623.407981,37.683784 L618.461222,39.8926771 C617.559279,40.1830683 616.838716,40.8933164 616.511795,41.8141985 C616.445445,42.7961249 616.822045,43.7543015 617.530847,44.4069567 C618.120765,45.0559236 618.808452,45.6006318 619.566881,46.0196731 C621.522591,47.0580439 622.816422,49.0809111 622.980943,51.3574619 C623.111997,53.8930005 621.667896,56.2313237 619.395694,57.1627842 L614.448935,59.3695253 C613.546714,59.6606989 612.826185,60.371726 612.499509,61.2932427 C612.434435,62.2701528 612.810325,63.2229182 613.51649,63.8709801 C614.097271,64.5229044 614.779253,65.0687874 615.533977,65.4858486 C617.517686,66.5173376 618.825963,68.5656238 618.970726,70.8665477 C619.094948,73.4004331 617.639725,75.7306985 615.36279,76.6439805 C614.838789,76.8781385 614.274513,76.999258 613.704154,77 L613.704154,77 Z" id="Path" fill="#FF97AF" fill-rule="nonzero"></path>
            <path d="M566.999433,411 C565.833944,411 564.719009,410.514165 563.913576,409.654241 C563.108142,408.794317 562.682302,407.63553 562.734957,406.447015 C561.858667,405.930729 561.031846,405.331521 560.2654,404.657294 C557.282583,402.341257 555.687807,398.613326 556.050989,394.805736 C556.414172,390.998146 558.683484,387.654279 562.04795,385.969117 L562.77466,385.543986 C562.55393,385.373951 562.33947,385.191161 562.131236,385.008545 C559.150733,382.689797 557.558265,378.961489 557.922163,375.154209 C558.286061,371.346928 560.554475,368.003152 563.917838,366.316233 L568.619592,363.574255 C570.664299,362.381548 573.26904,363.106706 574.437445,365.193941 C575.605851,367.281176 574.895469,369.940095 572.850762,371.132802 L568.151097,373.87478 C567.196421,374.150043 566.504999,374.995047 566.409668,376.003022 C566.314337,377.010998 566.834629,377.975418 567.720087,378.432031 C568.383179,379.000447 569.132041,379.455537 569.937614,379.779643 C572.018726,380.570435 573.542553,382.415462 573.954281,384.642966 C574.363654,387.119085 573.177459,389.585317 571.007869,390.768883 L566.281125,393.527882 C565.328025,393.800493 564.636713,394.642542 564.540415,395.648143 C564.444116,396.653744 564.962596,397.616514 565.845935,398.072378 C566.499816,398.645163 567.243978,399.100806 568.046873,399.41999 C570.147059,400.203447 571.683958,402.063357 572.086483,404.308605 C572.494681,406.792787 571.291383,409.263157 569.104677,410.430256 C568.463394,410.803794 567.737773,411 566.999433,411 L566.999433,411 Z" id="Path" fill="#C7BFF3" fill-rule="nonzero"></path>
            <path d="M219.532657,71 C219.220975,71 218.910118,70.9677896 218.605073,70.9038191 C214.738098,70.3625665 211.433578,67.8435514 209.887435,64.2584172 C208.341291,60.673283 208.777498,56.5413701 211.038189,53.3580372 L211.494337,52.6095064 C211.206255,52.5658406 210.920319,52.5135042 210.636617,52.4545531 C206.791965,51.7819164 203.519336,49.2717228 201.87351,45.7330158 C200.425183,42.1141819 200.837576,38.0159523 202.977877,34.7581534 L203.436216,34.0052425 C203.148134,33.9594314 202.862197,33.9092404 202.578496,33.8480993 C201.007142,33.5284877 199.727457,32.3916435 199.225082,30.8689986 C198.722707,29.3463537 199.074644,27.6712951 200.147334,26.4795068 C201.220023,25.2877186 202.849045,24.7618748 204.416187,25.101533 C205.314285,25.2760286 206.23438,25.3069687 207.142173,25.1931999 C209.441188,24.8373886 211.757229,25.7218922 213.233648,27.5195541 C214.8484,29.5385032 214.985668,32.3654678 213.574116,34.5313326 L210.621151,39.3957107 C210.016656,40.1914069 209.816624,41.222945 210.079896,42.1868799 C210.60334,43.0408001 211.493445,43.6035076 212.489417,43.7101322 C213.38316,43.8853375 214.29953,43.9133421 215.202306,43.7930391 C217.502897,43.4513572 219.814755,44.3369343 221.298161,46.1281086 C222.907196,48.145299 223.043495,50.9660867 221.636439,53.1289818 L218.681284,57.9977398 C218.079067,58.7721945 217.865854,59.7802603 218.102929,60.7321926 C218.626361,61.5415506 219.491675,62.066638 220.451347,62.1572528 C222.690981,62.6290401 224.212338,64.7162144 223.975803,66.9925117 C223.739268,69.2688089 221.821275,70.9986701 219.532479,71 L219.532657,71 Z" id="Path" fill="#95BFFF" fill-rule="nonzero"></path>
            <g id="balloon-1" transform="translate(265.000000, 0.000000)">
                <path d="M119.670742,285 L100.329258,285 C98.7695434,285 97.3303988,284.147308 96.561933,282.767865 C95.7934671,281.388421 95.8144884,279.695494 96.6169615,278.3362 L105.670741,263 L114.329259,263 L123.383039,278.3362 C124.185512,279.695494 124.206533,281.388421 123.438067,282.767865 C122.669601,284.147308 121.230457,285 119.670742,285 Z" id="Path" fill="#FFF07D" fill-rule="nonzero"></path>
                <path d="M119.261254,289 L99.738746,289 C96.5901666,288.999499 93.6852057,287.282677 92.1341239,284.505694 C90.5830421,281.728711 90.6256045,278.320831 92.2455441,275.584529 L101.383777,260.149407 C102.174098,258.816399 103.595932,258.000699 105.130378,258 L113.869622,258 C115.404068,258.000699 116.825902,258.816399 117.616223,260.149407 L126.754456,275.584529 C128.374395,278.320831 128.416958,281.728711 126.865876,284.505694 C125.314794,287.282677 122.409833,288.999499 119.261254,289 Z M107.605376,266.857143 L99.7387897,280.142857 L119.284719,280.142857 L111.398906,266.857143 L107.605376,266.857143 Z" id="Shape" fill="#6D6DA8" fill-rule="nonzero"></path>
                <path d="M215,117.966667 C215,190.5921 167.989881,267 110,267 C52.0101188,267 5,190.5921 5,117.966667 C5,45.341233 52.0101188,4 110,4 C167.989881,4 215,45.341233 215,117.966667 Z" id="Path" fill="#FFF07D" fill-rule="nonzero"></path>
                <path d="M170.802602,23 C184.177917,41.58674 192.1279,66.1435847 192.1279,95.9971336 C192.1279,168.64529 145.124232,245.076556 87.1418197,245.076556 C70.3277153,244.717329 54.1044095,238.793155 41,228.227205 C59.3232643,251.659991 83.0600047,267 109.01392,267 C166.996332,267 214,190.568734 214,117.920578 C214,74.220357 196.977557,41.8639839 170.802602,23 Z" id="Path" fill="#F5A506" fill-rule="nonzero" opacity="0.300000012"></path>
                <path d="M109.5,272 C80.6493342,272 52.962084,254.507329 31.5389784,222.745845 C11.1219985,191.793715 0.161445028,155.548961 0,118.451613 C0,47.6025884 44.0053344,0 109.5,0 C174.994666,0 219,47.6025884 219,118.451613 C219,190.932945 172.171624,272 109.5,272 Z M109.5,8.77419355 C59.3567088,8.77419355 8.76,42.6864516 8.76,118.451613 C8.76,185.401956 52.7653344,263.225806 109.5,263.225806 C166.234666,263.225806 210.24,185.401956 210.24,118.451613 C210.24,42.6864516 159.643291,8.77419355 109.5,8.77419355 Z" id="Shape" fill="#6D6DA8" fill-rule="nonzero"></path>
                <path d="M78.006311,97.1077235 C71.1886113,116.819135 54.9137696,129.392287 41.6553898,125.190683 C28.39701,120.989078 23.1759264,101.603688 29.9936698,81.8922765 C36.8114131,62.180865 53.0862111,49.607713 66.3445909,53.8093174 C79.6029707,58.0109217 84.8240981,77.3963119 78.006311,97.1077235 Z" id="Path" fill="#FFFFFF" opacity="0.75"></path>
                <path d="M87.7347389,43.4906795 C82.0811622,47.8175047 75.1544954,48.1952761 72.263295,44.3344208 C69.3720946,40.4735656 71.6116844,33.8361456 77.2652611,29.5093205 C82.9188378,25.1824953 89.8455046,24.8047239 92.736705,28.6655792 C95.6279054,32.5264344 93.3883156,39.1637213 87.7347389,43.4906795 Z" id="Path" fill="#FFFFFF" opacity="0.75"></path>
                <path d="M113.5,288.999789 C112.303058,289.011432 111.151745,288.540737 110.305334,287.6937 C109.458923,286.846663 108.988576,285.694497 109.000211,284.496662 C109.016812,283.304389 109.48291,282.162409 110.305152,281.299443 C110.734454,280.892106 111.237936,280.571072 111.78824,280.353786 C113.464177,279.646172 115.401091,280.019502 116.694503,281.299443 C117.516008,282.162916 117.982091,283.304546 117.999804,284.496662 C118.011008,285.694433 117.540805,286.846473 116.694863,287.693882 C116.257163,288.09141 115.754846,288.411225 115.20957,288.639539 C114.668723,288.87029 114.087913,288.992682 113.5,288.999789 Z" id="Path" fill="#6D6DA8" fill-rule="nonzero"></path>
                <path d="M120.289255,448.693472 C118.013124,447.799727 116.901701,445.264329 117.804135,443.02437 L117.804135,443.02437 C118.227963,441.949965 119.071865,441.087134 120.147389,440.62856 C121.222912,440.169986 122.440472,440.153864 123.528172,440.583795 L123.528172,440.583795 C124.625952,440.996027 125.510639,441.82234 125.985472,442.878957 C126.460304,443.935574 126.485912,445.134885 126.0566,446.210154 L126.0566,446.210154 C125.398304,447.88724 123.760128,448.995113 121.931343,449 L121.931343,449 C121.370622,448.986667 120.815911,448.883119 120.289255,448.693472 Z M125.614828,432.733889 C123.183862,432.396343 121.481711,430.199089 121.79725,427.805896 L121.79725,427.805896 C121.959021,426.658859 122.579228,425.622501 123.520588,424.926221 C124.461947,424.229941 125.646818,423.931166 126.812927,424.096032 L126.812927,424.096032 C127.9754,424.245119 129.028612,424.845873 129.737078,425.76397 C130.445544,426.682068 130.750171,427.840933 130.582849,428.981457 L130.582849,428.981457 C130.305519,431.155885 128.420571,432.784723 126.191092,432.776532 L126.191092,432.776532 C126.013425,432.776532 125.792362,432.733889 125.614873,432.733889 L125.614828,432.733889 Z M122.152584,412.016674 C122.051202,410.865277 122.42002,409.721538 123.177675,408.837778 C123.935329,407.954019 125.019561,407.402857 126.191181,407.305885 L126.191181,407.305885 C127.362524,407.206434 128.526007,407.569032 129.425063,408.313718 C130.324118,409.058404 130.884903,410.124015 130.983754,411.275565 L130.983754,411.275565 C131.084318,412.426345 130.715088,413.569187 129.95748,414.452091 C129.199873,415.334994 128.116107,415.88545 126.945157,415.98208 L126.945157,415.98208 C126.812971,415.98208 126.678656,416.028923 126.546515,416.028923 L126.546515,416.028923 C124.245219,416.013196 122.337729,414.271419 122.15254,412.016674 L122.152584,412.016674 Z M119.136504,396.355245 C118.809973,395.250977 118.944621,394.064329 119.51065,393.057913 C120.076679,392.051497 121.027414,391.308302 122.152451,390.992801 L122.152451,390.992801 C124.504368,390.322884 126.964667,391.648206 127.655647,393.957281 L127.655647,393.957281 C128.336742,396.269669 126.987384,398.688082 124.637526,399.366568 L124.637526,399.366568 C124.235038,399.486037 123.816453,399.544858 123.396032,399.541029 L123.396032,399.541029 C121.416478,399.519542 119.68541,398.224842 119.136504,396.355245 Z M113.323722,381.311406 C112.296641,379.143002 113.249549,376.566618 115.453597,375.552849 L115.453597,375.552849 C116.517853,375.053976 117.741036,374.994809 118.849982,375.388562 C119.958928,375.782315 120.861264,376.596189 121.355479,377.648428 L121.355479,377.648428 C121.859399,378.694157 121.917921,379.894316 121.518059,380.982624 C121.118196,382.070932 120.293017,382.957392 119.225604,383.445323 L119.225604,383.445323 C118.638152,383.702166 118.003075,383.837019 117.360145,383.841436 L117.360145,383.841436 C115.62511,383.853267 114.044699,382.862665 113.323722,381.311406 Z M105.558555,366.348517 C105.062798,365.29615 105.013298,364.093163 105.420973,363.004879 C105.828648,361.916595 106.660007,361.032416 107.731692,360.547348 L107.731692,360.547348 C108.797036,360.067219 110.012791,360.022755 111.111488,360.423739 C112.210185,360.824723 113.101817,361.638305 113.590223,362.685496 L113.590223,362.685496 C114.093811,363.73192 114.152184,364.93251 113.752414,366.02137 C113.352644,367.11023 112.527723,367.997496 111.460348,368.486665 L111.460348,368.486665 C110.874028,368.746413 110.238007,368.880009 109.594889,368.878504 L109.594889,368.878504 C107.859886,368.8903 106.279518,367.899703 105.558555,366.348474 L105.558555,366.348517 Z M99.3011611,350.039664 C98.9726596,348.92323 99.1111946,347.724088 99.6860074,346.708481 C100.26082,345.692874 101.224339,344.944856 102.362634,344.630508 L102.362634,344.630508 C103.49207,344.317704 104.70167,344.458804 105.72525,345.022759 C106.748829,345.586714 107.50251,346.527309 107.820437,347.637557 L107.820437,347.637557 C108.156972,348.742523 108.026855,349.934128 107.459421,350.943724 C106.891987,351.953321 105.935004,352.69592 104.804224,353.004101 L104.804224,353.004101 C104.401008,353.123577 103.98172,353.182396 103.560599,353.178562 L103.560599,353.178562 C101.589962,353.175782 99.856329,351.89822 99.3011611,350.039664 L99.3011611,350.039664 Z M96.018714,332.72138 C95.9102739,331.568851 96.2762531,330.421677 97.0348128,329.536384 C97.7933726,328.651092 98.8812349,328.101531 100.055137,328.010591 L100.055137,328.010591 C101.226451,327.911271 102.389863,328.273916 103.288888,329.018577 C104.187913,329.763238 104.748733,330.828771 104.847709,331.980271 L104.847709,331.980271 C104.948814,333.13161 104.579895,334.275201 103.822294,335.158898 C103.064694,336.042595 101.980626,336.593829 100.809112,336.691073 L100.410471,336.691073 C98.1172517,336.696314 96.2051804,334.967969 96.0187584,332.721337 L96.018714,332.72138 Z M100.232848,319.900695 C97.809106,319.583246 96.1030753,317.398763 96.4174442,315.015271 L96.4174442,315.015271 C96.7625742,312.626782 98.9967671,310.95458 101.430991,311.262838 L101.430991,311.262838 C102.598313,311.419867 103.653438,312.028777 104.361793,312.954196 C105.070148,313.879615 105.373025,315.044844 105.203088,316.190831 L105.203088,316.190831 C104.893187,318.342469 103.020021,319.942176 100.809201,319.943264 L100.809201,319.943264 C100.616068,319.950298 100.422743,319.93602 100.232848,319.900695 Z M103.472032,303.455544 C101.212345,302.545271 100.107994,300.026006 100.986912,297.786442 L100.986912,297.786442 C101.883853,295.535842 104.464653,294.423272 106.756609,295.299155 L106.756609,295.299155 C109.033044,296.195006 110.143987,298.731512 109.241463,300.972575 L109.241463,300.972575 L109.241463,301.015318 L109.241463,301.015318 C108.572287,302.678986 106.934053,303.769402 105.114032,303.762584 L105.114032,303.762584 C104.553728,303.745174 103.999651,303.641642 103.471943,303.455719 L103.472032,303.455544 Z" id="Shape" fill="#6D6DA8" fill-rule="nonzero"></path>
                <path d="M113.499823,464 C112.911189,463.992986 112.32965,463.870418 111.788157,463.639243 C110.659066,463.227363 109.769584,462.336902 109.358157,461.206568 C108.880614,460.115739 108.880614,458.874668 109.358157,457.783839 C109.769584,456.653505 110.659066,455.763044 111.788157,455.351164 C113.464617,454.647553 115.399165,455.020561 116.694643,456.297204 C117.091623,456.735614 117.411185,457.238456 117.639643,457.784199 C118.120119,458.874411 118.120119,460.116716 117.639643,461.206928 C117.410138,461.752123 117.090684,462.254798 116.694643,462.693924 C116.256922,463.091613 115.754584,463.411557 115.209283,463.639964 C114.668441,463.870662 114.08767,463.99298 113.499823,464 Z" id="Path" fill="#6D6DA8" fill-rule="nonzero"></path>
            </g>
        </g>
        <g id="package" transform="translate(166.000000, 48.000000)" fill-rule="nonzero">
            <path d="M420.384629,58.076873 C422.359001,64.5640484 427.435886,69.6409905 433.923037,71.6154333 C440.692321,73.871805 440.692321,76.1281889 433.923037,78.3845851 C427.435886,80.3590278 422.359001,85.4359699 420.384629,91.9231453 C418.128259,98.6922849 415.871839,98.6922849 413.615371,91.9231453 C411.641039,85.4359457 406.564138,80.3589875 400.076963,78.3845851 C393.307679,76.1282134 393.307679,73.8718294 400.076963,71.6154333 C406.564138,69.6410309 411.641039,64.5640726 413.615371,58.076873 C415.87179,51.307709 418.12821,51.307709 420.384629,58.076873 Z" id="Path" fill="#96D7FF"></path>
            <path d="M118.307713,46.4615024 C119.653876,50.8845826 123.115392,54.3461353 127.53845,55.692338 C132.15385,57.2307918 132.15385,58.7692332 127.53845,60.307662 C123.115392,61.6538647 119.653876,65.1154174 118.307712,69.5384976 C116.769262,74.1538341 115.230787,74.1538341 113.692287,69.5384976 C112.346148,65.1154033 108.884622,61.6538412 104.46155,60.307662 C99.84615,58.7692082 99.84615,57.2307668 104.46155,55.692338 C108.884622,54.3461588 112.346148,50.8845967 113.692287,46.4615024 C115.230763,41.8461659 116.769238,41.8461659 118.307713,46.4615024 Z" id="Path" fill="#C9C1F5"></path>
            <path d="M407.307713,183.461502 C408.653876,187.884583 412.115392,191.346135 416.53845,192.692338 C421.15385,194.230792 421.15385,195.769233 416.53845,197.307662 C412.115392,198.653865 408.653876,202.115417 407.307712,206.538498 C405.769262,211.153834 404.230787,211.153834 402.692287,206.538498 C401.346148,202.115403 397.884622,198.653841 393.46155,197.307662 C388.84615,195.769208 388.84615,194.230767 393.46155,192.692338 C397.884622,191.346159 401.346148,187.884597 402.692287,183.461502 C404.230763,178.846166 405.769237,178.846166 407.307713,183.461502 Z" id="Path" fill="#96D7FF"></path>
            <path d="M69.3077125,296.461502 C70.6538759,300.884583 74.1153918,304.346135 78.53845,305.692338 C83.15385,307.230792 83.15385,308.769233 78.53845,310.307662 C74.1153918,311.653865 70.6538759,315.115417 69.3077125,319.538498 C67.7692625,324.153834 66.2307875,324.153834 64.6922875,319.538498 C63.3461477,315.115403 59.8846223,311.653841 55.46155,310.307662 C50.84615,308.769208 50.84615,307.230767 55.46155,305.692338 C59.8846223,304.346159 63.3461477,300.884597 64.6922875,296.461502 C66.2307625,291.846166 67.7692375,291.846166 69.3077125,296.461502 Z" id="Path" fill="#96D7FF"></path>
            <path d="M399.307712,396.461502 C400.653876,400.884583 404.115392,404.346135 408.53845,405.692338 C413.15385,407.230792 413.15385,408.769233 408.53845,410.307662 C404.115392,411.653865 400.653876,415.115417 399.307712,419.538498 C397.769263,424.153834 396.230787,424.153834 394.692288,419.538498 C393.346148,415.115403 389.884622,411.653841 385.46155,410.307662 C380.84615,408.769208 380.84615,407.230767 385.46155,405.692338 C389.884622,404.346159 393.346148,400.884597 394.692288,396.461502 C396.230762,391.846166 397.769237,391.846166 399.307712,396.461502 Z" id="Path" fill="#C9C1F5"></path>
            <g id="code" transform="translate(54.000000, 56.000000)">
                <polygon id="Path" fill="#FFFFFF" points="264.534805 301.964286 264.534805 76.210034 241.091002 52.4464286 88.7062818 52.4464286 88.7062818 301.964286"></polygon>
                <path d="M264.739197,303.553572 L86.9178488,303.553572 C86.1317669,303.553572 85.3778222,303.242321 84.8219784,302.687767 C84.2661345,302.133213 83.9541596,301.381018 83.9541596,300.596761 L83.9541596,52.2246679 C83.9541596,51.4404104 84.2661345,50.6882155 84.8219784,50.1336618 C85.3778222,49.579108 86.1317669,49.2678571 86.9178488,49.2678571 L241.029684,49.2678571 C241.815686,49.2678571 242.569475,49.5794564 243.125012,50.1342028 L266.834525,73.7886878 C267.390328,74.3430922 267.702886,75.0950305 267.702886,75.8791529 L267.702886,300.596761 C267.702886,301.381018 267.390912,302.133213 266.835068,302.687767 C266.279224,303.242321 265.525279,303.553572 264.739197,303.553572 L264.739197,303.553572 Z M89.881538,297.63995 L261.775508,297.63995 L261.775508,77.1034499 L239.802539,55.1814785 L89.881538,55.1814785 L89.881538,297.63995 Z" id="Shape" fill="#6D6DAA"></path>
                <polygon id="Path" fill="#EEF6FF" points="266.118846 77.875 242.358234 77.875 242.358234 54.0357143"></polygon>
                <path d="M264.693363,79.4642857 L240.615807,79.4642857 C239.817522,79.4642857 239.051874,79.146419 238.487402,78.5800777 C237.92293,78.0137364 237.606112,77.245553 237.606112,76.4446255 L237.606112,52.287345 C237.606112,51.0660779 238.339372,49.9650699 239.463966,49.4977466 C240.588561,49.0304232 241.883002,49.2888219 242.743661,50.1524453 L266.821217,74.3097259 C267.681991,75.1732348 267.939537,76.4719617 267.473756,77.6002799 C267.007974,78.7285982 265.9106,79.4642857 264.693363,79.4642857 Z M243.625501,73.4249655 L257.42778,73.4249655 L243.625501,59.5769856 L243.625501,73.4249655 Z" id="Shape" fill="#6D6DAA"></path>
                <path d="M264.693363,79.4642857 L240.615807,79.4642857 C239.817522,79.4642857 239.051874,79.146419 238.487402,78.5800777 C237.92293,78.0137364 237.606112,77.245553 237.606112,76.4446255 L237.606112,52.287345 C237.606112,51.0660779 238.339372,49.9650699 239.463966,49.4977466 C240.588561,49.0304232 241.883002,49.2888219 242.743661,50.1524453 L266.821217,74.3097259 C267.681991,75.1732348 267.939537,76.4719617 267.473756,77.6002799 C267.007974,78.7285982 265.9106,79.4642857 264.693363,79.4642857 Z M243.625501,73.4249655 L257.42778,73.4249655 L243.625501,59.5769856 L243.625501,73.4249655 Z" id="Shape" fill="#6D6DAA"></path>
                <g id="Group" opacity="0.5" transform="translate(96.626486, 63.571429)" fill="#6D6DAA">
                    <path d="M23.5967449,23.5744048 L17.6975587,23.5744048 C14.4410712,23.570686 11.8020947,20.934208 11.7983725,17.6808036 L11.7983725,5.89360119 C11.8020947,2.64019674 14.4410712,0.00371876477 17.6975587,0 L23.5967449,0 C26.8532324,0.00371876477 29.4922089,2.64019674 29.4959312,5.89360119 L29.4959312,17.6808036 C29.4922089,20.934208 26.8532324,23.570686 23.5967449,23.5744048 Z M17.6975587,5.89360119 L17.6975587,17.6808036 L23.5996945,17.6808036 L23.5967449,5.89360119 L17.6975587,5.89360119 Z" id="Shape"></path>
                    <path d="M2.94959312,23.5744049 C2.16725002,23.5744049 1.41689123,23.2642077 0.863691104,22.7115314 C0.310490976,22.158855 -0.000203488576,21.4092066 -9.98927065e-08,20.6276042 L-9.98927065e-08,2.9468006 C-9.98927065e-08,1.31932757 1.32057782,0 2.94959312,0 C4.57860841,0 5.89918633,1.31932757 5.89918633,2.9468006 L5.89918633,20.6276042 C5.89938972,21.4092066 5.58869525,22.158855 5.03549513,22.7115314 C4.482295,23.2642077 3.73193621,23.5744049 2.94959312,23.5744049 L2.94959312,23.5744049 Z" id="Path"></path>
                    <path d="M38.3447105,23.5744049 C37.5623674,23.5744049 36.8120086,23.2642077 36.2588085,22.7115314 C35.7056084,22.158855 35.3949139,21.4092066 35.3951173,20.6276042 L35.3951173,2.9468006 C35.3951173,1.31932757 36.7156952,0 38.3447105,0 C39.9737258,0 41.2943037,1.31932757 41.2943037,2.9468006 L41.2943037,20.6276042 C41.2945071,21.4092066 40.9838126,22.158855 40.4306125,22.7115314 C39.8774124,23.2642077 39.1270536,23.5744049 38.3447105,23.5744049 L38.3447105,23.5744049 Z" id="Path"></path>
                    <path d="M50.143083,23.5744049 C49.3607399,23.5744049 48.6103811,23.2642077 48.0571809,22.7115314 C47.5039808,22.158855 47.1932864,21.4092066 47.1934897,20.6276042 L47.1934897,2.9468006 C47.1934897,1.31932757 48.5140677,0 50.143083,0 C51.7720983,0 53.0926762,1.31932757 53.0926762,2.9468006 L53.0926762,20.6276042 C53.0928796,21.4092066 52.7821851,22.158855 52.228985,22.7115314 C51.6757848,23.2642077 50.9254261,23.5744049 50.143083,23.5744049 L50.143083,23.5744049 Z" id="Path"></path>
                    <path d="M61.9414554,23.5744049 C61.1591123,23.5744049 60.4087535,23.2642077 59.8555534,22.7115314 C59.3023533,22.158855 58.9916588,21.4092066 58.9918622,20.6276042 L58.9918622,2.9468006 C58.9918622,1.31932757 60.3124401,0 61.9414554,0 C63.5704707,0 64.8910486,1.31932757 64.8910486,2.9468006 L64.8910486,20.6276042 C64.891252,21.4092066 64.5805576,22.158855 64.0273574,22.7115314 C63.4741573,23.2642077 62.7237985,23.5744049 61.9414554,23.5744049 L61.9414554,23.5744049 Z" id="Path"></path>
                    <path d="M82.5886072,23.5744048 L76.689421,23.5744048 C73.4329335,23.570686 70.7939571,20.934208 70.7902348,17.6808036 L70.7902348,5.89360119 C70.7939571,2.64019674 73.4329335,0.00371876477 76.689421,0 L82.5886072,0 C85.8450947,0.00371876477 88.4840712,2.64019674 88.4877935,5.89360119 L88.4877935,17.6808036 C88.4840712,20.934208 85.8450947,23.570686 82.5886072,23.5744048 Z M76.689421,5.89360119 L76.689421,17.6808036 L82.5915568,17.6808036 L82.5886072,5.89360119 L76.689421,5.89360119 Z" id="Shape"></path>
                    <path d="M97.3365728,23.5744049 C96.5542297,23.5744049 95.8038709,23.2642077 95.2506708,22.7115314 C94.6974707,22.158855 94.3867762,21.4092066 94.3869796,20.6276042 L94.3869796,2.9468006 C94.3869796,1.31932757 95.7075575,0 97.3365728,0 C98.9655881,0 100.286166,1.31932757 100.286166,2.9468006 L100.286166,20.6276042 C100.286369,21.4092066 99.9756749,22.158855 99.4224748,22.7115314 C98.8692747,23.2642077 98.1189159,23.5744049 97.3365728,23.5744049 L97.3365728,23.5744049 Z" id="Path"></path>
                    <path d="M11.7983725,53.0424107 L5.89918623,53.0424107 C2.64269871,53.0386919 0.00372228883,50.402214 0,47.1488095 L0,35.3616071 C0.00372228883,32.1082027 2.64269871,29.4717247 5.89918623,29.468006 L11.7983725,29.468006 C15.05486,29.4717247 17.6938364,32.1082027 17.6975587,35.3616071 L17.6975587,47.1488095 C17.6938364,50.402214 15.05486,53.0386919 11.7983725,53.0424107 L11.7983725,53.0424107 Z M5.89918623,35.3616071 L5.89918623,47.1488095 L11.8013221,47.1488095 L11.7983725,35.3616071 L5.89918623,35.3616071 Z" id="Shape"></path>
                    <path d="M26.546338,53.0424108 C25.7639949,53.0424108 25.0136362,52.7322137 24.460436,52.1795373 C23.9072359,51.6268609 23.5965414,50.8772125 23.5967448,50.0956101 L23.5967448,32.4148065 C23.5967448,30.7873335 24.9173227,29.468006 26.546338,29.468006 C28.1753533,29.468006 29.4959313,30.7873335 29.4959313,32.4148065 L29.4959313,50.0956101 C29.4961346,50.8772125 29.1854402,51.6268609 28.63224,52.1795373 C28.0790399,52.7322137 27.3286811,53.0424108 26.546338,53.0424108 L26.546338,53.0424108 Z" id="Path"></path>
                    <path d="M73.7398279,53.0424108 C72.9574848,53.0424108 72.207126,52.7322137 71.6539259,52.1795373 C71.1007257,51.6268609 70.7900313,50.8772125 70.7902347,50.0956101 L70.7902347,32.4148065 C70.7902347,30.7873335 72.1108126,29.468006 73.7398279,29.468006 C75.3688432,29.468006 76.6894211,30.7873335 76.6894211,32.4148065 L76.6894211,50.0956101 C76.6896245,50.8772125 76.37893,51.6268609 75.8257299,52.1795373 C75.2725298,52.7322137 74.522171,53.0424108 73.7398279,53.0424108 L73.7398279,53.0424108 Z" id="Path"></path>
                    <path d="M58.9918623,53.0424107 L53.0926761,53.0424107 C49.8361886,53.0386919 47.1972121,50.402214 47.1934898,47.1488095 L47.1934898,35.3616071 C47.1972121,32.1082027 49.8361886,29.4717247 53.0926761,29.468006 L58.9918623,29.468006 C62.2483498,29.4717247 64.8873262,32.1082027 64.8910485,35.3616071 L64.8910485,47.1488095 C64.8873262,50.402214 62.2483498,53.0386919 58.9918623,53.0424107 L58.9918623,53.0424107 Z M53.0926761,35.3616071 L53.0926761,47.1488095 L58.9948119,47.1488095 L58.9918623,35.3616071 L53.0926761,35.3616071 Z" id="Shape"></path>
                    <path d="M94.3869797,53.0424107 L88.4877935,53.0424107 C85.2313059,53.0386919 82.5923295,50.402214 82.5886072,47.1488095 L82.5886072,35.3616071 C82.5923295,32.1082027 85.2313059,29.4717247 88.4877935,29.468006 L94.3869797,29.468006 C97.6434672,29.4717247 100.282444,32.1082027 100.286166,35.3616071 L100.286166,47.1488095 C100.282444,50.402214 97.6434672,53.0386919 94.3869797,53.0424107 L94.3869797,53.0424107 Z M88.4877935,35.3616071 L88.4877935,47.1488095 L94.3899293,47.1488095 L94.3869797,35.3616071 L88.4877935,35.3616071 Z" id="Shape"></path>
                    <path d="M38.3447105,53.0424108 C37.5623674,53.0424108 36.8120086,52.7322137 36.2588085,52.1795373 C35.7056084,51.6268609 35.3949139,50.8772125 35.3951173,50.0956101 L35.3951173,32.4148065 C35.3951173,30.7873335 36.7156952,29.468006 38.3447105,29.468006 C39.9737258,29.468006 41.2943037,30.7873335 41.2943037,32.4148065 L41.2943037,50.0956101 C41.2945071,50.8772125 40.9838126,51.6268609 40.4306125,52.1795373 C39.8774124,52.7322137 39.1270536,53.0424108 38.3447105,53.0424108 L38.3447105,53.0424108 Z" id="Path"></path>
                    <path d="M2.94959312,82.5104168 C2.16725002,82.5104168 1.41689123,82.2002196 0.863691104,81.6475433 C0.310490976,81.0948669 -0.000203488576,80.3452185 -9.98927065e-08,79.5636161 L-9.98927065e-08,61.8828125 C-9.98927065e-08,60.2553395 1.32057782,58.9360119 2.94959312,58.9360119 C4.57860841,58.9360119 5.89918633,60.2553395 5.89918633,61.8828125 L5.89918633,79.5636161 C5.89938972,80.3452185 5.58869525,81.0948669 5.03549513,81.6475433 C4.482295,82.2002196 3.73193621,82.5104168 2.94959312,82.5104168 Z" id="Path"></path>
                    <path d="M14.7479656,82.5104168 C13.9656225,82.5104168 13.2152637,82.2002196 12.6620636,81.6475433 C12.1088634,81.0948669 11.798169,80.3452185 11.7983724,79.5636161 L11.7983724,61.8828125 C11.7983724,60.2553395 13.1189503,58.9360119 14.7479656,58.9360119 C16.3769809,58.9360119 17.6975588,60.2553395 17.6975588,61.8828125 L17.6975588,79.5636161 C17.6977622,80.3452185 17.3870677,81.0948669 16.8338676,81.6475433 C16.2806675,82.2002196 15.5303087,82.5104168 14.7479656,82.5104168 L14.7479656,82.5104168 Z" id="Path"></path>
                    <path d="M61.9414554,82.5104168 C61.1591123,82.5104168 60.4087535,82.2002196 59.8555534,81.6475433 C59.3023533,81.0948669 58.9916588,80.3452185 58.9918622,79.5636161 L58.9918622,61.8828125 C58.9918622,60.2553395 60.3124401,58.9360119 61.9414554,58.9360119 C63.5704707,58.9360119 64.8910486,60.2553395 64.8910486,61.8828125 L64.8910486,79.5636161 C64.891252,80.3452185 64.5805576,81.0948669 64.0273574,81.6475433 C63.4741573,82.2002196 62.7237985,82.5104168 61.9414554,82.5104168 Z" id="Path"></path>
                    <path d="M97.3365728,82.5104168 C96.5542297,82.5104168 95.8038709,82.2002196 95.2506708,81.6475433 C94.6974707,81.0948669 94.3867762,80.3452185 94.3869796,79.5636161 L94.3869796,61.8828125 C94.3869796,60.2553395 95.7075575,58.9360119 97.3365728,58.9360119 C98.9655881,58.9360119 100.286166,60.2553395 100.286166,61.8828125 L100.286166,79.5636161 C100.286369,80.3452185 99.9756749,81.0948669 99.4224748,81.6475433 C98.8692747,82.2002196 98.1189159,82.5104168 97.3365728,82.5104168 Z" id="Path"></path>
                    <path d="M35.3951174,82.5104167 L29.4959312,82.5104167 C26.2394436,82.5066979 23.6004672,79.8702199 23.5967449,76.6168155 L23.5967449,64.8296131 C23.6004672,61.5762086 26.2394436,58.9397307 29.4959312,58.9360119 L35.3951174,58.9360119 C38.6516049,58.9397307 41.2905813,61.5762086 41.2943036,64.8296131 L41.2943036,76.6168155 C41.2905813,79.8702199 38.6516049,82.5066979 35.3951174,82.5104167 Z M29.4959312,64.8296131 L29.4959312,76.6168155 L35.398067,76.6168155 L35.3951174,64.8296131 L29.4959312,64.8296131 Z" id="Shape"></path>
                    <path d="M82.5886072,82.5104167 L76.689421,82.5104167 C73.4329335,82.5066979 70.7939571,79.8702199 70.7902348,76.6168155 L70.7902348,64.8296131 C70.7939571,61.5762086 73.4329335,58.9397307 76.689421,58.9360119 L82.5886072,58.9360119 C85.8450947,58.9397307 88.4840712,61.5762086 88.4877935,64.8296131 L88.4877935,76.6168155 C88.4840712,79.8702199 85.8450947,82.5066979 82.5886072,82.5104167 Z M76.689421,64.8296131 L76.689421,76.6168155 L82.5915568,76.6168155 L82.5886072,64.8296131 L76.689421,64.8296131 Z" id="Shape"></path>
                    <path d="M50.143083,82.5104168 C49.3607399,82.5104168 48.6103811,82.2002196 48.0571809,81.6475433 C47.5039808,81.0948669 47.1932864,80.3452185 47.1934897,79.5636161 L47.1934897,61.8828125 C47.1934897,60.2553395 48.5140677,58.9360119 50.143083,58.9360119 C51.7720983,58.9360119 53.0926762,60.2553395 53.0926762,61.8828125 L53.0926762,79.5636161 C53.0928796,80.3452185 52.7821851,81.0948669 52.228985,81.6475433 C51.6757848,82.2002196 50.9254261,82.5104168 50.143083,82.5104168 Z" id="Path"></path>
                    <path d="M129.782097,23.5744048 L123.882911,23.5744048 C120.626423,23.570686 117.987447,20.934208 117.983725,17.6808036 L117.983725,5.89360119 C117.987447,2.64019674 120.626423,0.00371876477 123.882911,0 L129.782097,0 C133.038585,0.00371876477 135.677561,2.64019674 135.681283,5.89360119 L135.681283,17.6808036 C135.677561,20.934208 133.038585,23.570686 129.782097,23.5744048 Z M123.882911,5.89360119 L123.882911,17.6808036 L129.785047,17.6808036 L129.782097,5.89360119 L123.882911,5.89360119 Z" id="Shape"></path>
                    <path d="M109.134945,23.5744049 C108.352602,23.5744049 107.602243,23.2642077 107.049043,22.7115314 C106.495843,22.158855 106.185149,21.4092066 106.185352,20.6276042 L106.185352,2.9468006 C106.185352,1.31932757 107.50593,0 109.134945,0 C110.763961,0 112.084538,1.31932757 112.084538,2.9468006 L112.084538,20.6276042 C112.084742,21.4092066 111.774047,22.158855 111.220847,22.7115314 C110.667647,23.2642077 109.917288,23.5744049 109.134945,23.5744049 L109.134945,23.5744049 Z" id="Path"></path>
                    <path d="M117.983725,53.0424107 L112.084538,53.0424107 C108.828051,53.0386919 106.189074,50.402214 106.185352,47.1488095 L106.185352,35.3616071 C106.189074,32.1082027 108.828051,29.4717247 112.084538,29.468006 L117.983725,29.468006 C121.240212,29.4717247 123.879189,32.1082027 123.882911,35.3616071 L123.882911,47.1488095 C123.879189,50.402214 121.240212,53.0386919 117.983725,53.0424107 L117.983725,53.0424107 Z M112.084538,35.3616071 L112.084538,47.1488095 L117.986674,47.1488095 L117.983725,35.3616071 L112.084538,35.3616071 Z" id="Shape"></path>
                    <path d="M132.73169,53.0424108 C131.949347,53.0424108 131.198988,52.7322137 130.645788,52.1795373 C130.092588,51.6268609 129.781894,50.8772125 129.782097,50.0956101 L129.782097,32.4148065 C129.782097,30.7873335 131.102675,29.468006 132.73169,29.468006 C134.360705,29.468006 135.681283,30.7873335 135.681283,32.4148065 L135.681283,50.0956101 C135.681487,50.8772125 135.370792,51.6268609 134.817592,52.1795373 C134.264392,52.7322137 133.514033,53.0424108 132.73169,53.0424108 L132.73169,53.0424108 Z" id="Path"></path>
                    <path d="M144.530063,53.0424108 C143.74772,53.0424108 142.997361,52.7322137 142.444161,52.1795373 C141.890961,51.6268609 141.580266,50.8772125 141.580469,50.0956101 L141.580469,32.4148065 C141.580469,30.7873335 142.901047,29.468006 144.530063,29.468006 C146.159078,29.468006 147.479656,30.7873335 147.479656,32.4148065 L147.479656,50.0956101 C147.479859,50.8772125 147.169165,51.6268609 146.615965,52.1795373 C146.062765,52.7322137 145.312406,53.0424108 144.530063,53.0424108 L144.530063,53.0424108 Z" id="Path"></path>
                    <path d="M156.328435,53.0424108 C155.546092,53.0424108 154.795733,52.7322137 154.242533,52.1795373 C153.689333,51.6268609 153.378638,50.8772125 153.378842,50.0956101 L153.378842,32.4148065 C153.378842,30.7873335 154.69942,29.468006 156.328435,29.468006 C157.95745,29.468006 159.278028,30.7873335 159.278028,32.4148065 L159.278028,50.0956101 C159.278232,50.8772125 158.967537,51.6268609 158.414337,52.1795373 C157.861137,52.7322137 157.110778,53.0424108 156.328435,53.0424108 L156.328435,53.0424108 Z" id="Path"></path>
                    <path d="M109.134945,82.5104168 C108.352602,82.5104168 107.602243,82.2002196 107.049043,81.6475433 C106.495843,81.0948669 106.185149,80.3452185 106.185352,79.5636161 L106.185352,61.8828125 C106.185352,60.2553395 107.50593,58.9360119 109.134945,58.9360119 C110.763961,58.9360119 112.084538,60.2553395 112.084538,61.8828125 L112.084538,79.5636161 C112.084742,80.3452185 111.774047,81.0948669 111.220847,81.6475433 C110.667647,82.2002196 109.917288,82.5104168 109.134945,82.5104168 Z" id="Path"></path>
                    <path d="M120.933318,82.5104168 C120.150975,82.5104168 119.400616,82.2002196 118.847416,81.6475433 C118.294216,81.0948669 117.983521,80.3452185 117.983725,79.5636161 L117.983725,61.8828125 C117.983725,60.2553395 119.304302,58.9360119 120.933318,58.9360119 C122.562333,58.9360119 123.882911,60.2553395 123.882911,61.8828125 L123.882911,79.5636161 C123.883114,80.3452185 123.57242,81.0948669 123.01922,81.6475433 C122.46602,82.2002196 121.715661,82.5104168 120.933318,82.5104168 Z" id="Path"></path>
                    <path d="M168.126808,82.5104168 C167.344464,82.5104168 166.594106,82.2002196 166.040906,81.6475433 C165.487705,81.0948669 165.177011,80.3452185 165.177214,79.5636161 L165.177214,61.8828125 C165.177214,60.2553395 166.497792,58.9360119 168.126808,58.9360119 C169.755823,58.9360119 171.076401,60.2553395 171.076401,61.8828125 L171.076401,79.5636161 C171.076604,80.3452185 170.76591,81.0948669 170.21271,81.6475433 C169.659509,82.2002196 168.909151,82.5104168 168.126808,82.5104168 Z" id="Path"></path>
                    <path d="M141.58047,82.5104167 L135.681283,82.5104167 C132.424796,82.5066979 129.785819,79.8702199 129.782097,76.6168155 L129.782097,64.8296131 C129.785819,61.5762086 132.424796,58.9397307 135.681283,58.9360119 L141.58047,58.9360119 C144.836957,58.9397307 147.475933,61.5762086 147.479656,64.8296131 L147.479656,76.6168155 C147.475933,79.8702199 144.836957,82.5066979 141.58047,82.5104167 Z M135.681283,64.8296131 L135.681283,76.6168155 L141.583419,76.6168155 L141.58047,64.8296131 L135.681283,64.8296131 Z" id="Shape"></path>
                    <path d="M156.328435,82.5104168 C155.546092,82.5104168 154.795733,82.2002196 154.242533,81.6475433 C153.689333,81.0948669 153.378638,80.3452185 153.378842,79.5636161 L153.378842,61.8828125 C153.378842,60.2553395 154.69942,58.9360119 156.328435,58.9360119 C157.95745,58.9360119 159.278028,60.2553395 159.278028,61.8828125 L159.278028,79.5636161 C159.278232,80.3452185 158.967537,81.0948669 158.414337,81.6475433 C157.861137,82.2002196 157.110778,82.5104168 156.328435,82.5104168 Z" id="Path"></path>
                    <path d="M156.328435,111.978423 C155.546092,111.978423 154.795733,111.668226 154.242533,111.115549 C153.689333,110.562873 153.378638,109.813224 153.378842,109.031622 L153.378842,91.3508185 C153.378842,89.7233454 154.69942,88.4040179 156.328435,88.4040179 C157.95745,88.4040179 159.278028,89.7233454 159.278028,91.3508185 L159.278028,109.031622 C159.278232,109.813224 158.967537,110.562873 158.414337,111.115549 C157.861137,111.668226 157.110778,111.978423 156.328435,111.978423 Z" id="Path"></path>
                    <path d="M144.530063,111.978423 C143.74772,111.978423 142.997361,111.668226 142.444161,111.115549 C141.890961,110.562873 141.580266,109.813224 141.580469,109.031622 L141.580469,91.3508185 C141.580469,89.7233454 142.901047,88.4040179 144.530063,88.4040179 C146.159078,88.4040179 147.479656,89.7233454 147.479656,91.3508185 L147.479656,109.031622 C147.479859,109.813224 147.169165,110.562873 146.615965,111.115549 C146.062765,111.668226 145.312406,111.978423 144.530063,111.978423 L144.530063,111.978423 Z" id="Path"></path>
                    <path d="M168.126808,141.446429 C167.344464,141.446429 166.594106,141.136232 166.040906,140.583555 C165.487705,140.030879 165.177011,139.28123 165.177214,138.499628 L165.177214,120.818824 C165.177214,119.191351 166.497792,117.872024 168.126808,117.872024 C169.755823,117.872024 171.076401,119.191351 171.076401,120.818824 L171.076401,138.499628 C171.076604,139.28123 170.76591,140.030879 170.21271,140.583555 C169.659509,141.136232 168.909151,141.446429 168.126808,141.446429 Z" id="Path"></path>
                    <path d="M153.378842,141.446429 L147.479656,141.446429 C144.223168,141.44271 141.584192,138.806232 141.58047,135.552827 L141.58047,123.765625 C141.584192,120.512221 144.223168,117.875743 147.479656,117.872024 L153.378842,117.872024 C156.63533,117.875743 159.274306,120.512221 159.278028,123.765625 L159.278028,135.552827 C159.274306,138.806232 156.63533,141.44271 153.378842,141.446429 L153.378842,141.446429 Z M147.479656,123.765625 L147.479656,135.552827 L153.378842,135.552827 L153.378842,123.765625 L147.479656,123.765625 Z" id="Shape"></path>
                    <path d="M117.983725,111.978423 L112.084538,111.978423 C108.828051,111.974704 106.189074,109.338226 106.185352,106.084821 L106.185352,94.297619 C106.189074,91.0442146 108.828051,88.4077366 112.084538,88.4040179 L117.983725,88.4040179 C121.240212,88.4077366 123.879189,91.0442146 123.882911,94.297619 L123.882911,106.084821 C123.879189,109.338226 121.240212,111.974704 117.983725,111.978423 Z M112.084538,94.297619 L112.084538,106.084821 L117.983725,106.084821 L117.983725,94.297619 L112.084538,94.297619 Z" id="Shape"></path>
                    <path d="M132.73169,111.978423 C131.949347,111.978423 131.198988,111.668226 130.645788,111.115549 C130.092588,110.562873 129.781894,109.813224 129.782097,109.031622 L129.782097,91.3508185 C129.782097,89.7233454 131.102675,88.4040179 132.73169,88.4040179 C134.360705,88.4040179 135.681283,89.7233454 135.681283,91.3508185 L135.681283,109.031622 C135.681487,109.813224 135.370792,110.562873 134.817592,111.115549 C134.264392,111.668226 133.514033,111.978423 132.73169,111.978423 Z" id="Path"></path>
                    <path d="M97.3365728,111.978423 C96.5542297,111.978423 95.8038709,111.668226 95.2506708,111.115549 C94.6974707,110.562873 94.3867762,109.813224 94.3869796,109.031622 L94.3869796,91.3508185 C94.3869796,89.7233454 95.7075575,88.4040179 97.3365728,88.4040179 C98.9655881,88.4040179 100.286166,89.7233454 100.286166,91.3508185 L100.286166,109.031622 C100.286369,109.813224 99.9756749,110.562873 99.4224748,111.115549 C98.8692747,111.668226 98.1189159,111.978423 97.3365728,111.978423 Z" id="Path"></path>
                    <path d="M85.5382003,111.978423 C84.7558572,111.978423 84.0054985,111.668226 83.4522983,111.115549 C82.8990982,110.562873 82.5884037,109.813224 82.5886071,109.031622 L82.5886071,91.3508185 C82.5886071,89.7233454 83.909185,88.4040179 85.5382003,88.4040179 C87.1672156,88.4040179 88.4877936,89.7233454 88.4877936,91.3508185 L88.4877936,109.031622 C88.4879969,109.813224 88.1773025,110.562873 87.6241024,111.115549 C87.0709022,111.668226 86.3205434,111.978423 85.5382003,111.978423 Z" id="Path"></path>
                    <path d="M73.7398279,111.978423 C72.9574848,111.978423 72.207126,111.668226 71.6539259,111.115549 C71.1007257,110.562873 70.7900313,109.813224 70.7902347,109.031622 L70.7902347,91.3508185 C70.7902347,89.7233454 72.1108126,88.4040179 73.7398279,88.4040179 C75.3688432,88.4040179 76.6894211,89.7233454 76.6894211,91.3508185 L76.6894211,109.031622 C76.6896245,109.813224 76.37893,110.562873 75.8257299,111.115549 C75.2725298,111.668226 74.522171,111.978423 73.7398279,111.978423 L73.7398279,111.978423 Z" id="Path"></path>
                    <path d="M58.9918623,111.978423 L53.0926761,111.978423 C49.8361886,111.974704 47.1972121,109.338226 47.1934898,106.084821 L47.1934898,94.297619 C47.1972121,91.0442146 49.8361886,88.4077366 53.0926761,88.4040179 L58.9918623,88.4040179 C62.2483498,88.4077366 64.8873262,91.0442146 64.8910485,94.297619 L64.8910485,106.084821 C64.8873262,109.338226 62.2483498,111.974704 58.9918623,111.978423 L58.9918623,111.978423 Z M53.0926761,94.297619 L53.0926761,106.084821 L58.9918623,106.084821 L58.9918623,94.297619 L53.0926761,94.297619 Z" id="Shape"></path>
                    <path d="M38.3447105,111.978423 C37.5623674,111.978423 36.8120086,111.668226 36.2588085,111.115549 C35.7056084,110.562873 35.3949139,109.813224 35.3951173,109.031622 L35.3951173,91.3508185 C35.3951173,89.7233454 36.7156952,88.4040179 38.3447105,88.4040179 C39.9737258,88.4040179 41.2943037,89.7233454 41.2943037,91.3508185 L41.2943037,109.031622 C41.2945071,109.813224 40.9838126,110.562873 40.4306125,111.115549 C39.8774124,111.668226 39.1270536,111.978423 38.3447105,111.978423 Z" id="Path"></path>
                    <path d="M129.782097,141.446429 L123.882911,141.446429 C120.626423,141.44271 117.987447,138.806232 117.983725,135.552827 L117.983725,123.765625 C117.987447,120.512221 120.626423,117.875743 123.882911,117.872024 L129.782097,117.872024 C133.038585,117.875743 135.677561,120.512221 135.681283,123.765625 L135.681283,135.552827 C135.677561,138.806232 133.038585,141.44271 129.782097,141.446429 Z M123.882911,123.765625 L123.882911,135.552827 L129.782097,135.552827 L129.782097,123.765625 L123.882911,123.765625 Z" id="Shape"></path>
                    <path d="M109.134945,141.446429 C108.352602,141.446429 107.602243,141.136232 107.049043,140.583555 C106.495843,140.030879 106.185149,139.28123 106.185352,138.499628 L106.185352,120.818824 C106.185352,119.191351 107.50593,117.872024 109.134945,117.872024 C110.763961,117.872024 112.084538,119.191351 112.084538,120.818824 L112.084538,138.499628 C112.084742,139.28123 111.774047,140.030879 111.220847,140.583555 C110.667647,141.136232 109.917288,141.446429 109.134945,141.446429 Z" id="Path"></path>
                    <path d="M61.9414554,141.446429 C61.1591123,141.446429 60.4087535,141.136232 59.8555534,140.583555 C59.3023533,140.030879 58.9916588,139.28123 58.9918622,138.499628 L58.9918622,120.818824 C58.9918622,119.191351 60.3124401,117.872024 61.9414554,117.872024 C63.5704707,117.872024 64.8910486,119.191351 64.8910486,120.818824 L64.8910486,138.499628 C64.891252,139.28123 64.5805576,140.030879 64.0273574,140.583555 C63.4741573,141.136232 62.7237985,141.446429 61.9414554,141.446429 Z" id="Path"></path>
                    <path d="M82.5886072,141.446429 L76.689421,141.446429 C73.4329335,141.44271 70.7939571,138.806232 70.7902348,135.552827 L70.7902348,123.765625 C70.7939571,120.512221 73.4329335,117.875743 76.689421,117.872024 L82.5886072,117.872024 C85.8450947,117.875743 88.4840712,120.512221 88.4877935,123.765625 L88.4877935,135.552827 C88.4840712,138.806232 85.8450947,141.44271 82.5886072,141.446429 Z M76.689421,123.765625 L76.689421,135.552827 L82.5886072,135.552827 L82.5886072,123.765625 L76.689421,123.765625 Z" id="Shape"></path>
                    <path d="M47.1934898,141.446429 L41.2943036,141.446429 C38.0378161,141.44271 35.3988397,138.806232 35.3951174,135.552827 L35.3951174,123.765625 C35.3988397,120.512221 38.0378161,117.875743 41.2943036,117.872024 L47.1934898,117.872024 C50.4499774,117.875743 53.0889538,120.512221 53.0926761,123.765625 L53.0926761,135.552827 C53.0889538,138.806232 50.4499774,141.44271 47.1934898,141.446429 Z M41.2943036,123.765625 L41.2943036,135.552827 L47.1934898,135.552827 L47.1934898,123.765625 L41.2943036,123.765625 Z" id="Shape"></path>
                    <path d="M97.3365728,141.446429 C96.5542297,141.446429 95.8038709,141.136232 95.2506708,140.583555 C94.6974707,140.030879 94.3867762,139.28123 94.3869796,138.499628 L94.3869796,120.818824 C94.3869796,119.191351 95.7075575,117.872024 97.3365728,117.872024 C98.9655881,117.872024 100.286166,119.191351 100.286166,120.818824 L100.286166,138.499628 C100.286369,139.28123 99.9756749,140.030879 99.4224748,140.583555 C98.8692747,141.136232 98.1189159,141.446429 97.3365728,141.446429 Z" id="Path"></path>
                    <path d="M11.7983725,111.978423 L5.89918623,111.978423 C2.64269871,111.974704 0.00372228883,109.338226 0,106.084821 L0,94.297619 C0.00372228883,91.0442146 2.64269871,88.4077366 5.89918623,88.4040179 L11.7983725,88.4040179 C15.05486,88.4077366 17.6938364,91.0442146 17.6975587,94.297619 L17.6975587,106.084821 C17.6938364,109.338226 15.05486,111.974704 11.7983725,111.978423 Z M5.89918623,94.297619 L5.89918623,106.084821 L11.7983725,106.084821 L11.7983725,94.297619 L5.89918623,94.297619 Z" id="Shape"></path>
                    <path d="M26.546338,111.978423 C25.7639949,111.978423 25.0136362,111.668226 24.460436,111.115549 C23.9072359,110.562873 23.5965414,109.813224 23.5967448,109.031622 L23.5967448,91.3508185 C23.5967448,89.7233454 24.9173227,88.4040179 26.546338,88.4040179 C28.1753533,88.4040179 29.4959313,89.7233454 29.4959313,91.3508185 L29.4959313,109.031622 C29.4961346,109.813224 29.1854402,110.562873 28.63224,111.115549 C28.0790399,111.668226 27.3286811,111.978423 26.546338,111.978423 Z" id="Path"></path>
                    <path d="M23.5967449,141.446429 L17.6975587,141.446429 C14.4410712,141.44271 11.8020947,138.806232 11.7983725,135.552827 L11.7983725,123.765625 C11.8020947,120.512221 14.4410712,117.875743 17.6975587,117.872024 L23.5967449,117.872024 C26.8532324,117.875743 29.4922089,120.512221 29.4959312,123.765625 L29.4959312,135.552827 C29.4922089,138.806232 26.8532324,141.44271 23.5967449,141.446429 Z M17.6975587,123.765625 L17.6975587,135.552827 L23.5967449,135.552827 L23.5967449,123.765625 L17.6975587,123.765625 Z" id="Shape"></path>
                    <path d="M2.94959312,141.446429 C2.16725002,141.446429 1.41689123,141.136232 0.863691104,140.583555 C0.310490976,140.030879 -0.000203488576,139.28123 -9.98927065e-08,138.499628 L-9.98927065e-08,120.818824 C-9.98927065e-08,119.191351 1.32057782,117.872024 2.94959312,117.872024 C4.57860841,117.872024 5.89918633,119.191351 5.89918633,120.818824 L5.89918633,138.499628 C5.89938972,139.28123 5.58869525,140.030879 5.03549513,140.583555 C4.482295,141.136232 3.73193621,141.446429 2.94959312,141.446429 Z" id="Path"></path>
                </g>
                <g id="Group" opacity="0.5" transform="translate(96.626486, 209.785714)" fill="#6D6DAA">
                    <path d="M11.7983725,23.6122449 L5.89918623,23.6122449 C2.64269871,23.6085202 0.00372228883,20.9678103 0,17.7091837 L0,5.90306122 C0.00372228883,2.64443462 2.64269871,0.00372473389 5.89918623,0 L11.7983725,0 C15.05486,0.00372473389 17.6938364,2.64443462 17.6975587,5.90306122 L17.6975587,17.7091837 C17.6938364,20.9678103 15.05486,23.6085202 11.7983725,23.6122449 Z M5.89918623,5.90306122 L5.89918623,17.7091837 L11.8013221,17.7091837 L11.7983725,5.90306122 L5.89918623,5.90306122 Z" id="Shape"></path>
                    <path d="M26.546338,23.612245 C25.7639949,23.612245 25.0136362,23.30155 24.460436,22.7479865 C23.9072359,22.194423 23.5965414,21.4435713 23.5967448,20.6607143 L23.5967448,2.95153061 C23.5967448,1.32144527 24.9173227,0 26.546338,0 C28.1753533,0 29.4959313,1.32144527 29.4959313,2.95153061 L29.4959313,20.6607143 C29.4961346,21.4435713 29.1854402,22.194423 28.63224,22.7479865 C28.0790399,23.30155 27.3286811,23.612245 26.546338,23.612245 L26.546338,23.612245 Z" id="Path"></path>
                    <path d="M2.94959312,53.1275511 C2.16725002,53.1275511 1.41689123,52.8168561 0.863691104,52.2632926 C0.310490976,51.7097291 -0.000203488576,50.9588774 -9.98927065e-08,50.1760204 L-9.98927065e-08,32.4668367 C-9.98927065e-08,30.8367514 1.32057782,29.5153061 2.94959312,29.5153061 C4.57860841,29.5153061 5.89918633,30.8367514 5.89918633,32.4668367 L5.89918633,50.1760204 C5.89938972,50.9588774 5.58869525,51.7097291 5.03549513,52.2632926 C4.482295,52.8168561 3.73193621,53.1275511 2.94959312,53.1275511 L2.94959312,53.1275511 Z" id="Path"></path>
                    <path d="M23.5967449,53.127551 L17.6975587,53.127551 C14.4410712,53.1238263 11.8020947,50.4831164 11.7983725,47.2244898 L11.7983725,35.4183673 C11.8020947,32.1597407 14.4410712,29.5190309 17.6975587,29.5153061 L23.5967449,29.5153061 C26.8532324,29.5190309 29.4922089,32.1597407 29.4959312,35.4183673 L29.4959312,47.2244898 C29.4922089,50.4831164 26.8532324,53.1238263 23.5967449,53.127551 Z M17.6975587,35.4183673 L17.6975587,47.2244898 L23.5996945,47.2244898 L23.5967449,35.4183673 L17.6975587,35.4183673 Z" id="Shape"></path>
                    <path d="M26.546338,82.6428572 C25.7639949,82.6428572 25.0136362,82.3321622 24.460436,81.7785987 C23.9072359,81.2250352 23.5965414,80.4741835 23.5967448,79.6913265 L23.5967448,61.9821429 C23.5967448,60.3520575 24.9173227,59.0306122 26.546338,59.0306122 C28.1753533,59.0306122 29.4959313,60.3520575 29.4959313,61.9821429 L29.4959313,79.6913265 C29.4961346,80.4741835 29.1854402,81.2250352 28.63224,81.7785987 C28.0790399,82.3321622 27.3286811,82.6428572 26.546338,82.6428572 L26.546338,82.6428572 Z" id="Path"></path>
                    <path d="M11.7983725,82.6428571 L5.89918623,82.6428571 C2.64269871,82.6391324 0.00372228883,79.9984225 0,76.7397959 L0,64.9336735 C0.00372228883,61.6750469 2.64269871,59.034337 5.89918623,59.0306122 L11.7983725,59.0306122 C15.05486,59.034337 17.6938364,61.6750469 17.6975587,64.9336735 L17.6975587,76.7397959 C17.6938364,79.9984225 15.05486,82.6391324 11.7983725,82.6428571 Z M5.89918623,64.9336735 L5.89918623,76.7397959 L11.8013221,76.7397959 L11.7983725,64.9336735 L5.89918623,64.9336735 Z" id="Shape"></path>
                    <path d="M58.9918623,23.6122449 L53.0926761,23.6122449 C49.8361886,23.6085202 47.1972121,20.9678103 47.1934898,17.7091837 L47.1934898,5.90306122 C47.1972121,2.64443462 49.8361886,0.00372473389 53.0926761,0 L58.9918623,0 C62.2483498,0.00372473389 64.8873262,2.64443462 64.8910485,5.90306122 L64.8910485,17.7091837 C64.8873262,20.9678103 62.2483498,23.6085202 58.9918623,23.6122449 L58.9918623,23.6122449 Z M53.0926761,5.90306122 L53.0926761,17.7091837 L58.9948119,17.7091837 L58.9918623,5.90306122 L53.0926761,5.90306122 Z" id="Shape"></path>
                    <path d="M38.3447105,23.612245 C37.5623674,23.612245 36.8120086,23.30155 36.2588085,22.7479865 C35.7056084,22.194423 35.3949139,21.4435713 35.3951173,20.6607143 L35.3951173,2.95153061 C35.3951173,1.32144527 36.7156952,0 38.3447105,0 C39.9737258,0 41.2943037,1.32144527 41.2943037,2.95153061 L41.2943037,20.6607143 C41.2945071,21.4435713 40.9838126,22.194423 40.4306125,22.7479865 C39.8774124,23.30155 39.1270536,23.612245 38.3447105,23.612245 L38.3447105,23.612245 Z" id="Path"></path>
                    <path d="M73.7398279,23.612245 C72.9574848,23.612245 72.207126,23.30155 71.6539259,22.7479865 C71.1007257,22.194423 70.7900313,21.4435713 70.7902347,20.6607143 L70.7902347,2.95153061 C70.7902347,1.32144527 72.1108126,0 73.7398279,0 C75.3688432,0 76.6894211,1.32144527 76.6894211,2.95153061 L76.6894211,20.6607143 C76.6896245,21.4435713 76.37893,22.194423 75.8257299,22.7479865 C75.2725298,23.30155 74.522171,23.612245 73.7398279,23.612245 L73.7398279,23.612245 Z" id="Path"></path>
                    <path d="M85.5382003,23.612245 C84.7558572,23.612245 84.0054985,23.30155 83.4522983,22.7479865 C82.8990982,22.194423 82.5884037,21.4435713 82.5886071,20.6607143 L82.5886071,2.95153061 C82.5886071,1.32144527 83.909185,0 85.5382003,0 C87.1672156,0 88.4877936,1.32144527 88.4877936,2.95153061 L88.4877936,20.6607143 C88.4879969,21.4435713 88.1773025,22.194423 87.6241024,22.7479865 C87.0709022,23.30155 86.3205434,23.612245 85.5382003,23.612245 L85.5382003,23.612245 Z" id="Path"></path>
                    <path d="M97.3365728,23.612245 C96.5542297,23.612245 95.8038709,23.30155 95.2506708,22.7479865 C94.6974707,22.194423 94.3867762,21.4435713 94.3869796,20.6607143 L94.3869796,2.95153061 C94.3869796,1.32144527 95.7075575,0 97.3365728,0 C98.9655881,0 100.286166,1.32144527 100.286166,2.95153061 L100.286166,20.6607143 C100.286369,21.4435713 99.9756749,22.194423 99.4224748,22.7479865 C98.8692747,23.30155 98.1189159,23.612245 97.3365728,23.612245 L97.3365728,23.612245 Z" id="Path"></path>
                    <path d="M117.983725,23.6122449 L112.084538,23.6122449 C108.828051,23.6085202 106.189074,20.9678103 106.185352,17.7091837 L106.185352,5.90306122 C106.189074,2.64443462 108.828051,0.00372473389 112.084538,0 L117.983725,0 C121.240212,0.00372473389 123.879189,2.64443462 123.882911,5.90306122 L123.882911,17.7091837 C123.879189,20.9678103 121.240212,23.6085202 117.983725,23.6122449 Z M112.084538,5.90306122 L112.084538,17.7091837 L117.986674,17.7091837 L117.983725,5.90306122 L112.084538,5.90306122 Z" id="Shape"></path>
                    <path d="M132.73169,23.612245 C131.949347,23.612245 131.198988,23.30155 130.645788,22.7479865 C130.092588,22.194423 129.781894,21.4435713 129.782097,20.6607143 L129.782097,2.95153061 C129.782097,1.32144527 131.102675,0 132.73169,0 C134.360705,0 135.681283,1.32144527 135.681283,2.95153061 L135.681283,20.6607143 C135.681487,21.4435713 135.370792,22.194423 134.817592,22.7479865 C134.264392,23.30155 133.514033,23.612245 132.73169,23.612245 L132.73169,23.612245 Z" id="Path"></path>
                    <path d="M47.1934898,53.127551 L41.2943036,53.127551 C38.0378161,53.1238263 35.3988397,50.4831164 35.3951174,47.2244898 L35.3951174,35.4183673 C35.3988397,32.1597407 38.0378161,29.5190309 41.2943036,29.5153061 L47.1934898,29.5153061 C50.4499774,29.5190309 53.0889538,32.1597407 53.0926761,35.4183673 L53.0926761,47.2244898 C53.0889538,50.4831164 50.4499774,53.1238263 47.1934898,53.127551 Z M41.2943036,35.4183673 L41.2943036,47.2244898 L47.1964394,47.2244898 L47.1934898,35.4183673 L41.2943036,35.4183673 Z" id="Shape"></path>
                    <path d="M61.9414554,53.1275511 C61.1591123,53.1275511 60.4087535,52.8168561 59.8555534,52.2632926 C59.3023533,51.7097291 58.9916588,50.9588774 58.9918622,50.1760204 L58.9918622,32.4668367 C58.9918622,30.8367514 60.3124401,29.5153061 61.9414554,29.5153061 C63.5704707,29.5153061 64.8910486,30.8367514 64.8910486,32.4668367 L64.8910486,50.1760204 C64.891252,50.9588774 64.5805576,51.7097291 64.0273574,52.2632926 C63.4741573,52.8168561 62.7237985,53.1275511 61.9414554,53.1275511 L61.9414554,53.1275511 Z" id="Path"></path>
                    <path d="M109.134945,53.1275511 C108.352602,53.1275511 107.602243,52.8168561 107.049043,52.2632926 C106.495843,51.7097291 106.185149,50.9588774 106.185352,50.1760204 L106.185352,32.4668367 C106.185352,30.8367514 107.50593,29.5153061 109.134945,29.5153061 C110.763961,29.5153061 112.084538,30.8367514 112.084538,32.4668367 L112.084538,50.1760204 C112.084742,50.9588774 111.774047,51.7097291 111.220847,52.2632926 C110.667647,52.8168561 109.917288,53.1275511 109.134945,53.1275511 L109.134945,53.1275511 Z" id="Path"></path>
                    <path d="M94.3869797,53.127551 L88.4877935,53.127551 C85.2313059,53.1238263 82.5923295,50.4831164 82.5886072,47.2244898 L82.5886072,35.4183673 C82.5923295,32.1597407 85.2313059,29.5190309 88.4877935,29.5153061 L94.3869797,29.5153061 C97.6434672,29.5190309 100.282444,32.1597407 100.286166,35.4183673 L100.286166,47.2244898 C100.282444,50.4831164 97.6434672,53.1238263 94.3869797,53.127551 Z M88.4877935,35.4183673 L88.4877935,47.2244898 L94.3899293,47.2244898 L94.3869797,35.4183673 L88.4877935,35.4183673 Z" id="Shape"></path>
                    <path d="M129.782097,53.127551 L123.882911,53.127551 C120.626423,53.1238263 117.987447,50.4831164 117.983725,47.2244898 L117.983725,35.4183673 C117.987447,32.1597407 120.626423,29.5190309 123.882911,29.5153061 L129.782097,29.5153061 C133.038585,29.5190309 135.677561,32.1597407 135.681283,35.4183673 L135.681283,47.2244898 C135.677561,50.4831164 133.038585,53.1238263 129.782097,53.127551 Z M123.882911,35.4183673 L123.882911,47.2244898 L129.785047,47.2244898 L129.782097,35.4183673 L123.882911,35.4183673 Z" id="Shape"></path>
                    <path d="M73.7398279,53.1275511 C72.9574848,53.1275511 72.207126,52.8168561 71.6539259,52.2632926 C71.1007257,51.7097291 70.7900313,50.9588774 70.7902347,50.1760204 L70.7902347,32.4668367 C70.7902347,30.8367514 72.1108126,29.5153061 73.7398279,29.5153061 C75.3688432,29.5153061 76.6894211,30.8367514 76.6894211,32.4668367 L76.6894211,50.1760204 C76.6896245,50.9588774 76.37893,51.7097291 75.8257299,52.2632926 C75.2725298,52.8168561 74.522171,53.1275511 73.7398279,53.1275511 L73.7398279,53.1275511 Z" id="Path"></path>
                    <path d="M38.3447105,82.6428572 C37.5623674,82.6428572 36.8120086,82.3321622 36.2588085,81.7785987 C35.7056084,81.2250352 35.3949139,80.4741835 35.3951173,79.6913265 L35.3951173,61.9821429 C35.3951173,60.3520575 36.7156952,59.0306122 38.3447105,59.0306122 C39.9737258,59.0306122 41.2943037,60.3520575 41.2943037,61.9821429 L41.2943037,79.6913265 C41.2945071,80.4741835 40.9838126,81.2250352 40.4306125,81.7785987 C39.8774124,82.3321622 39.1270536,82.6428572 38.3447105,82.6428572 L38.3447105,82.6428572 Z" id="Path"></path>
                    <path d="M50.143083,82.6428572 C49.3607399,82.6428572 48.6103811,82.3321622 48.0571809,81.7785987 C47.5039808,81.2250352 47.1932864,80.4741835 47.1934897,79.6913265 L47.1934897,61.9821429 C47.1934897,60.3520575 48.5140677,59.0306122 50.143083,59.0306122 C51.7720983,59.0306122 53.0926762,60.3520575 53.0926762,61.9821429 L53.0926762,79.6913265 C53.0928796,80.4741835 52.7821851,81.2250352 52.228985,81.7785987 C51.6757848,82.3321622 50.9254261,82.6428572 50.143083,82.6428572 L50.143083,82.6428572 Z" id="Path"></path>
                    <path d="M97.3365728,82.6428572 C96.5542297,82.6428572 95.8038709,82.3321622 95.2506708,81.7785987 C94.6974707,81.2250352 94.3867762,80.4741835 94.3869796,79.6913265 L94.3869796,61.9821429 C94.3869796,60.3520575 95.7075575,59.0306122 97.3365728,59.0306122 C98.9655881,59.0306122 100.286166,60.3520575 100.286166,61.9821429 L100.286166,79.6913265 C100.286369,80.4741835 99.9756749,81.2250352 99.4224748,81.7785987 C98.8692747,82.3321622 98.1189159,82.6428572 97.3365728,82.6428572 L97.3365728,82.6428572 Z" id="Path"></path>
                    <path d="M132.73169,82.6428572 C131.949347,82.6428572 131.198988,82.3321622 130.645788,81.7785987 C130.092588,81.2250352 129.781894,80.4741835 129.782097,79.6913265 L129.782097,61.9821429 C129.782097,60.3520575 131.102675,59.0306122 132.73169,59.0306122 C134.360705,59.0306122 135.681283,60.3520575 135.681283,61.9821429 L135.681283,79.6913265 C135.681487,80.4741835 135.370792,81.2250352 134.817592,81.7785987 C134.264392,82.3321622 133.514033,82.6428572 132.73169,82.6428572 L132.73169,82.6428572 Z" id="Path"></path>
                    <path d="M70.7902348,82.6428571 L64.8910485,82.6428571 C61.634561,82.6391324 58.9955846,79.9984225 58.9918623,76.7397959 L58.9918623,64.9336735 C58.9955846,61.6750469 61.634561,59.034337 64.8910485,59.0306122 L70.7902348,59.0306122 C74.0467223,59.034337 76.6856987,61.6750469 76.689421,64.9336735 L76.689421,76.7397959 C76.6856987,79.9984225 74.0467223,82.6391324 70.7902348,82.6428571 Z M64.8910485,64.9336735 L64.8910485,76.7397959 L70.7931844,76.7397959 L70.7902348,64.9336735 L64.8910485,64.9336735 Z" id="Shape"></path>
                    <path d="M117.983725,82.6428571 L112.084538,82.6428571 C108.828051,82.6391324 106.189074,79.9984225 106.185352,76.7397959 L106.185352,64.9336735 C106.189074,61.6750469 108.828051,59.034337 112.084538,59.0306122 L117.983725,59.0306122 C121.240212,59.034337 123.879189,61.6750469 123.882911,64.9336735 L123.882911,76.7397959 C123.879189,79.9984225 121.240212,82.6391324 117.983725,82.6428571 Z M112.084538,64.9336735 L112.084538,76.7397959 L117.986674,76.7397959 L117.983725,64.9336735 L112.084538,64.9336735 Z" id="Shape"></path>
                    <path d="M85.5382003,82.6428572 C84.7558572,82.6428572 84.0054985,82.3321622 83.4522983,81.7785987 C82.8990982,81.2250352 82.5884037,80.4741835 82.5886071,79.6913265 L82.5886071,61.9821429 C82.5886071,60.3520575 83.909185,59.0306122 85.5382003,59.0306122 C87.1672156,59.0306122 88.4877936,60.3520575 88.4877936,61.9821429 L88.4877936,79.6913265 C88.4879969,80.4741835 88.1773025,81.2250352 87.6241024,81.7785987 C87.0709022,82.3321622 86.3205434,82.6428572 85.5382003,82.6428572 L85.5382003,82.6428572 Z" id="Path"></path>
                    <path d="M156.328435,23.612245 C155.546092,23.612245 154.795733,23.30155 154.242533,22.7479865 C153.689333,22.194423 153.378638,21.4435713 153.378842,20.6607143 L153.378842,2.95153061 C153.378842,1.32144527 154.69942,0 156.328435,0 C157.95745,0 159.278028,1.32144527 159.278028,2.95153061 L159.278028,20.6607143 C159.278232,21.4435713 158.967537,22.194423 158.414337,22.7479865 C157.861137,23.30155 157.110778,23.612245 156.328435,23.612245 L156.328435,23.612245 Z" id="Path"></path>
                    <path d="M144.530063,23.612245 C143.74772,23.612245 142.997361,23.30155 142.444161,22.7479865 C141.890961,22.194423 141.580266,21.4435713 141.580469,20.6607143 L141.580469,2.95153061 C141.580469,1.32144527 142.901047,0 144.530063,0 C146.159078,0 147.479656,1.32144527 147.479656,2.95153061 L147.479656,20.6607143 C147.479859,21.4435713 147.169165,22.194423 146.615965,22.7479865 C146.062765,23.30155 145.312406,23.612245 144.530063,23.612245 L144.530063,23.612245 Z" id="Path"></path>
                    <path d="M153.378842,53.127551 L147.479656,53.127551 C144.223168,53.1238263 141.584192,50.4831164 141.58047,47.2244898 L141.58047,35.4183673 C141.584192,32.1597407 144.223168,29.5190309 147.479656,29.5153061 L153.378842,29.5153061 C156.63533,29.5190309 159.274306,32.1597407 159.278028,35.4183673 L159.278028,47.2244898 C159.274306,50.4831164 156.63533,53.1238263 153.378842,53.127551 L153.378842,53.127551 Z M147.479656,35.4183673 L147.479656,47.2244898 L153.381792,47.2244898 L153.378842,35.4183673 L147.479656,35.4183673 Z" id="Shape"></path>
                    <path d="M168.126808,53.1275511 C167.344464,53.1275511 166.594106,52.8168561 166.040906,52.2632926 C165.487705,51.7097291 165.177011,50.9588774 165.177214,50.1760204 L165.177214,32.4668367 C165.177214,30.8367514 166.497792,29.5153061 168.126808,29.5153061 C169.755823,29.5153061 171.076401,30.8367514 171.076401,32.4668367 L171.076401,50.1760204 C171.076604,50.9588774 170.76591,51.7097291 170.21271,52.2632926 C169.659509,52.8168561 168.909151,53.1275511 168.126808,53.1275511 L168.126808,53.1275511 Z" id="Path"></path>
                    <path d="M144.530063,82.6428572 C143.74772,82.6428572 142.997361,82.3321622 142.444161,81.7785987 C141.890961,81.2250352 141.580266,80.4741835 141.580469,79.6913265 L141.580469,61.9821429 C141.580469,60.3520575 142.901047,59.0306122 144.530063,59.0306122 C146.159078,59.0306122 147.479656,60.3520575 147.479656,61.9821429 L147.479656,79.6913265 C147.479859,80.4741835 147.169165,81.2250352 146.615965,81.7785987 C146.062765,82.3321622 145.312406,82.6428572 144.530063,82.6428572 L144.530063,82.6428572 Z" id="Path"></path>
                    <path d="M156.328435,82.6428572 C155.546092,82.6428572 154.795733,82.3321622 154.242533,81.7785987 C153.689333,81.2250352 153.378638,80.4741835 153.378842,79.6913265 L153.378842,61.9821429 C153.378842,60.3520575 154.69942,59.0306122 156.328435,59.0306122 C157.95745,59.0306122 159.278028,60.3520575 159.278028,61.9821429 L159.278028,79.6913265 C159.278232,80.4741835 158.967537,81.2250352 158.414337,81.7785987 C157.861137,82.3321622 157.110778,82.6428572 156.328435,82.6428572 L156.328435,82.6428572 Z" id="Path"></path>
                    <path d="M168.126808,82.6428572 C167.344464,82.6428572 166.594106,82.3321622 166.040906,81.7785987 C165.487705,81.2250352 165.177011,80.4741835 165.177214,79.6913265 L165.177214,61.9821429 C165.177214,60.3520575 166.497792,59.0306122 168.126808,59.0306122 C169.755823,59.0306122 171.076401,60.3520575 171.076401,61.9821429 L171.076401,79.6913265 C171.076604,80.4741835 170.76591,81.2250352 170.21271,81.7785987 C169.659509,82.3321622 168.909151,82.6428572 168.126808,82.6428572 L168.126808,82.6428572 Z" id="Path"></path>
                </g>
            </g>
            <g id="box" transform="translate(27.000000, 251.000000)">
                <path d="M202,194.224 L344.578639,194.224 C346.65085,194.224 348.330709,192.546911 348.330709,190.478118 L348.330709,29.4051765 L202,3.184 L202,194.224 Z" id="Path" fill="#F5DBB8"></path>
                <path d="M343.985788,199 L200.991358,199 C198.913104,199 197.228346,197.318959 197.228346,195.245291 L197.228346,3.75510919 C197.228346,2.64313354 197.722258,1.58833983 198.577053,0.874873252 C199.431849,0.161406678 200.5596,-0.137349196 201.656508,0.0590858639 L348.41395,26.3420519 C350.207316,26.6630063 351.511811,28.2201094 351.511811,30.0380753 L351.511811,191.490581 C351.507662,195.636203 348.140576,198.995861 343.985788,199 L343.985788,199 Z M204.754369,191.490581 L343.985788,191.490581 L343.985788,33.1786269 L204.754369,8.24318848 L204.754369,191.490581 Z" id="Shape" fill="#6D6DAA"></path>
                <path d="M59.4213771,194.224 L202,194.224 L202,3.184 L55.6692913,29.4051765 L55.6692913,190.478118 C55.6692913,192.546911 57.3491574,194.224 59.4213771,194.224 Z" id="Path" fill="#FFFAD1"></path>
                <path d="M203.008595,199 L60.0143055,199 C55.8594658,198.995861 52.4923378,195.636203 52.488189,191.490581 L52.488189,30.0380638 C52.488189,28.2200978 53.7927002,26.6629946 55.5860892,26.3420402 L202.343513,0.0590723881 C203.440422,-0.137337675 204.568166,0.161429777 205.422954,0.87489346 C206.277742,1.58835714 206.771654,2.64313594 206.771654,3.75509597 L206.771654,195.24529 C206.771654,197.318959 205.086875,199 203.008595,199 Z M60.0143055,33.1786156 L60.0143055,191.490581 L199.245537,191.490581 L199.245537,8.24313801 L60.0143055,33.1786156 Z" id="Shape" fill="#6D6DAA"></path>
                <path d="M60.4409449,119.4 L155.759016,119.4 C158.913234,119.4 161.725658,117.401086 162.780507,114.409535 L202,3.184 L60.4409449,36.9248909 L60.4409449,119.4 Z" id="Path" fill="#875499" opacity="0.3"></path>
                <path d="M248.240777,119.4 L343.559055,119.4 L343.559055,36.9248909 L202,3.184 L241.219206,114.409535 C242.274064,117.401125 245.086532,119.4 248.240777,119.4 Z" id="Path" fill="#875499" opacity="0.3"></path>
                <path d="M258.269446,105.072 L400.818898,105.072 L347.735845,9.13763342 C345.773019,5.47070413 341.967229,3.184 337.82712,3.184 L202,3.184 L258.269446,105.072 Z" id="Path" fill="#F5DBB8"></path>
                <path d="M400.269249,108.256006 L258.507913,108.256006 C257.153356,108.256006 255.905165,107.52156 255.247402,106.336664 L199.288979,5.54660041 C198.646539,4.39044766 198.663628,2.98040218 199.333897,1.8401786 C200.004167,0.699955027 201.227485,5.60014115e-06 202.54949,5.60014115e-06 L337.627563,5.60014115e-06 C343.118037,-0.00474449686 348.166139,3.01263031 350.764661,7.85237843 L403.527932,102.707587 C404.172029,103.863479 404.156045,105.274285 403.485926,106.415268 C402.815807,107.556251 401.591832,108.256006 400.269249,108.256006 L400.269249,108.256006 Z M260.7029,100.790075 L393.92293,100.790075 L344.221555,11.437817 C342.926473,8.99576975 340.390378,7.46815884 337.627563,7.46594186 L208.890363,7.46594186 L260.7029,100.790075 Z" id="Shape" fill="#6D6DAA"></path>
                <path d="M3.18110236,105.072 L145.73032,105.072 L202,3.184 L66.1730582,3.184 C62.0329376,3.184 58.2271364,5.47070413 56.2643052,9.13763342 L3.18110236,105.072 Z" id="Path" fill="#FFFAD1"></path>
                <path d="M145.491567,108.256019 L3.73089526,108.256019 C2.40828102,108.256019 1.18425885,107.556319 0.514106636,106.415329 C-0.156045581,105.274339 -0.172040154,103.863509 0.472072136,102.7076 L53.2613582,7.80682315 C55.8654645,2.98968724 60.9017656,-0.00850638572 66.3750305,1.81296341e-05 L201.450477,1.81296341e-05 C202.772494,1.81296341e-05 203.995822,0.699980069 204.666098,1.84020351 C205.336374,2.98042695 205.353462,4.39047228 204.711016,5.54662489 L148.752106,106.336677 C148.094337,107.521573 146.846135,108.256019 145.491567,108.256019 L145.491567,108.256019 Z M10.0771953,100.790088 L143.296709,100.790088 L195.109549,7.46596389 L66.3750305,7.46596389 C63.6293713,7.46384839 61.1048792,8.97236645 59.8045964,11.3921493 L10.0771953,100.790088 Z" id="Shape" fill="#6D6DAA"></path>
                <rect id="Rectangle" fill="#FFFFFF" x="93.8425197" y="124.176" width="63.6220472" height="52.536"></rect>
                <path d="M156.878574,179.896 L92.837961,179.896 C90.757452,179.896 89.0708661,178.203189 89.0708661,176.115 L89.0708661,123.181 C89.0708661,121.092811 90.757452,119.4 92.837961,119.4 L156.878574,119.4 C158.959083,119.4 160.645669,121.092811 160.645669,123.181 L160.645669,176.115 C160.645669,178.203189 158.959083,179.896 156.878574,179.896 Z M96.6050559,172.334 L153.111479,172.334 L153.111479,126.962 L96.6050559,126.962 L96.6050559,172.334 Z" id="Shape" fill="#6D6DAA"></path>
                <path d="M112.397032,143.28 L108.689471,143.28 C106.638786,143.28 104.976378,141.498093 104.976378,139.3 C104.976378,137.101907 106.638786,135.32 108.689471,135.32 L112.397143,135.32 C114.447828,135.32 116.110236,137.101907 116.110236,139.3 C116.110236,141.498093 114.447828,143.28 112.397143,143.28 L112.397032,143.28 Z" id="Path" fill="#B6B6D4"></path>
                <path d="M112.397032,168.752 L108.689471,168.752 C106.638786,168.752 104.976378,166.970093 104.976378,164.772 C104.976378,162.573907 106.638786,160.792 108.689471,160.792 L112.397143,160.792 C114.447828,160.792 116.110236,162.573907 116.110236,164.772 C116.110236,166.970093 114.447828,168.752 112.397143,168.752 L112.397032,168.752 Z" id="Path" fill="#B6B6D4"></path>
                <path d="M126.712104,168.752 L123.004432,168.752 C120.953747,168.752 119.291339,166.970093 119.291339,164.772 C119.291339,162.573907 120.953747,160.792 123.004432,160.792 L126.712104,160.792 C128.762788,160.792 130.425197,162.573907 130.425197,164.772 C130.425197,166.970093 128.762788,168.752 126.712104,168.752 Z" id="Path" fill="#B6B6D4"></path>
                <path d="M142.61743,168.752 L138.909944,168.752 C136.859259,168.752 135.19685,166.970093 135.19685,164.772 C135.19685,162.573907 136.859259,160.792 138.909944,160.792 L142.617616,160.792 C144.6683,160.792 146.330709,162.573907 146.330709,164.772 C146.330709,166.970093 144.6683,168.752 142.617616,168.752 L142.61743,168.752 Z" id="Path" fill="#B6B6D4"></path>
                <path d="M141.104092,143.28 L122.927404,143.28 C120.91926,143.28 119.291339,141.498093 119.291339,139.3 C119.291339,137.101907 120.91926,135.32 122.927404,135.32 L141.104092,135.32 C143.112236,135.32 144.740157,137.101907 144.740157,139.3 C144.740157,141.498093 143.112236,143.28 141.104092,143.28 Z" id="Path" fill="#B6B6D4"></path>
                <path d="M126.789132,154.424 L108.612443,154.424 C106.6043,154.424 104.976378,152.642093 104.976378,150.444 C104.976378,148.245907 106.6043,146.464 108.612443,146.464 L126.789132,146.464 C128.797275,146.464 130.425197,148.245907 130.425197,150.444 C130.425197,152.642093 128.797275,154.424 126.789132,154.424 Z" id="Path" fill="#B6B6D4"></path>
            </g>
        </g>
    </g>
</svg>