<?xml version="1.0" encoding="UTF-8"?>
<svg width="800px" height="600px" viewBox="0 0 800 600" version="1.1" xmlns="http://www.w3.org/2000/svg" xmlns:xlink="http://www.w3.org/1999/xlink">
    <title>Artboard</title>
    <g id="Artboard" stroke="none" stroke-width="1" fill="none" fill-rule="evenodd">
        <g id="code-1" transform="translate(260.000000, 160.000000)" fill-rule="nonzero">
            <path d="M3,258.489362 C3,268.712505 11.2827321,277 21.5,277 L77,277 C63.3769762,277 52.3333333,265.950007 52.3333333,252.319149 L52.3333333,132 L3,132 L3,258.489362 Z" id="Path" fill="#CED8EE"></path>
            <path d="M53.1418142,258.5 L21.5,258.5 C11.2827321,258.5 3,250.217268 3,240 L3,258.5 C3,268.717268 11.2827321,277 21.5,277 L77,277 C65.7598873,276.993014 55.9474759,269.384321 53.1418142,258.5 L53.1418142,258.5 Z" id="Path" fill="#6E7EB0" opacity="0.3"></path>
            <path d="M76.9230769,280 L21.5384616,280 C9.64884749,279.986109 0.0138696704,270.336384 -1.42108547e-14,258.428571 L-1.42108547e-14,132.081633 C-1.42108547e-14,131.264268 0.323894557,130.480319 0.900975588,129.902355 C1.47805662,129.32439 2.26080738,129 3.07692318,129 L52.3076923,129 C53.1238081,129 53.9065589,129.32439 54.4836399,129.902355 C55.060721,130.480319 55.3848277,131.264268 55.3846154,132.081633 L55.3846154,252.265306 C55.398485,264.173119 65.0334628,273.822844 76.9230769,273.836735 C78.6224146,273.836735 80,275.216429 80,276.918367 C80,278.620306 78.6224146,280 76.9230769,280 L76.9230769,280 Z M6.15384625,135.163265 L6.15384625,258.428571 C6.16383284,266.934119 13.0459132,273.826733 21.5384616,273.836735 L59.5342462,273.836735 C53.0180288,268.5778 49.2297761,260.646688 49.2307693,252.265306 L49.2307693,135.163265 L6.15384625,135.163265 Z" id="Shape" fill="#6D6DAA"></path>
            <path d="M40.4337349,255.487805 C40.4337349,267.780488 34.2891566,277 22,277 L258.566265,277 C268.746936,277 277,268.744568 277,258.560976 L277,25 L40.4337349,25 L40.4337349,255.487805 Z" id="Path" fill="#FFFFFF"></path>
            <rect id="Rectangle" fill="#FFF27D" x="40" y="56" width="237" height="98"></rect>
            <path d="M258.566265,258.5 L40.2820253,258.5 C39.3207982,269.254667 33.2379114,277 22,277 L258.566265,277 C268.746936,277 277,268.717268 277,258.5 L277,240 C277,250.217268 268.746936,258.5 258.566265,258.5 L258.566265,258.5 Z" id="Path" fill="#7690A8" opacity="0.3"></path>
            <path d="M277,15.3333333 L277,40 L40,40 L40,15.3333333 C40.0198789,8.53008708 45.5203818,3.01991385 52.3116883,3 L264.688312,3 C271.479618,3.01991385 276.980121,8.53008708 277,15.3333333 L277,15.3333333 Z" id="Path" fill="#EEF6FF"></path>
            <path d="M264.688312,3 L52.3116883,3 C45.5203957,3.02033262 40.0199125,8.63685979 40,15.5714286 L40,25 C40.0199125,18.0654312 45.5203957,12.448904 52.3116883,12.4285714 L264.688312,12.4285714 C271.479632,12.4488354 276.980155,18.0654027 277,25 L277,15.5714286 C276.980155,8.63683124 271.479632,3.02026396 264.688312,3 L264.688312,3 Z" id="Path" fill="#FFFFFF"></path>
            <rect id="Rectangle" fill="#FFFFFF" x="148" y="16" width="117" height="12" rx="2"></rect>
            <path d="M258.775,31 L154.225,31 C149.130173,31 145,26.9705627 145,22 C145,17.0294373 149.130173,13 154.225,13 L258.775,13 C263.869827,13 268,17.0294373 268,22 C268,26.9705627 263.869827,31 258.775,31 Z M154.225,19 C152.526724,19 151.15,20.3431458 151.15,22 C151.15,23.6568542 152.526724,25 154.225,25 L258.775,25 C260.473276,25 261.85,23.6568542 261.85,22 C261.85,20.3431458 260.473276,19 258.775,19 L154.225,19 Z" id="Shape" fill="#6D6DAA"></path>
            <circle id="Oval" fill="#FF9797" cx="58" cy="22" r="6"></circle>
            <path d="M58,31 C53.0294373,31 49,26.9705627 49,22 C49,17.0294373 53.0294373,13 58,13 C62.9705627,13 67,17.0294373 67,22 C66.9945769,26.9683147 62.9683147,30.9945769 58,31 L58,31 Z M58,19 C56.3431458,19 55,20.3431458 55,22 C55,23.6568542 56.3431458,25 58,25 C59.6568542,25 61,23.6568542 61,22 C60.9983463,20.3438312 59.6561688,19.0016537 58,19 L58,19 Z" id="Shape" fill="#6D6DAA"></path>
            <circle id="Oval" fill="#FFC661" cx="83" cy="22" r="6"></circle>
            <path d="M83,31 C78.0294373,31 74,26.9705627 74,22 C74,17.0294373 78.0294373,13 83,13 C87.9705627,13 92,17.0294373 92,22 C91.9945769,26.9683147 87.9683147,30.9945769 83,31 L83,31 Z M83,19 C81.3431458,19 80,20.3431458 80,22 C80,23.6568542 81.3431458,25 83,25 C84.6568542,25 86,23.6568542 86,22 C85.9983463,20.3438312 84.6561688,19.0016537 83,19 Z" id="Shape" fill="#6D6DAA"></path>
            <circle id="Oval" fill="#B1F1A8" cx="108" cy="22" r="6"></circle>
            <path d="M108,31 C103.029437,31 99,26.9705627 99,22 C99,17.0294373 103.029437,13 108,13 C112.970563,13 117,17.0294373 117,22 C116.994577,26.9683147 112.968315,30.9945769 108,31 L108,31 Z M108,19 C106.343146,19 105,20.3431458 105,22 C105,23.6568542 106.343146,25 108,25 C109.656854,25 111,23.6568542 111,22 C110.998346,20.3438312 109.656169,19.0016537 108,19 Z" id="Shape" fill="#6D6DAA"></path>
            <path d="M273.922078,43 L43.0779221,43 C41.3780327,43 40,41.6568542 40,40 C40,38.3431458 41.3780327,37 43.0779221,37 L273.922078,37 C275.621967,37 277,38.3431458 277,40 C277,41.6568542 275.621967,43 273.922078,43 Z" id="Path" fill="#6D6DAA"></path>
            <path d="M258.423529,280 L21.0823529,280 C19.3800164,280 18,278.622415 18,276.923077 C18,275.223739 19.3800164,273.846154 21.0823529,273.846154 C29.5898882,273.836167 36.4841134,266.954087 36.4941176,258.461538 L36.4941176,15.3846154 C36.5041219,6.89206694 43.3983471,0.00998658614 51.9058824,0 L264.588235,0 C273.095771,0.00998658614 279.989996,6.89206694 280,15.3846154 L280,258.461538 C279.986106,270.351153 270.334125,279.98613 258.423529,280 Z M36.1690219,273.846154 L258.423529,273.846154 C266.931065,273.836167 273.82529,266.954087 273.835294,258.461538 L273.835294,15.3846154 C273.829722,10.288908 269.692935,6.15940834 264.588235,6.15384615 L51.9058824,6.15384615 C46.8011826,6.15940834 42.6643955,10.288908 42.6588235,15.3846154 L42.6588235,258.461538 C42.6625531,264.253573 40.322232,269.801499 36.1690219,273.846154 Z" id="Shape" fill="#6D6DAA"></path>
            <path d="M141.111633,142 C140.032727,141.999249 139.031099,141.4459 138.464303,140.537484 C137.897507,139.629067 137.846326,138.495055 138.329029,137.540259 L172.103621,70.6955141 C172.87601,69.1789885 174.742657,68.5665506 176.277682,69.3260247 C177.812707,70.0854988 178.437559,71.9306394 177.674932,73.4519949 L143.90034,140.29677 C143.371685,141.34123 142.292135,142 141.111633,142 Z" id="Path" fill="#6D6DAA"></path>
            <path d="M197.114459,142 C195.854752,142 194.719204,141.240819 194.237171,140.077048 C193.755139,138.913277 194.021518,137.573751 194.91213,136.682917 L228.696841,102.898362 C229.915416,101.695142 231.876848,101.701355 233.087775,102.91227 C234.298702,104.123186 234.304832,106.084514 233.101498,107.302974 L199.31688,141.087341 C198.733442,141.672499 197.940803,142.000959 197.114459,142 Z" id="Path" fill="#6D6DAA"></path>
            <path d="M230.886621,108 C230.060595,108.000934 229.268269,107.67259 228.685055,107.087658 L194.911957,73.3149946 C193.696014,72.099116 193.696014,70.1277874 194.911957,68.9119089 C196.127899,67.6960304 198.099331,67.6960304 199.315274,68.9119089 L233.088186,102.684665 C233.97849,103.575191 234.244776,104.914253 233.762911,106.077621 C233.281045,107.240988 232.145891,108 230.886621,108 L230.886621,108 Z" id="Path" fill="#6D6DAA"></path>
            <path d="M86.1133667,108 C84.8541019,108 83.7189517,107.241081 83.2370883,106.077713 C82.7552249,104.914344 83.0215103,103.575282 83.9118106,102.684756 L117.684677,68.9119803 C118.471251,68.1254444 119.617707,67.8182671 120.692186,68.1061593 C121.766666,68.3940514 122.60593,69.2332753 122.893836,70.3077033 C123.181742,71.3821314 122.87455,72.5285325 122.087976,73.3150685 L88.3149228,107.08775 C87.7316967,107.672648 86.9393753,108.000959 86.1133667,108 Z" id="Path" fill="#6D6DAA"></path>
            <path d="M119.885455,142 C119.059145,142.000934 118.266546,141.672476 117.683132,141.087341 L83.8985002,107.302974 C82.6951683,106.084514 82.7012982,104.123186 83.9122229,102.91227 C85.1231475,101.701355 87.084574,101.695142 88.3031462,102.898362 L122.087872,136.682917 C122.978494,137.573763 123.244867,138.913312 122.762811,140.077091 C122.280756,141.24087 121.145176,142 119.885455,142 Z" id="Path" fill="#6D6DAA"></path>
            <g id="Group" opacity="0.3" transform="translate(58.000000, 166.000000)" fill="#6D6DAA">
                <path d="M12.3283775,30.6893107 L3.08209438,30.6893107 C1.37990065,30.6893107 0,29.3153034 0,27.6203796 C0,25.9254558 1.37990065,24.5514486 3.08209438,24.5514486 L12.3283775,24.5514486 C14.0305712,24.5514486 15.4104719,25.9254558 15.4104719,27.6203796 C15.4104719,29.3153034 14.0305712,30.6893107 12.3283775,30.6893107 Z" id="Path"></path>
                <path d="M61.6418875,30.6893107 L30.8209438,30.6893107 C29.11875,30.6893107 27.7388494,29.3153034 27.7388494,27.6203796 C27.7388494,25.9254558 29.11875,24.5514486 30.8209438,24.5514486 L61.6418875,24.5514486 C63.3440812,24.5514486 64.7239819,25.9254558 64.7239819,27.6203796 C64.7239819,29.3153034 63.3440812,30.6893107 61.6418875,30.6893107 Z" id="Path"></path>
                <path d="M144.858436,30.6893107 L77.0523594,30.6893107 C75.3501657,30.6893107 73.970265,29.3153034 73.970265,27.6203796 C73.970265,25.9254558 75.3501657,24.5514486 77.0523594,24.5514486 L144.858436,24.5514486 C146.560629,24.5514486 147.94053,25.9254558 147.94053,27.6203796 C147.94053,29.3153034 146.560629,30.6893107 144.858436,30.6893107 Z" id="Path"></path>
                <path d="M92.4628313,42.965035 L30.8209438,42.965035 C29.11875,42.965035 27.7388494,41.5910277 27.7388494,39.8961039 C27.7388494,38.2011801 29.11875,36.8271728 30.8209438,36.8271728 L92.4628313,36.8271728 C94.165025,36.8271728 95.5449257,38.2011801 95.5449257,39.8961039 C95.5449257,41.5910277 94.165025,42.965035 92.4628313,42.965035 Z" id="Path"></path>
                <path d="M12.3283775,55.2407592 L3.08209438,55.2407592 C1.37990065,55.2407592 0,53.866752 0,52.1718282 C0,50.4769043 1.37990065,49.1028971 3.08209438,49.1028971 L12.3283775,49.1028971 C14.0305712,49.1028971 15.4104719,50.4769043 15.4104719,52.1718282 C15.4104719,53.866752 14.0305712,55.2407592 12.3283775,55.2407592 Z" id="Path"></path>
                <path d="M41.8520677,55.2407592 L30.8209438,55.2407592 C29.11875,55.2407592 27.7388494,53.866752 27.7388494,52.1718282 C27.7388494,50.4769043 29.11875,49.1028971 30.8209438,49.1028971 L41.8520677,49.1028971 C43.5542615,49.1028971 44.9341621,50.4769043 44.9341621,52.1718282 C44.9341621,53.866752 43.5542615,55.2407592 41.8520677,55.2407592 Z" id="Path"></path>
                <path d="M98.62702,55.2407592 L59.0353603,55.2407592 C57.3331666,55.2407592 55.9532659,53.866752 55.9532659,52.1718282 C55.9532659,50.4769043 57.3331666,49.1028971 59.0353603,49.1028971 L98.62702,49.1028971 C100.329214,49.1028971 101.709114,50.4769043 101.709114,52.1718282 C101.709114,53.866752 100.329214,55.2407592 98.62702,55.2407592 Z" id="Path"></path>
                <path d="M12.3283775,42.965035 L3.08209438,42.965035 C1.37990065,42.965035 0,41.5910277 0,39.8961039 C0,38.2011801 1.37990065,36.8271728 3.08209438,36.8271728 L12.3283775,36.8271728 C14.0305712,36.8271728 15.4104719,38.2011801 15.4104719,39.8961039 C15.4104719,41.5910277 14.0305712,42.965035 12.3283775,42.965035 Z" id="Path"></path>
                <path d="M92.4628313,18.4135864 L30.8209438,18.4135864 C29.11875,18.4135864 27.7388494,17.0395792 27.7388494,15.3446553 C27.7388494,13.6497315 29.11875,12.2757243 30.8209438,12.2757243 L92.4628313,12.2757243 C94.165025,12.2757243 95.5449257,13.6497315 95.5449257,15.3446553 C95.5449257,17.0395792 94.165025,18.4135864 92.4628313,18.4135864 Z" id="Path"></path>
                <path d="M12.3283775,18.4135864 L3.08209438,18.4135864 C1.37990065,18.4135864 0,17.0395792 0,15.3446553 C0,13.6497315 1.37990065,12.2757243 3.08209438,12.2757243 L12.3283775,12.2757243 C14.0305712,12.2757243 15.4104719,13.6497315 15.4104719,15.3446553 C15.4104719,17.0395792 14.0305712,18.4135864 12.3283775,18.4135864 Z" id="Path"></path>
                <path d="M52.3956044,6.13786214 L30.8209438,6.13786214 C29.11875,6.13786214 27.7388494,4.7638549 27.7388494,3.06893107 C27.7388494,1.37400724 29.11875,0 30.8209438,0 L52.3956044,0 C54.0977981,0 55.4776988,1.37400724 55.4776988,3.06893107 C55.4776988,4.7638549 54.0977981,6.13786214 52.3956044,6.13786214 Z" id="Path"></path>
                <path d="M86.2986425,6.13786214 L64.7239819,6.13786214 C63.0217882,6.13786214 61.6418875,4.7638549 61.6418875,3.06893107 C61.6418875,1.37400724 63.0217882,0 64.7239819,0 L86.2986425,0 C88.0008363,0 89.3807369,1.37400724 89.3807369,3.06893107 C89.3807369,4.7638549 88.0008363,6.13786214 86.2986425,6.13786214 Z" id="Path"></path>
                <path d="M12.3283775,6.13786214 L3.08209438,6.13786214 C1.37990065,6.13786214 0,4.7638549 0,3.06893107 C0,1.37400724 1.37990065,0 3.08209438,0 L12.3283775,0 C14.0305712,0 15.4104719,1.37400724 15.4104719,3.06893107 C15.4104719,4.7638549 14.0305712,6.13786214 12.3283775,6.13786214 Z" id="Path"></path>
                <path d="M12.3283775,67.5164835 L3.08209438,67.5164835 C1.37990065,67.5164835 0,66.1424763 0,64.4475524 C0,62.7526286 1.37990065,61.3786214 3.08209438,61.3786214 L12.3283775,61.3786214 C14.0305712,61.3786214 15.4104719,62.7526286 15.4104719,64.4475524 C15.4104719,66.1424763 14.0305712,67.5164835 12.3283775,67.5164835 Z" id="Path"></path>
                <path d="M55.4776988,67.5164835 L30.8209438,67.5164835 C29.11875,67.5164835 27.7388494,66.1424763 27.7388494,64.4475524 C27.7388494,62.7526286 29.11875,61.3786214 30.8209438,61.3786214 L55.4776988,61.3786214 C57.1798925,61.3786214 58.5597931,62.7526286 58.5597931,64.4475524 C58.5597931,66.1424763 57.1798925,67.5164835 55.4776988,67.5164835 Z" id="Path"></path>
                <path d="M12.3283775,79.7922078 L3.08209438,79.7922078 C1.37990065,79.7922078 0,78.4182006 0,76.7232767 C0,75.0283529 1.37990065,73.6543457 3.08209438,73.6543457 L12.3283775,73.6543457 C14.0305712,73.6543457 15.4104719,75.0283529 15.4104719,76.7232767 C15.4104719,78.4182006 14.0305712,79.7922078 12.3283775,79.7922078 Z" id="Path"></path>
                <path d="M64.7239819,79.7922078 L30.8209438,79.7922078 C29.11875,79.7922078 27.7388494,78.4182006 27.7388494,76.7232767 C27.7388494,75.0283529 29.11875,73.6543457 30.8209438,73.6543457 L64.7239819,73.6543457 C66.4261756,73.6543457 67.8060763,75.0283529 67.8060763,76.7232767 C67.8060763,78.4182006 66.4261756,79.7922078 64.7239819,79.7922078 Z" id="Path"></path>
            </g>
        </g>
    </g>
</svg>