<?xml version="1.0" encoding="UTF-8"?>
<svg width="800px" height="600px" viewBox="0 0 800 600" version="1.1" xmlns="http://www.w3.org/2000/svg" xmlns:xlink="http://www.w3.org/1999/xlink">
    <title>Artboard</title>
    <g id="Artboard" stroke="none" stroke-width="1" fill="none" fill-rule="evenodd">
        <g id="magic" transform="translate(204.000000, 112.000000)" fill-rule="nonzero">
            <g id="Group" opacity="0.3" fill="#97C1FF">
                <path d="M391.944816,140.343602 C386.205682,101.286941 356.710345,69.9456228 318.050488,61.8245585 C304.633773,58.9617346 292.549325,51.7253026 283.696384,41.2525691 C255.367236,7.75133352 210.575504,-6.95792535 167.881158,3.21974359 C125.186812,13.3974125 91.8640921,46.7279436 81.7206512,89.4004467 C77.1032014,107.995701 64.6221316,123.665664 47.5237018,132.33466 C3.14310197,155.450666 -19.2986461,215.439216 21.2788003,271.721666 C26.5690687,278.416143 33.4223125,283.71132 41.2374979,287.142806 C55.5868582,294.252156 66.7864803,306.428273 72.6685176,321.314294 C82.9354699,346.449425 104.06697,365.567643 130.114095,373.286801 C156.16122,381.005959 184.306877,376.491203 206.627524,361.013523 C221.873146,350.413538 241.020261,347.069597 258.960171,351.873906 C289.487737,360.141268 322.122193,352.003894 345.183817,330.374113 C368.245442,308.744332 378.437327,276.714357 372.111842,245.747567 C369.15404,230.392384 372.010451,214.486744 380.126752,201.117342 C390.844108,182.782899 395.011091,161.354421 391.944816,140.343602 Z" id="Path"></path>
            </g>
            <path d="M63.4375,63 L346.5625,63 C351.774687,63 356,67.2154113 356,72.4153846 L356,267 L54,267 L54,72.4153846 C54,67.2154113 58.2253127,63 63.4375,63 Z" id="Path" fill="#939FC6"></path>
            <path d="M355.857143,270 L54.1428571,270 C52.4071051,270 51,268.596713 51,266.865672 L51,72.5373134 C51,65.6131464 56.6284203,60 63.5714286,60 L346.428571,60 C353.37158,60 359,65.6131464 359,72.5373134 L359,266.865672 C359,268.596713 357.592895,270 355.857143,270 Z M57.2857143,263.731343 L352.714286,263.731343 L352.714286,72.5373134 C352.714286,69.0752299 349.900076,66.2686567 346.428571,66.2686567 L63.5714286,66.2686567 C60.0999244,66.2686567 57.2857143,69.0752299 57.2857143,72.5373134 L57.2857143,263.731343 Z" id="Shape" fill="#6D6DAA"></path>
            <path d="M242.714286,267 L167.285714,267 C163.81421,267 161,264.313708 161,261 L161,258 L249,258 L249,261 C249,264.313708 246.18579,267 242.714286,267 Z" id="Path" fill="#CED8EE"></path>
            <path d="M242.6,271 L167.4,271 C162.208523,271 158,266.701934 158,261.4 L158,258.2 C158,256.432689 159.402841,255 161.133333,255 L248.866667,255 C250.597159,255 252,256.432689 252,258.2 L252,261.4 C252,266.701934 247.791477,271 242.6,271 Z M164.266667,261.4 C164.266667,263.167311 165.669508,264.6 167.4,264.6 L242.6,264.6 C244.330492,264.6 245.733333,263.167311 245.733333,261.4 L164.266667,261.4 Z" id="Shape" fill="#6D6DAA"></path>
            <rect id="Rectangle" fill="#E0F3FF" x="66" y="76" width="277" height="170"></rect>
            <polygon id="Path" fill="#C7E9FF" points="342.874091 83.614654 343 76 66 76 66 214"></polygon>
            <polygon id="Path" fill="#C7E9FF" points="341.937094 100.431513 66 231 66 221.599821 342 91"></polygon>
            <g id="Group" opacity="0.3" transform="translate(65.000000, 75.000000)" fill="#0070B8">
                <rect id="Rectangle" x="0.967178754" y="0.224" width="277.032821" height="12.8"></rect>
            </g>
            <path d="M342.855556,249 L66.1444444,249 C64.4078157,249 63,247.592895 63,245.857143 L63,76.1428571 C63,74.4071051 64.4078157,73 66.1444444,73 L342.855556,73 C344.592184,73 346,74.4071051 346,76.1428571 L346,245.857143 C346,247.592895 344.592184,249 342.855556,249 Z M69.2888889,242.714286 L339.711111,242.714286 L339.711111,79.2857143 L69.2888889,79.2857143 L69.2888889,242.714286 Z" id="Shape" fill="#6D6DAA"></path>
            <path d="M380,258 L248,258 L248,261.142857 C248,264.614361 245.18579,267.428571 241.714286,267.428571 L166.285714,267.428571 C162.81421,267.428571 160,264.614361 160,261.142857 L160,258 L28,258 L28,267.428571 C28,274.37158 33.6284203,280 40.5714286,280 L367.428571,280 C374.37158,280 380,274.37158 380,267.428571 L380,258 Z" id="Path" fill="#EEF6FF"></path>
            <g id="Group" opacity="0.3" transform="translate(28.000000, 258.000000)" fill="#7690A8">
                <path d="M339.428571,12.71875 L12.5714286,12.71875 C5.62842029,12.71875 0,7.12230937 0,0.21875 L0,0.21875 L0,9.59375 C0,16.4973094 5.62842029,22.09375 12.5714286,22.09375 L339.428571,22.09375 C346.37158,22.09375 352,16.4973094 352,9.59375 L352,0.21875 C352,7.12230937 346.37158,12.71875 339.428571,12.71875 Z" id="Path"></path>
            </g>
            <path d="M368.254386,283 L40.745614,283 C32.0495515,283 25,276.035541 25,267.444444 L25,258.111111 C25,256.392892 26.4099103,255 28.1491228,255 L160.412281,255 C162.151493,255 163.561404,256.392892 163.561404,258.111111 L163.561404,261.222222 C163.561404,262.940441 164.971314,264.333333 166.710526,264.333333 L242.289474,264.333333 C244.028686,264.333333 245.438596,262.940441 245.438596,261.222222 L245.438596,258.111111 C245.438596,256.392892 246.848507,255 248.587719,255 L380.850877,255 C382.59009,255 384,256.392892 384,258.111111 L384,267.444444 C384,276.035541 376.950448,283 368.254386,283 Z M31.2982456,261.222222 L31.2982456,267.444444 C31.2982456,272.599102 35.5279765,276.777778 40.745614,276.777778 L368.254386,276.777778 C373.472023,276.777778 377.701754,272.599102 377.701754,267.444444 L377.701754,261.222222 L251.736842,261.222222 C251.736842,266.37688 247.507111,270.555556 242.289474,270.555556 L166.710526,270.555556 C161.492889,270.555556 157.263158,266.37688 157.263158,261.222222 L31.2982456,261.222222 Z" id="Shape" fill="#6D6DAA"></path>
            <path d="M366.421875,297.876798 C367.544734,301.561635 370.426841,304.445545 374.109375,305.569106 C377.963542,306.86158 377.963542,308.143631 374.109375,309.41526 C370.426841,310.538821 367.544734,313.42273 366.421875,317.107567 C365.130208,320.964144 363.848958,320.964144 362.578125,317.107567 C361.455266,313.42273 358.573159,310.538821 354.890625,309.41526 C351.036458,308.122785 351.036458,306.840734 354.890625,305.569106 C358.573159,304.445545 361.455266,301.561635 362.578125,297.876798 C363.848958,294.041067 365.130208,294.041067 366.421875,297.876798 Z" id="Path" fill="#C9C1F5"></path>
            <path d="M360.421875,24.876798 C361.544734,28.5616354 364.426841,31.4455446 368.109375,32.5691057 C371.963542,33.8615802 371.963542,35.1436314 368.109375,36.4152595 C364.426841,37.5388207 361.544734,40.4227299 360.421875,44.1075672 C359.130208,47.9641443 357.848958,47.9641443 356.578125,44.1075672 C355.455266,40.4227299 352.573159,37.5388207 348.890625,36.4152595 C345.036458,35.1227851 345.036458,33.8407338 348.890625,32.5691057 C352.573159,31.4455446 355.455266,28.5616354 356.578125,24.876798 C357.848958,21.0410673 359.130208,21.0410673 360.421875,24.876798 Z" id="Path" fill="#FF9797"></path>
            <path d="M168.421875,326.876798 C169.544734,330.561635 172.426841,333.445545 176.109375,334.569106 C179.963542,335.86158 179.963542,337.143631 176.109375,338.41526 C172.426841,339.538821 169.544734,342.42273 168.421875,346.107567 C167.130208,349.964144 165.848958,349.964144 164.578125,346.107567 C163.455266,342.42273 160.573159,339.538821 156.890625,338.41526 C153.036458,337.122785 153.036458,335.840734 156.890625,334.569106 C160.573159,333.445545 163.455266,330.561635 164.578125,326.876798 C165.848958,323.041067 167.130208,323.041067 168.421875,326.876798 Z" id="Path" fill="#FF9797"></path>
            <path d="M25.9566667,84.185 C26.8061009,86.9950585 29.0049415,89.1938991 31.815,90.0433333 C34.7283333,91.0144444 34.7283333,91.9855556 31.815,92.9566667 C29.0049415,93.8061009 26.8061009,96.0049415 25.9566667,98.815 C24.9855556,101.728333 24.0144444,101.728333 23.0433333,98.815 C22.1938991,96.0049415 19.9950585,93.8061009 17.185,92.9566667 C14.2716667,91.9855556 14.2716667,91.0144444 17.185,90.0433333 C19.9950585,89.1938991 22.1938991,86.9950585 23.0433333,84.185 C24.0144444,81.2716667 24.9855556,81.2716667 25.9566667,84.185 Z" id="Path" fill="#C9C1F5"></path>
            <path d="M186.615385,10.9368421 C188.141641,15.9469995 192.064472,19.8680351 197.076923,21.3935927 C202.307692,23.1363844 202.307692,24.8791762 197.076923,26.621968 C192.064472,28.1475255 188.141641,32.0685611 186.615385,37.0787185 C184.871795,42.3070938 183.128205,42.3070938 181.384615,37.0787185 C179.858359,32.0685611 175.935528,28.1475255 170.923077,26.621968 C165.692308,24.8791762 165.692308,23.1363844 170.923077,21.3935927 C175.935528,19.8680351 179.858359,15.9469995 181.384615,10.9368421 C183.128205,5.6877193 184.871795,5.6877193 186.615385,10.9368421 Z" id="Path" fill="#97C1FF"></path>
            <path d="M254.352083,341.256774 C256.013915,346.709196 260.279432,350.976492 265.729583,352.639016 C271.423472,354.530916 271.423472,356.433097 265.729583,358.345561 C260.279432,360.008085 256.013915,364.275381 254.352083,369.727803 C252.460972,375.424066 250.559583,375.424066 248.647917,369.727803 C246.986085,364.275381 242.720568,360.008085 237.270417,358.345561 C231.576528,356.453661 231.576528,354.55148 237.270417,352.639016 C242.720568,350.976492 246.986085,346.709196 248.647917,341.256774 C250.559583,335.581075 252.460972,335.581075 254.352083,341.256774 Z" id="Path" fill="#97C1FF"></path>
            <g id="Group" opacity="0.8" transform="translate(4.000000, 83.000000)">
                <path d="M70.7592672,220.214747 C68.1141694,220.220407 65.6433062,218.901015 64.183215,216.703246 C33.9901756,171.206704 46.5276732,109.93517 92.1864996,79.8494453 C137.845326,49.7637205 199.335413,62.2566563 229.528452,107.753198 C231.926518,111.363485 230.933379,116.227308 227.310214,118.61685 C223.687049,121.006393 218.805878,120.016784 216.407812,116.406497 C190.900464,78.4146032 139.385454,68.0893636 101.119955,93.2991592 C62.8544557,118.508955 52.2125143,169.783982 77.3038551,208.049947 C78.9012408,210.45435 79.0447558,213.538544 77.6775091,216.07992 C76.3102625,218.621296 73.6530681,220.209415 70.7592672,220.214747 Z" id="Path" fill="#C9C1F5"></path>
                <path d="M58.7713442,230.561068 C56.183334,230.563569 53.7596743,229.297429 52.2896851,227.174991 C16.2926312,175.124523 29.4570037,103.851622 81.693134,67.9825121 C133.929264,32.1134019 205.456392,45.2309845 241.453446,97.2814529 C243.921021,100.848451 243.019448,105.733329 239.439727,108.192134 C235.860005,110.650938 230.957703,109.75257 228.490128,106.185572 C197.428224,61.2690998 135.705701,49.9482541 90.6290136,80.8997551 C45.5523263,111.851256 34.1910996,173.3544 65.2530034,218.270872 C66.9144308,220.669711 67.1028422,223.789058 65.7421462,226.36914 C64.3814503,228.949223 61.6963886,230.563897 58.7713442,230.561068 L58.7713442,230.561068 Z" id="Path" fill="#96D7FF"></path>
                <path d="M36.4001808,223.381335 C33.3851263,223.381495 30.6352625,221.664372 29.3206988,218.960628 C20.6980972,201.291121 16.2425598,181.891557 16.2940036,162.243898 C16.3712539,105.483936 53.3643059,55.3233348 107.703795,38.2977138 C162.043284,21.2720929 221.188323,41.310757 253.850406,87.8129883 C256.227966,91.3613672 255.320564,96.152899 251.808762,98.5938882 C248.29696,101.034877 243.47083,100.228618 240.950016,96.7798123 C212.219781,55.8905024 160.206788,38.2737429 112.420714,53.2470392 C64.6346387,68.2203355 32.1009163,112.328976 32.0266341,162.243898 C31.9709134,179.544673 35.888554,196.628794 43.4796629,212.188481 C44.6606997,214.617592 44.5043454,217.481318 43.065812,219.768421 C41.6272785,222.055523 39.1089808,223.44404 36.4001808,223.44404 L36.4001808,223.381335 Z" id="Path" fill="#B1F1A8"></path>
                <path d="M12.4243349,94.8359632 C9.62502062,94.8398755 7.0345293,93.3611021 5.62202074,90.9528771 C4.20951218,88.544652 4.18783661,85.5698695 5.56510334,83.1414611 C32.1867293,35.9442557 80.7716086,5.17955561 134.959365,1.20700518 C189.147121,-2.76554524 241.727414,20.5826502 274.994459,63.3893662 C276.714353,65.6296024 277.104185,68.6139571 276.017111,71.2182528 C274.930036,73.8225485 272.531206,75.6511308 269.724237,76.0151903 C266.917269,76.3792497 264.128607,75.2234772 262.408713,72.9832409 C232.361839,34.3994044 184.925783,13.3654974 136.046229,16.9520916 C87.1666748,20.5386857 43.33436,48.2695155 19.2835664,90.8228313 C17.894362,93.2987526 15.2710662,94.8335618 12.4243349,94.8359632 L12.4243349,94.8359632 Z" id="Path" fill="#FF91A9"></path>
                <path d="M8.42836053,170.082031 C4.08403832,170.082031 0.562247461,166.57278 0.562247461,162.243898 C0.528081464,99.6685357 40.5726386,44.0505517 100.071915,24.0347067 C159.571191,4.01886173 225.253111,24.0699464 263.289715,73.8611118 C265.896309,77.3242168 265.191955,82.2371691 261.716497,84.8344978 C258.241039,87.4318266 253.310563,86.7299762 250.703969,83.2668712 C216.730619,38.8734466 158.1222,21.0238232 105.046835,38.9059235 C51.9714706,56.7880239 16.2599562,106.415827 16.2944517,162.243898 C16.2944517,164.3227 15.4657052,166.31636 13.990527,167.786295 C12.5153487,169.25623 10.5145776,170.082031 8.42836053,170.082031 Z" id="Path" fill="#FFF27D"></path>
            </g>
            <path d="M64.6003266,356.527951 L64.6003266,356.527951 C58.4665578,350.418834 58.4665578,340.515956 64.6003266,334.40684 L265.402559,134.472049 C271.512155,128.509317 281.290077,128.509317 287.399673,134.472049 L287.399673,134.472049 C293.533442,140.581166 293.533442,150.484044 287.399673,156.59316 L86.5974412,356.527951 C80.4878446,362.490683 70.7099232,362.490683 64.6003266,356.527951 Z" id="Path" fill="#939FC6"></path>
            <g id="Group" opacity="0.3" transform="translate(60.000000, 129.000000)" fill="#FFFFFF">
                <path d="M12.6982575,213.205311 L213.205311,12.6982575 C217.587626,8.34310026 224.119224,6.96802706 229.885491,9.18664059 C229.51221,7.56783979 228.685688,6.08879988 227.502608,4.92253438 C221.406762,-1.05258954 211.650848,-1.05258954 205.555002,4.92253438 L5.20471788,205.272819 C-0.915245536,211.394631 -0.915245536,221.318089 5.20471788,227.4399 C6.34678452,228.563596 7.78032947,229.34553 9.3434092,229.697368 C7.16596739,224.014826 8.47382005,217.585569 12.6982575,213.205311 Z" id="Path"></path>
            </g>
            <path d="M227,170.687577 L265.115842,133.510725 C271.291299,127.496425 281.174625,127.496425 287.350082,133.510725 L287.350082,133.510725 C293.549973,139.672676 293.549973,149.661198 287.350082,155.823148 L249.234241,193 L227,170.687577 Z" id="Path" fill="#EEF6FF"></path>
            <path d="M288.615228,134.915729 C288.264514,134.430045 287.886221,133.965116 287.482234,133.523261 C281.363376,127.492246 271.570634,127.492246 265.451777,133.523261 L228,171.214838 L235.742132,179 L273.256853,141.403364 C277.655711,137.007469 284.211965,135.619534 290,137.8589 C289.642614,136.831608 289.178455,135.845092 288.615228,134.915729 Z" id="Path" fill="#FFFFFF"></path>
            <g id="Group" opacity="0.3" transform="translate(63.000000, 130.000000)" fill="#5B559E">
                <path d="M224.35726,3.92216216 C222.419557,2.0286005 220.017993,0.677166715 217.393151,0.00324324324 C221.847761,6.21433541 221.171894,14.7305383 215.793288,20.1621622 L15.339863,220.497297 C11.3812345,224.397335 5.6528637,225.912072 0.282328767,224.478919 C0.779863307,225.192694 1.33598423,225.86384 1.94493151,226.485405 L1.94493151,226.485405 C8.04391533,232.460078 17.8048518,232.460078 23.9038356,226.485405 L224.35726,26.1502703 C227.316964,23.2081315 228.981045,19.208229 228.981045,15.0362162 C228.981045,10.8642034 227.316964,6.86430096 224.35726,3.92216216 Z" id="Path"></path>
            </g>
            <path d="M75.70038,364.999838 C70.7702654,364.995588 66.0384552,363.049415 62.5216406,359.579315 L62.5216406,359.579315 C58.9864053,356.032732 57,351.220163 57,346.201744 C57,341.183326 58.9864053,336.370757 62.5216406,332.824173 L263.026747,131.451549 C270.35878,124.182817 282.146326,124.182817 289.478359,131.451549 C293.013595,134.998133 295,139.810702 295,144.82912 C295,149.847539 293.013595,154.660108 289.478359,158.206691 L88.9732532,359.579315 C85.433212,363.072416 80.6630718,365.020439 75.70038,364.999838 Z M66.9145537,355.104368 C71.7988082,359.929488 79.6333297,359.929488 84.5175842,355.104368 L285.02269,153.731744 C288.545716,150.640658 290.064703,145.838303 288.963726,141.271959 C287.862749,136.705615 284.324538,133.13316 279.783781,132.003168 C275.243024,130.873176 270.453353,132.373192 267.356904,135.894983 L66.8517978,337.267607 C61.9645778,342.187874 61.9645778,350.152587 66.8517978,355.072854 L66.9145537,355.104368 Z" id="Shape" fill="#6D6DAA"></path>
            <path d="M248.95256,195.969361 C248.139162,195.974062 247.357359,195.654891 246.779851,195.082352 L226.735845,175.048183 C225.696076,173.834632 225.765984,172.025641 226.89631,170.89587 C228.026636,169.766099 229.836514,169.696225 231.050662,170.735484 L251.094667,190.769653 C251.977399,191.644704 252.24272,192.966581 251.765976,194.114233 C251.289232,195.261884 250.165192,196.007174 248.921958,196 L248.95256,195.969361 Z" id="Path" fill="#6D6DAA"></path>
        </g>
    </g>
</svg>