<?xml version="1.0" encoding="UTF-8"?>
<svg width="800px" height="600px" viewBox="0 0 800 600" version="1.1" xmlns="http://www.w3.org/2000/svg" xmlns:xlink="http://www.w3.org/1999/xlink">
    <title>Artboard</title>
    <g id="Artboard" stroke="none" stroke-width="1" fill="none" fill-rule="evenodd">
        <g id="package" transform="translate(166.000000, 48.000000)" fill-rule="nonzero">
            <path d="M420.384629,58.076873 C422.359001,64.5640484 427.435886,69.6409905 433.923037,71.6154333 C440.692321,73.871805 440.692321,76.1281889 433.923037,78.3845851 C427.435886,80.3590278 422.359001,85.4359699 420.384629,91.9231453 C418.128259,98.6922849 415.871839,98.6922849 413.615371,91.9231453 C411.641039,85.4359457 406.564138,80.3589875 400.076963,78.3845851 C393.307679,76.1282134 393.307679,73.8718294 400.076963,71.6154333 C406.564138,69.6410309 411.641039,64.5640726 413.615371,58.076873 C415.87179,51.307709 418.12821,51.307709 420.384629,58.076873 Z" id="Path" fill="#96D7FF"></path>
            <path d="M118.307713,46.4615024 C119.653876,50.8845826 123.115392,54.3461353 127.53845,55.692338 C132.15385,57.2307918 132.15385,58.7692332 127.53845,60.307662 C123.115392,61.6538647 119.653876,65.1154174 118.307712,69.5384976 C116.769262,74.1538341 115.230787,74.1538341 113.692287,69.5384976 C112.346148,65.1154033 108.884622,61.6538412 104.46155,60.307662 C99.84615,58.7692082 99.84615,57.2307668 104.46155,55.692338 C108.884622,54.3461588 112.346148,50.8845967 113.692287,46.4615024 C115.230763,41.8461659 116.769238,41.8461659 118.307713,46.4615024 Z" id="Path" fill="#C9C1F5"></path>
            <path d="M407.307713,183.461502 C408.653876,187.884583 412.115392,191.346135 416.53845,192.692338 C421.15385,194.230792 421.15385,195.769233 416.53845,197.307662 C412.115392,198.653865 408.653876,202.115417 407.307712,206.538498 C405.769262,211.153834 404.230787,211.153834 402.692287,206.538498 C401.346148,202.115403 397.884622,198.653841 393.46155,197.307662 C388.84615,195.769208 388.84615,194.230767 393.46155,192.692338 C397.884622,191.346159 401.346148,187.884597 402.692287,183.461502 C404.230763,178.846166 405.769237,178.846166 407.307713,183.461502 Z" id="Path" fill="#96D7FF"></path>
            <path d="M69.3077125,296.461502 C70.6538759,300.884583 74.1153918,304.346135 78.53845,305.692338 C83.15385,307.230792 83.15385,308.769233 78.53845,310.307662 C74.1153918,311.653865 70.6538759,315.115417 69.3077125,319.538498 C67.7692625,324.153834 66.2307875,324.153834 64.6922875,319.538498 C63.3461477,315.115403 59.8846223,311.653841 55.46155,310.307662 C50.84615,308.769208 50.84615,307.230767 55.46155,305.692338 C59.8846223,304.346159 63.3461477,300.884597 64.6922875,296.461502 C66.2307625,291.846166 67.7692375,291.846166 69.3077125,296.461502 Z" id="Path" fill="#96D7FF"></path>
            <path d="M399.307712,396.461502 C400.653876,400.884583 404.115392,404.346135 408.53845,405.692338 C413.15385,407.230792 413.15385,408.769233 408.53845,410.307662 C404.115392,411.653865 400.653876,415.115417 399.307712,419.538498 C397.769263,424.153834 396.230787,424.153834 394.692288,419.538498 C393.346148,415.115403 389.884622,411.653841 385.46155,410.307662 C380.84615,408.769208 380.84615,407.230767 385.46155,405.692338 C389.884622,404.346159 393.346148,400.884597 394.692288,396.461502 C396.230762,391.846166 397.769237,391.846166 399.307712,396.461502 Z" id="Path" fill="#C9C1F5"></path>
            <g id="code" transform="translate(54.000000, 56.000000)">
                <polygon id="Path" fill="#FFFFFF" points="264.534805 301.964286 264.534805 76.210034 241.091002 52.4464286 88.7062818 52.4464286 88.7062818 301.964286"></polygon>
                <path d="M264.739197,303.553572 L86.9178488,303.553572 C86.1317669,303.553572 85.3778222,303.242321 84.8219784,302.687767 C84.2661345,302.133213 83.9541596,301.381018 83.9541596,300.596761 L83.9541596,52.2246679 C83.9541596,51.4404104 84.2661345,50.6882155 84.8219784,50.1336618 C85.3778222,49.579108 86.1317669,49.2678571 86.9178488,49.2678571 L241.029684,49.2678571 C241.815686,49.2678571 242.569475,49.5794564 243.125012,50.1342028 L266.834525,73.7886878 C267.390328,74.3430922 267.702886,75.0950305 267.702886,75.8791529 L267.702886,300.596761 C267.702886,301.381018 267.390912,302.133213 266.835068,302.687767 C266.279224,303.242321 265.525279,303.553572 264.739197,303.553572 L264.739197,303.553572 Z M89.881538,297.63995 L261.775508,297.63995 L261.775508,77.1034499 L239.802539,55.1814785 L89.881538,55.1814785 L89.881538,297.63995 Z" id="Shape" fill="#6D6DAA"></path>
                <polygon id="Path" fill="#EEF6FF" points="266.118846 77.875 242.358234 77.875 242.358234 54.0357143"></polygon>
                <path d="M264.693363,79.4642857 L240.615807,79.4642857 C239.817522,79.4642857 239.051874,79.146419 238.487402,78.5800777 C237.92293,78.0137364 237.606112,77.245553 237.606112,76.4446255 L237.606112,52.287345 C237.606112,51.0660779 238.339372,49.9650699 239.463966,49.4977466 C240.588561,49.0304232 241.883002,49.2888219 242.743661,50.1524453 L266.821217,74.3097259 C267.681991,75.1732348 267.939537,76.4719617 267.473756,77.6002799 C267.007974,78.7285982 265.9106,79.4642857 264.693363,79.4642857 Z M243.625501,73.4249655 L257.42778,73.4249655 L243.625501,59.5769856 L243.625501,73.4249655 Z" id="Shape" fill="#6D6DAA"></path>
                <path d="M264.693363,79.4642857 L240.615807,79.4642857 C239.817522,79.4642857 239.051874,79.146419 238.487402,78.5800777 C237.92293,78.0137364 237.606112,77.245553 237.606112,76.4446255 L237.606112,52.287345 C237.606112,51.0660779 238.339372,49.9650699 239.463966,49.4977466 C240.588561,49.0304232 241.883002,49.2888219 242.743661,50.1524453 L266.821217,74.3097259 C267.681991,75.1732348 267.939537,76.4719617 267.473756,77.6002799 C267.007974,78.7285982 265.9106,79.4642857 264.693363,79.4642857 Z M243.625501,73.4249655 L257.42778,73.4249655 L243.625501,59.5769856 L243.625501,73.4249655 Z" id="Shape" fill="#6D6DAA"></path>
                <g id="Group" opacity="0.5" transform="translate(96.626486, 63.571429)" fill="#6D6DAA">
                    <path d="M23.5967449,23.5744048 L17.6975587,23.5744048 C14.4410712,23.570686 11.8020947,20.934208 11.7983725,17.6808036 L11.7983725,5.89360119 C11.8020947,2.64019674 14.4410712,0.00371876477 17.6975587,0 L23.5967449,0 C26.8532324,0.00371876477 29.4922089,2.64019674 29.4959312,5.89360119 L29.4959312,17.6808036 C29.4922089,20.934208 26.8532324,23.570686 23.5967449,23.5744048 Z M17.6975587,5.89360119 L17.6975587,17.6808036 L23.5996945,17.6808036 L23.5967449,5.89360119 L17.6975587,5.89360119 Z" id="Shape"></path>
                    <path d="M2.94959312,23.5744049 C2.16725002,23.5744049 1.41689123,23.2642077 0.863691104,22.7115314 C0.310490976,22.158855 -0.000203488576,21.4092066 -9.98927065e-08,20.6276042 L-9.98927065e-08,2.9468006 C-9.98927065e-08,1.31932757 1.32057782,0 2.94959312,0 C4.57860841,0 5.89918633,1.31932757 5.89918633,2.9468006 L5.89918633,20.6276042 C5.89938972,21.4092066 5.58869525,22.158855 5.03549513,22.7115314 C4.482295,23.2642077 3.73193621,23.5744049 2.94959312,23.5744049 L2.94959312,23.5744049 Z" id="Path"></path>
                    <path d="M38.3447105,23.5744049 C37.5623674,23.5744049 36.8120086,23.2642077 36.2588085,22.7115314 C35.7056084,22.158855 35.3949139,21.4092066 35.3951173,20.6276042 L35.3951173,2.9468006 C35.3951173,1.31932757 36.7156952,0 38.3447105,0 C39.9737258,0 41.2943037,1.31932757 41.2943037,2.9468006 L41.2943037,20.6276042 C41.2945071,21.4092066 40.9838126,22.158855 40.4306125,22.7115314 C39.8774124,23.2642077 39.1270536,23.5744049 38.3447105,23.5744049 L38.3447105,23.5744049 Z" id="Path"></path>
                    <path d="M50.143083,23.5744049 C49.3607399,23.5744049 48.6103811,23.2642077 48.0571809,22.7115314 C47.5039808,22.158855 47.1932864,21.4092066 47.1934897,20.6276042 L47.1934897,2.9468006 C47.1934897,1.31932757 48.5140677,0 50.143083,0 C51.7720983,0 53.0926762,1.31932757 53.0926762,2.9468006 L53.0926762,20.6276042 C53.0928796,21.4092066 52.7821851,22.158855 52.228985,22.7115314 C51.6757848,23.2642077 50.9254261,23.5744049 50.143083,23.5744049 L50.143083,23.5744049 Z" id="Path"></path>
                    <path d="M61.9414554,23.5744049 C61.1591123,23.5744049 60.4087535,23.2642077 59.8555534,22.7115314 C59.3023533,22.158855 58.9916588,21.4092066 58.9918622,20.6276042 L58.9918622,2.9468006 C58.9918622,1.31932757 60.3124401,0 61.9414554,0 C63.5704707,0 64.8910486,1.31932757 64.8910486,2.9468006 L64.8910486,20.6276042 C64.891252,21.4092066 64.5805576,22.158855 64.0273574,22.7115314 C63.4741573,23.2642077 62.7237985,23.5744049 61.9414554,23.5744049 L61.9414554,23.5744049 Z" id="Path"></path>
                    <path d="M82.5886072,23.5744048 L76.689421,23.5744048 C73.4329335,23.570686 70.7939571,20.934208 70.7902348,17.6808036 L70.7902348,5.89360119 C70.7939571,2.64019674 73.4329335,0.00371876477 76.689421,0 L82.5886072,0 C85.8450947,0.00371876477 88.4840712,2.64019674 88.4877935,5.89360119 L88.4877935,17.6808036 C88.4840712,20.934208 85.8450947,23.570686 82.5886072,23.5744048 Z M76.689421,5.89360119 L76.689421,17.6808036 L82.5915568,17.6808036 L82.5886072,5.89360119 L76.689421,5.89360119 Z" id="Shape"></path>
                    <path d="M97.3365728,23.5744049 C96.5542297,23.5744049 95.8038709,23.2642077 95.2506708,22.7115314 C94.6974707,22.158855 94.3867762,21.4092066 94.3869796,20.6276042 L94.3869796,2.9468006 C94.3869796,1.31932757 95.7075575,0 97.3365728,0 C98.9655881,0 100.286166,1.31932757 100.286166,2.9468006 L100.286166,20.6276042 C100.286369,21.4092066 99.9756749,22.158855 99.4224748,22.7115314 C98.8692747,23.2642077 98.1189159,23.5744049 97.3365728,23.5744049 L97.3365728,23.5744049 Z" id="Path"></path>
                    <path d="M11.7983725,53.0424107 L5.89918623,53.0424107 C2.64269871,53.0386919 0.00372228883,50.402214 0,47.1488095 L0,35.3616071 C0.00372228883,32.1082027 2.64269871,29.4717247 5.89918623,29.468006 L11.7983725,29.468006 C15.05486,29.4717247 17.6938364,32.1082027 17.6975587,35.3616071 L17.6975587,47.1488095 C17.6938364,50.402214 15.05486,53.0386919 11.7983725,53.0424107 L11.7983725,53.0424107 Z M5.89918623,35.3616071 L5.89918623,47.1488095 L11.8013221,47.1488095 L11.7983725,35.3616071 L5.89918623,35.3616071 Z" id="Shape"></path>
                    <path d="M26.546338,53.0424108 C25.7639949,53.0424108 25.0136362,52.7322137 24.460436,52.1795373 C23.9072359,51.6268609 23.5965414,50.8772125 23.5967448,50.0956101 L23.5967448,32.4148065 C23.5967448,30.7873335 24.9173227,29.468006 26.546338,29.468006 C28.1753533,29.468006 29.4959313,30.7873335 29.4959313,32.4148065 L29.4959313,50.0956101 C29.4961346,50.8772125 29.1854402,51.6268609 28.63224,52.1795373 C28.0790399,52.7322137 27.3286811,53.0424108 26.546338,53.0424108 L26.546338,53.0424108 Z" id="Path"></path>
                    <path d="M73.7398279,53.0424108 C72.9574848,53.0424108 72.207126,52.7322137 71.6539259,52.1795373 C71.1007257,51.6268609 70.7900313,50.8772125 70.7902347,50.0956101 L70.7902347,32.4148065 C70.7902347,30.7873335 72.1108126,29.468006 73.7398279,29.468006 C75.3688432,29.468006 76.6894211,30.7873335 76.6894211,32.4148065 L76.6894211,50.0956101 C76.6896245,50.8772125 76.37893,51.6268609 75.8257299,52.1795373 C75.2725298,52.7322137 74.522171,53.0424108 73.7398279,53.0424108 L73.7398279,53.0424108 Z" id="Path"></path>
                    <path d="M58.9918623,53.0424107 L53.0926761,53.0424107 C49.8361886,53.0386919 47.1972121,50.402214 47.1934898,47.1488095 L47.1934898,35.3616071 C47.1972121,32.1082027 49.8361886,29.4717247 53.0926761,29.468006 L58.9918623,29.468006 C62.2483498,29.4717247 64.8873262,32.1082027 64.8910485,35.3616071 L64.8910485,47.1488095 C64.8873262,50.402214 62.2483498,53.0386919 58.9918623,53.0424107 L58.9918623,53.0424107 Z M53.0926761,35.3616071 L53.0926761,47.1488095 L58.9948119,47.1488095 L58.9918623,35.3616071 L53.0926761,35.3616071 Z" id="Shape"></path>
                    <path d="M94.3869797,53.0424107 L88.4877935,53.0424107 C85.2313059,53.0386919 82.5923295,50.402214 82.5886072,47.1488095 L82.5886072,35.3616071 C82.5923295,32.1082027 85.2313059,29.4717247 88.4877935,29.468006 L94.3869797,29.468006 C97.6434672,29.4717247 100.282444,32.1082027 100.286166,35.3616071 L100.286166,47.1488095 C100.282444,50.402214 97.6434672,53.0386919 94.3869797,53.0424107 L94.3869797,53.0424107 Z M88.4877935,35.3616071 L88.4877935,47.1488095 L94.3899293,47.1488095 L94.3869797,35.3616071 L88.4877935,35.3616071 Z" id="Shape"></path>
                    <path d="M38.3447105,53.0424108 C37.5623674,53.0424108 36.8120086,52.7322137 36.2588085,52.1795373 C35.7056084,51.6268609 35.3949139,50.8772125 35.3951173,50.0956101 L35.3951173,32.4148065 C35.3951173,30.7873335 36.7156952,29.468006 38.3447105,29.468006 C39.9737258,29.468006 41.2943037,30.7873335 41.2943037,32.4148065 L41.2943037,50.0956101 C41.2945071,50.8772125 40.9838126,51.6268609 40.4306125,52.1795373 C39.8774124,52.7322137 39.1270536,53.0424108 38.3447105,53.0424108 L38.3447105,53.0424108 Z" id="Path"></path>
                    <path d="M2.94959312,82.5104168 C2.16725002,82.5104168 1.41689123,82.2002196 0.863691104,81.6475433 C0.310490976,81.0948669 -0.000203488576,80.3452185 -9.98927065e-08,79.5636161 L-9.98927065e-08,61.8828125 C-9.98927065e-08,60.2553395 1.32057782,58.9360119 2.94959312,58.9360119 C4.57860841,58.9360119 5.89918633,60.2553395 5.89918633,61.8828125 L5.89918633,79.5636161 C5.89938972,80.3452185 5.58869525,81.0948669 5.03549513,81.6475433 C4.482295,82.2002196 3.73193621,82.5104168 2.94959312,82.5104168 Z" id="Path"></path>
                    <path d="M14.7479656,82.5104168 C13.9656225,82.5104168 13.2152637,82.2002196 12.6620636,81.6475433 C12.1088634,81.0948669 11.798169,80.3452185 11.7983724,79.5636161 L11.7983724,61.8828125 C11.7983724,60.2553395 13.1189503,58.9360119 14.7479656,58.9360119 C16.3769809,58.9360119 17.6975588,60.2553395 17.6975588,61.8828125 L17.6975588,79.5636161 C17.6977622,80.3452185 17.3870677,81.0948669 16.8338676,81.6475433 C16.2806675,82.2002196 15.5303087,82.5104168 14.7479656,82.5104168 L14.7479656,82.5104168 Z" id="Path"></path>
                    <path d="M61.9414554,82.5104168 C61.1591123,82.5104168 60.4087535,82.2002196 59.8555534,81.6475433 C59.3023533,81.0948669 58.9916588,80.3452185 58.9918622,79.5636161 L58.9918622,61.8828125 C58.9918622,60.2553395 60.3124401,58.9360119 61.9414554,58.9360119 C63.5704707,58.9360119 64.8910486,60.2553395 64.8910486,61.8828125 L64.8910486,79.5636161 C64.891252,80.3452185 64.5805576,81.0948669 64.0273574,81.6475433 C63.4741573,82.2002196 62.7237985,82.5104168 61.9414554,82.5104168 Z" id="Path"></path>
                    <path d="M97.3365728,82.5104168 C96.5542297,82.5104168 95.8038709,82.2002196 95.2506708,81.6475433 C94.6974707,81.0948669 94.3867762,80.3452185 94.3869796,79.5636161 L94.3869796,61.8828125 C94.3869796,60.2553395 95.7075575,58.9360119 97.3365728,58.9360119 C98.9655881,58.9360119 100.286166,60.2553395 100.286166,61.8828125 L100.286166,79.5636161 C100.286369,80.3452185 99.9756749,81.0948669 99.4224748,81.6475433 C98.8692747,82.2002196 98.1189159,82.5104168 97.3365728,82.5104168 Z" id="Path"></path>
                    <path d="M35.3951174,82.5104167 L29.4959312,82.5104167 C26.2394436,82.5066979 23.6004672,79.8702199 23.5967449,76.6168155 L23.5967449,64.8296131 C23.6004672,61.5762086 26.2394436,58.9397307 29.4959312,58.9360119 L35.3951174,58.9360119 C38.6516049,58.9397307 41.2905813,61.5762086 41.2943036,64.8296131 L41.2943036,76.6168155 C41.2905813,79.8702199 38.6516049,82.5066979 35.3951174,82.5104167 Z M29.4959312,64.8296131 L29.4959312,76.6168155 L35.398067,76.6168155 L35.3951174,64.8296131 L29.4959312,64.8296131 Z" id="Shape"></path>
                    <path d="M82.5886072,82.5104167 L76.689421,82.5104167 C73.4329335,82.5066979 70.7939571,79.8702199 70.7902348,76.6168155 L70.7902348,64.8296131 C70.7939571,61.5762086 73.4329335,58.9397307 76.689421,58.9360119 L82.5886072,58.9360119 C85.8450947,58.9397307 88.4840712,61.5762086 88.4877935,64.8296131 L88.4877935,76.6168155 C88.4840712,79.8702199 85.8450947,82.5066979 82.5886072,82.5104167 Z M76.689421,64.8296131 L76.689421,76.6168155 L82.5915568,76.6168155 L82.5886072,64.8296131 L76.689421,64.8296131 Z" id="Shape"></path>
                    <path d="M50.143083,82.5104168 C49.3607399,82.5104168 48.6103811,82.2002196 48.0571809,81.6475433 C47.5039808,81.0948669 47.1932864,80.3452185 47.1934897,79.5636161 L47.1934897,61.8828125 C47.1934897,60.2553395 48.5140677,58.9360119 50.143083,58.9360119 C51.7720983,58.9360119 53.0926762,60.2553395 53.0926762,61.8828125 L53.0926762,79.5636161 C53.0928796,80.3452185 52.7821851,81.0948669 52.228985,81.6475433 C51.6757848,82.2002196 50.9254261,82.5104168 50.143083,82.5104168 Z" id="Path"></path>
                    <path d="M129.782097,23.5744048 L123.882911,23.5744048 C120.626423,23.570686 117.987447,20.934208 117.983725,17.6808036 L117.983725,5.89360119 C117.987447,2.64019674 120.626423,0.00371876477 123.882911,0 L129.782097,0 C133.038585,0.00371876477 135.677561,2.64019674 135.681283,5.89360119 L135.681283,17.6808036 C135.677561,20.934208 133.038585,23.570686 129.782097,23.5744048 Z M123.882911,5.89360119 L123.882911,17.6808036 L129.785047,17.6808036 L129.782097,5.89360119 L123.882911,5.89360119 Z" id="Shape"></path>
                    <path d="M109.134945,23.5744049 C108.352602,23.5744049 107.602243,23.2642077 107.049043,22.7115314 C106.495843,22.158855 106.185149,21.4092066 106.185352,20.6276042 L106.185352,2.9468006 C106.185352,1.31932757 107.50593,0 109.134945,0 C110.763961,0 112.084538,1.31932757 112.084538,2.9468006 L112.084538,20.6276042 C112.084742,21.4092066 111.774047,22.158855 111.220847,22.7115314 C110.667647,23.2642077 109.917288,23.5744049 109.134945,23.5744049 L109.134945,23.5744049 Z" id="Path"></path>
                    <path d="M117.983725,53.0424107 L112.084538,53.0424107 C108.828051,53.0386919 106.189074,50.402214 106.185352,47.1488095 L106.185352,35.3616071 C106.189074,32.1082027 108.828051,29.4717247 112.084538,29.468006 L117.983725,29.468006 C121.240212,29.4717247 123.879189,32.1082027 123.882911,35.3616071 L123.882911,47.1488095 C123.879189,50.402214 121.240212,53.0386919 117.983725,53.0424107 L117.983725,53.0424107 Z M112.084538,35.3616071 L112.084538,47.1488095 L117.986674,47.1488095 L117.983725,35.3616071 L112.084538,35.3616071 Z" id="Shape"></path>
                    <path d="M132.73169,53.0424108 C131.949347,53.0424108 131.198988,52.7322137 130.645788,52.1795373 C130.092588,51.6268609 129.781894,50.8772125 129.782097,50.0956101 L129.782097,32.4148065 C129.782097,30.7873335 131.102675,29.468006 132.73169,29.468006 C134.360705,29.468006 135.681283,30.7873335 135.681283,32.4148065 L135.681283,50.0956101 C135.681487,50.8772125 135.370792,51.6268609 134.817592,52.1795373 C134.264392,52.7322137 133.514033,53.0424108 132.73169,53.0424108 L132.73169,53.0424108 Z" id="Path"></path>
                    <path d="M144.530063,53.0424108 C143.74772,53.0424108 142.997361,52.7322137 142.444161,52.1795373 C141.890961,51.6268609 141.580266,50.8772125 141.580469,50.0956101 L141.580469,32.4148065 C141.580469,30.7873335 142.901047,29.468006 144.530063,29.468006 C146.159078,29.468006 147.479656,30.7873335 147.479656,32.4148065 L147.479656,50.0956101 C147.479859,50.8772125 147.169165,51.6268609 146.615965,52.1795373 C146.062765,52.7322137 145.312406,53.0424108 144.530063,53.0424108 L144.530063,53.0424108 Z" id="Path"></path>
                    <path d="M156.328435,53.0424108 C155.546092,53.0424108 154.795733,52.7322137 154.242533,52.1795373 C153.689333,51.6268609 153.378638,50.8772125 153.378842,50.0956101 L153.378842,32.4148065 C153.378842,30.7873335 154.69942,29.468006 156.328435,29.468006 C157.95745,29.468006 159.278028,30.7873335 159.278028,32.4148065 L159.278028,50.0956101 C159.278232,50.8772125 158.967537,51.6268609 158.414337,52.1795373 C157.861137,52.7322137 157.110778,53.0424108 156.328435,53.0424108 L156.328435,53.0424108 Z" id="Path"></path>
                    <path d="M109.134945,82.5104168 C108.352602,82.5104168 107.602243,82.2002196 107.049043,81.6475433 C106.495843,81.0948669 106.185149,80.3452185 106.185352,79.5636161 L106.185352,61.8828125 C106.185352,60.2553395 107.50593,58.9360119 109.134945,58.9360119 C110.763961,58.9360119 112.084538,60.2553395 112.084538,61.8828125 L112.084538,79.5636161 C112.084742,80.3452185 111.774047,81.0948669 111.220847,81.6475433 C110.667647,82.2002196 109.917288,82.5104168 109.134945,82.5104168 Z" id="Path"></path>
                    <path d="M120.933318,82.5104168 C120.150975,82.5104168 119.400616,82.2002196 118.847416,81.6475433 C118.294216,81.0948669 117.983521,80.3452185 117.983725,79.5636161 L117.983725,61.8828125 C117.983725,60.2553395 119.304302,58.9360119 120.933318,58.9360119 C122.562333,58.9360119 123.882911,60.2553395 123.882911,61.8828125 L123.882911,79.5636161 C123.883114,80.3452185 123.57242,81.0948669 123.01922,81.6475433 C122.46602,82.2002196 121.715661,82.5104168 120.933318,82.5104168 Z" id="Path"></path>
                    <path d="M168.126808,82.5104168 C167.344464,82.5104168 166.594106,82.2002196 166.040906,81.6475433 C165.487705,81.0948669 165.177011,80.3452185 165.177214,79.5636161 L165.177214,61.8828125 C165.177214,60.2553395 166.497792,58.9360119 168.126808,58.9360119 C169.755823,58.9360119 171.076401,60.2553395 171.076401,61.8828125 L171.076401,79.5636161 C171.076604,80.3452185 170.76591,81.0948669 170.21271,81.6475433 C169.659509,82.2002196 168.909151,82.5104168 168.126808,82.5104168 Z" id="Path"></path>
                    <path d="M141.58047,82.5104167 L135.681283,82.5104167 C132.424796,82.5066979 129.785819,79.8702199 129.782097,76.6168155 L129.782097,64.8296131 C129.785819,61.5762086 132.424796,58.9397307 135.681283,58.9360119 L141.58047,58.9360119 C144.836957,58.9397307 147.475933,61.5762086 147.479656,64.8296131 L147.479656,76.6168155 C147.475933,79.8702199 144.836957,82.5066979 141.58047,82.5104167 Z M135.681283,64.8296131 L135.681283,76.6168155 L141.583419,76.6168155 L141.58047,64.8296131 L135.681283,64.8296131 Z" id="Shape"></path>
                    <path d="M156.328435,82.5104168 C155.546092,82.5104168 154.795733,82.2002196 154.242533,81.6475433 C153.689333,81.0948669 153.378638,80.3452185 153.378842,79.5636161 L153.378842,61.8828125 C153.378842,60.2553395 154.69942,58.9360119 156.328435,58.9360119 C157.95745,58.9360119 159.278028,60.2553395 159.278028,61.8828125 L159.278028,79.5636161 C159.278232,80.3452185 158.967537,81.0948669 158.414337,81.6475433 C157.861137,82.2002196 157.110778,82.5104168 156.328435,82.5104168 Z" id="Path"></path>
                    <path d="M156.328435,111.978423 C155.546092,111.978423 154.795733,111.668226 154.242533,111.115549 C153.689333,110.562873 153.378638,109.813224 153.378842,109.031622 L153.378842,91.3508185 C153.378842,89.7233454 154.69942,88.4040179 156.328435,88.4040179 C157.95745,88.4040179 159.278028,89.7233454 159.278028,91.3508185 L159.278028,109.031622 C159.278232,109.813224 158.967537,110.562873 158.414337,111.115549 C157.861137,111.668226 157.110778,111.978423 156.328435,111.978423 Z" id="Path"></path>
                    <path d="M144.530063,111.978423 C143.74772,111.978423 142.997361,111.668226 142.444161,111.115549 C141.890961,110.562873 141.580266,109.813224 141.580469,109.031622 L141.580469,91.3508185 C141.580469,89.7233454 142.901047,88.4040179 144.530063,88.4040179 C146.159078,88.4040179 147.479656,89.7233454 147.479656,91.3508185 L147.479656,109.031622 C147.479859,109.813224 147.169165,110.562873 146.615965,111.115549 C146.062765,111.668226 145.312406,111.978423 144.530063,111.978423 L144.530063,111.978423 Z" id="Path"></path>
                    <path d="M168.126808,141.446429 C167.344464,141.446429 166.594106,141.136232 166.040906,140.583555 C165.487705,140.030879 165.177011,139.28123 165.177214,138.499628 L165.177214,120.818824 C165.177214,119.191351 166.497792,117.872024 168.126808,117.872024 C169.755823,117.872024 171.076401,119.191351 171.076401,120.818824 L171.076401,138.499628 C171.076604,139.28123 170.76591,140.030879 170.21271,140.583555 C169.659509,141.136232 168.909151,141.446429 168.126808,141.446429 Z" id="Path"></path>
                    <path d="M153.378842,141.446429 L147.479656,141.446429 C144.223168,141.44271 141.584192,138.806232 141.58047,135.552827 L141.58047,123.765625 C141.584192,120.512221 144.223168,117.875743 147.479656,117.872024 L153.378842,117.872024 C156.63533,117.875743 159.274306,120.512221 159.278028,123.765625 L159.278028,135.552827 C159.274306,138.806232 156.63533,141.44271 153.378842,141.446429 L153.378842,141.446429 Z M147.479656,123.765625 L147.479656,135.552827 L153.378842,135.552827 L153.378842,123.765625 L147.479656,123.765625 Z" id="Shape"></path>
                    <path d="M117.983725,111.978423 L112.084538,111.978423 C108.828051,111.974704 106.189074,109.338226 106.185352,106.084821 L106.185352,94.297619 C106.189074,91.0442146 108.828051,88.4077366 112.084538,88.4040179 L117.983725,88.4040179 C121.240212,88.4077366 123.879189,91.0442146 123.882911,94.297619 L123.882911,106.084821 C123.879189,109.338226 121.240212,111.974704 117.983725,111.978423 Z M112.084538,94.297619 L112.084538,106.084821 L117.983725,106.084821 L117.983725,94.297619 L112.084538,94.297619 Z" id="Shape"></path>
                    <path d="M132.73169,111.978423 C131.949347,111.978423 131.198988,111.668226 130.645788,111.115549 C130.092588,110.562873 129.781894,109.813224 129.782097,109.031622 L129.782097,91.3508185 C129.782097,89.7233454 131.102675,88.4040179 132.73169,88.4040179 C134.360705,88.4040179 135.681283,89.7233454 135.681283,91.3508185 L135.681283,109.031622 C135.681487,109.813224 135.370792,110.562873 134.817592,111.115549 C134.264392,111.668226 133.514033,111.978423 132.73169,111.978423 Z" id="Path"></path>
                    <path d="M97.3365728,111.978423 C96.5542297,111.978423 95.8038709,111.668226 95.2506708,111.115549 C94.6974707,110.562873 94.3867762,109.813224 94.3869796,109.031622 L94.3869796,91.3508185 C94.3869796,89.7233454 95.7075575,88.4040179 97.3365728,88.4040179 C98.9655881,88.4040179 100.286166,89.7233454 100.286166,91.3508185 L100.286166,109.031622 C100.286369,109.813224 99.9756749,110.562873 99.4224748,111.115549 C98.8692747,111.668226 98.1189159,111.978423 97.3365728,111.978423 Z" id="Path"></path>
                    <path d="M85.5382003,111.978423 C84.7558572,111.978423 84.0054985,111.668226 83.4522983,111.115549 C82.8990982,110.562873 82.5884037,109.813224 82.5886071,109.031622 L82.5886071,91.3508185 C82.5886071,89.7233454 83.909185,88.4040179 85.5382003,88.4040179 C87.1672156,88.4040179 88.4877936,89.7233454 88.4877936,91.3508185 L88.4877936,109.031622 C88.4879969,109.813224 88.1773025,110.562873 87.6241024,111.115549 C87.0709022,111.668226 86.3205434,111.978423 85.5382003,111.978423 Z" id="Path"></path>
                    <path d="M73.7398279,111.978423 C72.9574848,111.978423 72.207126,111.668226 71.6539259,111.115549 C71.1007257,110.562873 70.7900313,109.813224 70.7902347,109.031622 L70.7902347,91.3508185 C70.7902347,89.7233454 72.1108126,88.4040179 73.7398279,88.4040179 C75.3688432,88.4040179 76.6894211,89.7233454 76.6894211,91.3508185 L76.6894211,109.031622 C76.6896245,109.813224 76.37893,110.562873 75.8257299,111.115549 C75.2725298,111.668226 74.522171,111.978423 73.7398279,111.978423 L73.7398279,111.978423 Z" id="Path"></path>
                    <path d="M58.9918623,111.978423 L53.0926761,111.978423 C49.8361886,111.974704 47.1972121,109.338226 47.1934898,106.084821 L47.1934898,94.297619 C47.1972121,91.0442146 49.8361886,88.4077366 53.0926761,88.4040179 L58.9918623,88.4040179 C62.2483498,88.4077366 64.8873262,91.0442146 64.8910485,94.297619 L64.8910485,106.084821 C64.8873262,109.338226 62.2483498,111.974704 58.9918623,111.978423 L58.9918623,111.978423 Z M53.0926761,94.297619 L53.0926761,106.084821 L58.9918623,106.084821 L58.9918623,94.297619 L53.0926761,94.297619 Z" id="Shape"></path>
                    <path d="M38.3447105,111.978423 C37.5623674,111.978423 36.8120086,111.668226 36.2588085,111.115549 C35.7056084,110.562873 35.3949139,109.813224 35.3951173,109.031622 L35.3951173,91.3508185 C35.3951173,89.7233454 36.7156952,88.4040179 38.3447105,88.4040179 C39.9737258,88.4040179 41.2943037,89.7233454 41.2943037,91.3508185 L41.2943037,109.031622 C41.2945071,109.813224 40.9838126,110.562873 40.4306125,111.115549 C39.8774124,111.668226 39.1270536,111.978423 38.3447105,111.978423 Z" id="Path"></path>
                    <path d="M129.782097,141.446429 L123.882911,141.446429 C120.626423,141.44271 117.987447,138.806232 117.983725,135.552827 L117.983725,123.765625 C117.987447,120.512221 120.626423,117.875743 123.882911,117.872024 L129.782097,117.872024 C133.038585,117.875743 135.677561,120.512221 135.681283,123.765625 L135.681283,135.552827 C135.677561,138.806232 133.038585,141.44271 129.782097,141.446429 Z M123.882911,123.765625 L123.882911,135.552827 L129.782097,135.552827 L129.782097,123.765625 L123.882911,123.765625 Z" id="Shape"></path>
                    <path d="M109.134945,141.446429 C108.352602,141.446429 107.602243,141.136232 107.049043,140.583555 C106.495843,140.030879 106.185149,139.28123 106.185352,138.499628 L106.185352,120.818824 C106.185352,119.191351 107.50593,117.872024 109.134945,117.872024 C110.763961,117.872024 112.084538,119.191351 112.084538,120.818824 L112.084538,138.499628 C112.084742,139.28123 111.774047,140.030879 111.220847,140.583555 C110.667647,141.136232 109.917288,141.446429 109.134945,141.446429 Z" id="Path"></path>
                    <path d="M61.9414554,141.446429 C61.1591123,141.446429 60.4087535,141.136232 59.8555534,140.583555 C59.3023533,140.030879 58.9916588,139.28123 58.9918622,138.499628 L58.9918622,120.818824 C58.9918622,119.191351 60.3124401,117.872024 61.9414554,117.872024 C63.5704707,117.872024 64.8910486,119.191351 64.8910486,120.818824 L64.8910486,138.499628 C64.891252,139.28123 64.5805576,140.030879 64.0273574,140.583555 C63.4741573,141.136232 62.7237985,141.446429 61.9414554,141.446429 Z" id="Path"></path>
                    <path d="M82.5886072,141.446429 L76.689421,141.446429 C73.4329335,141.44271 70.7939571,138.806232 70.7902348,135.552827 L70.7902348,123.765625 C70.7939571,120.512221 73.4329335,117.875743 76.689421,117.872024 L82.5886072,117.872024 C85.8450947,117.875743 88.4840712,120.512221 88.4877935,123.765625 L88.4877935,135.552827 C88.4840712,138.806232 85.8450947,141.44271 82.5886072,141.446429 Z M76.689421,123.765625 L76.689421,135.552827 L82.5886072,135.552827 L82.5886072,123.765625 L76.689421,123.765625 Z" id="Shape"></path>
                    <path d="M47.1934898,141.446429 L41.2943036,141.446429 C38.0378161,141.44271 35.3988397,138.806232 35.3951174,135.552827 L35.3951174,123.765625 C35.3988397,120.512221 38.0378161,117.875743 41.2943036,117.872024 L47.1934898,117.872024 C50.4499774,117.875743 53.0889538,120.512221 53.0926761,123.765625 L53.0926761,135.552827 C53.0889538,138.806232 50.4499774,141.44271 47.1934898,141.446429 Z M41.2943036,123.765625 L41.2943036,135.552827 L47.1934898,135.552827 L47.1934898,123.765625 L41.2943036,123.765625 Z" id="Shape"></path>
                    <path d="M97.3365728,141.446429 C96.5542297,141.446429 95.8038709,141.136232 95.2506708,140.583555 C94.6974707,140.030879 94.3867762,139.28123 94.3869796,138.499628 L94.3869796,120.818824 C94.3869796,119.191351 95.7075575,117.872024 97.3365728,117.872024 C98.9655881,117.872024 100.286166,119.191351 100.286166,120.818824 L100.286166,138.499628 C100.286369,139.28123 99.9756749,140.030879 99.4224748,140.583555 C98.8692747,141.136232 98.1189159,141.446429 97.3365728,141.446429 Z" id="Path"></path>
                    <path d="M11.7983725,111.978423 L5.89918623,111.978423 C2.64269871,111.974704 0.00372228883,109.338226 0,106.084821 L0,94.297619 C0.00372228883,91.0442146 2.64269871,88.4077366 5.89918623,88.4040179 L11.7983725,88.4040179 C15.05486,88.4077366 17.6938364,91.0442146 17.6975587,94.297619 L17.6975587,106.084821 C17.6938364,109.338226 15.05486,111.974704 11.7983725,111.978423 Z M5.89918623,94.297619 L5.89918623,106.084821 L11.7983725,106.084821 L11.7983725,94.297619 L5.89918623,94.297619 Z" id="Shape"></path>
                    <path d="M26.546338,111.978423 C25.7639949,111.978423 25.0136362,111.668226 24.460436,111.115549 C23.9072359,110.562873 23.5965414,109.813224 23.5967448,109.031622 L23.5967448,91.3508185 C23.5967448,89.7233454 24.9173227,88.4040179 26.546338,88.4040179 C28.1753533,88.4040179 29.4959313,89.7233454 29.4959313,91.3508185 L29.4959313,109.031622 C29.4961346,109.813224 29.1854402,110.562873 28.63224,111.115549 C28.0790399,111.668226 27.3286811,111.978423 26.546338,111.978423 Z" id="Path"></path>
                    <path d="M23.5967449,141.446429 L17.6975587,141.446429 C14.4410712,141.44271 11.8020947,138.806232 11.7983725,135.552827 L11.7983725,123.765625 C11.8020947,120.512221 14.4410712,117.875743 17.6975587,117.872024 L23.5967449,117.872024 C26.8532324,117.875743 29.4922089,120.512221 29.4959312,123.765625 L29.4959312,135.552827 C29.4922089,138.806232 26.8532324,141.44271 23.5967449,141.446429 Z M17.6975587,123.765625 L17.6975587,135.552827 L23.5967449,135.552827 L23.5967449,123.765625 L17.6975587,123.765625 Z" id="Shape"></path>
                    <path d="M2.94959312,141.446429 C2.16725002,141.446429 1.41689123,141.136232 0.863691104,140.583555 C0.310490976,140.030879 -0.000203488576,139.28123 -9.98927065e-08,138.499628 L-9.98927065e-08,120.818824 C-9.98927065e-08,119.191351 1.32057782,117.872024 2.94959312,117.872024 C4.57860841,117.872024 5.89918633,119.191351 5.89918633,120.818824 L5.89918633,138.499628 C5.89938972,139.28123 5.58869525,140.030879 5.03549513,140.583555 C4.482295,141.136232 3.73193621,141.446429 2.94959312,141.446429 Z" id="Path"></path>
                </g>
                <g id="Group" opacity="0.5" transform="translate(96.626486, 209.785714)" fill="#6D6DAA">
                    <path d="M11.7983725,23.6122449 L5.89918623,23.6122449 C2.64269871,23.6085202 0.00372228883,20.9678103 0,17.7091837 L0,5.90306122 C0.00372228883,2.64443462 2.64269871,0.00372473389 5.89918623,0 L11.7983725,0 C15.05486,0.00372473389 17.6938364,2.64443462 17.6975587,5.90306122 L17.6975587,17.7091837 C17.6938364,20.9678103 15.05486,23.6085202 11.7983725,23.6122449 Z M5.89918623,5.90306122 L5.89918623,17.7091837 L11.8013221,17.7091837 L11.7983725,5.90306122 L5.89918623,5.90306122 Z" id="Shape"></path>
                    <path d="M26.546338,23.612245 C25.7639949,23.612245 25.0136362,23.30155 24.460436,22.7479865 C23.9072359,22.194423 23.5965414,21.4435713 23.5967448,20.6607143 L23.5967448,2.95153061 C23.5967448,1.32144527 24.9173227,0 26.546338,0 C28.1753533,0 29.4959313,1.32144527 29.4959313,2.95153061 L29.4959313,20.6607143 C29.4961346,21.4435713 29.1854402,22.194423 28.63224,22.7479865 C28.0790399,23.30155 27.3286811,23.612245 26.546338,23.612245 L26.546338,23.612245 Z" id="Path"></path>
                    <path d="M2.94959312,53.1275511 C2.16725002,53.1275511 1.41689123,52.8168561 0.863691104,52.2632926 C0.310490976,51.7097291 -0.000203488576,50.9588774 -9.98927065e-08,50.1760204 L-9.98927065e-08,32.4668367 C-9.98927065e-08,30.8367514 1.32057782,29.5153061 2.94959312,29.5153061 C4.57860841,29.5153061 5.89918633,30.8367514 5.89918633,32.4668367 L5.89918633,50.1760204 C5.89938972,50.9588774 5.58869525,51.7097291 5.03549513,52.2632926 C4.482295,52.8168561 3.73193621,53.1275511 2.94959312,53.1275511 L2.94959312,53.1275511 Z" id="Path"></path>
                    <path d="M23.5967449,53.127551 L17.6975587,53.127551 C14.4410712,53.1238263 11.8020947,50.4831164 11.7983725,47.2244898 L11.7983725,35.4183673 C11.8020947,32.1597407 14.4410712,29.5190309 17.6975587,29.5153061 L23.5967449,29.5153061 C26.8532324,29.5190309 29.4922089,32.1597407 29.4959312,35.4183673 L29.4959312,47.2244898 C29.4922089,50.4831164 26.8532324,53.1238263 23.5967449,53.127551 Z M17.6975587,35.4183673 L17.6975587,47.2244898 L23.5996945,47.2244898 L23.5967449,35.4183673 L17.6975587,35.4183673 Z" id="Shape"></path>
                    <path d="M26.546338,82.6428572 C25.7639949,82.6428572 25.0136362,82.3321622 24.460436,81.7785987 C23.9072359,81.2250352 23.5965414,80.4741835 23.5967448,79.6913265 L23.5967448,61.9821429 C23.5967448,60.3520575 24.9173227,59.0306122 26.546338,59.0306122 C28.1753533,59.0306122 29.4959313,60.3520575 29.4959313,61.9821429 L29.4959313,79.6913265 C29.4961346,80.4741835 29.1854402,81.2250352 28.63224,81.7785987 C28.0790399,82.3321622 27.3286811,82.6428572 26.546338,82.6428572 L26.546338,82.6428572 Z" id="Path"></path>
                    <path d="M11.7983725,82.6428571 L5.89918623,82.6428571 C2.64269871,82.6391324 0.00372228883,79.9984225 0,76.7397959 L0,64.9336735 C0.00372228883,61.6750469 2.64269871,59.034337 5.89918623,59.0306122 L11.7983725,59.0306122 C15.05486,59.034337 17.6938364,61.6750469 17.6975587,64.9336735 L17.6975587,76.7397959 C17.6938364,79.9984225 15.05486,82.6391324 11.7983725,82.6428571 Z M5.89918623,64.9336735 L5.89918623,76.7397959 L11.8013221,76.7397959 L11.7983725,64.9336735 L5.89918623,64.9336735 Z" id="Shape"></path>
                    <path d="M58.9918623,23.6122449 L53.0926761,23.6122449 C49.8361886,23.6085202 47.1972121,20.9678103 47.1934898,17.7091837 L47.1934898,5.90306122 C47.1972121,2.64443462 49.8361886,0.00372473389 53.0926761,0 L58.9918623,0 C62.2483498,0.00372473389 64.8873262,2.64443462 64.8910485,5.90306122 L64.8910485,17.7091837 C64.8873262,20.9678103 62.2483498,23.6085202 58.9918623,23.6122449 L58.9918623,23.6122449 Z M53.0926761,5.90306122 L53.0926761,17.7091837 L58.9948119,17.7091837 L58.9918623,5.90306122 L53.0926761,5.90306122 Z" id="Shape"></path>
                    <path d="M38.3447105,23.612245 C37.5623674,23.612245 36.8120086,23.30155 36.2588085,22.7479865 C35.7056084,22.194423 35.3949139,21.4435713 35.3951173,20.6607143 L35.3951173,2.95153061 C35.3951173,1.32144527 36.7156952,0 38.3447105,0 C39.9737258,0 41.2943037,1.32144527 41.2943037,2.95153061 L41.2943037,20.6607143 C41.2945071,21.4435713 40.9838126,22.194423 40.4306125,22.7479865 C39.8774124,23.30155 39.1270536,23.612245 38.3447105,23.612245 L38.3447105,23.612245 Z" id="Path"></path>
                    <path d="M73.7398279,23.612245 C72.9574848,23.612245 72.207126,23.30155 71.6539259,22.7479865 C71.1007257,22.194423 70.7900313,21.4435713 70.7902347,20.6607143 L70.7902347,2.95153061 C70.7902347,1.32144527 72.1108126,0 73.7398279,0 C75.3688432,0 76.6894211,1.32144527 76.6894211,2.95153061 L76.6894211,20.6607143 C76.6896245,21.4435713 76.37893,22.194423 75.8257299,22.7479865 C75.2725298,23.30155 74.522171,23.612245 73.7398279,23.612245 L73.7398279,23.612245 Z" id="Path"></path>
                    <path d="M85.5382003,23.612245 C84.7558572,23.612245 84.0054985,23.30155 83.4522983,22.7479865 C82.8990982,22.194423 82.5884037,21.4435713 82.5886071,20.6607143 L82.5886071,2.95153061 C82.5886071,1.32144527 83.909185,0 85.5382003,0 C87.1672156,0 88.4877936,1.32144527 88.4877936,2.95153061 L88.4877936,20.6607143 C88.4879969,21.4435713 88.1773025,22.194423 87.6241024,22.7479865 C87.0709022,23.30155 86.3205434,23.612245 85.5382003,23.612245 L85.5382003,23.612245 Z" id="Path"></path>
                    <path d="M97.3365728,23.612245 C96.5542297,23.612245 95.8038709,23.30155 95.2506708,22.7479865 C94.6974707,22.194423 94.3867762,21.4435713 94.3869796,20.6607143 L94.3869796,2.95153061 C94.3869796,1.32144527 95.7075575,0 97.3365728,0 C98.9655881,0 100.286166,1.32144527 100.286166,2.95153061 L100.286166,20.6607143 C100.286369,21.4435713 99.9756749,22.194423 99.4224748,22.7479865 C98.8692747,23.30155 98.1189159,23.612245 97.3365728,23.612245 L97.3365728,23.612245 Z" id="Path"></path>
                    <path d="M117.983725,23.6122449 L112.084538,23.6122449 C108.828051,23.6085202 106.189074,20.9678103 106.185352,17.7091837 L106.185352,5.90306122 C106.189074,2.64443462 108.828051,0.00372473389 112.084538,0 L117.983725,0 C121.240212,0.00372473389 123.879189,2.64443462 123.882911,5.90306122 L123.882911,17.7091837 C123.879189,20.9678103 121.240212,23.6085202 117.983725,23.6122449 Z M112.084538,5.90306122 L112.084538,17.7091837 L117.986674,17.7091837 L117.983725,5.90306122 L112.084538,5.90306122 Z" id="Shape"></path>
                    <path d="M132.73169,23.612245 C131.949347,23.612245 131.198988,23.30155 130.645788,22.7479865 C130.092588,22.194423 129.781894,21.4435713 129.782097,20.6607143 L129.782097,2.95153061 C129.782097,1.32144527 131.102675,0 132.73169,0 C134.360705,0 135.681283,1.32144527 135.681283,2.95153061 L135.681283,20.6607143 C135.681487,21.4435713 135.370792,22.194423 134.817592,22.7479865 C134.264392,23.30155 133.514033,23.612245 132.73169,23.612245 L132.73169,23.612245 Z" id="Path"></path>
                    <path d="M47.1934898,53.127551 L41.2943036,53.127551 C38.0378161,53.1238263 35.3988397,50.4831164 35.3951174,47.2244898 L35.3951174,35.4183673 C35.3988397,32.1597407 38.0378161,29.5190309 41.2943036,29.5153061 L47.1934898,29.5153061 C50.4499774,29.5190309 53.0889538,32.1597407 53.0926761,35.4183673 L53.0926761,47.2244898 C53.0889538,50.4831164 50.4499774,53.1238263 47.1934898,53.127551 Z M41.2943036,35.4183673 L41.2943036,47.2244898 L47.1964394,47.2244898 L47.1934898,35.4183673 L41.2943036,35.4183673 Z" id="Shape"></path>
                    <path d="M61.9414554,53.1275511 C61.1591123,53.1275511 60.4087535,52.8168561 59.8555534,52.2632926 C59.3023533,51.7097291 58.9916588,50.9588774 58.9918622,50.1760204 L58.9918622,32.4668367 C58.9918622,30.8367514 60.3124401,29.5153061 61.9414554,29.5153061 C63.5704707,29.5153061 64.8910486,30.8367514 64.8910486,32.4668367 L64.8910486,50.1760204 C64.891252,50.9588774 64.5805576,51.7097291 64.0273574,52.2632926 C63.4741573,52.8168561 62.7237985,53.1275511 61.9414554,53.1275511 L61.9414554,53.1275511 Z" id="Path"></path>
                    <path d="M109.134945,53.1275511 C108.352602,53.1275511 107.602243,52.8168561 107.049043,52.2632926 C106.495843,51.7097291 106.185149,50.9588774 106.185352,50.1760204 L106.185352,32.4668367 C106.185352,30.8367514 107.50593,29.5153061 109.134945,29.5153061 C110.763961,29.5153061 112.084538,30.8367514 112.084538,32.4668367 L112.084538,50.1760204 C112.084742,50.9588774 111.774047,51.7097291 111.220847,52.2632926 C110.667647,52.8168561 109.917288,53.1275511 109.134945,53.1275511 L109.134945,53.1275511 Z" id="Path"></path>
                    <path d="M94.3869797,53.127551 L88.4877935,53.127551 C85.2313059,53.1238263 82.5923295,50.4831164 82.5886072,47.2244898 L82.5886072,35.4183673 C82.5923295,32.1597407 85.2313059,29.5190309 88.4877935,29.5153061 L94.3869797,29.5153061 C97.6434672,29.5190309 100.282444,32.1597407 100.286166,35.4183673 L100.286166,47.2244898 C100.282444,50.4831164 97.6434672,53.1238263 94.3869797,53.127551 Z M88.4877935,35.4183673 L88.4877935,47.2244898 L94.3899293,47.2244898 L94.3869797,35.4183673 L88.4877935,35.4183673 Z" id="Shape"></path>
                    <path d="M129.782097,53.127551 L123.882911,53.127551 C120.626423,53.1238263 117.987447,50.4831164 117.983725,47.2244898 L117.983725,35.4183673 C117.987447,32.1597407 120.626423,29.5190309 123.882911,29.5153061 L129.782097,29.5153061 C133.038585,29.5190309 135.677561,32.1597407 135.681283,35.4183673 L135.681283,47.2244898 C135.677561,50.4831164 133.038585,53.1238263 129.782097,53.127551 Z M123.882911,35.4183673 L123.882911,47.2244898 L129.785047,47.2244898 L129.782097,35.4183673 L123.882911,35.4183673 Z" id="Shape"></path>
                    <path d="M73.7398279,53.1275511 C72.9574848,53.1275511 72.207126,52.8168561 71.6539259,52.2632926 C71.1007257,51.7097291 70.7900313,50.9588774 70.7902347,50.1760204 L70.7902347,32.4668367 C70.7902347,30.8367514 72.1108126,29.5153061 73.7398279,29.5153061 C75.3688432,29.5153061 76.6894211,30.8367514 76.6894211,32.4668367 L76.6894211,50.1760204 C76.6896245,50.9588774 76.37893,51.7097291 75.8257299,52.2632926 C75.2725298,52.8168561 74.522171,53.1275511 73.7398279,53.1275511 L73.7398279,53.1275511 Z" id="Path"></path>
                    <path d="M38.3447105,82.6428572 C37.5623674,82.6428572 36.8120086,82.3321622 36.2588085,81.7785987 C35.7056084,81.2250352 35.3949139,80.4741835 35.3951173,79.6913265 L35.3951173,61.9821429 C35.3951173,60.3520575 36.7156952,59.0306122 38.3447105,59.0306122 C39.9737258,59.0306122 41.2943037,60.3520575 41.2943037,61.9821429 L41.2943037,79.6913265 C41.2945071,80.4741835 40.9838126,81.2250352 40.4306125,81.7785987 C39.8774124,82.3321622 39.1270536,82.6428572 38.3447105,82.6428572 L38.3447105,82.6428572 Z" id="Path"></path>
                    <path d="M50.143083,82.6428572 C49.3607399,82.6428572 48.6103811,82.3321622 48.0571809,81.7785987 C47.5039808,81.2250352 47.1932864,80.4741835 47.1934897,79.6913265 L47.1934897,61.9821429 C47.1934897,60.3520575 48.5140677,59.0306122 50.143083,59.0306122 C51.7720983,59.0306122 53.0926762,60.3520575 53.0926762,61.9821429 L53.0926762,79.6913265 C53.0928796,80.4741835 52.7821851,81.2250352 52.228985,81.7785987 C51.6757848,82.3321622 50.9254261,82.6428572 50.143083,82.6428572 L50.143083,82.6428572 Z" id="Path"></path>
                    <path d="M97.3365728,82.6428572 C96.5542297,82.6428572 95.8038709,82.3321622 95.2506708,81.7785987 C94.6974707,81.2250352 94.3867762,80.4741835 94.3869796,79.6913265 L94.3869796,61.9821429 C94.3869796,60.3520575 95.7075575,59.0306122 97.3365728,59.0306122 C98.9655881,59.0306122 100.286166,60.3520575 100.286166,61.9821429 L100.286166,79.6913265 C100.286369,80.4741835 99.9756749,81.2250352 99.4224748,81.7785987 C98.8692747,82.3321622 98.1189159,82.6428572 97.3365728,82.6428572 L97.3365728,82.6428572 Z" id="Path"></path>
                    <path d="M132.73169,82.6428572 C131.949347,82.6428572 131.198988,82.3321622 130.645788,81.7785987 C130.092588,81.2250352 129.781894,80.4741835 129.782097,79.6913265 L129.782097,61.9821429 C129.782097,60.3520575 131.102675,59.0306122 132.73169,59.0306122 C134.360705,59.0306122 135.681283,60.3520575 135.681283,61.9821429 L135.681283,79.6913265 C135.681487,80.4741835 135.370792,81.2250352 134.817592,81.7785987 C134.264392,82.3321622 133.514033,82.6428572 132.73169,82.6428572 L132.73169,82.6428572 Z" id="Path"></path>
                    <path d="M70.7902348,82.6428571 L64.8910485,82.6428571 C61.634561,82.6391324 58.9955846,79.9984225 58.9918623,76.7397959 L58.9918623,64.9336735 C58.9955846,61.6750469 61.634561,59.034337 64.8910485,59.0306122 L70.7902348,59.0306122 C74.0467223,59.034337 76.6856987,61.6750469 76.689421,64.9336735 L76.689421,76.7397959 C76.6856987,79.9984225 74.0467223,82.6391324 70.7902348,82.6428571 Z M64.8910485,64.9336735 L64.8910485,76.7397959 L70.7931844,76.7397959 L70.7902348,64.9336735 L64.8910485,64.9336735 Z" id="Shape"></path>
                    <path d="M117.983725,82.6428571 L112.084538,82.6428571 C108.828051,82.6391324 106.189074,79.9984225 106.185352,76.7397959 L106.185352,64.9336735 C106.189074,61.6750469 108.828051,59.034337 112.084538,59.0306122 L117.983725,59.0306122 C121.240212,59.034337 123.879189,61.6750469 123.882911,64.9336735 L123.882911,76.7397959 C123.879189,79.9984225 121.240212,82.6391324 117.983725,82.6428571 Z M112.084538,64.9336735 L112.084538,76.7397959 L117.986674,76.7397959 L117.983725,64.9336735 L112.084538,64.9336735 Z" id="Shape"></path>
                    <path d="M85.5382003,82.6428572 C84.7558572,82.6428572 84.0054985,82.3321622 83.4522983,81.7785987 C82.8990982,81.2250352 82.5884037,80.4741835 82.5886071,79.6913265 L82.5886071,61.9821429 C82.5886071,60.3520575 83.909185,59.0306122 85.5382003,59.0306122 C87.1672156,59.0306122 88.4877936,60.3520575 88.4877936,61.9821429 L88.4877936,79.6913265 C88.4879969,80.4741835 88.1773025,81.2250352 87.6241024,81.7785987 C87.0709022,82.3321622 86.3205434,82.6428572 85.5382003,82.6428572 L85.5382003,82.6428572 Z" id="Path"></path>
                    <path d="M156.328435,23.612245 C155.546092,23.612245 154.795733,23.30155 154.242533,22.7479865 C153.689333,22.194423 153.378638,21.4435713 153.378842,20.6607143 L153.378842,2.95153061 C153.378842,1.32144527 154.69942,0 156.328435,0 C157.95745,0 159.278028,1.32144527 159.278028,2.95153061 L159.278028,20.6607143 C159.278232,21.4435713 158.967537,22.194423 158.414337,22.7479865 C157.861137,23.30155 157.110778,23.612245 156.328435,23.612245 L156.328435,23.612245 Z" id="Path"></path>
                    <path d="M144.530063,23.612245 C143.74772,23.612245 142.997361,23.30155 142.444161,22.7479865 C141.890961,22.194423 141.580266,21.4435713 141.580469,20.6607143 L141.580469,2.95153061 C141.580469,1.32144527 142.901047,0 144.530063,0 C146.159078,0 147.479656,1.32144527 147.479656,2.95153061 L147.479656,20.6607143 C147.479859,21.4435713 147.169165,22.194423 146.615965,22.7479865 C146.062765,23.30155 145.312406,23.612245 144.530063,23.612245 L144.530063,23.612245 Z" id="Path"></path>
                    <path d="M153.378842,53.127551 L147.479656,53.127551 C144.223168,53.1238263 141.584192,50.4831164 141.58047,47.2244898 L141.58047,35.4183673 C141.584192,32.1597407 144.223168,29.5190309 147.479656,29.5153061 L153.378842,29.5153061 C156.63533,29.5190309 159.274306,32.1597407 159.278028,35.4183673 L159.278028,47.2244898 C159.274306,50.4831164 156.63533,53.1238263 153.378842,53.127551 L153.378842,53.127551 Z M147.479656,35.4183673 L147.479656,47.2244898 L153.381792,47.2244898 L153.378842,35.4183673 L147.479656,35.4183673 Z" id="Shape"></path>
                    <path d="M168.126808,53.1275511 C167.344464,53.1275511 166.594106,52.8168561 166.040906,52.2632926 C165.487705,51.7097291 165.177011,50.9588774 165.177214,50.1760204 L165.177214,32.4668367 C165.177214,30.8367514 166.497792,29.5153061 168.126808,29.5153061 C169.755823,29.5153061 171.076401,30.8367514 171.076401,32.4668367 L171.076401,50.1760204 C171.076604,50.9588774 170.76591,51.7097291 170.21271,52.2632926 C169.659509,52.8168561 168.909151,53.1275511 168.126808,53.1275511 L168.126808,53.1275511 Z" id="Path"></path>
                    <path d="M144.530063,82.6428572 C143.74772,82.6428572 142.997361,82.3321622 142.444161,81.7785987 C141.890961,81.2250352 141.580266,80.4741835 141.580469,79.6913265 L141.580469,61.9821429 C141.580469,60.3520575 142.901047,59.0306122 144.530063,59.0306122 C146.159078,59.0306122 147.479656,60.3520575 147.479656,61.9821429 L147.479656,79.6913265 C147.479859,80.4741835 147.169165,81.2250352 146.615965,81.7785987 C146.062765,82.3321622 145.312406,82.6428572 144.530063,82.6428572 L144.530063,82.6428572 Z" id="Path"></path>
                    <path d="M156.328435,82.6428572 C155.546092,82.6428572 154.795733,82.3321622 154.242533,81.7785987 C153.689333,81.2250352 153.378638,80.4741835 153.378842,79.6913265 L153.378842,61.9821429 C153.378842,60.3520575 154.69942,59.0306122 156.328435,59.0306122 C157.95745,59.0306122 159.278028,60.3520575 159.278028,61.9821429 L159.278028,79.6913265 C159.278232,80.4741835 158.967537,81.2250352 158.414337,81.7785987 C157.861137,82.3321622 157.110778,82.6428572 156.328435,82.6428572 L156.328435,82.6428572 Z" id="Path"></path>
                    <path d="M168.126808,82.6428572 C167.344464,82.6428572 166.594106,82.3321622 166.040906,81.7785987 C165.487705,81.2250352 165.177011,80.4741835 165.177214,79.6913265 L165.177214,61.9821429 C165.177214,60.3520575 166.497792,59.0306122 168.126808,59.0306122 C169.755823,59.0306122 171.076401,60.3520575 171.076401,61.9821429 L171.076401,79.6913265 C171.076604,80.4741835 170.76591,81.2250352 170.21271,81.7785987 C169.659509,82.3321622 168.909151,82.6428572 168.126808,82.6428572 L168.126808,82.6428572 Z" id="Path"></path>
                </g>
            </g>
            <g id="box" transform="translate(27.000000, 251.000000)">
                <path d="M202,194.224 L344.578639,194.224 C346.65085,194.224 348.330709,192.546911 348.330709,190.478118 L348.330709,29.4051765 L202,3.184 L202,194.224 Z" id="Path" fill="#F5DBB8"></path>
                <path d="M343.985788,199 L200.991358,199 C198.913104,199 197.228346,197.318959 197.228346,195.245291 L197.228346,3.75510919 C197.228346,2.64313354 197.722258,1.58833983 198.577053,0.874873252 C199.431849,0.161406678 200.5596,-0.137349196 201.656508,0.0590858639 L348.41395,26.3420519 C350.207316,26.6630063 351.511811,28.2201094 351.511811,30.0380753 L351.511811,191.490581 C351.507662,195.636203 348.140576,198.995861 343.985788,199 L343.985788,199 Z M204.754369,191.490581 L343.985788,191.490581 L343.985788,33.1786269 L204.754369,8.24318848 L204.754369,191.490581 Z" id="Shape" fill="#6D6DAA"></path>
                <path d="M59.4213771,194.224 L202,194.224 L202,3.184 L55.6692913,29.4051765 L55.6692913,190.478118 C55.6692913,192.546911 57.3491574,194.224 59.4213771,194.224 Z" id="Path" fill="#FFFAD1"></path>
                <path d="M203.008595,199 L60.0143055,199 C55.8594658,198.995861 52.4923378,195.636203 52.488189,191.490581 L52.488189,30.0380638 C52.488189,28.2200978 53.7927002,26.6629946 55.5860892,26.3420402 L202.343513,0.0590723881 C203.440422,-0.137337675 204.568166,0.161429777 205.422954,0.87489346 C206.277742,1.58835714 206.771654,2.64313594 206.771654,3.75509597 L206.771654,195.24529 C206.771654,197.318959 205.086875,199 203.008595,199 Z M60.0143055,33.1786156 L60.0143055,191.490581 L199.245537,191.490581 L199.245537,8.24313801 L60.0143055,33.1786156 Z" id="Shape" fill="#6D6DAA"></path>
                <path d="M60.4409449,119.4 L155.759016,119.4 C158.913234,119.4 161.725658,117.401086 162.780507,114.409535 L202,3.184 L60.4409449,36.9248909 L60.4409449,119.4 Z" id="Path" fill="#875499" opacity="0.3"></path>
                <path d="M248.240777,119.4 L343.559055,119.4 L343.559055,36.9248909 L202,3.184 L241.219206,114.409535 C242.274064,117.401125 245.086532,119.4 248.240777,119.4 Z" id="Path" fill="#875499" opacity="0.3"></path>
                <path d="M258.269446,105.072 L400.818898,105.072 L347.735845,9.13763342 C345.773019,5.47070413 341.967229,3.184 337.82712,3.184 L202,3.184 L258.269446,105.072 Z" id="Path" fill="#F5DBB8"></path>
                <path d="M400.269249,108.256006 L258.507913,108.256006 C257.153356,108.256006 255.905165,107.52156 255.247402,106.336664 L199.288979,5.54660041 C198.646539,4.39044766 198.663628,2.98040218 199.333897,1.8401786 C200.004167,0.699955027 201.227485,5.60014115e-06 202.54949,5.60014115e-06 L337.627563,5.60014115e-06 C343.118037,-0.00474449686 348.166139,3.01263031 350.764661,7.85237843 L403.527932,102.707587 C404.172029,103.863479 404.156045,105.274285 403.485926,106.415268 C402.815807,107.556251 401.591832,108.256006 400.269249,108.256006 L400.269249,108.256006 Z M260.7029,100.790075 L393.92293,100.790075 L344.221555,11.437817 C342.926473,8.99576975 340.390378,7.46815884 337.627563,7.46594186 L208.890363,7.46594186 L260.7029,100.790075 Z" id="Shape" fill="#6D6DAA"></path>
                <path d="M3.18110236,105.072 L145.73032,105.072 L202,3.184 L66.1730582,3.184 C62.0329376,3.184 58.2271364,5.47070413 56.2643052,9.13763342 L3.18110236,105.072 Z" id="Path" fill="#FFFAD1"></path>
                <path d="M145.491567,108.256019 L3.73089526,108.256019 C2.40828102,108.256019 1.18425885,107.556319 0.514106636,106.415329 C-0.156045581,105.274339 -0.172040154,103.863509 0.472072136,102.7076 L53.2613582,7.80682315 C55.8654645,2.98968724 60.9017656,-0.00850638572 66.3750305,1.81296341e-05 L201.450477,1.81296341e-05 C202.772494,1.81296341e-05 203.995822,0.699980069 204.666098,1.84020351 C205.336374,2.98042695 205.353462,4.39047228 204.711016,5.54662489 L148.752106,106.336677 C148.094337,107.521573 146.846135,108.256019 145.491567,108.256019 L145.491567,108.256019 Z M10.0771953,100.790088 L143.296709,100.790088 L195.109549,7.46596389 L66.3750305,7.46596389 C63.6293713,7.46384839 61.1048792,8.97236645 59.8045964,11.3921493 L10.0771953,100.790088 Z" id="Shape" fill="#6D6DAA"></path>
                <rect id="Rectangle" fill="#FFFFFF" x="93.8425197" y="124.176" width="63.6220472" height="52.536"></rect>
                <path d="M156.878574,179.896 L92.837961,179.896 C90.757452,179.896 89.0708661,178.203189 89.0708661,176.115 L89.0708661,123.181 C89.0708661,121.092811 90.757452,119.4 92.837961,119.4 L156.878574,119.4 C158.959083,119.4 160.645669,121.092811 160.645669,123.181 L160.645669,176.115 C160.645669,178.203189 158.959083,179.896 156.878574,179.896 Z M96.6050559,172.334 L153.111479,172.334 L153.111479,126.962 L96.6050559,126.962 L96.6050559,172.334 Z" id="Shape" fill="#6D6DAA"></path>
                <path d="M112.397032,143.28 L108.689471,143.28 C106.638786,143.28 104.976378,141.498093 104.976378,139.3 C104.976378,137.101907 106.638786,135.32 108.689471,135.32 L112.397143,135.32 C114.447828,135.32 116.110236,137.101907 116.110236,139.3 C116.110236,141.498093 114.447828,143.28 112.397143,143.28 L112.397032,143.28 Z" id="Path" fill="#B6B6D4"></path>
                <path d="M112.397032,168.752 L108.689471,168.752 C106.638786,168.752 104.976378,166.970093 104.976378,164.772 C104.976378,162.573907 106.638786,160.792 108.689471,160.792 L112.397143,160.792 C114.447828,160.792 116.110236,162.573907 116.110236,164.772 C116.110236,166.970093 114.447828,168.752 112.397143,168.752 L112.397032,168.752 Z" id="Path" fill="#B6B6D4"></path>
                <path d="M126.712104,168.752 L123.004432,168.752 C120.953747,168.752 119.291339,166.970093 119.291339,164.772 C119.291339,162.573907 120.953747,160.792 123.004432,160.792 L126.712104,160.792 C128.762788,160.792 130.425197,162.573907 130.425197,164.772 C130.425197,166.970093 128.762788,168.752 126.712104,168.752 Z" id="Path" fill="#B6B6D4"></path>
                <path d="M142.61743,168.752 L138.909944,168.752 C136.859259,168.752 135.19685,166.970093 135.19685,164.772 C135.19685,162.573907 136.859259,160.792 138.909944,160.792 L142.617616,160.792 C144.6683,160.792 146.330709,162.573907 146.330709,164.772 C146.330709,166.970093 144.6683,168.752 142.617616,168.752 L142.61743,168.752 Z" id="Path" fill="#B6B6D4"></path>
                <path d="M141.104092,143.28 L122.927404,143.28 C120.91926,143.28 119.291339,141.498093 119.291339,139.3 C119.291339,137.101907 120.91926,135.32 122.927404,135.32 L141.104092,135.32 C143.112236,135.32 144.740157,137.101907 144.740157,139.3 C144.740157,141.498093 143.112236,143.28 141.104092,143.28 Z" id="Path" fill="#B6B6D4"></path>
                <path d="M126.789132,154.424 L108.612443,154.424 C106.6043,154.424 104.976378,152.642093 104.976378,150.444 C104.976378,148.245907 106.6043,146.464 108.612443,146.464 L126.789132,146.464 C128.797275,146.464 130.425197,148.245907 130.425197,150.444 C130.425197,152.642093 128.797275,154.424 126.789132,154.424 Z" id="Path" fill="#B6B6D4"></path>
            </g>
        </g>
    </g>
</svg>