<?xml version="1.0" encoding="UTF-8"?>
<svg width="800px" height="600px" viewBox="0 0 800 600" version="1.1" xmlns="http://www.w3.org/2000/svg" xmlns:xlink="http://www.w3.org/1999/xlink">
    <title>Artboard</title>
    <g id="Artboard" stroke="none" stroke-width="1" fill="none" fill-rule="evenodd">
        <g id="sparkles" transform="translate(128.000000, 81.000000)" fill-rule="nonzero">
            <path d="M438.384629,15.076873 C440.359001,21.5640484 445.435886,26.6409905 451.923037,28.6154333 C458.692321,30.871805 458.692321,33.1281889 451.923037,35.3845851 C445.435886,37.3590278 440.359001,42.4359699 438.384629,48.9231453 C436.128259,55.6922849 433.871839,55.6922849 431.615371,48.9231453 C429.641039,42.4359457 424.564138,37.3589875 418.076963,35.3845851 C411.307679,33.1282134 411.307679,30.8718294 418.076963,28.6154333 C424.564138,26.6410309 429.641039,21.5640726 431.615371,15.076873 C433.87179,8.307709 436.12821,8.307709 438.384629,15.076873 Z" id="Path" fill="#96D7FF"></path>
            <path d="M136.307713,3.4615024 C137.653876,7.8845826 141.115392,11.3461353 145.53845,12.692338 C150.15385,14.2307918 150.15385,15.7692332 145.53845,17.307662 C141.115392,18.6538647 137.653876,22.1154174 136.307712,26.5384976 C134.769262,31.1538341 133.230787,31.1538341 131.692287,26.5384976 C130.346148,22.1154033 126.884622,18.6538412 122.46155,17.307662 C117.84615,15.7692082 117.84615,14.2307668 122.46155,12.692338 C126.884622,11.3461588 130.346148,7.88459675 131.692287,3.4615024 C133.230763,-1.15383413 134.769238,-1.15383413 136.307713,3.4615024 Z" id="Path" fill="#C9C1F5"></path>
            <path d="M455.307713,140.461502 C456.653876,144.884583 460.115392,148.346135 464.53845,149.692338 C469.15385,151.230792 469.15385,152.769233 464.53845,154.307662 C460.115392,155.653865 456.653876,159.115417 455.307712,163.538498 C453.769262,168.153834 452.230787,168.153834 450.692287,163.538498 C449.346148,159.115403 445.884622,155.653841 441.46155,154.307662 C436.84615,152.769208 436.84615,151.230767 441.46155,149.692338 C445.884622,148.346159 449.346148,144.884597 450.692287,140.461502 C452.230763,135.846166 453.769237,135.846166 455.307713,140.461502 Z" id="Path" fill="#96D7FF"></path>
            <path d="M17.3077125,243.461502 C18.6538759,247.884583 22.1153918,251.346135 26.53845,252.692338 C31.15385,254.230792 31.15385,255.769233 26.53845,257.307662 C22.1153918,258.653865 18.6538759,262.115417 17.3077125,266.538498 C15.7692625,271.153834 14.2307875,271.153834 12.6922875,266.538498 C11.3461477,262.115403 7.88462235,258.653841 3.46155,257.307662 C-1.15385,255.769208 -1.15385,254.230767 3.46155,252.692338 C7.88462235,251.346159 11.3461477,247.884597 12.6922875,243.461502 C14.2307625,238.846166 15.7692375,238.846166 17.3077125,243.461502 Z" id="Path" fill="#96D7FF"></path>
            <path d="M237.307712,393.461502 C238.653876,397.884583 242.115392,401.346135 246.53845,402.692338 C251.15385,404.230792 251.15385,405.769233 246.53845,407.307662 C242.115392,408.653865 238.653876,412.115417 237.307713,416.538498 C235.769262,421.153834 234.230787,421.153834 232.692287,416.538498 C231.346148,412.115403 227.884622,408.653841 223.46155,407.307662 C218.84615,405.769208 218.84615,404.230767 223.46155,402.692338 C227.884622,401.346159 231.346148,397.884597 232.692288,393.461502 C234.230762,388.846166 235.769237,388.846166 237.307712,393.461502 Z" id="Path" fill="#C9C1F5"></path>
        </g>
        <g id="spec" transform="translate(72.000000, 48.000000)" fill-rule="nonzero">
            <polygon id="Path" fill="#FFD599" points="170.25 118 111 118 111 407 348 407 348 118 292.453125 118"></polygon>
            <polygon id="Path" fill="#FFFAD1" points="170.25 118 111 118 111 129 348 129 348 118 292.453125 118"></polygon>
            <g id="Group" opacity="0.3" transform="translate(111.000000, 397.000000)" fill="#BF914C">
                <rect id="Rectangle" x="0" y="0" width="237" height="11"></rect>
            </g>
            <rect id="Rectangle" fill="#EEF6FF" x="134" y="375" width="193" height="11"></rect>
            <path d="M326.277778,389 L132.722222,389 C130.666496,389 129,387.388225 129,385.4 L129,374.6 C129,372.611775 130.666496,371 132.722222,371 L326.277778,371 C328.333504,371 330,372.611775 330,374.6 L330,385.4 C330,387.388225 328.333504,389 326.277778,389 Z M136.444444,381.8 L322.555556,381.8 L322.555556,378.2 L136.444444,378.2 L136.444444,381.8 Z" id="Shape" fill="#6D6DAA"></path>
            <rect id="Rectangle" fill="#EEF6FF" x="134" y="333" width="193" height="41"></rect>
            <path d="M326.277778,379 L132.722222,379 C130.666496,379 129,377.312458 129,375.230769 L129,333.769231 C129,331.687542 130.666496,330 132.722222,330 L326.277778,330 C328.333504,330 330,331.687542 330,333.769231 L330,375.230769 C330,377.312458 328.333504,379 326.277778,379 Z M136.444444,371.461538 L322.555556,371.461538 L322.555556,337.538462 L136.444444,337.538462 L136.444444,371.461538 Z" id="Shape" fill="#6D6DAA"></path>
            <polygon id="Path" fill="#FFFFFF" points="134 141 134 363 297.307692 363 327 333.4 327 141"></polygon>
            <path d="M296.499897,366.999939 L132.72222,366.999939 C130.666495,366.999939 129,365.338999 129,363.290202 L129,140.709675 C129,138.660878 130.666495,137 132.72222,137 L326.277657,137 C328.333382,137 329.999939,138.660878 329.999939,140.709675 L329.999939,333.612798 C330.005597,334.598841 329.617182,335.546582 328.920433,336.246668 L299.142673,365.924071 C298.44022,366.618473 297.489274,367.005578 296.499897,366.999939 Z M136.44444,359.580526 L294.973787,359.580526 L322.555437,332.054735 L322.555437,144.419351 L136.44444,144.419351 L136.44444,359.580526 Z" id="Shape" fill="#6D6DAA"></path>
            <path d="M204,100.666667 L204,108 L256,108 L256,100.666667 C256,86.4913581 244.359403,75 230,75 L230,75 C215.640597,75 204,86.4913581 204,100.666667 Z" id="Path" fill="#EEF6FF"></path>
            <path d="M230,75 C215.640597,75 204,86.4913581 204,100.666667 L204,108 L204.297143,108 C206.233696,95.4637686 217.154151,86.2026657 230,86.2026657 C242.845849,86.2026657 253.766304,95.4637686 255.702857,108 L256,108 L256,100.666667 C256,86.4913581 244.359403,75 230,75 Z" id="Path" fill="#FFFFFF"></path>
            <path d="M256.3125,111 L204.6875,111 C202.65095,111 201,109.331243 201,107.272727 L201,99.8181818 C201,83.3500547 214.2076,70 230.5,70 C246.7924,70 260,83.3500547 260,99.8181818 L260,107.272727 C260,109.331243 258.34905,111 256.3125,111 Z M208.375,103.545455 L252.625,103.545455 L252.625,99.8181818 C252.625,87.4670865 242.7193,77.4545455 230.5,77.4545455 C218.2807,77.4545455 208.375,87.4670865 208.375,99.8181818 L208.375,103.545455 Z" id="Shape" fill="#6D6DAA"></path>
            <path d="M349.287879,412 L111.712121,412 C109.661973,412 108,410.343454 108,408.3 L108,119.7 C108,117.656546 109.661973,116 111.712121,116 L349.287879,116 C351.338027,116 353,117.656546 353,119.7 L353,408.3 C353,410.343454 351.338027,412 349.287879,412 Z M115.424242,404.6 L345.575758,404.6 L345.575758,123.4 L115.424242,123.4 L115.424242,404.6 Z" id="Shape" fill="#6D6DAA"></path>
            <g id="Group" opacity="0.3" transform="translate(163.000000, 114.000000)" fill="#7690A8">
                <path d="M119.111111,0 L14.8888889,0 C6.66598261,0 0,6.75016839 0,15.0769231 L0,45.2307692 C0,47.3124579 1.66649565,49 3.72222222,49 L130.277778,49 C132.333504,49 134,47.3124579 134,45.2307692 L134,15.0769231 C134,6.75016839 127.334017,0 119.111111,0 Z" id="Path"></path>
            </g>
            <path d="M293,119 C293,112.924868 288.02246,108 281.882353,108 L178.117647,108 C171.97754,108 167,112.924868 167,119 L167,152 L293,152 L293,119 Z" id="Path" fill="#CED8EE"></path>
            <g id="Group" opacity="0.3" transform="translate(167.000000, 141.000000)" fill="#7690A8">
                <rect id="Rectangle" x="0" y="0" width="126" height="11"></rect>
            </g>
            <path d="M281.882353,108 L178.117647,108 C171.97754,108 167,113.148725 167,119.5 L167,131 C167,124.648725 171.97754,119.5 178.117647,119.5 L281.882353,119.5 C288.02246,119.5 293,124.648725 293,131 L293,119.5 C293,113.148725 288.02246,108 281.882353,108 Z" id="Path" fill="#EEF6FF"></path>
            <path d="M192.333333,134 L166.666667,134 C164.641623,134 163,132.209139 163,130 C163,127.790861 164.641623,126 166.666667,126 L192.333333,126 C194.358377,126 196,127.790861 196,130 C196,132.209139 194.358377,134 192.333333,134 Z" id="Path" fill="#6D6DAA"></path>
            <path d="M292.333333,134 L266.666667,134 C264.641623,134 263,132.209139 263,130 C263,127.790861 264.641623,126 266.666667,126 L292.333333,126 C294.358377,126 296,127.790861 296,130 C296,132.209139 294.358377,134 292.333333,134 Z" id="Path" fill="#6D6DAA"></path>
            <path d="M293.277778,155 L166.722222,155 C164.666496,155 163,153.337058 163,151.285714 L163,117.857143 C163,109.651769 169.665983,103 177.888889,103 L282.111111,103 C290.334017,103 297,109.651769 297,117.857143 L297,151.285714 C297,153.337058 295.333504,155 293.277778,155 Z M170.444444,147.571429 L289.555556,147.571429 L289.555556,117.857143 C289.555556,113.754456 286.222564,110.428571 282.111111,110.428571 L177.888889,110.428571 C173.777436,110.428571 170.444444,113.754456 170.444444,117.857143 L170.444444,147.571429 Z" id="Shape" fill="#6D6DAA"></path>
            <path d="M230.006961,96 C228.945895,96.0060855 227.926045,95.5883148 227.172693,94.8389057 C226.808323,94.4508864 226.51146,94.0042955 226.29447,93.5177367 C226.103593,93.033663 226.008676,92.5169028 226.015035,91.9963905 C225.994988,91.7432314 225.994988,91.4888766 226.015035,91.2357175 C226.052043,90.970544 226.132998,90.7134421 226.25455,90.4750444 C226.333515,90.2287727 226.455132,89.9983826 226.613824,89.7944422 C226.749549,89.563917 226.910196,89.3490977 227.092855,89.1538754 C227.472502,88.7893904 227.920176,88.5036776 228.410191,88.3131315 C229.896772,87.6861898 231.613469,88.017892 232.76139,89.1538754 C232.944049,89.3490977 233.104696,89.563917 233.240421,89.7944422 C233.399113,89.9983826 233.52073,90.2287727 233.599695,90.4750444 C233.720563,90.713723 233.801481,90.9707081 233.83921,91.2357175 C233.911865,91.4847787 233.96525,91.7390912 233.998887,91.9963905 C234.01238,92.5215614 233.903007,93.0425987 233.679533,93.5177367 C233.476,94.0021841 233.192605,94.448814 232.841229,94.8389057 C232.45321,95.1925423 232.007654,95.4769027 231.523893,95.6796496 C231.043974,95.884795 230.528615,95.9936074 230.006961,96 L230.006961,96 Z" id="Path" fill="#6D6DAA"></path>
            <polygon id="Path" fill="#EEF6FF" points="297 363 297 333 326 333"></polygon>
            <path d="M296.697838,365.999941 C294.655579,365.999941 293,364.388117 293,362.399905 L293,333.600098 C293,331.611886 294.655579,330.00006 296.697838,330.00006 L326.280546,330.00006 C327.782848,329.991616 329.14112,330.86881 329.717209,332.219573 C330.293299,333.570337 329.972689,335.126162 328.906011,336.156081 L299.323304,364.955888 C298.625452,365.629755 297.680735,366.005413 296.697838,365.999941 Z M300.395677,337.200074 L300.395677,353.723963 L317.368755,337.200074 L300.395677,337.200074 Z" id="Shape" fill="#6D6DAA"></path>
            <path d="M174.746714,211 C173.754496,211.005671 172.800818,210.616353 172.096348,209.917983 L160.897616,198.725352 C159.62926,197.245088 159.714537,195.038521 161.093358,193.66045 C162.47218,192.28238 164.67995,192.197149 166.16102,193.464815 L173.962803,201.262348 L188.334508,177.422043 C189.487501,175.959569 191.542842,175.570593 193.150988,176.510517 C194.759134,177.450441 195.427735,179.431498 194.717785,181.15292 L177.919688,209.134499 C177.326281,210.126982 176.306014,210.788416 175.157334,210.92532 L174.746714,211 Z" id="Path" fill="#5ECCA0"></path>
            <g id="Group" opacity="0.5" transform="translate(212.000000, 196.000000)" fill="#6D6DAA">
                <path d="M84.3333333,8 L3.66666667,8 C1.64162258,8 0,6.209139 0,4 C0,1.790861 1.64162258,0 3.66666667,0 L84.3333333,0 C86.3583774,0 88,1.790861 88,4 C88,6.209139 86.3583774,8 84.3333333,8 Z" id="Path"></path>
            </g>
            <g id="Group" opacity="0.5" transform="translate(212.000000, 181.000000)" fill="#6D6DAA">
                <path d="M40.3333333,8 L3.66666667,8 C1.64162258,8 0,6.209139 0,4 C0,1.790861 1.64162258,0 3.66666667,0 L40.3333333,0 C42.3583774,0 44,1.790861 44,4 C44,6.209139 42.3583774,8 40.3333333,8 Z" id="Path"></path>
            </g>
            <g id="Group" opacity="0.5" transform="translate(211.000000, 237.000000)" fill="#6D6DAA">
                <path d="M63.2777778,8 L3.72222222,8 C1.66649565,8 0,6.209139 0,4 C0,1.790861 1.66649565,0 3.72222222,0 L63.2777778,0 C65.3335043,0 67,1.790861 67,4 C67,6.209139 65.3335043,8 63.2777778,8 Z" id="Path"></path>
            </g>
            <g id="Group" opacity="0.5" transform="translate(212.000000, 293.000000)" fill="#6D6DAA">
                <path d="M52.2666667,8 L3.73333333,8 C1.67147027,8 0,6.209139 0,4 C0,1.790861 1.67147027,0 3.73333333,0 L52.2666667,0 C54.3285297,0 56,1.790861 56,4 C56,6.209139 54.3285297,8 52.2666667,8 Z" id="Path"></path>
            </g>
            <path d="M174.531374,266 C173.553645,266.005531 172.613893,265.625836 171.91971,264.944728 L160.884509,254.028754 C159.634674,252.585079 159.718705,250.433053 161.077392,249.089045 C162.43608,247.745038 164.61161,247.661914 166.071053,248.898246 L173.75891,256.503041 L187.920752,233.252016 C188.468001,231.938716 189.737816,231.060509 191.172647,231.002999 C192.607478,230.945488 193.944959,231.71919 194.597829,232.984387 C195.250698,234.249585 195.099576,235.77493 194.210816,236.890674 L177.658015,264.18061 C177.073273,265.148561 176.067904,265.793646 174.935998,265.927166 L174.531374,266 Z" id="Path" fill="#5ECCA0"></path>
            <g id="Group" opacity="0.5" transform="translate(212.000000, 252.000000)" fill="#6D6DAA">
                <path d="M84.3333333,8 L3.66666667,8 C1.64162258,8 0,6.209139 0,4 C0,1.790861 1.64162258,0 3.66666667,0 L84.3333333,0 C86.3583774,0 88,1.790861 88,4 C88,6.209139 86.3583774,8 84.3333333,8 Z" id="Path"></path>
            </g>
            <path d="M174.531374,322 C173.553645,322.005531 172.613893,321.625836 171.91971,320.944728 L160.884509,310.028754 C159.634674,308.585079 159.718705,306.433053 161.077392,305.089045 C162.43608,303.745038 164.61161,303.661914 166.071053,304.898246 L173.75891,312.503041 L187.920752,289.252016 C188.468001,287.938716 189.737816,287.060509 191.172647,287.002999 C192.607478,286.945488 193.944959,287.71919 194.597829,288.984387 C195.250698,290.249585 195.099576,291.77493 194.210816,292.890674 L177.658015,320.18061 C177.073273,321.148561 176.067904,321.793646 174.935998,321.927166 L174.531374,322 Z" id="Path" fill="#5ECCA0"></path>
            <g id="Group" opacity="0.5" transform="translate(212.000000, 307.000000)" fill="#6D6DAA">
                <path d="M84.3333333,8 L3.66666667,8 C1.64162258,8 0,6.209139 0,4 C0,1.790861 1.64162258,0 3.66666667,0 L84.3333333,0 C86.3583774,0 88,1.790861 88,4 C88,6.209139 86.3583774,8 84.3333333,8 Z" id="Path"></path>
            </g>
        </g>
        <g id="arrow" transform="translate(369.000000, 74.000000)" fill-rule="nonzero">
            <path d="M152.412698,140.318182 L152.412698,75.2272727 C152.412698,34.7849667 119.793444,2 79.5555556,2 L76.8571429,2 C36.6192539,2 4,34.7849667 4,75.2272727 L4,91.5 L41.7777778,91.5 L41.7777778,75.2272727 C41.7777778,55.7550513 57.4833445,39.969697 76.8571429,39.969697 L79.5555556,39.969697 C98.9293539,39.969697 114.634921,55.7550513 114.634921,75.2272727 L114.634921,140.318182 L93.047619,140.318182 L133.52381,181 L174,140.318182 L152.412698,140.318182 Z" id="Path" fill="#B1F1A8"></path>
            <g id="Group" opacity="0.5" transform="translate(92.000000, 143.000000)" fill="#FFFFFF">
                <polygon id="Path" points="41 29.3333333 71.0666667 0 82 0 41 40 0 0 10.9333333 0"></polygon>
            </g>
            <g id="Group" opacity="0.3" transform="translate(3.000000, 82.000000)" fill="#48BC33">
                <rect id="Rectangle" x="0" y="0" width="38" height="11"></rect>
            </g>
            <g id="Group" opacity="0.3" transform="translate(21.000000, 21.000000)" fill="#48BC33">
                <path d="M112.000012,55.5954247 C112.009912,40.5050151 105.833254,26.0596763 94.8898558,15.5799657 C83.9464579,5.10025502 69.177719,-0.512317637 53.9785366,0.0324126617 C23.6292683,1.1436729 0,26.8110741 0,56.9506201 L0,70.5025742 L19.1219512,70.5025742 L19.1219512,54.2402293 C19.1219512,34.7804315 35.0213025,19.0051485 54.6341463,19.0051485 L57.3658537,19.0051485 C76.9786975,19.0051485 92.8780488,34.7804315 92.8780488,54.2402293 L92.8780488,122 L109.268293,122 C110.776973,122 112.000012,120.786517 112.000012,119.289609 L112.000012,55.5954247 Z" id="Path"></path>
            </g>
            <path d="M132.664992,184.999955 C131.945344,185.004091 131.25365,184.720197 130.742704,184.21094 L90.1309713,143.402136 C89.3499808,142.623802 89.1152398,141.448029 89.5370357,140.427225 C89.9588316,139.40642 90.9533181,138.743505 92.05326,138.749932 L111.005402,138.749932 L111.005402,76.1764335 C111.005402,58.1459696 96.4594082,43.5293906 78.5160159,43.5293906 L75.808567,43.5293906 C57.8651747,43.5293906 43.3191812,58.1459696 43.3191812,76.1764335 L43.3191812,92.499955 C43.3191812,94.0024936 42.107015,95.2205419 40.6117323,95.2205419 L2.70744882,95.2205419 C1.21216613,95.2205419 0,94.0024936 0,92.499955 L0,76.1764335 C0,34.105351 33.9406516,0 75.808567,0 L78.5160159,0 C120.383931,0 154.324583,34.105351 154.324583,76.1764335 L154.324583,138.749932 L173.276725,138.749932 C174.376667,138.743505 175.371153,139.40642 175.792949,140.427225 C176.214745,141.448029 175.980004,142.623802 175.199013,143.402136 L134.587281,184.21094 C134.076334,184.720197 133.38464,185.004091 132.664992,184.999955 Z M98.6052861,144.191106 L132.664992,178.443295 L166.751773,144.191106 L151.617134,144.191106 C150.121851,144.191106 148.909685,142.973058 148.909685,141.470519 L148.909685,76.1764335 C148.909685,37.1104283 117.393366,5.44117382 78.5160159,5.44117382 L75.808567,5.44117382 C36.931217,5.44117382 5.41489765,37.1104283 5.41489765,76.1764335 L5.41489765,89.779368 L37.9042835,89.779368 L37.9042835,76.1764335 C37.9042835,55.1408922 54.8746093,38.0882167 75.808567,38.0882167 L78.5160159,38.0882167 C99.4499736,38.0882167 116.420299,55.1408922 116.420299,76.1764335 L116.420299,141.470519 C116.420299,142.973058 115.208133,144.191106 113.712851,144.191106 L98.6052861,144.191106 Z" id="Shape" fill="#6D6DAA"></path>
        </g>
        <g id="developer" transform="translate(125.000000, 261.000000)" fill-rule="nonzero">
            <g id="Group-3" transform="translate(273.000000, 3.000000)">
                <path d="M47,174 L47,59.3333333 C47,25.8556522 72.3370833,2 106.5,2 L106.64875,2 C140.786875,2 166,25.8556522 166,59.3333333 L166,174 L47,174 Z" id="Path" fill="#D6B5B0"></path>
                <g id="Group" opacity="0.3" transform="translate(157.000000, 80.000000)" fill="#CC7E54">
                    <path d="M0,0 L2.5,0 C6.64213562,0 10,3.35786438 10,7.5 L10,15 C10,17.6521649 8.9464316,20.195704 7.07106781,22.0710678 C5.19570403,23.9464316 2.6521649,25 0,25 L0,25 L0,0 Z" id="Path"></path>
                </g>
                <g id="Group" opacity="0.3" transform="translate(47.000000, 80.000000)" fill="#CC7E54">
                    <path d="M1.77635684e-14,-1.77635684e-14 L1.77635684e-14,-1.77635684e-14 C5.5228475,-1.77635684e-14 10,4.4771525 10,10 L10,17.5 C10,21.6421356 6.64213562,25 2.5,25 L1.77635684e-14,25 L1.77635684e-14,-1.77635684e-14 Z" id="Path" transform="translate(5.000000, 12.500000) rotate(-180.000000) translate(-5.000000, -12.500000) "></path>
                </g>
                <g id="Group" opacity="0.3" transform="translate(47.000000, 3.000000)" fill="#FFFFFF">
                    <path d="M59.64875,0 L59.5,0 C25.3370833,0 0,23.7477778 0,57.0740741 L0,67 C0,33.6737037 25.3370833,9.92592593 59.5,9.92592593 L59.64875,9.92592593 C93.786875,9.92592593 119,33.6737037 119,67 L119,57.0740741 C119,23.7477778 93.786875,0 59.64875,0 Z" id="Path"></path>
                </g>
                <path d="M166.52,177 C165.150334,177 164.04,175.883865 164.04,174.507042 L164.04,59.8309859 C164.04,28.0457746 140.108,4.98591549 107.1488,4.98591549 C74.1896,4.98591549 49.96,28.0457746 49.96,59.8309859 L49.96,174.507042 C49.96,175.883865 48.8496662,177 47.48,177 C46.1103338,177 45,175.883865 45,174.507042 L45,59.8309859 C45,25.1539437 71.0648,0 107,0 C142.9352,0 169,25.1539437 169,59.8309859 L169,174.507042 C169,175.883865 167.889666,177 166.52,177 Z" id="Path" fill="#6D6DAA"></path>
                <path d="M148,157.672348 L148,157.672348 C144.42609,168.702652 127.431271,177 106.937519,177 C86.4437671,177 69.4489485,168.727273 66,157.795455 L66,157.647727 C68.9377254,155.920178 72.003871,154.413989 75.1722036,153.142045 C79.1891181,151.268594 81.7697047,147.302283 81.8201768,142.924242 C81.8083431,141.232653 81.4602245,139.559733 80.7954892,138 C96.956718,147.322948 116.968305,147.322948 133.129534,138 C130.497916,143.706394 133.001631,150.437284 138.752819,153.117424 C141.945915,154.40705 145.036889,155.929584 148,157.672348 Z" id="Path" fill="#EFDCD2"></path>
                <g id="Group" opacity="0.3" transform="translate(80.000000, 137.000000)" fill="#CC7E54">
                    <path d="M26.5,20 C36.2,20 45.15,13.4488889 52.475,8.41333333 C51.2212477,5.81278448 51.2212477,2.80054885 52.475,0.2 L0.425,0.2 C1.70552266,2.7938955 1.75125683,5.80787889 0.55,8.43777778 C7.875,13.4488889 16.825,20 26.5,20 Z" id="Path"></path>
                </g>
                <path d="M153.906833,219 L32,219 L32,215.858866 C32.0842238,191.614081 44.941205,169.223892 65.7981667,157 L65.7981667,157.149578 C69.4238333,168.218335 86.2856667,176.619622 106.5,176.619622 C126.714333,176.619622 143.75,168.243265 147.201833,157.174507 L147.201833,157.174507 C155.959494,162.368999 163.46451,169.443409 169.179333,177.891033 C176.824503,189.069969 180.943167,202.299066 181,215.858866 L181,219 L153.906833,219 Z" id="Path" fill="#97C1FF"></path>
                <g id="Group" opacity="0.3" transform="translate(32.000000, 157.000000)" fill="#FFFFFF">
                    <path d="M137.278667,21.15 C131.563843,12.6785313 124.058828,5.58415305 115.301167,0.375 L115.301167,0.375 C111.75,11.575 94.8633333,20 74.5,20 C54.1366667,20 37.25,11.6 33.823,0.5 L33.823,0.35 C12.9641063,12.597586 0.0981717306,35.0406022 0,59.35 C1.09266667,50 13.8818333,22.35 31.4638333,12.5 C36.4305,20 54.2608333,30 74.5496667,30 C94.8385,30 112.470167,20 117.536167,12.5 C142.593,27.35 149,59.35 149,59.35 C148.997359,45.7198083 144.912472,32.4071003 137.278667,21.15 L137.278667,21.15 Z" id="Path"></path>
                </g>
                <path d="M32.4657534,222 C31.1039554,222 30,220.888096 30,219.516493 L30,216.387274 C30.1531937,191.376499 43.3599863,168.291601 64.7671233,155.615861 C67.7672562,153.806239 70.8995583,152.228812 74.1369863,150.897197 C77.133939,149.367631 79.0354908,146.28409 79.0684932,142.900305 C79.0524831,141.647594 78.7752587,140.412255 78.2547945,139.274385 C77.8400648,138.030084 78.4582598,136.675577 79.6659502,136.182448 C80.8736407,135.689319 82.2537973,136.22785 82.8164384,137.411755 C83.5847773,139.147497 83.9877658,141.024739 84,142.92514 C83.929949,148.291243 80.8428905,153.15251 76.0356164,155.46685 C51.4318902,165.618276 35.2445094,189.609602 34.9315068,216.387274 L34.9315068,219.516493 C34.9315068,220.888096 33.8275514,222 32.4657534,222 Z" id="Path" fill="#6D6DAA"></path>
                <path d="M181.492796,221 C180.108159,221 178.985688,219.891065 178.985688,218.523125 L178.985688,215.402262 C179.00927,202.372685 175.031708,189.642517 167.578348,178.89312 C160.08195,168.039655 149.524995,159.599475 137.217271,154.619741 C133.861822,153.145999 131.236796,150.415195 129.920165,147.02859 C128.603535,143.641985 128.703255,139.877259 130.197369,136.56332 C130.709685,135.291136 132.168896,134.670132 133.456609,135.17627 C134.744322,135.682408 135.372905,137.124023 134.860589,138.396208 C133.823597,140.514451 133.70545,142.95879 134.53342,145.165015 C135.36139,147.371239 137.063921,149.148679 139.248028,150.08706 C142.529636,151.409985 145.705903,152.974828 148.749967,154.768354 C157.89126,160.132563 165.730461,167.412215 171.715076,176.09425 C179.739908,187.667846 184.023348,201.373657 184,215.402262 L184,218.523125 C184,219.891065 182.877434,221 181.492796,221 Z" id="Path" fill="#6D6DAA"></path>
                <path d="M60.6167074,221.998882 C59.1715398,221.998882 58,220.892608 58,219.52795 L58,217.057017 C58,207.469799 59.6485256,200.798282 63.2334148,196.054091 C64.0643862,194.935072 65.6986841,194.664035 66.8837214,195.448713 C68.0687588,196.233392 68.3557861,197.776644 67.5248149,198.895664 C64.6464367,202.750318 63.311916,208.507591 63.311916,217.032308 L63.311916,219.503241 C63.3193616,220.175897 63.0360572,220.822344 62.5274149,221.293324 C62.0187726,221.764304 61.3287648,222.0191 60.6167074,221.998882 Z" id="Path" fill="#6D6DAA"></path>
                <path d="M153.304791,221.998882 C151.859624,221.998882 150.688084,220.891595 150.688084,219.525686 L150.688084,217.05249 C150.688084,208.519964 149.353563,202.732686 146.475185,198.899232 C145.644214,197.779187 145.931241,196.234521 147.116279,195.449124 C148.301316,194.663727 149.935614,194.935012 150.766585,196.055057 C154.29914,200.778861 156,207.45649 156,217.077222 L156,219.550418 C155.993285,220.21511 155.70376,220.849265 155.196709,221.309897 C154.689657,221.770528 154.007767,222.018854 153.304791,221.998882 Z" id="Path" fill="#6D6DAA"></path>
                <path d="M107.487504,180 C86.344145,180 68.1248677,170.956278 64.176108,158.49266 C63.8321708,157.613714 64,156.613769 64.6108462,155.899302 C65.2218955,155.184836 66.1746454,154.874787 67.0818039,155.09519 C67.9889623,155.315593 68.6995125,156.029756 68.9246165,156.947374 C72.2235803,167.156394 88.8183679,174.933489 107.487504,174.933489 C126.15664,174.933489 142.826404,167.207059 146.075384,156.922042 C146.300487,156.004424 147.011038,155.29026 147.918196,155.069857 C148.825355,154.849454 149.778104,155.159503 150.389154,155.87397 C151,156.588436 151.167829,157.588381 150.823892,158.467328 C146.925117,170.930945 128.705839,180 107.487504,180 Z" id="Path" fill="#6D6DAA"></path>
                <path d="M57,50.2233021 C57,50.2233021 100.364159,69.6891639 138.604599,35 C138.604599,54.9649864 157,52.4693631 157,52.4693631 L157,93.2728041 C156.992808,111.32536 147.494115,128.048665 131.981255,137.320555 L120.309173,144.308301 C112.103168,149.230566 101.846844,149.230566 93.6408398,144.308301 L81.9937516,137.320555 C66.4981248,128.04706 57.0107073,111.336378 57,93.2977604 L57,50.2233021 Z" id="Path" fill="#F9E2DC"></path>
                <g id="Group" opacity="0.3" transform="translate(57.000000, 82.000000)" fill="#CC7E54">
                    <path d="M100,0.868518519 C99.9980714,18.8137645 90.5071413,35.441171 75,44.6666667 L63.325,51.6148148 C55.1169441,56.5091878 44.8580559,56.5091878 36.65,51.6148148 L25,44.6666667 C9.50049935,35.4457207 0.0107100047,18.8297322 0,0.893333333 L0,10.8192593 C0.0107100047,28.7556581 9.50049935,45.3716466 25,54.5925926 L36.65,61.5407407 C44.8580559,66.4351138 55.1169441,66.4351138 63.325,61.5407407 L75,54.5925926 C90.5071413,45.3670969 99.9980714,28.7396904 100,10.7944444 L100,0.868518519 Z" id="Path"></path>
                </g>
                <g id="Group" opacity="0.3" transform="translate(57.000000, 36.000000)" fill="#CC7E54">
                    <path d="M0,23.2707692 C0,23.2707692 43.3,42.4707692 81.55,8.25538462 C87.3,29.1538462 99.875,23.2953846 99.95,23.2707692 L99.95,15.8861538 C99.95,15.8861538 87.325,21.8430769 81.55,0.870769231 C43.375,35.0861538 0,15.8861538 0,15.8861538 L0,23.2707692 Z" id="Path"></path>
                </g>
                <path d="M107.499935,150 C102.345301,149.995288 97.2893182,148.58884 92.8749534,145.931694 L81.2249677,138.943192 C65.0140812,129.184696 55.0739287,111.692633 55,92.7941234 L55,49.7150033 C55.0017661,48.8691758 55.4324948,48.0817955 56.1443367,47.6231339 C56.8561786,47.1644723 57.7522594,47.0969485 58.5249957,47.4437403 C58.9499951,47.6434118 100.824944,65.7885568 137.374899,32.6430925 C138.107488,31.982992 139.160477,31.8149038 140.062708,32.2140387 C140.964939,32.6131735 141.547566,33.5048358 141.549893,34.4900536 C141.158215,38.889505 142.731815,43.2372028 145.849888,46.3705062 C149.099922,48.8084723 153.159736,49.9155002 157.199874,49.465414 C157.913148,49.3793207 158.629045,49.6037578 159.164977,50.081483 C159.700908,50.5592083 160.005065,51.2440379 159.999936,51.9613074 L159.999936,92.7691644 C159.939953,111.671566 150.008789,129.173947 133.799903,138.943192 L122.124917,145.931694 C117.710553,148.58884 112.65457,149.995288 107.499935,150 Z M59.9999938,53.3090898 L59.9999938,92.7941234 C60.0492779,109.930426 69.040462,125.802336 83.7249646,134.675215 L95.3749503,141.663716 C102.787575,146.12238 112.062296,146.12238 119.474921,141.663716 L131.149906,134.675215 C145.889958,125.828403 154.932841,109.939431 154.999877,92.7691644 L154.999877,54.4572008 C150.500194,54.4516576 146.139442,52.9005794 142.649892,50.0644284 C139.593452,47.305154 137.61035,43.5575865 137.049899,39.4818404 C105.374938,65.2893781 70.9999803,56.9530942 59.9999938,53.3090898 Z" id="Shape" fill="#6D6DAA"></path>
                <path d="M107.454762,105 C105.722033,104.810407 104.09606,104.008693 102.829937,102.71965 C101.810966,101.74581 101.717348,100.065996 102.620836,98.96768 C103.524323,97.8693641 105.082784,97.7684564 106.101755,98.7422965 C106.519662,99.1511933 107.003149,99.4746567 107.528563,99.6968614 C107.982363,99.4338228 108.410859,99.1229537 108.80777,98.7688122 C109.453722,98.0784018 110.40043,97.8285797 111.269225,98.1192706 C112.13802,98.4099614 112.787066,99.1937079 112.956755,100.157025 C113.126445,101.120341 112.789075,102.10596 112.079588,102.71965 C110.813464,104.008693 109.187492,104.810407 107.454762,105 L107.454762,105 Z" id="Path" fill="#6D6DAA"></path>
                <path d="M72.6007285,74.9973759 C71.2275924,75.0606424 70.064354,73.9722025 70.0025629,72.5662772 C69.9407718,71.1603518 71.0038269,69.9693364 72.376963,69.9060697 C73.4460648,69.9060697 74.8632461,69.5242217 76.5290557,69.2187433 C82.6701748,68.0477429 90.3030638,66.6730902 94.2562538,70.6188525 C94.8913622,71.2600319 95.1441391,72.1994232 94.9193659,73.0831668 C94.6945927,73.9669104 94.0264178,74.6607446 93.1665363,74.9033088 C92.3066548,75.145873 91.385703,74.9003159 90.7505947,74.2591365 C88.6372541,72.1207879 81.625936,73.4445275 77.4241176,74.2591365 C75.6588567,74.5900714 74.1173612,74.8700932 72.8493568,74.9973759 L72.6007285,74.9973759 Z" id="Path" fill="#6D6DAA"></path>
                <path d="M107.012556,124 C100.659306,124 95.0845169,121.986786 92.4477925,118.718273 C91.682041,117.676792 91.9212564,116.251311 92.9905846,115.483782 C94.0599129,114.716252 95.5803546,114.878708 96.4405466,115.852403 C99.3091915,118.325117 103.139229,119.56072 107.012556,119.263025 C110.877418,119.553997 114.696944,118.318851 117.559453,115.852403 C118.419645,114.878708 119.940087,114.716252 121.009415,115.483782 C122.078744,116.251311 122.317959,117.676792 121.552208,118.718273 C118.940595,122.10521 113.365806,124 107.012556,124 Z" id="Path" fill="#6D6DAA"></path>
                <path d="M141.485759,74.9985988 C140.830001,74.9958463 140.20159,74.7363249 139.736004,74.275984 C136.736423,71.3107713 126.262889,71.3107713 123.263309,74.275984 C122.283141,75.2461833 120.69957,75.2406052 119.726304,74.2635249 C118.753039,73.2864446 118.758634,71.7078625 119.738802,70.737663 C124.738103,65.7541123 138.311203,65.7541123 143.26051,70.737663 C143.978313,71.4473433 144.196605,72.518166 143.813603,73.4508385 C143.4306,74.3835109 142.521724,74.9943733 141.510755,74.9985988 L141.485759,74.9985988 Z" id="Path" fill="#6D6DAA"></path>
                <g id="Group" opacity="0.3" transform="translate(70.000000, 98.000000)" fill="#FF9797">
                    <ellipse id="Oval" cx="8.5" cy="9.725" rx="8.5" ry="8.75"></ellipse>
                </g>
                <g id="Group" opacity="0.3" transform="translate(127.000000, 98.000000)" fill="#FF9797">
                    <ellipse id="Oval" cx="8.5" cy="9.725" rx="8.5" ry="8.75"></ellipse>
                </g>
                <path d="M85,90 C82.2385763,90 80,87.7614237 80,85 C80,82.2385763 82.2385763,80 85,80 C87.7614237,80 90,82.2385763 90,85 C90,87.7614237 87.7614237,90 85,90 Z" id="Shape" fill="#6D6DAA"></path>
                <path d="M129,90 C126.238576,90 124,87.7614237 124,85 C124,82.2385763 126.238576,80 129,80 C131.761424,80 134,82.2385763 134,85 C134,87.7614237 131.761424,90 129,90 Z" id="Shape" fill="#6D6DAA"></path>
                <path d="M139.5,82 L124.5,82 C123.119288,82 122,80.8807119 122,79.5 C122,78.1192881 123.119288,77 124.5,77 L139.5,77 C140.880712,77 142,78.1192881 142,79.5 C142,80.8807119 140.880712,82 139.5,82 Z" id="Path" fill="#6D6DAA"></path>
                <path d="M89.5,82 L74.5,82 C73.1192881,82 72,80.8807119 72,79.5 C72,78.1192881 73.1192881,77 74.5,77 L89.5,77 C90.8807119,77 92,78.1192881 92,79.5 C92,80.8807119 90.8807119,82 89.5,82 Z" id="Path" fill="#6D6DAA"></path>
                <path d="M157,94.6247194 L157,74.5044368 C157,67.8059456 161.990444,65.6475429 165.084519,67.8059456 C170.074964,71.2296189 163.7371,84.3785089 163.7371,84.3785089 C169.47611,89.3155449 163.387768,96.7583129 157,94.6247194 Z" id="Path" fill="#F9E2DC"></path>
                <path d="M158.827165,97 C157.775254,96.9943598 156.731277,96.8187451 155.736154,96.4800399 C154.720827,96.1394113 154.038317,95.1923116 154.041083,94.1278397 L154.041083,74.0722375 C153.69674,70.3378643 155.537924,66.7379923 158.77731,64.8119965 C161.092932,63.5938209 163.898484,63.7560602 166.056142,65.2329165 C171.515266,69.021197 168.050342,79.024238 166.230634,83.3077185 C168.34854,85.8458192 168.63763,89.4302051 166.953532,92.2708395 C165.277865,95.1642705 162.18753,96.9626992 158.827165,97 Z M162.067741,69.045957 C161.720078,69.0469605 161.377877,69.1319358 161.07064,69.293557 C159.571617,70.4038099 158.790571,72.2297723 159.026585,74.0722375 L159.026585,92.0479995 C160.516208,91.990308 161.875772,91.1893645 162.641073,89.9186392 C163.478778,88.4977488 163.038864,86.6734491 161.643973,85.7837188 C160.801744,85.0578839 160.547254,83.8647628 161.020785,82.8620385 C163.513536,77.5386379 165.059042,70.7048771 163.189479,69.417357 C162.86345,69.1808908 162.471403,69.0510868 162.067741,69.045957 Z" id="Shape" fill="#6D6DAA"></path>
                <path d="M57,94.6247194 L57,74.5044368 C57,67.8059456 52.0095559,65.6475429 48.9154806,67.8059456 C43.9250365,71.2296189 50.2629005,84.3785089 50.2629005,84.3785089 C44.5238897,89.3155449 50.6122315,96.7583129 57,94.6247194 Z" id="Path" fill="#F9E2DC"></path>
                <path d="M55.1784307,97 C51.836583,96.983324 48.7491961,95.2231722 47.0475935,92.3645241 C45.3625697,89.5206041 45.6518182,85.9320724 47.7708888,83.391036 C45.9501799,79.1026011 42.4833505,69.08799 47.9454774,65.2953279 C50.0832369,63.7794073 52.894297,63.5784788 55.2283132,64.7747665 C58.4351715,66.6868046 60.2721393,70.2421738 59.9671447,73.9465637 L59.9671447,94.0501517 C59.9699125,95.1158548 59.2870269,96.06405 58.2711418,96.4050726 C57.2797295,96.7695023 56.2350593,96.9704596 55.1784307,97 Z M51.9360723,69.0135972 C51.5349,69.0115208 51.1428835,69.1327355 50.8137175,69.3606651 C48.9431261,70.6496744 50.4645404,77.4913394 52.9836035,82.8208972 C53.5002259,83.8043361 53.2964832,85.0091891 52.4847791,85.7707455 C51.0891209,86.6615049 50.6489648,88.4879148 51.4871304,89.9104486 C52.2285926,91.1474498 53.5335336,91.9441527 54.978901,92.0422718 L54.978901,74.0457183 C55.2056603,72.2094653 54.4251946,70.3932127 52.9337211,69.2862992 C52.6281593,69.1167832 52.2858795,69.0232321 51.9360723,69.0135972 L51.9360723,69.0135972 Z" id="Shape" fill="#6D6DAA"></path>
                <path d="M211,237 L136.357143,237 L136.357143,239.5 C136.357143,242.261424 134.129226,244.5 131.380952,244.5 L81.6190476,244.5 C78.8707735,244.5 76.6428571,242.261424 76.6428571,239.5 L76.6428571,237 L2,237 L2,242 C2,247.522847 6.45583273,252 11.952381,252 L201.047619,252 C206.544167,252 211,247.522847 211,242 L211,237 Z" id="Path" fill="#EEF6FF"></path>
                <g id="Group" opacity="0.3" transform="translate(2.000000, 237.000000)" fill="#7690A8">
                    <path d="M199.047619,7.5 L9.95238095,7.5 C5.42614513,7.48523202 1.47987439,4.40350734 0.348333333,0 L0,0 L0,5 C0,10.5228475 4.45583273,15 9.95238095,15 L199.047619,15 C204.544167,15 209,10.5228475 209,5 L209,0 L208.651667,0 C207.520126,4.40350734 203.573855,7.48523202 199.047619,7.5 Z" id="Path"></path>
                </g>
                <path d="M201.55814,254 L12.4418605,254 C5.57041067,254 0,248.403559 0,241.5 L0,236.5 C0,235.119288 1.11408213,234 2.48837209,234 L77.1395349,234 C78.5138248,234 79.627907,235.119288 79.627907,236.5 L79.627907,239 C79.627907,240.380712 80.7419891,241.5 82.1162791,241.5 L131.883721,241.5 C133.258011,241.5 134.372093,240.380712 134.372093,239 L134.372093,236.5 C134.372093,235.119288 135.486175,234 136.860465,234 L211.511628,234 C212.885918,234 214,235.119288 214,236.5 L214,241.5 C214,248.403559 208.429589,254 201.55814,254 L201.55814,254 Z M4.97674419,239 L4.97674419,241.5 C4.97674419,245.642136 8.31899059,249 12.4418605,249 L201.55814,249 C205.681009,249 209.023256,245.642136 209.023256,241.5 L209.023256,239 L139.348837,239 C139.348837,243.142136 136.006591,246.5 131.883721,246.5 L82.1162791,246.5 C77.9934092,246.5 74.6511628,243.142136 74.6511628,239 L4.97674419,239 Z" id="Shape" fill="#6D6DAA"></path>
                <path d="M196,252 L17,252 L17,134.5 C17,130.357864 20.3392096,127 24.4583333,127 L188.541667,127 C192.66079,127 196,130.357864 196,134.5 L196,252 Z" id="Path" fill="#EEF6FF"></path>
                <path d="M188.541667,127 L24.4583333,127 C20.3392096,127 17,130.261925 17,134.285714 L17,144 C17,139.976211 20.3392096,136.714286 24.4583333,136.714286 L188.541667,136.714286 C192.66079,136.714286 196,139.976211 196,144 L196,134.285714 C196,130.261925 192.66079,127 188.541667,127 Z" id="Path" fill="#FFFFFF"></path>
                <path d="M196.513514,254 L17.4864865,254 C16.1132379,254 15,252.889322 15,251.519231 L15,134.923077 C15,129.442713 19.4529517,125 24.9459459,125 L189.054054,125 C194.547048,125 199,129.442713 199,134.923077 L199,251.519231 C199,252.889322 197.886762,254 196.513514,254 Z M19.972973,249.038462 L194.027027,249.038462 L194.027027,134.923077 C194.027027,132.182895 191.800551,129.961538 189.054054,129.961538 L24.9459459,129.961538 C22.1994488,129.961538 19.972973,132.182895 19.972973,134.923077 L19.972973,249.038462 Z" id="Shape" fill="#6D6DAA"></path>
                <circle id="Oval" fill="#CED8EE" cx="107" cy="189" r="10"></circle>
                <path d="M106.5,202 C99.5964406,202 94,196.403559 94,189.5 C94,182.596441 99.5964406,177 106.5,177 C113.403559,177 119,182.596441 119,189.5 C119,196.403559 113.403559,202 106.5,202 Z M106.5,182 C102.357864,182 99,185.357864 99,189.5 C99,193.642136 102.357864,197 106.5,197 C110.642136,197 114,193.642136 114,189.5 C114,185.357864 110.642136,182 106.5,182 L106.5,182 Z" id="Shape" fill="#6D6DAA"></path>
            </g>
        </g>
    </g>
</svg>