<?xml version="1.0" encoding="UTF-8"?>
<svg width="800px" height="600px" viewBox="0 0 800 600" version="1.1" xmlns="http://www.w3.org/2000/svg" xmlns:xlink="http://www.w3.org/1999/xlink">
    <title>Artboard</title>
    <g id="Artboard" stroke="none" stroke-width="1" fill="none" fill-rule="evenodd">
        <g id="compiler" transform="translate(149.000000, 56.000000)" fill-rule="nonzero">
            <path d="M127.57694,449.115324 C129.95516,456.929422 136.070499,463.04483 143.884568,465.423136 C152.038477,468.141038 152.038477,470.858955 143.884568,473.576887 C136.070499,475.955193 129.95516,482.0706 127.57694,489.884698 C124.859039,498.038434 122.141079,498.038434 119.42306,489.884698 C117.044888,482.070571 110.92953,475.955144 103.115432,473.576887 C94.9615226,470.858984 94.9615226,468.141067 103.115432,465.423136 C110.92953,463.044878 117.044888,456.929451 119.42306,449.115324 C122.14102,440.961559 124.85898,440.961559 127.57694,449.115324 Z" id="Path" fill="#C9C1F5"></path>
            <path d="M20.1923312,273.038419 C21.7628552,278.19868 25.8012904,282.237158 30.961525,283.807728 C36.3461583,285.60259 36.3461583,287.397439 30.961525,289.192272 C25.8012904,290.762842 21.7628552,294.80132 20.1923313,299.961581 C18.3974729,305.34614 16.6025854,305.34614 14.8076688,299.961581 C13.2371723,294.801304 9.19872607,290.762815 4.038475,289.192272 C-1.34615833,287.39741 -1.34615833,285.602561 4.038475,283.807728 C9.19872607,282.237185 13.2371723,278.198696 14.8076687,273.038419 C16.6025562,267.65386 18.3974437,267.65386 20.1923312,273.038419 Z" id="Path" fill="#96D7FF"></path>
            <path d="M473.384634,101.076862 C475.359009,107.564041 480.435892,112.640983 486.923038,114.615425 C493.692321,116.871808 493.692321,119.128192 486.923038,121.384575 C480.435892,123.359017 475.359009,128.435959 473.384634,134.923138 C471.128255,141.692287 468.871833,141.692287 466.615366,134.923138 C464.641033,128.435934 459.564133,123.358975 453.076962,121.384575 C446.307679,119.128192 446.307679,116.871808 453.076962,114.615425 C459.564133,112.641025 464.641033,107.564066 466.615366,101.076862 C468.871774,94.3077126 471.128197,94.3077126 473.384634,101.076862 Z" id="Path" fill="#96D7FF"></path>
            <path d="M343.192331,4.03841947 C344.762855,9.1986797 348.80129,13.2371578 353.961525,14.8077276 C359.346158,16.6025905 359.346158,18.3974387 353.961525,20.1922724 C348.80129,21.7628422 344.762855,25.8013203 343.192331,30.9615805 C341.397473,36.3461398 339.602585,36.3461398 337.807669,30.9615805 C336.237172,25.8013038 332.198726,21.7628147 327.038475,20.1922724 C321.653842,18.3974095 321.653842,16.6025613 327.038475,14.8077276 C332.198726,13.2371853 336.237172,9.1986962 337.807669,4.03841947 C339.602556,-1.34613982 341.397444,-1.34613982 343.192331,4.03841947 Z" id="Path" fill="#C9C1F5"></path>
            <g id="Group" transform="translate(63.000000, 59.000000)">
                <path d="M364.965337,150.997436 L344.558579,150.427082 C342.456252,142.308243 339.712306,134.369308 336.352643,126.685215 L352.017035,113.621281 C355.9158,110.369704 356.892695,104.775432 354.326747,100.394516 L349.222998,91.6799556 C346.656839,87.2991895 341.300497,85.4158244 336.558091,87.226797 L317.503998,94.5040428 C312.440323,87.8214877 306.857298,81.5490265 300.806916,75.7450698 L310.294392,57.6514217 C312.651981,53.1552194 311.41426,47.6132494 307.367892,44.5478433 L299.318068,38.4505082 C295.271488,35.3852402 289.602353,35.695434 285.914228,39.183916 L271.072515,53.221297 C263.847045,48.9689206 256.29737,45.2934136 248.493779,42.2289956 L250.334533,21.9128434 C250.79227,16.8562242 247.528211,12.2096472 242.616775,10.9261676 L232.847012,8.37357017 C227.93544,7.09062923 222.816379,9.54708114 220.743313,14.1816971 L212.415498,32.8029097 C204.109804,31.650902 195.725747,31.1605397 187.342417,31.3364486 L181.263419,11.8439793 C179.752084,6.99714476 174.958663,3.95374545 169.930317,4.64845944 L159.927604,6.02991668 C154.899162,6.72423004 151.109617,10.9528956 150.967722,16.0280402 L150.397479,36.4388085 C142.280314,38.5417209 134.342969,41.286171 126.660322,44.6462689 L113.598911,28.9790634 C110.347757,25.0799046 104.754876,24.1028689 100.374745,26.6688976 L91.6619853,31.7740924 C87.28208,34.3407557 85.3990849,39.6981513 87.2097017,44.4414888 L94.4860933,63.4985291 C87.8046179,68.5632278 81.5332613,74.1475207 75.7304521,80.1993802 L57.6403593,70.7100398 C53.1450686,68.3517739 47.6040432,69.5897705 44.5393556,73.637115 L38.4431744,81.6881222 C35.3785274,85.7355034 35.6886594,91.405739 39.176438,95.0945962 L53.2110607,109.939669 C48.9596107,117.166476 45.2848148,124.717494 42.2208749,132.522444 L21.9086262,130.68186 C16.8530006,130.224033 12.2073366,133.488734 10.9241092,138.401135 L8.37201338,148.172817 C7.08924489,153.085471 9.54544093,158.205659 14.1793976,160.278896 L32.7965084,168.608391 C31.6449174,176.915603 31.1546375,185.301159 31.3302912,193.686002 L11.8420949,199.766106 C6.99597361,201.277768 3.95301164,206.072354 4.64763462,211.101922 L6.02882041,221.106601 C6.72296608,226.136097 10.9511098,229.926287 16.0253336,230.067669 L36.4316484,230.638067 C38.5343596,238.756914 41.2782796,246.69595 44.6375404,254.380333 L28.973812,267.444222 C25.0751508,270.695825 24.0981005,276.289916 26.6636573,280.670987 L31.7677161,289.384662 C34.3333578,293.765581 39.6896348,295.649079 44.4318263,293.837909 L63.4860963,286.560885 C68.5501631,293.243374 74.133334,299.515936 80.1836657,305.320212 L70.6961456,323.413417 C68.3383044,327.909586 69.5760636,333.451727 73.6226457,336.516995 L81.6721152,342.614818 C85.718788,345.679934 91.3878855,345.369573 95.0759106,341.881011 L109.918111,327.84394 C117.143658,332.096019 124.693306,335.771372 132.496803,338.835799 L130.656137,359.152394 C130.198273,364.208817 133.462396,368.85521 138.373762,370.138228 L148.144056,372.690338 C153.05548,373.973578 158.174556,371.51704 160.24718,366.8823 L168.575084,348.261929 C176.880643,349.413953 185.264567,349.90433 193.647766,349.728434 L199.726764,369.220904 C201.238254,374.067882 206.031807,377.111385 211.060353,376.416778 L221.063067,375.035321 C226.091574,374.341039 229.881019,370.112064 230.022373,365.036843 L230.592615,344.626075 C238.709966,342.523213 246.647503,339.778808 254.330348,336.418747 L267.391626,352.085111 C270.642267,355.984612 276.235223,356.961769 280.615084,354.39541 L289.328773,349.290525 C293.708756,346.724317 295.591862,341.367051 293.781146,336.623926 L286.504754,317.566443 C293.185885,312.501487 299.457211,306.917369 305.260395,300.866034 L323.349912,310.35502 C327.845113,312.713456 333.386186,311.475621 336.45096,307.428344 L342.54754,299.376849 C345.611982,295.329405 345.301858,289.659318 341.814277,285.970375 L327.779654,271.125745 C332.030999,263.898833 335.705633,256.347693 338.769352,248.542616 L359.082265,250.382758 C364.137804,250.840682 368.783393,247.575921 370.06634,242.663527 L372.618125,232.892553 C373.901242,227.979975 371.445145,222.859641 366.81114,220.786475 L348.193586,212.457023 C349.345574,204.149717 349.835841,195.763996 349.659759,187.379014 L369.148398,181.298822 C373.994469,179.787378 377.037495,174.992957 376.342947,169.963492 L374.961761,159.958813 C374.267587,154.929319 370.039556,151.139066 364.965337,150.997436 Z M193.335896,211.109984 C181.973748,212.679005 171.491201,204.738336 169.92242,193.373965 C168.35364,182.009593 176.292686,171.524938 187.654815,169.955782 C199.016944,168.386625 209.499586,176.327169 211.068502,187.691522 C211.822031,193.148979 210.377082,198.682304 207.051547,203.074153 C203.726011,207.466001 198.79232,210.356591 193.335896,211.109984 Z" id="Shape" fill="#CED8EE"></path>
                <path d="M23.3117785,144.127757 L41.2018258,145.755854 C47.2585426,130.612515 55.5729407,116.473782 65.8622832,103.820452 L50.6691066,87.7498876 L53.7960064,83.6209309 L74.2196375,94.3353196 C84.7122402,83.3049075 96.7183509,73.8213413 109.87812,66.1688651 L100.647908,41.9983466 L105.11773,39.3790839 L122.088197,59.7307614 C135.25835,53.5573414 149.205736,49.2014892 163.547996,46.7826174 L164.330286,18.8575757 L169.461802,18.1503026 L177.782974,44.8295212 L181.163728,44.7592235 C194.379636,43.9580384 207.643875,44.7994244 220.652701,47.2641142 L232.017513,21.8531767 L237.032244,23.1617229 L234.550831,50.5410387 C248.693091,54.5544776 262.218757,60.4874012 274.750348,68.1742305 L293.407539,50.5285915 L297.537854,53.6582763 L285.950942,75.7504739 C298.447739,84.9405395 309.555534,95.8835187 318.931996,108.24216 L339.150223,100.517393 L341.768971,104.988093 L325.915161,118.213086 C334.964749,132.248828 341.758424,147.616798 346.048756,163.757278 L362.286402,164.212286 L375.303614,164.015479 C374.609191,158.985942 370.18968,151.138651 365.115426,150.997347 L344.708535,150.426904 C342.606162,142.308151 339.862293,134.369269 336.502821,126.685171 L352.166903,113.621326 C356.065803,110.369681 357.042738,104.775241 354.476704,100.394206 L349.372734,91.6796456 C346.806575,87.2989834 341.450348,85.4156511 336.708003,87.2265312 L317.654265,94.5040871 C312.590543,87.8215437 307.00749,81.5490839 300.957094,75.7451141 L310.444614,57.651466 C312.802039,53.1552146 311.564281,47.6133298 307.517981,44.5478876 L299.468202,38.4504196 C295.421544,35.3851493 289.752345,35.69538 286.064185,39.183916 L271.222649,53.221297 C263.997118,48.9689642 256.447419,45.2934448 248.643824,42.2289513 L250.484623,21.9126662 C250.942237,16.8560511 247.67818,12.2095303 242.766776,10.9259904 L232.996792,8.37352587 C228.085205,7.09055232 222.966115,9.54703654 220.893092,14.1816971 L212.56541,32.8028655 C204.259656,31.6510189 195.875567,31.1606722 187.492196,31.3364486 L181.413242,11.8439793 C179.901887,6.99717411 175.108458,3.95382555 170.080141,4.64859233 L160.077383,6.02987238 C155.048992,6.72434669 151.259517,10.9529711 151.117501,16.0280845 L150.547436,36.4387199 C142.430208,38.5416906 134.492804,41.2861999 126.810101,44.6463575 L113.748823,28.9791963 C110.497733,25.0799398 104.904795,24.1028568 100.524657,26.6689419 L91.8118533,31.7741367 C87.4319464,34.3407122 85.548953,39.6980814 87.3596139,44.4413559 L94.6360056,63.4985734 C87.9545625,68.5632629 81.6832085,74.1475089 75.8803643,80.1992916 L57.7902715,70.7101727 C53.2950326,68.3517233 47.7539088,69.5896857 44.6892679,73.637115 L38.5933081,81.6882108 C35.5286542,85.7354633 35.8386151,91.4055773 39.3261731,95.0945076 L53.3607958,109.939492 C49.1094592,117.166437 45.434668,124.717519 42.3706101,132.522489 L22.0585827,130.681594 C17.0027527,130.223884 10.7744627,137.398275 9.49106307,142.310472 L23.3117785,144.127757 Z" id="Path" fill="#FFFFFF"></path>
                <g opacity="0.2" transform="translate(6.070405, 215.900259)" fill="#2C4B75" id="Path">
                    <path d="M352.090997,20.8012567 L334.200949,19.1731597 C328.144232,34.3164986 319.829834,48.4552318 309.540492,61.1085619 L324.733668,77.1791261 L321.606769,81.3080829 L301.183137,70.5936942 C290.690535,81.6241063 278.684424,91.1076724 265.524655,98.7601487 L274.754911,122.930623 L270.28509,125.549886 L253.314578,105.198208 C240.144425,111.371628 226.197039,115.72748 211.854779,118.146352 L211.072489,146.071394 L205.940973,146.778667 L197.619845,120.099404 L194.239091,120.169702 C181.023183,120.970887 167.758945,120.129501 154.750118,117.664811 L143.385262,143.075748 L138.370531,141.767202 L140.851944,114.387886 C126.709684,110.374448 113.184018,104.441524 100.652427,96.7546946 L81.9952363,114.400334 L77.8649208,111.270649 L89.4519213,89.1786284 C76.9551246,79.9885628 65.8473299,69.0455836 56.470868,56.6869419 L36.252641,64.4117095 L33.6338929,59.9410097 L49.4877021,46.7160161 C40.4381147,32.6802741 33.6444392,17.3123046 29.354108,1.17182439 L13.1164614,0.716816569 L0.0992492061,0.913623397 C0.793672948,5.94316074 5.21318405,13.7904509 10.2874375,13.931755 L30.6943281,14.502198 C32.7967018,22.6209512 35.5405705,30.559833 38.9000429,38.2439318 L23.2359602,51.3077768 C19.3370605,54.5594217 18.3601252,60.1538615 20.9261598,64.5348965 L26.0301301,73.2494568 C28.5962881,77.630119 33.9525159,79.5134512 38.6948602,77.7025712 L57.7485988,70.4250152 C62.812321,77.1075586 68.3953736,83.3800185 74.4457697,89.1839882 L64.958161,107.277548 C62.6007196,111.77382 63.8384993,117.315736 67.8848382,120.38117 L75.9346177,126.478638 C79.9812754,129.543909 85.6504741,129.233678 89.3386346,125.745142 L104.180171,111.707761 C111.405701,115.960094 118.955401,119.635613 126.758995,122.700107 L124.917931,143.016392 C124.460317,148.073007 127.724373,152.719528 132.635778,154.003068 L142.405762,156.555532 C147.317349,157.838506 152.436438,155.382022 154.509461,150.747361 L162.837099,132.126237 C171.142853,133.278083 179.526943,133.76843 187.910313,133.592654 L193.989311,153.084857 C195.500666,157.931662 200.294096,160.975011 205.322413,160.280244 L215.325171,158.898964 C220.353562,158.20449 224.143037,153.975865 224.285053,148.900752 L224.855118,128.490117 C232.972346,126.387146 240.90975,123.642637 248.592452,120.282479 L261.65373,135.94964 C264.904821,139.848897 270.497759,140.82598 274.877897,138.259895 L283.590745,133.154656 C287.970696,130.58814 289.853766,125.230786 288.043161,120.487481 L280.766769,101.430263 C287.448213,96.3655737 293.719566,90.7813276 299.522411,84.729545 L317.612503,94.2186639 C322.107713,96.5772817 327.648936,95.3394451 330.713684,91.2920317 L336.809644,83.2409359 C339.874289,79.1936137 339.564233,73.5234386 336.076558,69.8345505 L322.041935,54.9895661 C326.293272,47.7626216 329.968063,40.2115393 333.032121,32.4065695 L353.344148,34.2474642 C358.399978,34.7051741 364.628268,27.5307834 365.911668,22.618586 L352.090997,20.8012567 Z"></path>
                </g>
                <g opacity="0.5" transform="translate(4.428723, 4.429593)" fill="#FFFFFF" id="Path">
                    <path d="M313.075497,90.0744939 C310.88195,87.1773184 308.549741,84.4025769 306.170764,81.673283 L206.242301,181.621163 C206.364756,182.173223 206.561169,182.692062 206.639646,183.261973 C207.621882,190.008714 205.206399,196.804931 200.186818,201.417693 C195.167236,206.030456 188.192522,207.863393 181.554253,206.314285 L65.1513846,322.740163 C64.7715059,326.348703 66.3044909,329.893464 69.1938343,332.087624 L72.2673679,334.415951 L318.713615,87.9210914 L313.075497,90.0744939 Z"></path>
                    <path d="M165.493667,188.944299 C164.307982,180.505238 168.408574,172.200564 175.829073,168.012641 C183.249573,163.824718 192.476861,164.607509 199.08615,169.98564 L297.04507,72.0074676 C296.815308,71.7844376 296.609062,71.5370448 296.378237,71.3153437 L305.865757,53.2216956 C308.223183,48.7254442 306.985425,43.1835594 302.939125,40.1181172 L294.889345,34.0206492 C290.842687,30.9553789 285.173489,31.2656095 281.485328,34.7541456 L266.643792,48.7915265 C259.418262,44.5391938 251.868562,40.8636744 244.064967,37.7991808 L245.905766,17.4828958 C246.36338,12.4262807 243.099324,7.77975991 238.187919,6.49621996 L228.417935,3.94375545 C223.506348,2.6607819 218.387259,5.11726612 216.314236,9.75192669 L207.986598,28.3730507 C199.680844,27.2212042 191.296754,26.7308574 182.913384,26.9066339 L176.83443,7.41416457 C175.323075,2.56735939 170.529646,-0.475989163 165.501328,0.21877761 L155.498571,1.60005767 C150.47018,2.29453197 146.680704,6.52315641 146.538689,11.5982697 L145.968623,32.0089052 C137.851395,34.1118759 129.913992,36.8563852 122.231289,40.2165428 L109.170011,24.5493816 C105.918921,20.6501251 100.325983,19.6730421 95.9458446,22.2391272 L87.2329968,27.3443663 C82.8530899,29.9109417 80.9700965,35.268311 82.7807574,40.0115855 L90.057149,59.068803 C83.3757059,64.1334925 77.1043519,69.7177385 71.3015078,75.7695212 L53.211415,66.2804023 C48.7161761,63.9219528 43.1750523,65.1599152 40.1104114,69.2073446 L34.0143629,77.2585732 C30.9497185,81.3058954 31.2597744,86.9760705 34.7474494,90.6649586 L48.7820721,105.509943 C44.5307355,112.736888 40.8559443,120.28797 37.7918864,128.09294 L17.4798591,126.252045 C12.4242476,125.794378 7.7786619,129.059061 6.49534207,133.971408 L3.94337911,143.743313 C2.66063696,148.655939 5.11678001,153.776095 9.7506748,155.849391 L28.3678742,164.178444 C27.2162841,172.485746 26.7259306,180.871384 26.9014355,189.25632 L7.41337203,195.336203 C2.56729612,196.848011 -0.475629601,201.642566 0.218867483,206.672152 L1.60014185,216.676875 C2.29430477,221.706362 6.52243848,225.496543 11.5966551,225.637942 L32.0030142,226.208385 C34.1057546,234.327201 36.849613,242.26623 40.208729,249.950651 L24.545222,263.014496 C20.6465007,266.26605 19.6693743,271.860148 22.2348902,276.241261 L27.3391261,284.95498 C29.9047829,289.335932 35.2610749,291.219478 40.0033248,289.40836 L59.0573291,282.131336 C63.0744222,287.368027 67.4139805,292.349166 72.0507591,297.045776 L169.967253,199.110216 C167.572709,196.195709 166.025148,192.678982 165.493667,188.944299 L165.493667,188.944299 Z"></path>
                </g>
                <ellipse id="Oval" fill="#ACB6D1" opacity="0.5" transform="translate(190.495365, 190.532784) rotate(-7.861660) translate(-190.495365, -190.532784) " cx="190.495365" cy="190.532784" rx="110.705059" ry="110.726002"></ellipse>
                <path d="M200.911315,278.459823 C231.421685,274.246155 256.390054,252.064775 264.173709,222.258826 C271.957363,192.452878 261.023446,160.892134 236.470425,142.29332 C211.917405,123.694507 178.580579,121.720344 152.00486,137.291379 C125.42914,152.862415 110.848161,182.9122 115.06101,213.428566 C120.813954,255.097787 159.250166,284.213062 200.911315,278.459823 L200.911315,278.459823 Z M169.92239,193.373893 C168.692063,184.90118 172.78501,176.541364 180.231159,172.318305 C187.677309,168.095246 196.95119,168.874107 203.588976,174.279998 C210.226761,179.685888 212.868587,188.61132 210.242855,196.760184 C213.009421,205.307485 209.964251,214.664787 202.697549,219.945653 C195.430847,225.226519 185.592264,225.232113 178.319563,219.959515 C171.046862,214.686917 167.991056,205.333084 170.747904,196.782642 C170.376876,195.671779 170.100715,194.531442 169.92239,193.373893 L169.92239,193.373893 Z" id="Shape" fill="#2C4B75" opacity="0.2"></path>
                <path d="M180.0794,115.083579 C149.569033,119.297266 124.600679,141.478662 116.817043,171.284614 C109.033408,201.090566 119.967344,232.651302 144.520374,251.250101 C169.073404,269.848899 202.41023,271.823044 228.98594,256.251995 C255.56165,240.680945 270.142613,210.631154 265.929749,180.114791 C263.167275,160.10441 252.570409,142.011208 236.470343,129.815488 C220.370277,117.619768 200.085846,112.320541 180.0794,115.083579 Z M193.335896,211.109984 C181.973748,212.679005 171.491201,204.738336 169.92242,193.373965 C168.35364,182.009593 176.292686,171.524938 187.654815,169.955782 C199.016944,168.386625 209.499586,176.327169 211.068502,187.691522 C211.822031,193.148979 210.377082,198.682304 207.051547,203.074153 C203.726011,207.466001 198.79232,210.356591 193.335896,211.109984 Z" id="Shape" fill="#E0E7F0"></path>
                <g opacity="0.5" transform="translate(114.001435, 114.019615)" fill="#FFFFFF" id="Path">
                    <path d="M57.9896114,85.7454722 L18.258963,125.484062 C21.1201584,128.876182 24.2717275,132.012215 27.6778379,134.856505 L67.3579546,95.1685902 C63.287403,93.1388632 59.9959771,89.828193 57.9896114,85.7454722 L57.9896114,85.7454722 Z"></path>
                    <path d="M66.6461702,58.2940869 L114.395287,10.5361174 C84.5821856,-6.6471015 46.949232,-1.6759007 22.6184692,22.6595609 C-1.71229368,46.9950226 -6.682646,84.6353554 10.4970948,114.454375 L58.277257,66.6650879 C60.1940649,63.1204315 63.1023118,60.2114591 66.6461702,58.2940869 L66.6461702,58.2940869 Z"></path>
                    <path d="M125.441895,18.2798437 L85.7815302,57.9480028 C89.8369019,60.0089209 93.1025065,63.3460309 95.0755151,67.4454937 L134.837253,27.6759411 C131.984624,24.2765854 128.840919,21.1326331 125.441895,18.2798437 L125.441895,18.2798437 Z"></path>
                </g>
                <g opacity="0.2" transform="translate(114.001435, 183.253215)" fill="#2C4B75" id="Path">
                    <path d="M86.9098802,70.371518 C45.2486644,76.1250128 6.81229074,47.0096161 1.05957499,5.34026106 C0.848989224,3.81541788 0.78224837,2.30652124 0.664134332,0.791688947 C-1.80597321,29.3686828 11.9985218,56.9072849 36.3710152,72.0233842 C60.7435086,87.1394836 91.5432643,87.2649483 116.038052,72.3479129 C140.532839,57.4308775 154.561144,30.0056541 152.323844,1.40948432 C149.302179,36.8578951 122.143444,65.4897277 86.9098802,70.371518 Z"></path>
                </g>
                <path d="M179.468059,126.807383 C221.129275,121.053888 259.565648,150.169285 265.318364,191.83864 C265.52895,193.363483 265.595691,194.87238 265.713805,196.387212 C268.183912,167.810218 254.379417,140.271616 230.006924,125.155517 C205.63443,110.039417 174.834675,109.913953 150.339887,124.830988 C125.8451,139.748024 111.816795,167.173247 114.054095,195.769417 C117.07576,160.321006 144.234495,131.689173 179.468059,126.807383 L179.468059,126.807383 Z" id="Path" fill="#FFFFFF"></path>
                <path d="M208.149974,201.292366 C203.304101,209.194116 193.798091,212.911928 184.878603,210.393828 C175.959116,207.875729 169.799543,199.735297 169.799543,190.465488 C169.799543,181.195679 175.959116,173.055248 184.878603,170.537148 C193.798091,168.019048 203.304101,171.73686 208.149974,179.63861 L208.149974,32.2967844 C201.2428,31.5195166 194.291894,31.1987085 187.342505,31.3364486 L181.263552,11.8439793 C179.75232,6.99707903 174.9588,3.95367279 169.93045,4.64859233 L159.927692,6.03013816 C154.899196,6.72421586 151.109554,10.9529136 150.96781,16.0280845 L150.397479,36.4387199 C148.954557,36.8123561 147.572485,37.3103752 146.147987,37.7229475 L146.147987,372.169108 L148.144189,372.690383 C153.055562,373.973709 158.174643,371.517206 160.247225,366.882477 L168.574906,348.262151 C176.880559,349.414132 185.26457,349.904479 193.647855,349.728567 L199.726809,369.221037 C200.923441,373.027547 204.200071,375.807873 208.149974,376.368363 L208.149974,201.292366 Z" id="Path" fill="#2C4B75" opacity="0.2"></path>
                <path d="M209.607466,380.94719 C203.132613,380.94719 197.412177,376.730847 195.499548,370.543713 L190.40045,354.192268 L190.344205,354.192268 C183.971663,354.191351 177.604619,353.817979 171.27563,353.074062 L164.29087,368.690106 C161.350338,375.31723 154.034224,378.828451 147.02576,376.976147 L137.251568,374.426119 C130.235252,372.609056 125.572887,365.96961 126.244642,358.751693 L127.792968,341.710295 C121.892752,339.252559 116.14092,336.452626 110.566786,333.324765 L98.119639,345.09951 C92.8680219,350.097595 84.7648396,350.541244 78.9991595,346.146355 L70.9504872,340.049197 C65.158188,335.689818 63.3877479,327.768932 66.7726072,321.35751 L74.7302693,306.178313 C70.2112271,301.659789 65.9583965,296.882549 61.9932624,291.870727 L46.008363,297.976566 C39.2457622,300.578977 31.5944412,297.888764 27.9474998,291.626346 L22.8397652,282.909925 C19.1638558,276.663585 20.5596676,268.672721 26.135355,264.043047 L39.2744899,253.083702 C36.835046,247.175099 34.7453722,241.128025 33.016306,234.973842 L15.8982736,234.495844 C8.65475656,234.309784 2.61618808,228.894899 1.6433219,221.71319 L0.263686158,211.707669 C-0.749746192,204.529512 3.59755078,197.677503 10.5226455,195.53797 L26.8665371,190.43787 C26.8655752,184.045253 27.2396035,177.658086 27.986694,171.309291 L12.3694229,164.323203 C5.74563562,161.378934 2.23685695,154.0622 4.08717974,147.052529 L6.63865554,137.280625 C8.48263139,130.282558 15.1003841,125.632052 22.3078756,126.269365 L39.3480953,127.813654 C41.8063111,121.915193 44.6049264,116.164494 47.7298076,110.590598 L35.9573765,98.1390113 C30.9645144,92.8831503 30.5229362,84.7801044 34.9150766,79.0126036 L41.0089992,70.9645199 C45.3660207,65.1683518 53.2885471,63.3986893 59.6970139,66.7901598 L74.868844,74.7474368 C79.3883098,70.2286708 84.1652346,65.9750682 89.1757003,62.0079267 L83.0688901,46.022012 C80.467136,39.2547192 83.1607942,31.5992139 89.4265432,27.9532582 L98.1326151,22.8466902 C104.377805,19.1688086 112.368081,20.5639866 116.997956,26.1407572 L127.957318,39.2824744 C133.866198,36.8437987 139.91269,34.7530453 146.06579,33.0209343 L146.537227,15.9060049 C146.723532,8.6583807 152.138886,2.61622733 159.32171,1.64178444 L169.325265,0.259751347 C176.505164,-0.75953689 183.360292,3.59408508 185.49183,10.5269726 L190.590929,26.8719059 L190.625517,26.8719059 C197.005349,26.8719609 203.379692,27.2460615 209.715749,27.9922829 L216.700509,12.3740687 C219.634789,5.74098466 226.9568,2.22785387 233.965619,4.0901978 L243.735603,6.64022604 C250.754761,8.4525593 255.420439,15.0932025 254.74687,22.3125256 L253.198544,39.3539238 C259.099192,41.8114994 264.851075,44.6121673 270.424726,47.74158 L282.871873,35.9668353 C288.12424,30.9710965 296.225189,30.5266501 301.992352,34.917819 L310.041024,41.0193179 C315.831781,45.3787233 317.60204,53.2978791 314.218904,59.7088349 L306.256725,74.8858173 C310.777192,79.4043029 315.031499,84.18154 318.998161,89.1934035 L334.978764,83.0897341 C341.742603,80.4853643 349.396345,83.1757824 353.043968,89.4399546 L358.151702,98.1563753 C361.829453,104.402381 360.433419,112.394519 354.856112,117.023253 L341.716977,127.980428 C344.154038,133.889934 346.243663,139.936867 347.975161,146.090288 L365.093194,146.570456 C372.336949,146.753952 378.37659,152.16888 379.348145,159.35094 L380.727781,169.358632 C381.741261,176.536741 377.394068,183.388753 370.469043,185.528374 L354.125152,190.628475 C354.125923,197.02173 353.751777,203.409527 353.004641,209.758958 L368.617616,216.745091 C375.244216,219.685509 378.755719,227.003209 376.904155,234.013595 L374.352458,243.783372 C372.517621,250.787796 365.89361,255.442699 358.683238,254.794633 L341.643018,253.252514 C339.184825,259.150912 336.386239,264.901552 333.261394,270.475393 L345.033825,282.926979 C350.026814,288.182785 350.468397,296.285927 346.076125,302.053387 L339.982202,310.101471 C335.619203,315.891137 327.701421,317.660253 321.289892,314.278001 L306.122402,306.318598 C301.603777,310.837549 296.826797,315.090447 291.815546,319.055849 L297.918016,335.043934 C300.521499,341.809108 297.831695,349.464109 291.569043,353.112688 L282.849995,358.217085 C276.606868,361.900674 268.613314,360.503683 263.988994,354.920848 L253.038268,341.783472 C247.127754,344.221096 241.079853,346.311131 234.925501,348.042886 L234.449767,365.159986 C234.268059,372.407874 228.852884,378.45188 221.669625,379.424206 L211.66607,380.806239 C210.983882,380.900089 210.296077,380.94719 209.607466,380.94719 Z M193.648475,345.298487 C195.586557,345.299006 197.299643,346.558669 197.87826,348.408726 L203.954777,367.902834 C204.814239,370.688465 207.569099,372.437405 210.455124,372.02962 L220.458679,370.647587 C223.345982,370.259104 225.522587,367.828962 225.592366,364.915915 L226.163272,344.502578 C226.219787,342.530716 227.571539,340.833148 229.480386,340.336855 C237.371618,338.291984 245.088386,335.624724 252.558195,332.360132 C254.362701,331.576174 256.467845,332.073504 257.730943,333.582168 L270.792221,349.247956 C272.648405,351.496551 275.864898,352.059052 278.373796,350.573822 L287.092844,345.469425 C289.609479,344.001131 290.688735,340.923107 289.640246,338.204272 L282.365714,319.144928 C281.665252,317.304686 282.262448,315.222868 283.831843,314.034019 C290.325602,309.108619 296.422334,303.680423 302.065736,297.79956 C303.431545,296.376182 305.573535,296.027046 307.320504,296.943054 L325.407408,306.431641 C327.984805,307.796563 331.171847,307.084926 332.924147,304.753224 L339.018069,296.70514 C340.782873,294.385385 340.605185,291.127858 338.598537,289.013905 L324.563958,274.169673 C323.209501,272.737912 322.964438,270.583012 323.962803,268.883574 C328.093193,261.854916 331.666437,254.513269 334.64971,246.92608 C335.359314,245.086347 337.206697,243.944105 339.169266,244.131627 L359.479123,245.969908 C362.379302,246.233383 365.044693,244.360656 365.780532,241.542486 L368.332229,231.772708 C369.077089,228.955029 367.665615,226.013462 365.001829,224.832022 L346.387553,216.500799 C344.588954,215.697732 343.538075,213.801805 343.810036,211.850612 C344.92568,203.774822 345.401463,195.623474 345.232941,187.4727 C345.192967,185.500725 346.46032,183.739478 348.342568,183.151233 L367.830676,177.071351 C370.613271,176.209759 372.360668,173.457147 371.956651,170.571853 L371.956651,170.569682 L370.577016,160.564161 C370.185371,157.677321 367.758214,155.500695 364.84647,155.425124 L344.43267,154.85415 C342.461353,154.799745 340.76426,153.446429 340.272107,151.536385 C338.224553,143.645885 335.557897,135.929225 332.296951,128.458204 C331.507524,126.653628 332.004532,124.544445 333.516577,123.282401 L349.181457,110.218556 C351.424562,108.357969 351.985349,105.143832 350.504892,102.633321 L345.401498,93.9190264 C343.929135,91.4059726 340.856264,90.32568 338.135646,91.3646572 L319.084299,98.6426118 C317.245495,99.3424236 315.165538,98.7461396 313.976565,97.1783211 C309.050062,90.6829844 303.621496,84.5843779 297.740867,78.9386737 C296.317488,77.5745192 295.968279,75.4329859 296.884529,73.6871694 L306.373422,55.5946287 C307.734506,53.0176397 307.02339,49.833517 304.695335,48.080754 L296.646662,41.9792551 C294.32875,40.2136417 291.072157,40.3923498 288.961278,42.4009967 L274.118059,56.4405481 C272.683397,57.7925496 270.529262,58.0365371 268.828658,57.0396506 C261.803078,52.9059019 254.462612,49.3325534 246.875479,46.352814 C245.042307,45.6331969 243.904025,43.7897438 244.081575,41.8280731 L245.923924,21.5120538 C246.19544,18.6094183 244.318145,15.9396244 241.495201,15.213748 L231.725217,12.6615493 C228.908969,11.9129515 225.966735,13.3247182 224.788021,15.9902114 L216.458258,34.6105382 C215.673698,36.4285718 213.761902,37.4886206 211.804644,37.1908648 C203.732041,36.0660019 195.582356,35.589361 187.433693,35.7655103 C185.474796,35.7654325 183.735153,34.5131336 183.113075,32.6552714 L177.032438,13.1633336 C176.176243,10.3772105 173.421714,8.6273238 170.536388,9.03654738 L160.532833,10.4185805 C157.644248,10.809381 155.466819,13.2401597 155.39454,16.1547265 L154.828151,36.5614639 C154.771636,38.5333257 153.419884,40.2308932 151.511037,40.7271863 C143.619845,42.7733898 135.903036,45.4413591 128.432963,48.7060797 C126.628706,49.4928312 124.521839,48.9950944 123.260214,47.4840435 L110.198936,31.816085 C108.334984,29.5744351 105.121958,29.0131837 102.608681,30.4902191 L93.9026091,35.5967871 C91.3823777,37.0620444 90.2991326,40.1410061 91.3465717,42.8619401 L98.6255763,61.9168542 C99.3263534,63.7577464 98.7291867,65.8403473 97.1594476,67.0299337 C90.6659378,71.9564937 84.5692344,77.3854491 78.9255542,83.2667406 C77.558356,84.6874711 75.4182324,85.0363026 73.6707859,84.1232468 L55.5794531,74.6346594 C53.0032358,73.2713282 49.8183909,73.982885 48.0670548,76.3130766 L41.9731322,84.3611602 C40.2083284,86.6809153 40.3860164,89.9384426 42.3926651,92.0523958 L56.4270664,106.896273 C57.7815235,108.328034 58.0265867,110.482934 57.0282212,112.182372 C52.897832,119.21103 49.3245876,126.552677 46.3413144,134.139866 C45.6168938,135.967244 43.7799004,137.103061 41.8217584,136.934319 L21.5121669,135.093735 C18.6046412,134.802477 15.9229582,136.68665 15.2107586,139.521157 L12.6590614,149.293061 C11.9134009,152.110182 13.322695,155.052038 15.9850322,156.235917 L34.603826,164.563021 C36.4026084,165.367057 37.4533517,167.263624 37.1813426,169.215378 C36.0656357,177.291162 35.5898527,185.442515 35.7584383,193.59329 C35.7984122,195.565266 34.5310592,197.326513 32.6488105,197.914757 L13.1607028,203.99464 C10.3779988,204.856188 8.6305219,207.608892 9.0345946,210.494271 L10.4142303,220.499791 C10.8076796,223.387722 13.2360235,225.56468 16.1490721,225.640955 L36.5583985,226.209803 C38.5292266,226.265547 40.2256132,227.618299 40.7189622,229.527568 C42.7646227,237.417877 45.4313312,245.133905 48.6941177,252.603401 C49.4854843,254.408487 48.988264,256.519457 47.4744917,257.781374 L31.8098333,270.847478 C29.566489,272.707927 29.005669,275.922252 30.486398,278.432714 L35.5897925,287.147008 C37.0560048,289.664962 40.1320761,290.74702 42.8513479,289.701378 L61.9069466,282.423246 C63.7451015,281.718889 65.8274325,282.314969 67.0146812,283.885366 C71.9398116,290.381156 77.3684744,296.479145 83.2503792,302.122843 C84.6735499,303.48793 85.0226845,305.629816 84.106717,307.376341 L74.617824,325.471229 C73.2567402,328.048218 73.9678562,331.232341 76.2959114,332.985104 L84.3445837,339.082261 C86.6621725,340.846737 89.9170511,340.669942 92.0299679,338.664817 L106.873098,324.625531 C108.305049,323.267693 110.463233,323.023247 112.162499,324.026428 C119.188111,328.159503 126.528581,331.732127 134.115678,334.711095 C135.94885,335.430712 137.087132,337.274165 136.909582,339.235835 L135.067234,359.551855 C134.796763,362.453753 136.670789,365.123405 139.491528,365.854502 L149.265719,368.40453 C152.08319,369.159206 155.029671,367.744385 156.202915,365.073476 L164.532722,346.453193 C165.330263,344.64697 167.232215,343.592379 169.186336,343.872867 C177.257424,344.99908 185.405849,345.475728 193.553169,345.298221 L193.648475,345.298487 Z" id="Shape" fill="#6D6DAA"></path>
                <path d="M190.322637,271.141736 C147.270145,271.05378 111.890088,237.134665 109.979351,194.116052 C108.068615,151.097439 140.302093,114.173986 183.177184,110.267926 C226.052276,106.361867 264.425016,136.852864 270.316443,179.508823 L270.316443,179.508823 C276.402684,223.601705 245.599823,264.281104 201.515747,270.36957 C197.806791,270.883019 194.06695,271.141736 190.322637,271.141736 L190.322637,271.141736 Z M190.646997,118.783618 C187.315093,118.783618 183.987177,119.014048 180.686799,119.471401 C141.449767,124.891697 114.034802,161.099559 119.453411,200.344389 C124.872019,239.589218 161.072332,267.010146 200.309536,261.591095 C239.54674,256.172045 266.962854,219.965052 261.545491,180.720051 L261.545491,180.720051 C256.645502,145.288356 226.408896,118.873867 190.646997,118.783618 Z" id="Shape" fill="#6D6DAA"></path>
                <path d="M190.482647,215.737182 C177.015365,215.731532 165.932906,205.135346 165.320757,191.679339 C164.708608,178.223332 174.783168,166.66428 188.194287,165.435382 C201.605406,164.206483 213.612175,173.742161 215.454753,187.085421 L215.454753,187.085421 C216.450109,194.304262 214.273428,201.600722 209.485872,207.093726 C204.698317,212.586731 197.768381,215.738753 190.482647,215.737182 L190.482647,215.737182 Z M190.504259,174.188127 C183.689832,174.184975 177.588871,178.411795 175.196322,184.793656 C172.803772,191.175516 174.622006,198.372397 179.758457,202.851369 C184.894907,207.330341 192.271058,208.150941 198.265976,204.910337 C204.260894,201.669734 207.615809,195.048367 206.683801,188.296649 L206.683801,188.296649 C205.556245,180.21988 198.65781,174.204446 190.504303,174.188127 L190.504259,174.188127 Z" id="Shape" fill="#6D6DAA"></path>
                <ellipse id="Oval" fill="#939FC6" cx="190.625872" cy="74.9068579" rx="11.0718071" ry="11.0739831"></ellipse>
                <path d="M190.625517,90.4108329 C182.064811,90.4108329 175.124987,83.4696453 175.124987,74.9072566 C175.124987,66.3448678 182.064811,59.4036802 190.625517,59.4036802 C199.186224,59.4036802 206.126047,66.3448678 206.126047,74.9072566 C206.115676,83.465345 199.181924,90.4004598 190.625517,90.4108329 Z M190.625517,68.2628667 C186.956643,68.2628667 183.982433,71.2376614 183.982433,74.9072566 C183.982433,78.5768517 186.956643,81.5516464 190.625517,81.5516464 C194.294392,81.5516464 197.268602,78.5768517 197.268602,74.9072566 C197.264599,71.239321 194.292732,68.2668704 190.625517,68.2628667 Z" id="Shape" fill="#6D6DAA"></path>
                <ellipse id="Oval" fill="#939FC6" cx="190.625872" cy="305.910145" rx="11.0718071" ry="11.0739831"></ellipse>
                <path d="M190.625517,321.413721 C182.064811,321.413721 175.124987,314.472534 175.124987,305.910145 C175.124987,297.347756 182.064811,290.406569 190.625517,290.406569 C199.186224,290.406569 206.126047,297.347756 206.126047,305.910145 C206.115676,314.468234 199.181924,321.403348 190.625517,321.413721 Z M190.625517,299.265755 C186.956643,299.265755 183.982433,302.24055 183.982433,305.910145 C183.982433,309.57974 186.956643,312.554535 190.625517,312.554535 C194.294392,312.554535 197.268602,309.57974 197.268602,305.910145 C197.264599,302.24221 194.292732,299.269759 190.625517,299.265755 Z" id="Shape" fill="#6D6DAA"></path>
                <ellipse id="Oval" fill="#939FC6" cx="75.1469235" cy="190.408502" rx="11.0718071" ry="11.0739831"></ellipse>
                <path d="M75.1455506,205.911192 C66.5848443,205.911192 59.6450207,198.970004 59.6450207,190.407616 C59.6450207,181.845227 66.5848443,174.904039 75.1455506,174.904039 C83.7062569,174.904039 90.6460806,181.845227 90.6460806,190.407616 C90.6357095,198.965704 83.7019574,205.900819 75.1455506,205.911192 Z M75.1455506,183.763226 C71.4766765,183.763226 68.5024664,186.73802 68.5024664,190.407616 C68.5024664,194.077211 71.4766765,197.052005 75.1455506,197.052005 C78.8144248,197.052005 81.7886349,194.077211 81.7886349,190.407616 C81.784632,186.73968 78.8127654,183.767229 75.1455506,183.763226 L75.1455506,183.763226 Z" id="Shape" fill="#6D6DAA"></path>
                <ellipse id="Oval" fill="#939FC6" cx="306.10482" cy="190.408502" rx="11.0718071" ry="11.0739831"></ellipse>
                <path d="M306.105174,205.911192 C297.544468,205.911192 290.604644,198.970004 290.604644,190.407616 C290.604644,181.845227 297.544468,174.904039 306.105174,174.904039 C314.665881,174.904039 321.605704,181.845227 321.605704,190.407616 C321.595333,198.965704 314.661581,205.900819 306.105174,205.911192 Z M306.105174,183.763226 C302.4363,183.763226 299.46209,186.73802 299.46209,190.407616 C299.46209,194.077211 302.4363,197.052005 306.105174,197.052005 C309.774048,197.052005 312.748258,194.077211 312.748258,190.407616 C312.744256,186.73968 309.772389,183.767229 306.105174,183.763226 L306.105174,183.763226 Z" id="Shape" fill="#6D6DAA"></path>
            </g>
        </g>
        <g id="code-1" transform="translate(0.000000, 204.000000)" fill-rule="nonzero">
            <path d="M2.10989018,177.230769 C2.10989018,184.22233 7.77767005,189.89011 14.7692308,189.89011 L52.7472528,189.89011 C43.4251718,189.89011 35.8681319,182.33307 35.8681319,173.010989 L35.8681319,90.7252747 L2.10989018,90.7252747 L2.10989018,177.230769 Z" id="Path" fill="#CED8EE"></path>
            <path d="M36.4213662,177.230769 L14.7692308,177.230769 C7.77767005,177.230769 2.10989018,171.562989 2.10989018,164.571429 L2.10989018,177.230769 C2.10989018,184.22233 7.77767005,189.89011 14.7692308,189.89011 L52.7472528,189.89011 C45.0557709,189.885329 38.3412488,184.678787 36.4213662,177.230769 L36.4213662,177.230769 Z" id="Path" fill="#6E7EB0" opacity="0.3"></path>
            <path d="M52.7472528,192 L14.7692308,192 C6.61635257,191.990489 0.00951063113,185.383647 -7.10542736e-15,177.230769 L-7.10542736e-15,90.7252747 C-7.10542736e-15,90.1656525 0.222099125,89.6289091 0.617811833,89.2331964 C1.01352454,88.8374837 1.55026792,88.6153845 2.10989018,88.6153845 L35.8681319,88.6153845 C36.4277542,88.6153845 36.9644976,88.8374837 37.3602103,89.2331964 C37.755923,89.6289091 37.9781676,90.1656525 37.978022,90.7252747 L37.978022,173.010989 C37.9875326,181.163867 44.5943746,187.770709 52.7472528,187.78022 C53.912513,187.78022 54.8571429,188.72485 54.8571429,189.89011 C54.8571429,191.05537 53.912513,192 52.7472528,192 L52.7472528,192 Z M4.21978029,92.8351648 L4.21978029,177.230769 C4.22662824,183.054231 8.94576905,187.773372 14.7692308,187.78022 L40.8234831,187.78022 C36.3552198,184.179604 33.7575608,178.749439 33.7582418,173.010989 L33.7582418,92.8351648 L4.21978029,92.8351648 Z" id="Shape" fill="#6D6DAA"></path>
            <path d="M27.4285715,175.120879 C27.4285715,183.56044 23.2087913,189.89011 14.7692308,189.89011 L177.230769,189.89011 C184.22233,189.89011 189.89011,184.22233 189.89011,177.230769 L189.89011,16.8791209 L27.4285715,16.8791209 L27.4285715,175.120879 Z" id="Path" fill="#FFFFFF"></path>
            <rect id="Rectangle" fill="#FFF27D" x="27.4285715" y="37.978022" width="162.461538" height="67.5164835"></rect>
            <path d="M177.230769,177.230769 L27.3243851,177.230769 C26.6642638,184.590066 22.4868502,189.89011 14.7692308,189.89011 L177.230769,189.89011 C184.22233,189.89011 189.89011,184.22233 189.89011,177.230769 L189.89011,164.571429 C189.89011,171.562989 184.22233,177.230769 177.230769,177.230769 L177.230769,177.230769 Z" id="Path" fill="#7690A8" opacity="0.3"></path>
            <path d="M189.89011,10.5494505 L189.89011,27.4285714 L27.4285715,27.4285714 L27.4285715,10.5494505 C27.4421983,5.89406612 31.2127475,2.12351693 35.8681319,2.10989011 L181.45055,2.10989011 C186.105934,2.12351693 189.876483,5.89406612 189.89011,10.5494505 L189.89011,10.5494505 Z" id="Path" fill="#EEF6FF"></path>
            <path d="M181.45055,2.10989011 L35.8681319,2.10989011 C31.2127571,2.12353998 27.4422214,5.89407571 27.4285715,10.5494505 L27.4285715,16.8791209 C27.4422214,12.223746 31.2127571,8.45321031 35.8681319,8.43956044 L181.45055,8.43956044 C186.105944,8.45316422 189.876506,12.2237269 189.89011,16.8791209 L189.89011,10.5494505 C189.876506,5.89405654 186.105944,2.12349389 181.45055,2.10989011 L181.45055,2.10989011 Z" id="Path" fill="#FFFFFF"></path>
            <rect id="Rectangle" fill="#FFFFFF" x="101.274641" y="10.5494505" width="80.1759086" height="8.43956044" rx="2"></rect>
            <path d="M177.230769,21.0989011 L105.494506,21.0989011 C101.998725,21.0989011 99.1648352,18.2650112 99.1648352,14.7692308 C99.1648352,11.2734504 101.998725,8.43956044 105.494506,8.43956044 L177.230769,8.43956044 C180.72655,8.43956044 183.56044,11.2734504 183.56044,14.7692308 C183.56044,18.2650112 180.72655,21.0989011 177.230769,21.0989011 Z M105.494506,12.6593407 C104.329245,12.6593407 103.384615,13.6039706 103.384615,14.7692308 C103.384615,15.9344909 104.329245,16.8791209 105.494506,16.8791209 L177.230769,16.8791209 C178.396029,16.8791209 179.340659,15.9344909 179.340659,14.7692308 C179.340659,13.6039706 178.396029,12.6593407 177.230769,12.6593407 L105.494506,12.6593407 Z" id="Shape" fill="#6D6DAA"></path>
            <circle id="Oval" fill="#FF9797" cx="40.0876168" cy="14.7692308" r="4.21978022"></circle>
            <path d="M40.0879122,21.0989011 C36.5921318,21.0989011 33.7582418,18.2650112 33.7582418,14.7692308 C33.7582418,11.2734504 36.5921318,8.43956044 40.0879122,8.43956044 C43.5836926,8.43956044 46.4175825,11.2734504 46.4175825,14.7692308 C46.4137684,18.2634301 43.5821115,21.095087 40.0879122,21.0989011 L40.0879122,21.0989011 Z M40.0879122,12.6593407 C38.922652,12.6593407 37.978022,13.6039706 37.978022,14.7692308 C37.978022,15.9344909 38.922652,16.8791209 40.0879122,16.8791209 C41.2531723,16.8791209 42.1978023,15.9344909 42.1978023,14.7692308 C42.1966392,13.6044527 41.2526902,12.6605037 40.0879122,12.6593407 L40.0879122,12.6593407 Z" id="Shape" fill="#6D6DAA"></path>
            <circle id="Oval" fill="#FFC661" cx="56.9667377" cy="14.7692308" r="4.21978022"></circle>
            <path d="M56.967033,21.0989011 C53.4712526,21.0989011 50.6373627,18.2650112 50.6373627,14.7692308 C50.6373627,11.2734504 53.4712526,8.43956044 56.967033,8.43956044 C60.4628134,8.43956044 63.2967034,11.2734504 63.2967034,14.7692308 C63.2928893,18.2634301 60.4612324,21.095087 56.967033,21.0989011 L56.967033,21.0989011 Z M56.967033,12.6593407 C55.8017729,12.6593407 54.8571429,13.6039706 54.8571429,14.7692308 C54.8571429,15.9344909 55.8017729,16.8791209 56.967033,16.8791209 C58.1322932,16.8791209 59.0769231,15.9344909 59.0769231,14.7692308 C59.0757601,13.6044527 58.1318111,12.6605037 56.967033,12.6593407 Z" id="Shape" fill="#6D6DAA"></path>
            <circle id="Oval" fill="#B1F1A8" cx="73.8458585" cy="14.7692308" r="4.21978022"></circle>
            <path d="M73.8461539,21.0989011 C70.3503735,21.0989011 67.5164836,18.2650112 67.5164836,14.7692308 C67.5164836,11.2734504 70.3503735,8.43956044 73.8461539,8.43956044 C77.3419343,8.43956044 80.1758242,11.2734504 80.1758242,14.7692308 C80.1720102,18.2634301 77.3403533,21.095087 73.8461539,21.0989011 L73.8461539,21.0989011 Z M73.8461539,12.6593407 C72.6808938,12.6593407 71.7362638,13.6039706 71.7362638,14.7692308 C71.7362638,15.9344909 72.6808938,16.8791209 73.8461539,16.8791209 C75.011414,16.8791209 75.956044,15.9344909 75.956044,14.7692308 C75.954881,13.6044527 75.010932,12.6605037 73.8461539,12.6593407 Z" id="Shape" fill="#6D6DAA"></path>
            <path d="M187.78022,29.5384615 L29.5384616,29.5384615 C28.3732015,29.5384615 27.4285715,28.5938316 27.4285715,27.4285714 C27.4285715,26.2633113 28.3732015,25.3186813 29.5384616,25.3186813 L187.78022,25.3186813 C188.94548,25.3186813 189.89011,26.2633113 189.89011,27.4285714 C189.89011,28.5938316 188.94548,29.5384615 187.78022,29.5384615 Z" id="Path" fill="#6D6DAA"></path>
            <path d="M177.230769,192 L14.7692308,192 C13.6039707,192 12.6593407,191.05537 12.6593407,189.89011 C12.6593407,188.72485 13.6039707,187.78022 14.7692308,187.78022 C20.5926926,187.773372 25.3118334,183.054231 25.3186814,177.230769 L25.3186814,10.5494505 C25.3255293,4.72598876 30.0446702,0.00684794478 35.8681319,0 L181.45055,0 C187.274011,0.00684794478 191.993152,4.72598876 192,10.5494505 L192,177.230769 C191.99049,185.383647 185.383648,191.990489 177.230769,192 Z M25.0961513,187.78022 L177.230769,187.78022 C183.054231,187.773372 187.773372,183.054231 187.78022,177.230769 L187.78022,10.5494505 C187.776406,7.05525122 184.944749,4.22359429 181.45055,4.21978022 L35.8681319,4.21978022 C32.3739326,4.22359429 29.5422757,7.05525122 29.5384616,10.5494505 L29.5384616,177.230769 C29.5410145,181.20245 27.9390499,185.006742 25.0961513,187.78022 Z" id="Shape" fill="#6D6DAA"></path>
            <path d="M97.2156555,97.0549453 C96.4846663,97.054431 95.8060354,96.6755536 95.4220152,96.0535617 C95.0379951,95.4315698 95.0033182,94.6551128 95.3303631,94.0013644 L118.213598,48.2328264 C118.736914,47.1944626 120.00162,46.775127 121.041642,47.2951382 C122.081665,47.8151495 122.50502,49.0785156 121.988318,50.1201864 L99.1050831,95.8887455 C98.7469044,96.6038861 98.0154791,97.0549453 97.2156555,97.0549453 Z" id="Path" fill="#6D6DAA"></path>
            <path d="M135.358523,97.0549465 C134.505292,97.0549465 133.736157,96.5407068 133.409664,95.752414 C133.083171,94.9641212 133.263597,94.0567791 133.866831,93.4533626 L156.750066,70.5690303 C157.575438,69.7540165 158.903964,69.7582248 159.724156,70.5784513 C160.544348,71.3986777 160.5485,72.7272046 159.733451,73.5525415 L136.850279,96.4367473 C136.455101,96.8331101 135.918227,97.0555961 135.358523,97.0549465 Z" id="Path" fill="#6D6DAA"></path>
            <path d="M158.241758,74.1706774 C157.682077,74.1713102 157.145228,73.9488255 156.750066,73.5524782 L133.866768,50.6682725 C133.042894,49.8443987 133.042894,48.5086352 133.866768,47.6847613 C134.690641,46.8608874 136.026405,46.8608874 136.850279,47.6847613 L159.733451,70.5690303 C160.336685,71.1724468 160.51711,72.0797889 160.190617,72.8680817 C159.864125,73.6563745 159.094989,74.1706774 158.241758,74.1706774 L158.241758,74.1706774 Z" id="Path" fill="#6D6DAA"></path>
            <path d="M59.0769231,74.1706775 C58.2236922,74.1706775 57.4545568,73.6564378 57.1280641,72.868145 C56.8015714,72.0798522 56.9819966,71.1725101 57.5852308,70.5690936 L80.468466,47.6848246 C81.001419,47.1518717 81.7782148,46.9437299 82.5062421,47.1388042 C83.2342693,47.3338785 83.8029233,47.9025325 83.9979977,48.6305598 C84.193072,49.358587 83.9849302,50.1353829 83.4519772,50.6683358 L60.5686155,73.5525415 C60.1734432,73.9488656 59.6365958,74.171327 59.0769231,74.1706775 Z" id="Path" fill="#6D6DAA"></path>
            <path d="M81.9601583,97.0549464 C81.4004766,97.0555792 80.8636278,96.8330945 80.468466,96.4367473 L57.5852308,73.5525415 C56.770182,72.7272046 56.7743339,71.3986777 57.5945256,70.5784513 C58.4147172,69.7582248 59.7432439,69.7540165 60.5686155,70.5690303 L83.4519139,93.4533626 C84.0551563,94.0567872 84.2355774,94.9641447 83.9090685,95.7524432 C83.5825596,96.5407418 82.8134007,97.0549464 81.9601583,97.0549464 Z" id="Path" fill="#6D6DAA"></path>
            <g id="Group" opacity="0.3" transform="translate(40.087912, 113.934066)" fill="#6D6DAA">
                <path d="M8.43956044,21.0989011 L2.10989011,21.0989011 C0.944629978,21.0989011 0,20.1542711 0,18.989011 C0,17.8237509 0.944629978,16.8791209 2.10989011,16.8791209 L8.43956044,16.8791209 C9.60482057,16.8791209 10.5494505,17.8237509 10.5494505,18.989011 C10.5494505,20.1542711 9.60482057,21.0989011 8.43956044,21.0989011 Z" id="Path"></path>
                <path d="M42.1978022,21.0989011 L21.0989011,21.0989011 C19.933641,21.0989011 18.989011,20.1542711 18.989011,18.989011 C18.989011,17.8237509 19.933641,16.8791209 21.0989011,16.8791209 L42.1978022,16.8791209 C43.3630623,16.8791209 44.3076923,17.8237509 44.3076923,18.989011 C44.3076923,20.1542711 43.3630623,21.0989011 42.1978022,21.0989011 Z" id="Path"></path>
                <path d="M99.1648352,21.0989011 L52.7472527,21.0989011 C51.5819926,21.0989011 50.6373626,20.1542711 50.6373626,18.989011 C50.6373626,17.8237509 51.5819926,16.8791209 52.7472527,16.8791209 L99.1648352,16.8791209 C100.330095,16.8791209 101.274725,17.8237509 101.274725,18.989011 C101.274725,20.1542711 100.330095,21.0989011 99.1648352,21.0989011 Z" id="Path"></path>
                <path d="M63.2967033,29.5384615 L21.0989011,29.5384615 C19.933641,29.5384615 18.989011,28.5938316 18.989011,27.4285714 C18.989011,26.2633113 19.933641,25.3186813 21.0989011,25.3186813 L63.2967033,25.3186813 C64.4619634,25.3186813 65.4065934,26.2633113 65.4065934,27.4285714 C65.4065934,28.5938316 64.4619634,29.5384615 63.2967033,29.5384615 Z" id="Path"></path>
                <path d="M8.43956044,37.978022 L2.10989011,37.978022 C0.944629978,37.978022 0,37.033392 0,35.8681319 C0,34.7028717 0.944629978,33.7582418 2.10989011,33.7582418 L8.43956044,33.7582418 C9.60482057,33.7582418 10.5494505,34.7028717 10.5494505,35.8681319 C10.5494505,37.033392 9.60482057,37.978022 8.43956044,37.978022 Z" id="Path"></path>
                <path d="M28.6504088,37.978022 L21.0989011,37.978022 C19.933641,37.978022 18.989011,37.033392 18.989011,35.8681319 C18.989011,34.7028717 19.933641,33.7582418 21.0989011,33.7582418 L28.6504088,33.7582418 C29.8156689,33.7582418 30.7602989,34.7028717 30.7602989,35.8681319 C30.7602989,37.033392 29.8156689,37.978022 28.6504088,37.978022 Z" id="Path"></path>
                <path d="M67.5164835,37.978022 L40.4134681,37.978022 C39.248208,37.978022 38.303578,37.033392 38.303578,35.8681319 C38.303578,34.7028717 39.248208,33.7582418 40.4134681,33.7582418 L67.5164835,33.7582418 C68.6817436,33.7582418 69.6263736,34.7028717 69.6263736,35.8681319 C69.6263736,37.033392 68.6817436,37.978022 67.5164835,37.978022 Z" id="Path"></path>
                <path d="M8.43956044,29.5384615 L2.10989011,29.5384615 C0.944629978,29.5384615 0,28.5938316 0,27.4285714 C0,26.2633113 0.944629978,25.3186813 2.10989011,25.3186813 L8.43956044,25.3186813 C9.60482057,25.3186813 10.5494505,26.2633113 10.5494505,27.4285714 C10.5494505,28.5938316 9.60482057,29.5384615 8.43956044,29.5384615 Z" id="Path"></path>
                <path d="M63.2967033,12.6593407 L21.0989011,12.6593407 C19.933641,12.6593407 18.989011,11.7147107 18.989011,10.5494505 C18.989011,9.38419042 19.933641,8.43956044 21.0989011,8.43956044 L63.2967033,8.43956044 C64.4619634,8.43956044 65.4065934,9.38419042 65.4065934,10.5494505 C65.4065934,11.7147107 64.4619634,12.6593407 63.2967033,12.6593407 Z" id="Path"></path>
                <path d="M8.43956044,12.6593407 L2.10989011,12.6593407 C0.944629978,12.6593407 0,11.7147107 0,10.5494505 C0,9.38419042 0.944629978,8.43956044 2.10989011,8.43956044 L8.43956044,8.43956044 C9.60482057,8.43956044 10.5494505,9.38419042 10.5494505,10.5494505 C10.5494505,11.7147107 9.60482057,12.6593407 8.43956044,12.6593407 Z" id="Path"></path>
                <path d="M35.8681319,4.21978022 L21.0989011,4.21978022 C19.933641,4.21978022 18.989011,3.27515024 18.989011,2.10989011 C18.989011,0.944629978 19.933641,0 21.0989011,0 L35.8681319,0 C37.033392,0 37.978022,0.944629978 37.978022,2.10989011 C37.978022,3.27515024 37.033392,4.21978022 35.8681319,4.21978022 Z" id="Path"></path>
                <path d="M59.0769231,4.21978022 L44.3076923,4.21978022 C43.1424322,4.21978022 42.1978022,3.27515024 42.1978022,2.10989011 C42.1978022,0.944629978 43.1424322,0 44.3076923,0 L59.0769231,0 C60.2421832,0 61.1868132,0.944629978 61.1868132,2.10989011 C61.1868132,3.27515024 60.2421832,4.21978022 59.0769231,4.21978022 Z" id="Path"></path>
                <path d="M8.43956044,4.21978022 L2.10989011,4.21978022 C0.944629978,4.21978022 0,3.27515024 0,2.10989011 C0,0.944629978 0.944629978,0 2.10989011,0 L8.43956044,0 C9.60482057,0 10.5494505,0.944629978 10.5494505,2.10989011 C10.5494505,3.27515024 9.60482057,4.21978022 8.43956044,4.21978022 Z" id="Path"></path>
                <path d="M8.43956044,46.4175824 L2.10989011,46.4175824 C0.944629978,46.4175824 0,45.4729524 0,44.3076923 C0,43.1424322 0.944629978,42.1978022 2.10989011,42.1978022 L8.43956044,42.1978022 C9.60482057,42.1978022 10.5494505,43.1424322 10.5494505,44.3076923 C10.5494505,45.4729524 9.60482057,46.4175824 8.43956044,46.4175824 Z" id="Path"></path>
                <path d="M37.978022,46.4175824 L21.0989011,46.4175824 C19.933641,46.4175824 18.989011,45.4729524 18.989011,44.3076923 C18.989011,43.1424322 19.933641,42.1978022 21.0989011,42.1978022 L37.978022,42.1978022 C39.1432821,42.1978022 40.0879121,43.1424322 40.0879121,44.3076923 C40.0879121,45.4729524 39.1432821,46.4175824 37.978022,46.4175824 Z" id="Path"></path>
                <path d="M8.43956044,54.8571429 L2.10989011,54.8571429 C0.944629978,54.8571429 0,53.9125129 0,52.7472527 C0,51.5819926 0.944629978,50.6373626 2.10989011,50.6373626 L8.43956044,50.6373626 C9.60482057,50.6373626 10.5494505,51.5819926 10.5494505,52.7472527 C10.5494505,53.9125129 9.60482057,54.8571429 8.43956044,54.8571429 Z" id="Path"></path>
                <path d="M44.3076923,54.8571429 L21.0989011,54.8571429 C19.933641,54.8571429 18.989011,53.9125129 18.989011,52.7472527 C18.989011,51.5819926 19.933641,50.6373626 21.0989011,50.6373626 L44.3076923,50.6373626 C45.4729524,50.6373626 46.4175824,51.5819926 46.4175824,52.7472527 C46.4175824,53.9125129 45.4729524,54.8571429 44.3076923,54.8571429 Z" id="Path"></path>
            </g>
        </g>
        <g id="Code-2" transform="translate(608.000000, 204.000000)" fill-rule="nonzero">
            <path d="M2.10989018,177.230769 C2.10989018,184.22233 7.77767005,189.89011 14.7692308,189.89011 L52.7472528,189.89011 C43.4251718,189.89011 35.8681319,182.33307 35.8681319,173.010989 L35.8681319,90.7252747 L2.10989018,90.7252747 L2.10989018,177.230769 Z" id="Path" fill="#CED8EE"></path>
            <path d="M36.4213662,177.230769 L14.7692308,177.230769 C7.77767005,177.230769 2.10989018,171.562989 2.10989018,164.571429 L2.10989018,177.230769 C2.10989018,184.22233 7.77767005,189.89011 14.7692308,189.89011 L52.7472528,189.89011 C45.0557709,189.885329 38.3412488,184.678787 36.4213662,177.230769 L36.4213662,177.230769 Z" id="Path" fill="#6E7EB0" opacity="0.3"></path>
            <path d="M52.7472528,192 L14.7692308,192 C6.61635257,191.990489 0.00951063113,185.383647 -7.10542736e-15,177.230769 L-7.10542736e-15,90.7252747 C-7.10542736e-15,90.1656525 0.222099125,89.6289091 0.617811833,89.2331964 C1.01352454,88.8374837 1.55026792,88.6153845 2.10989018,88.6153845 L35.8681319,88.6153845 C36.4277542,88.6153845 36.9644976,88.8374837 37.3602103,89.2331964 C37.755923,89.6289091 37.9781676,90.1656525 37.978022,90.7252747 L37.978022,173.010989 C37.9875326,181.163867 44.5943746,187.770709 52.7472528,187.78022 C53.912513,187.78022 54.8571429,188.72485 54.8571429,189.89011 C54.8571429,191.05537 53.912513,192 52.7472528,192 L52.7472528,192 Z M4.21978029,92.8351648 L4.21978029,177.230769 C4.22662824,183.054231 8.94576905,187.773372 14.7692308,187.78022 L40.8234831,187.78022 C36.3552198,184.179604 33.7575608,178.749439 33.7582418,173.010989 L33.7582418,92.8351648 L4.21978029,92.8351648 Z" id="Shape" fill="#6D6DAA"></path>
            <path d="M27.4285715,175.120879 C27.4285715,183.56044 23.2087913,189.89011 14.7692308,189.89011 L177.230769,189.89011 C184.22233,189.89011 189.89011,184.22233 189.89011,177.230769 L189.89011,16.8791209 L27.4285715,16.8791209 L27.4285715,175.120879 Z" id="Path" fill="#FFFFFF"></path>
            <rect id="Rectangle" fill="#FFF27D" x="27.4285715" y="37.978022" width="162.461538" height="67.5164835"></rect>
            <path d="M177.230769,177.230769 L27.3243851,177.230769 C26.6642638,184.590066 22.4868502,189.89011 14.7692308,189.89011 L177.230769,189.89011 C184.22233,189.89011 189.89011,184.22233 189.89011,177.230769 L189.89011,164.571429 C189.89011,171.562989 184.22233,177.230769 177.230769,177.230769 L177.230769,177.230769 Z" id="Path" fill="#7690A8" opacity="0.3"></path>
            <path d="M189.89011,10.5494505 L189.89011,27.4285714 L27.4285715,27.4285714 L27.4285715,10.5494505 C27.4421983,5.89406612 31.2127475,2.12351693 35.8681319,2.10989011 L181.45055,2.10989011 C186.105934,2.12351693 189.876483,5.89406612 189.89011,10.5494505 L189.89011,10.5494505 Z" id="Path" fill="#EEF6FF"></path>
            <path d="M181.45055,2.10989011 L35.8681319,2.10989011 C31.2127571,2.12353998 27.4422214,5.89407571 27.4285715,10.5494505 L27.4285715,16.8791209 C27.4422214,12.223746 31.2127571,8.45321031 35.8681319,8.43956044 L181.45055,8.43956044 C186.105944,8.45316422 189.876506,12.2237269 189.89011,16.8791209 L189.89011,10.5494505 C189.876506,5.89405654 186.105944,2.12349389 181.45055,2.10989011 L181.45055,2.10989011 Z" id="Path" fill="#FFFFFF"></path>
            <rect id="Rectangle" fill="#FFFFFF" x="101.274641" y="10.5494505" width="80.1759086" height="8.43956044" rx="2"></rect>
            <path d="M177.230769,21.0989011 L105.494506,21.0989011 C101.998725,21.0989011 99.1648352,18.2650112 99.1648352,14.7692308 C99.1648352,11.2734504 101.998725,8.43956044 105.494506,8.43956044 L177.230769,8.43956044 C180.72655,8.43956044 183.56044,11.2734504 183.56044,14.7692308 C183.56044,18.2650112 180.72655,21.0989011 177.230769,21.0989011 Z M105.494506,12.6593407 C104.329245,12.6593407 103.384615,13.6039706 103.384615,14.7692308 C103.384615,15.9344909 104.329245,16.8791209 105.494506,16.8791209 L177.230769,16.8791209 C178.396029,16.8791209 179.340659,15.9344909 179.340659,14.7692308 C179.340659,13.6039706 178.396029,12.6593407 177.230769,12.6593407 L105.494506,12.6593407 Z" id="Shape" fill="#6D6DAA"></path>
            <circle id="Oval" fill="#FF9797" cx="40.0876168" cy="14.7692308" r="4.21978022"></circle>
            <path d="M40.0879122,21.0989011 C36.5921318,21.0989011 33.7582418,18.2650112 33.7582418,14.7692308 C33.7582418,11.2734504 36.5921318,8.43956044 40.0879122,8.43956044 C43.5836926,8.43956044 46.4175825,11.2734504 46.4175825,14.7692308 C46.4137684,18.2634301 43.5821115,21.095087 40.0879122,21.0989011 L40.0879122,21.0989011 Z M40.0879122,12.6593407 C38.922652,12.6593407 37.978022,13.6039706 37.978022,14.7692308 C37.978022,15.9344909 38.922652,16.8791209 40.0879122,16.8791209 C41.2531723,16.8791209 42.1978023,15.9344909 42.1978023,14.7692308 C42.1966392,13.6044527 41.2526902,12.6605037 40.0879122,12.6593407 L40.0879122,12.6593407 Z" id="Shape" fill="#6D6DAA"></path>
            <circle id="Oval" fill="#FFC661" cx="56.9667377" cy="14.7692308" r="4.21978022"></circle>
            <path d="M56.967033,21.0989011 C53.4712526,21.0989011 50.6373627,18.2650112 50.6373627,14.7692308 C50.6373627,11.2734504 53.4712526,8.43956044 56.967033,8.43956044 C60.4628134,8.43956044 63.2967034,11.2734504 63.2967034,14.7692308 C63.2928893,18.2634301 60.4612324,21.095087 56.967033,21.0989011 L56.967033,21.0989011 Z M56.967033,12.6593407 C55.8017729,12.6593407 54.8571429,13.6039706 54.8571429,14.7692308 C54.8571429,15.9344909 55.8017729,16.8791209 56.967033,16.8791209 C58.1322932,16.8791209 59.0769231,15.9344909 59.0769231,14.7692308 C59.0757601,13.6044527 58.1318111,12.6605037 56.967033,12.6593407 Z" id="Shape" fill="#6D6DAA"></path>
            <circle id="Oval" fill="#B1F1A8" cx="73.8458585" cy="14.7692308" r="4.21978022"></circle>
            <path d="M73.8461539,21.0989011 C70.3503735,21.0989011 67.5164836,18.2650112 67.5164836,14.7692308 C67.5164836,11.2734504 70.3503735,8.43956044 73.8461539,8.43956044 C77.3419343,8.43956044 80.1758242,11.2734504 80.1758242,14.7692308 C80.1720102,18.2634301 77.3403533,21.095087 73.8461539,21.0989011 L73.8461539,21.0989011 Z M73.8461539,12.6593407 C72.6808938,12.6593407 71.7362638,13.6039706 71.7362638,14.7692308 C71.7362638,15.9344909 72.6808938,16.8791209 73.8461539,16.8791209 C75.011414,16.8791209 75.956044,15.9344909 75.956044,14.7692308 C75.954881,13.6044527 75.010932,12.6605037 73.8461539,12.6593407 Z" id="Shape" fill="#6D6DAA"></path>
            <path d="M187.78022,29.5384615 L29.5384616,29.5384615 C28.3732015,29.5384615 27.4285715,28.5938316 27.4285715,27.4285714 C27.4285715,26.2633113 28.3732015,25.3186813 29.5384616,25.3186813 L187.78022,25.3186813 C188.94548,25.3186813 189.89011,26.2633113 189.89011,27.4285714 C189.89011,28.5938316 188.94548,29.5384615 187.78022,29.5384615 Z" id="Path" fill="#6D6DAA"></path>
            <path d="M177.230769,192 L14.7692308,192 C13.6039707,192 12.6593407,191.05537 12.6593407,189.89011 C12.6593407,188.72485 13.6039707,187.78022 14.7692308,187.78022 C20.5926926,187.773372 25.3118334,183.054231 25.3186814,177.230769 L25.3186814,10.5494505 C25.3255293,4.72598876 30.0446702,0.00684794478 35.8681319,0 L181.45055,0 C187.274011,0.00684794478 191.993152,4.72598876 192,10.5494505 L192,177.230769 C191.99049,185.383647 185.383648,191.990489 177.230769,192 Z M25.0961513,187.78022 L177.230769,187.78022 C183.054231,187.773372 187.773372,183.054231 187.78022,177.230769 L187.78022,10.5494505 C187.776406,7.05525122 184.944749,4.22359429 181.45055,4.21978022 L35.8681319,4.21978022 C32.3739326,4.22359429 29.5422757,7.05525122 29.5384616,10.5494505 L29.5384616,177.230769 C29.5410145,181.20245 27.9390499,185.006742 25.0961513,187.78022 Z" id="Shape" fill="#6D6DAA"></path>
            <path d="M97.2156555,97.0549453 C96.4846663,97.054431 95.8060354,96.6755536 95.4220152,96.0535617 C95.0379951,95.4315698 95.0033182,94.6551128 95.3303631,94.0013644 L118.213598,48.2328264 C118.736914,47.1944626 120.00162,46.775127 121.041642,47.2951382 C122.081665,47.8151495 122.50502,49.0785156 121.988318,50.1201864 L99.1050831,95.8887455 C98.7469044,96.6038861 98.0154791,97.0549453 97.2156555,97.0549453 Z" id="Path" fill="#6D6DAA"></path>
            <path d="M135.358523,97.0549465 C134.505292,97.0549465 133.736157,96.5407068 133.409664,95.752414 C133.083171,94.9641212 133.263597,94.0567791 133.866831,93.4533626 L156.750066,70.5690303 C157.575438,69.7540165 158.903964,69.7582248 159.724156,70.5784513 C160.544348,71.3986777 160.5485,72.7272046 159.733451,73.5525415 L136.850279,96.4367473 C136.455101,96.8331101 135.918227,97.0555961 135.358523,97.0549465 Z" id="Path" fill="#6D6DAA"></path>
            <path d="M158.241758,74.1706774 C157.682077,74.1713102 157.145228,73.9488255 156.750066,73.5524782 L133.866768,50.6682725 C133.042894,49.8443987 133.042894,48.5086352 133.866768,47.6847613 C134.690641,46.8608874 136.026405,46.8608874 136.850279,47.6847613 L159.733451,70.5690303 C160.336685,71.1724468 160.51711,72.0797889 160.190617,72.8680817 C159.864125,73.6563745 159.094989,74.1706774 158.241758,74.1706774 L158.241758,74.1706774 Z" id="Path" fill="#6D6DAA"></path>
            <path d="M59.0769231,74.1706775 C58.2236922,74.1706775 57.4545568,73.6564378 57.1280641,72.868145 C56.8015714,72.0798522 56.9819966,71.1725101 57.5852308,70.5690936 L80.468466,47.6848246 C81.001419,47.1518717 81.7782148,46.9437299 82.5062421,47.1388042 C83.2342693,47.3338785 83.8029233,47.9025325 83.9979977,48.6305598 C84.193072,49.358587 83.9849302,50.1353829 83.4519772,50.6683358 L60.5686155,73.5525415 C60.1734432,73.9488656 59.6365958,74.171327 59.0769231,74.1706775 Z" id="Path" fill="#6D6DAA"></path>
            <path d="M81.9601583,97.0549464 C81.4004766,97.0555792 80.8636278,96.8330945 80.468466,96.4367473 L57.5852308,73.5525415 C56.770182,72.7272046 56.7743339,71.3986777 57.5945256,70.5784513 C58.4147172,69.7582248 59.7432439,69.7540165 60.5686155,70.5690303 L83.4519139,93.4533626 C84.0551563,94.0567872 84.2355774,94.9641447 83.9090685,95.7524432 C83.5825596,96.5407418 82.8134007,97.0549464 81.9601583,97.0549464 Z" id="Path" fill="#6D6DAA"></path>
            <g id="Group" opacity="0.3" transform="translate(40.087912, 113.934066)" fill="#6D6DAA">
                <path d="M8.43956044,21.0989011 L2.10989011,21.0989011 C0.944629978,21.0989011 0,20.1542711 0,18.989011 C0,17.8237509 0.944629978,16.8791209 2.10989011,16.8791209 L8.43956044,16.8791209 C9.60482057,16.8791209 10.5494505,17.8237509 10.5494505,18.989011 C10.5494505,20.1542711 9.60482057,21.0989011 8.43956044,21.0989011 Z" id="Path"></path>
                <path d="M42.1978022,21.0989011 L21.0989011,21.0989011 C19.933641,21.0989011 18.989011,20.1542711 18.989011,18.989011 C18.989011,17.8237509 19.933641,16.8791209 21.0989011,16.8791209 L42.1978022,16.8791209 C43.3630623,16.8791209 44.3076923,17.8237509 44.3076923,18.989011 C44.3076923,20.1542711 43.3630623,21.0989011 42.1978022,21.0989011 Z" id="Path"></path>
                <path d="M99.1648352,21.0989011 L52.7472527,21.0989011 C51.5819926,21.0989011 50.6373626,20.1542711 50.6373626,18.989011 C50.6373626,17.8237509 51.5819926,16.8791209 52.7472527,16.8791209 L99.1648352,16.8791209 C100.330095,16.8791209 101.274725,17.8237509 101.274725,18.989011 C101.274725,20.1542711 100.330095,21.0989011 99.1648352,21.0989011 Z" id="Path"></path>
                <path d="M63.2967033,29.5384615 L21.0989011,29.5384615 C19.933641,29.5384615 18.989011,28.5938316 18.989011,27.4285714 C18.989011,26.2633113 19.933641,25.3186813 21.0989011,25.3186813 L63.2967033,25.3186813 C64.4619634,25.3186813 65.4065934,26.2633113 65.4065934,27.4285714 C65.4065934,28.5938316 64.4619634,29.5384615 63.2967033,29.5384615 Z" id="Path"></path>
                <path d="M8.43956044,37.978022 L2.10989011,37.978022 C0.944629978,37.978022 0,37.033392 0,35.8681319 C0,34.7028717 0.944629978,33.7582418 2.10989011,33.7582418 L8.43956044,33.7582418 C9.60482057,33.7582418 10.5494505,34.7028717 10.5494505,35.8681319 C10.5494505,37.033392 9.60482057,37.978022 8.43956044,37.978022 Z" id="Path"></path>
                <path d="M28.6504088,37.978022 L21.0989011,37.978022 C19.933641,37.978022 18.989011,37.033392 18.989011,35.8681319 C18.989011,34.7028717 19.933641,33.7582418 21.0989011,33.7582418 L28.6504088,33.7582418 C29.8156689,33.7582418 30.7602989,34.7028717 30.7602989,35.8681319 C30.7602989,37.033392 29.8156689,37.978022 28.6504088,37.978022 Z" id="Path"></path>
                <path d="M67.5164835,37.978022 L40.4134681,37.978022 C39.248208,37.978022 38.303578,37.033392 38.303578,35.8681319 C38.303578,34.7028717 39.248208,33.7582418 40.4134681,33.7582418 L67.5164835,33.7582418 C68.6817436,33.7582418 69.6263736,34.7028717 69.6263736,35.8681319 C69.6263736,37.033392 68.6817436,37.978022 67.5164835,37.978022 Z" id="Path"></path>
                <path d="M8.43956044,29.5384615 L2.10989011,29.5384615 C0.944629978,29.5384615 0,28.5938316 0,27.4285714 C0,26.2633113 0.944629978,25.3186813 2.10989011,25.3186813 L8.43956044,25.3186813 C9.60482057,25.3186813 10.5494505,26.2633113 10.5494505,27.4285714 C10.5494505,28.5938316 9.60482057,29.5384615 8.43956044,29.5384615 Z" id="Path"></path>
                <path d="M63.2967033,12.6593407 L21.0989011,12.6593407 C19.933641,12.6593407 18.989011,11.7147107 18.989011,10.5494505 C18.989011,9.38419042 19.933641,8.43956044 21.0989011,8.43956044 L63.2967033,8.43956044 C64.4619634,8.43956044 65.4065934,9.38419042 65.4065934,10.5494505 C65.4065934,11.7147107 64.4619634,12.6593407 63.2967033,12.6593407 Z" id="Path"></path>
                <path d="M8.43956044,12.6593407 L2.10989011,12.6593407 C0.944629978,12.6593407 0,11.7147107 0,10.5494505 C0,9.38419042 0.944629978,8.43956044 2.10989011,8.43956044 L8.43956044,8.43956044 C9.60482057,8.43956044 10.5494505,9.38419042 10.5494505,10.5494505 C10.5494505,11.7147107 9.60482057,12.6593407 8.43956044,12.6593407 Z" id="Path"></path>
                <path d="M35.8681319,4.21978022 L21.0989011,4.21978022 C19.933641,4.21978022 18.989011,3.27515024 18.989011,2.10989011 C18.989011,0.944629978 19.933641,0 21.0989011,0 L35.8681319,0 C37.033392,0 37.978022,0.944629978 37.978022,2.10989011 C37.978022,3.27515024 37.033392,4.21978022 35.8681319,4.21978022 Z" id="Path"></path>
                <path d="M59.0769231,4.21978022 L44.3076923,4.21978022 C43.1424322,4.21978022 42.1978022,3.27515024 42.1978022,2.10989011 C42.1978022,0.944629978 43.1424322,0 44.3076923,0 L59.0769231,0 C60.2421832,0 61.1868132,0.944629978 61.1868132,2.10989011 C61.1868132,3.27515024 60.2421832,4.21978022 59.0769231,4.21978022 Z" id="Path"></path>
                <path d="M8.43956044,4.21978022 L2.10989011,4.21978022 C0.944629978,4.21978022 0,3.27515024 0,2.10989011 C0,0.944629978 0.944629978,0 2.10989011,0 L8.43956044,0 C9.60482057,0 10.5494505,0.944629978 10.5494505,2.10989011 C10.5494505,3.27515024 9.60482057,4.21978022 8.43956044,4.21978022 Z" id="Path"></path>
                <path d="M8.43956044,46.4175824 L2.10989011,46.4175824 C0.944629978,46.4175824 0,45.4729524 0,44.3076923 C0,43.1424322 0.944629978,42.1978022 2.10989011,42.1978022 L8.43956044,42.1978022 C9.60482057,42.1978022 10.5494505,43.1424322 10.5494505,44.3076923 C10.5494505,45.4729524 9.60482057,46.4175824 8.43956044,46.4175824 Z" id="Path"></path>
                <path d="M37.978022,46.4175824 L21.0989011,46.4175824 C19.933641,46.4175824 18.989011,45.4729524 18.989011,44.3076923 C18.989011,43.1424322 19.933641,42.1978022 21.0989011,42.1978022 L37.978022,42.1978022 C39.1432821,42.1978022 40.0879121,43.1424322 40.0879121,44.3076923 C40.0879121,45.4729524 39.1432821,46.4175824 37.978022,46.4175824 Z" id="Path"></path>
                <path d="M8.43956044,54.8571429 L2.10989011,54.8571429 C0.944629978,54.8571429 0,53.9125129 0,52.7472527 C0,51.5819926 0.944629978,50.6373626 2.10989011,50.6373626 L8.43956044,50.6373626 C9.60482057,50.6373626 10.5494505,51.5819926 10.5494505,52.7472527 C10.5494505,53.9125129 9.60482057,54.8571429 8.43956044,54.8571429 Z" id="Path"></path>
                <path d="M44.3076923,54.8571429 L21.0989011,54.8571429 C19.933641,54.8571429 18.989011,53.9125129 18.989011,52.7472527 C18.989011,51.5819926 19.933641,50.6373626 21.0989011,50.6373626 L44.3076923,50.6373626 C45.4729524,50.6373626 46.4175824,51.5819926 46.4175824,52.7472527 C46.4175824,53.9125129 45.4729524,54.8571429 44.3076923,54.8571429 Z" id="Path"></path>
            </g>
        </g>
    </g>
</svg>