<?xml version="1.0" encoding="UTF-8"?>
<svg width="800px" height="600px" viewBox="0 0 800 600" version="1.1" xmlns="http://www.w3.org/2000/svg" xmlns:xlink="http://www.w3.org/1999/xlink">
    <title>Artboard</title>
    <g id="Artboard" stroke="none" stroke-width="1" fill="none" fill-rule="evenodd">
        <g id="027_hands_network_internet_care" transform="translate(178.000000, 73.000000)" fill-rule="nonzero">
            <path d="M180.049896,434 C178.564722,433.99809 177.199471,433.251295 176.491073,432.053305 C175.782674,430.855314 175.84445,429.397771 176.652106,428.253903 C179.035673,425.39949 183.150139,424.277224 186.845476,425.473548 C188.260496,425.769568 189.395326,426.736934 189.821292,428.010233 C190.247258,429.283532 189.899431,430.668675 188.909199,431.642436 C187.918967,432.616197 186.437272,433.030147 185.02381,432.727919 C184.420323,432.555442 183.777352,432.535361 183.162485,432.669786 C182.390702,433.514234 181.250839,434.001368 180.049896,434 L180.049896,434 Z" id="Shape" fill="#6D6DAA"></path>
            <g id="Group" opacity="0.3">
                <path d="M396.520589,78.1892819 C372.234244,38.9353118 325.988,18.9830546 280.705856,28.2227301 C264.988833,31.3852058 248.664625,29.2441143 234.299452,22.1360422 C221.542607,15.8336103 209.287501,7.2556828 194.42137,4.09781336 C113.994445,-12.9864244 62.7190335,41.2368905 43.805332,104.966674 C37.7317461,125.258287 36.5055001,146.688199 40.2249119,167.538206 C44.1726588,189.295561 38.2752709,211.681639 24.1162084,228.685735 C-13.4912999,274.018466 -9.82973096,349.186482 60.2206755,390.878761 C69.008799,395.593581 78.8216124,398.083811 88.7984332,398.131033 C107.504737,399.062072 125.198439,406.89333 138.449392,420.106619 C161.148056,442.269023 192.700165,452.943436 224.219925,449.123699 C255.739686,445.303962 283.816682,427.403368 300.543792,400.463132 C311.913951,382.042729 330.833122,369.555108 352.264823,366.324607 C389.011581,361.045203 420.353405,337.047014 434.984843,302.986535 C449.616281,268.926055 445.426089,229.718045 423.92573,199.505402 C413.84617,184.681508 409.652293,166.64426 412.160277,148.903917 C415.142229,124.243434 409.626513,99.3041995 396.520589,78.1892819 Z" id="Path" fill="#97C1FF"></path>
                <path d="M86.4476821,374.851207 C85.4236852,374.868357 84.4383832,374.460996 83.7263981,373.726126 C83.3599181,373.359671 83.06969,372.924457 82.872431,372.445552 C82.2770186,370.993113 82.6137444,369.325805 83.7263981,368.217109 C84.0839935,367.866894 84.5069326,367.590097 84.9712631,367.402396 C85.6798331,367.091384 86.4680707,367.009251 87.2257082,367.167487 C87.468586,367.211905 87.7037865,367.291021 87.9240623,367.402396 C88.1717117,367.486167 88.4066848,367.60344 88.6224164,367.750938 C88.815961,367.906122 89.0133532,368.061615 89.2068978,368.216954 C89.5618228,368.592715 89.8505478,369.025675 90.0608649,369.497529 C90.4252219,370.446401 90.4252219,371.496253 90.0608649,372.445125 C89.8589816,372.92165 89.5693731,373.356159 89.2070533,373.726126 C88.8411171,374.075744 88.4206785,374.363653 87.9621882,374.578589 C87.4795216,374.765516 86.9653548,374.858068 86.4476821,374.851207 Z" id="Path" fill="#FFFFFF"></path>
                <path d="M90.3380068,359.336729 L82.5651303,359.336729 C80.4187097,359.336729 78.6786921,357.599778 78.6786921,355.45714 C78.6786921,353.314502 80.4187097,351.57755 82.5651303,351.57755 L90.3380068,351.57755 C92.4844274,351.57755 94.224445,353.314502 94.224445,355.45714 C94.224445,357.599778 92.4844274,359.336729 90.3380068,359.336729 Z" id="Path" fill="#FFFFFF"></path>
                <path d="M101.997322,343.814492 L63.1368256,343.814492 C60.990405,343.814492 59.2503873,342.07754 59.2503873,339.934902 C59.2503873,337.792264 60.990405,336.055313 63.1368256,336.055313 L101.997322,336.055313 C104.143742,336.055313 105.88376,337.792264 105.88376,339.934902 C105.88376,342.07754 104.143742,343.814492 101.997322,343.814492 Z" id="Path" fill="#FFFFFF"></path>
                <path d="M67.0154909,359.33285 L51.4736244,359.33285 C49.3272038,359.33285 47.5871862,357.595898 47.5871862,355.45326 C47.5871862,353.310622 49.3272038,351.573671 51.4736244,351.573671 L67.0154909,351.573671 C69.1619115,351.573671 70.9019292,353.310622 70.9019292,355.45326 C70.9019292,357.595898 69.1619115,359.33285 67.0154909,359.33285 Z" id="Path" fill="#FFFFFF"></path>
                <path d="M70.9019292,374.855087 L39.8104233,374.855087 C37.6640027,374.855087 35.923985,373.118136 35.923985,370.975498 C35.923985,368.832859 37.6640027,367.095908 39.8104233,367.095908 L70.9019292,367.095908 C73.0483497,367.095908 74.7883674,368.832859 74.7883674,370.975498 C74.7883674,373.118136 73.0483497,374.855087 70.9019292,374.855087 Z" id="Path" fill="#FFFFFF"></path>
                <ellipse id="Oval" fill="#97C1FF" cx="325.463634" cy="326.356339" rx="87.4448604" ry="87.290763"></ellipse>
                <path d="M405.135618,372.911413 C404.62788,372.905171 404.126293,372.799621 403.659237,372.600735 C403.188051,372.404486 402.754131,372.128909 402.376402,371.786021 C402.03372,371.40834 401.75775,370.975331 401.56025,370.505446 C401.145285,369.566575 401.145285,368.496723 401.56025,367.557851 C401.73856,367.078201 402.016728,366.641744 402.376402,366.277276 C403.501599,365.191471 405.163187,364.871865 406.611998,365.462562 C407.092495,365.640558 407.529722,365.918236 407.894833,366.277276 C408.253927,366.649711 408.543165,367.083441 408.7488,367.557851 C408.935997,368.026486 409.02885,368.527351 409.022056,369.031823 C409.023687,370.062187 408.618787,371.051748 407.894989,371.786332 C407.163134,372.514933 406.169189,372.920195 405.135618,372.911413 L405.135618,372.911413 Z" id="Path" fill="#FFFFFF"></path>
                <path d="M397.362741,388.429771 L374.044112,388.429771 C371.897691,388.429771 370.157673,386.692819 370.157673,384.550181 C370.157673,382.407543 371.897691,380.670592 374.044112,380.670592 L397.362741,380.670592 C399.509162,380.670592 401.249179,382.407543 401.249179,384.550181 C401.249179,386.692819 399.509162,388.429771 397.362741,388.429771 Z" id="Path" fill="#FFFFFF"></path>
                <path d="M389.589865,372.907533 L362.388683,372.907533 C360.242263,372.907533 358.502245,371.170582 358.502245,369.027944 C358.502245,366.885306 360.242263,365.148354 362.388683,365.148354 L389.589865,365.148354 C391.736285,365.148354 393.476303,366.885306 393.476303,369.027944 C393.476303,371.170582 391.736285,372.907533 389.589865,372.907533 Z" id="Path" fill="#FFFFFF"></path>
                <path d="M358.494472,388.425891 L350.725482,388.425891 C348.579062,388.425891 346.839044,386.68894 346.839044,384.546301 C346.839044,382.403663 348.579062,380.666712 350.725482,380.666712 L358.494472,380.666712 C360.640893,380.666712 362.380911,382.403663 362.380911,384.546301 C362.380911,386.68894 360.640893,388.425891 358.494472,388.425891 Z" id="Path" fill="#FFFFFF"></path>
                <path d="M389.589865,403.948128 L358.494472,403.948128 C356.348052,403.948128 354.608034,402.211177 354.608034,400.068539 C354.608034,397.925901 356.348052,396.188949 358.494472,396.188949 L389.589865,396.188949 C391.736285,396.188949 393.476303,397.925901 393.476303,400.068539 C393.476303,402.211177 391.736285,403.948128 389.589865,403.948128 Z" id="Path" fill="#FFFFFF"></path>
                <path d="M327.406853,235.185987 C326.373058,235.196018 325.378677,234.790499 324.647639,234.060749 C323.916601,233.330999 323.510366,232.338371 323.520415,231.306397 C323.526791,231.046003 323.552159,230.786418 323.596317,230.529703 C323.640214,230.286493 323.719494,230.050995 323.831641,229.830679 C323.91595,229.583629 324.033404,229.349121 324.180798,229.133556 C324.324183,228.930236 324.480042,228.735976 324.647482,228.551889 L325.228154,228.085872 C325.445581,227.938474 325.681696,227.820625 325.930278,227.735429 C326.150168,227.623832 326.385648,227.545948 326.628788,227.5044 C327.126711,227.386909 327.645216,227.386909 328.143139,227.5044 C328.400924,227.54013 328.651004,227.618222 328.883233,227.735507 C329.122009,227.813314 329.345451,227.931886 329.543617,228.08595 C329.775132,228.241134 329.972485,228.396627 330.166069,228.551966 C330.321526,228.74517 330.477295,228.938412 330.632908,229.133517 C330.778828,229.349943 330.896182,229.58425 330.982065,229.83064 C331.094728,230.050402 331.172815,230.286174 331.21358,230.529665 C331.260865,230.786038 331.28752,231.045778 331.293291,231.306397 C331.287402,231.553819 331.260738,231.800313 331.21358,232.043286 C331.178669,232.300209 331.100389,232.549367 330.982065,232.780176 C330.896602,233.027339 330.779228,233.262327 330.632908,233.4792 C330.47745,233.672404 330.321682,233.865646 330.166069,234.060751 C329.975513,234.236877 329.766874,234.392444 329.543617,234.524866 C329.345451,234.678929 329.122009,234.797502 328.883233,234.875309 C328.65076,234.992369 328.400824,235.071057 328.143139,235.108317 C327.900052,235.152903 327.653906,235.178868 327.406853,235.185987 L327.406853,235.185987 Z" id="Path" fill="#FFFFFF"></path>
                <path d="M319.626204,250.708224 L296.307574,250.708224 C294.161154,250.708224 292.421136,248.971273 292.421136,246.828635 C292.421136,244.685997 294.161154,242.949045 296.307574,242.949045 L319.626204,242.949045 C321.772624,242.949045 323.512642,244.685997 323.512642,246.828635 C323.512642,248.971273 321.772624,250.708224 319.626204,250.708224 Z" id="Path" fill="#FFFFFF"></path>
                <path d="M311.853327,235.185987 L284.648259,235.185987 C282.501839,235.185987 280.761821,233.449035 280.761821,231.306397 C280.761821,229.163759 282.501839,227.426808 284.648259,227.426808 L311.853327,227.426808 C313.999748,227.426808 315.739765,229.163759 315.739765,231.306397 C315.739765,233.449035 313.999748,235.185987 311.853327,235.185987 Z" id="Path" fill="#FFFFFF"></path>
                <path d="M280.758207,250.704345 L272.988945,250.704345 C270.842524,250.704345 269.102506,248.967393 269.102506,246.824755 C269.102506,244.682117 270.842524,242.945166 272.988945,242.945166 L280.757935,242.945166 C282.904355,242.945166 284.644373,244.682117 284.644373,246.824755 C284.644373,248.967393 282.904355,250.704345 280.757935,250.704345 L280.758207,250.704345 Z" id="Path" fill="#FFFFFF"></path>
                <path d="M311.853327,266.226582 L280.757935,266.226582 C278.611514,266.226582 276.871496,264.489631 276.871496,262.346993 C276.871496,260.204354 278.611514,258.467403 280.757935,258.467403 L311.853327,258.467403 C313.999748,258.467403 315.739765,260.204354 315.739765,262.346993 C315.739765,264.489631 313.999748,266.226582 311.853327,266.226582 Z" id="Path" fill="#FFFFFF"></path>
            </g>
            <path d="M393.1154,30.4230234 C395.224388,37.3525063 400.647424,42.7756035 407.576881,44.8846674 C414.807706,47.2948826 414.807706,49.7051109 407.576881,52.1153522 C400.647424,54.224416 395.224388,59.6475133 393.1154,66.5769961 C390.705185,73.807668 388.294919,73.807668 385.8846,66.5769961 C383.775656,59.6474875 378.352602,54.224373 371.423119,52.1153522 C364.192294,49.705137 364.192294,47.2949087 371.423119,44.8846674 C378.352602,42.7756466 383.775656,37.3525321 385.8846,30.4230234 C388.294867,23.1923255 390.705133,23.1923255 393.1154,30.4230234 Z" id="Path" fill="#97C1FF"></path>
            <path d="M266.923093,104.38458 C268.628235,109.98714 273.012816,114.37177 278.615351,116.076969 C284.46155,118.025663 284.46155,119.974356 278.615351,121.92305 C273.012816,123.628249 268.628235,128.012879 266.923093,133.615439 C264.974402,139.46152 263.025674,139.46152 261.076907,133.615439 C259.371801,128.012857 254.987206,123.628213 249.384649,121.92305 C243.53845,119.974356 243.53845,118.025663 249.384649,116.076969 C254.987206,114.371806 259.371801,109.987162 261.076907,104.38458 C263.025623,98.5384735 264.974352,98.5384735 266.923093,104.38458 Z" id="Path" fill="#FFFFFF"></path>
            <path d="M174.923093,197.384563 C176.628235,202.987126 181.012816,207.371758 186.615351,209.076958 C192.46155,211.025653 192.46155,212.974347 186.615351,214.923042 C181.012816,216.628242 176.628235,221.012874 174.923093,226.615437 C172.974402,232.461521 171.025674,232.461521 169.076907,226.615437 C167.371801,221.012852 162.987206,216.628206 157.384649,214.923042 C151.53845,212.974347 151.53845,211.025653 157.384649,209.076958 C162.987206,207.371794 167.371801,202.987148 169.076907,197.384563 C171.025623,191.538479 172.974352,191.538479 174.923093,197.384563 Z" id="Path" fill="#FFFFFF"></path>
            <path d="M162.923093,50.3845628 C164.628235,55.987126 169.012816,60.3717584 174.615351,62.0769582 C180.46155,64.0256527 180.46155,65.9743473 174.615351,67.9230418 C169.012816,69.6282416 164.628235,74.012874 162.923093,79.6154372 C160.974402,85.4615209 159.025674,85.4615209 157.076907,79.6154372 C155.371801,74.0128525 150.987206,69.6282058 145.384649,67.9230418 C139.53845,65.9743473 139.53845,64.0256527 145.384649,62.0769582 C150.987206,60.3717942 155.371801,55.9871475 157.076907,50.3845628 C159.025623,44.5384791 160.974352,44.5384791 162.923093,50.3845628 Z" id="Path" fill="#FFFFFF"></path>
            <path d="M91.8077164,14.9614685 C93.7372189,21.3012082 98.6987173,26.2627619 105.038425,28.192325 C111.653858,30.3974221 111.653858,32.6025192 105.038425,34.8076164 C98.698708,36.7371871 93.7372077,41.6987573 91.8077164,48.0385119 C89.6026242,54.6538294 87.39748,54.6538294 85.1922836,48.0385119 C83.2628291,41.6987352 78.3013141,36.7371502 71.9615745,34.8076164 C65.3461418,32.6025192 65.3461418,30.3974221 71.9615745,28.192325 C78.3013048,26.2627988 83.262818,21.3012303 85.1922836,14.9614685 C87.3974279,8.34617715 89.6025721,8.34617715 91.8077164,14.9614685 Z" id="Path" fill="#96D7FF"></path>
            <path d="M227.923093,341.384533 C229.62817,346.987169 234.012761,351.371887 239.615351,353.077127 C245.46155,355.025817 245.46155,356.974506 239.615351,358.923196 C234.012816,360.628392 229.628235,365.013013 227.923093,370.615562 C225.974402,376.46153 224.025674,376.461479 222.076907,370.61541 C220.371801,365.012839 215.987206,360.628204 210.384649,358.923044 C204.53845,356.974354 204.53845,355.025665 210.384649,353.076975 C215.987224,351.371801 220.371823,346.987133 222.076907,341.384533 C224.025724,335.538489 225.974453,335.538489 227.923093,341.384533 Z" id="Path" fill="#96D7FF"></path>
            <path d="M390.884636,110.576886 C392.275672,115.147402 395.852572,118.72434 400.423065,120.115416 C405.192312,121.705152 405.192312,123.294874 400.423065,124.884584 C395.852572,126.27566 392.275672,129.852598 390.884636,134.423114 C389.294905,139.192295 387.705147,139.192295 386.115364,134.423114 C384.724353,129.852583 381.147443,126.275636 376.576935,124.884584 C371.807688,123.294848 371.807688,121.705126 376.576935,120.115416 C381.147443,118.724364 384.724353,115.147417 386.115364,110.576886 C387.705121,105.807705 389.294879,105.807705 390.884636,110.576886 Z" id="Path" fill="#96D7FF"></path>
            <path d="M304.15386,5.00001429 C305.410279,8.83335104 308.641029,11.8333651 312.76922,13.0000771 C317.076927,14.3333838 317.076927,15.6667029 312.76922,17.0000343 C308.641048,18.1667319 305.410302,21.1667146 304.15386,25.0000229 C302.717993,29 301.282087,29 299.84614,25.0000229 C298.589746,21.1666721 295.358986,18.1666487 291.23078,16.99996 C286.923073,15.6666533 286.923073,14.3333343 291.23078,13 C295.358967,11.8333286 298.589723,8.83333657 299.84614,5.00001429 C301.282113,1 302.71802,1 304.15386,5.00001429 Z" id="Path" fill="#C9C1F5"></path>
            <path d="M38.8846362,99.5768858 C40.2756718,104.147402 43.8525715,107.72434 48.423065,109.115416 C53.1923117,110.705152 53.1923117,112.294874 48.423065,113.884584 C43.8525715,115.27566 40.2756718,118.852598 38.8846362,123.423114 C37.2949046,128.192295 35.7051471,128.192295 34.1153638,123.423114 C32.7243526,118.852583 29.1474431,115.275636 24.576935,113.884584 C19.8076883,112.294848 19.8076883,110.705126 24.576935,109.115416 C29.1474431,107.724364 32.7243526,104.147417 34.1153638,99.5768858 C35.7051212,94.8077047 37.2948787,94.8077047 38.8846362,99.5768858 Z" id="Path" fill="#97C1FF"></path>
            <circle id="Oval" fill="#C7E9FF" cx="226.5" cy="169.5" r="151.5"></circle>
            <path d="M89.4563641,184.199179 C89.4391991,124.680076 124.229644,70.6499629 178.420775,46.0360381 C232.611905,21.4221133 296.190178,30.7725858 341,69.9466053 C303.74274,27.2653279 245.807421,8.90073623 190.765684,22.3246726 C135.723947,35.748609 92.748609,78.7239473 79.3246726,133.765684 C65.9007362,188.807421 84.2653279,246.74274 126.946605,284 C102.740437,256.39231 89.4137206,220.91595 89.4563641,184.199179 L89.4563641,184.199179 Z" id="Path" fill="#1C64BA" opacity="0.3"></path>
            <path d="M333.621683,61.8013407 C311.911255,40.0701907 284.064639,25.4845504 253.815392,20 C322.018356,39.9093673 364.36357,107.77993 352.186517,177.668434 C340.009464,247.556939 277.1949,297.167371 206.263548,292.917208 C135.332195,288.667045 78.9127627,231.912186 75.196951,161.071391 C71.6689961,230.386875 115.85336,293.202918 182.360662,313.423936 C248.867965,333.644955 320.625831,306.080228 356.400496,246.5691 C392.175161,187.057973 382.783294,110.876906 333.621683,61.8013407 Z" id="Path" fill="#FFFFFF" opacity="0.5"></path>
            <path d="M329.790248,267.976831 C298.285009,267.976831 249.93339,236.073106 207.449016,184.454549 C182.312404,153.91402 163.346985,121.195971 154.050335,92.3298163 C144.381528,62.3132728 146.352521,39.7828526 159.594889,28.8868939 C160.667417,28.0037544 162.129683,27.7598135 163.430866,28.2469612 C164.732049,28.734109 165.674469,29.8783361 165.903124,31.2486234 C166.131779,32.6189106 165.611932,34.0070787 164.539404,34.8902182 C154.080707,43.4964799 152.956575,63.5624635 161.451902,89.9452063 C170.456115,117.901773 188.924042,149.710585 213.456647,179.514439 C262.537803,239.141239 323.068364,273.828279 345.622627,255.267763 C346.69498,254.376543 348.162358,254.12732 349.468883,254.614505 C350.775408,255.10169 351.721246,256.250767 351.948092,257.626439 C352.174937,259.002112 351.648093,260.393969 350.567141,261.274742 C344.64893,265.889195 337.289708,268.26309 329.790248,267.976831 Z" id="Path" fill="#6D6DAA"></path>
            <path d="M247.669763,322 C247.416044,322 247.162906,321.975529 246.914335,321.924377 C209.684285,314.462103 192.087793,244.311284 207.688628,165.543274 C223.39091,86.2876319 265.194865,30.1446639 302.905943,37.6768865 C304.988766,38.0965207 306.339953,40.1338791 305.925163,42.2293537 C305.510373,44.3248282 303.486411,45.6862622 301.402629,45.2714711 C269.005681,38.786397 229.595938,94.5569733 215.235331,167.05537 C200.716896,240.372177 215.911826,307.816305 248.417648,314.333547 C250.357531,314.722467 251.68829,316.527336 251.495116,318.507424 C251.301942,320.487511 249.647766,322 247.669725,322 L247.669763,322 Z" id="Path" fill="#6D6DAA"></path>
            <path d="M145.459125,194 C114.637103,194.001896 89.9316022,183.633892 79.9385585,163.459083 C74.287135,151.509405 73.4528139,137.858026 77.607311,125.314602 C77.9989347,123.983976 79.0760487,122.963717 80.4306413,122.640298 C81.7852338,122.316879 83.2101333,122.739764 84.1655865,123.748765 C85.1210398,124.757767 85.4609196,126.198566 85.0564792,127.525388 C81.4800577,138.199831 82.1429912,149.831846 86.9092849,160.035227 C103.125222,192.76224 164.883182,195.545681 224.571936,166.246278 C284.264617,136.94672 319.638991,86.4860927 303.426748,53.7627172 C298.24049,43.0681297 288.803073,35.0150307 277.39241,31.5472012 C276.064271,31.1139041 275.072,30.0043681 274.793455,28.6411074 C274.51491,27.2778466 274.992962,25.8706754 276.045567,24.9554481 C277.098172,24.0402208 278.563328,23.7577966 279.883099,24.2157233 C293.23166,28.3749285 304.269213,37.8240261 310.397707,50.3388609 C328.508206,86.8904495 291.54684,142.001277 228.011967,173.188452 C202.416413,186.215438 174.198788,193.329094 145.459125,194 Z" id="Path" fill="#6D6DAA"></path>
            <path d="M115.29754,277 C114.13041,277 113.023779,276.483222 112.282091,275.585922 C81.5908686,238.448759 110.41268,164.153624 176.531482,109.971908 C208.26215,83.9728926 243.777333,66.3197535 276.539766,60.2637748 C310.11696,54.0502242 336.962574,60.728183 352.112293,79.0598246 C353.480136,80.7159713 353.240641,83.1626466 351.577365,84.5246271 C349.914089,85.8866075 347.456881,85.6481388 346.089038,83.9919923 C332.824169,67.9463661 308.624519,62.2313468 277.963745,67.8970643 C246.476788,73.7182185 212.214233,90.7894402 181.488741,115.965696 C118.686098,167.429093 90.3440273,236.818652 118.305385,270.649989 C119.264586,271.809289 119.465989,273.415556 118.822491,274.774094 C118.178992,276.132631 116.8061,277 115.297579,277 L115.29754,277 Z" id="Path" fill="#6D6DAA"></path>
            <path d="M170.412484,295 C168.315696,294.995458 166.602402,293.321501 166.545029,291.221341 C166.487656,289.12118 168.106994,287.355821 170.200395,287.236356 C171.438778,287.164263 172.684749,287.071926 173.938308,286.959344 C175.319678,286.832231 176.663629,287.453995 177.46295,288.589978 C178.262271,289.725961 178.395249,291.20319 177.811699,292.464152 C177.228149,293.725113 176.016925,294.577803 174.635151,294.700412 C173.290717,294.82184 171.961446,294.920498 170.632136,294.992617 C170.560198,294.996192 170.484461,295 170.412484,295 Z M154.930511,294.734334 C154.80176,294.734334 154.672971,294.726563 154.544221,294.715372 C153.184636,294.578776 151.841469,294.414281 150.514718,294.221887 C148.39606,293.909429 146.931199,291.935417 147.242634,289.812502 C147.379445,288.786965 147.923996,287.860321 148.752649,287.242962 C149.581301,286.625603 150.623747,286.36991 151.643302,286.533936 C152.84761,286.71229 154.069589,286.86154 155.309239,286.981687 C157.36657,287.185027 158.903011,288.969664 158.80194,291.038598 C158.70087,293.107531 156.997826,294.733288 154.930511,294.734334 Z M189.613098,292.396887 C187.624777,292.395235 185.959698,290.887333 185.757697,288.905382 C185.555695,286.923431 186.882204,285.109415 188.829154,284.705128 C190.056188,284.450899 191.288276,284.1789 192.525418,283.889129 C194.608924,283.407341 196.688332,284.706874 197.17296,286.793626 C197.657587,288.880378 196.36441,290.966267 194.282668,291.455652 C192.983684,291.759229 191.691009,292.046357 190.404641,292.317035 C190.144124,292.369687 189.879055,292.396434 189.613291,292.396887 L189.613098,292.396887 Z M136.085901,290.412262 C135.607909,290.412605 135.134026,290.323821 134.688454,290.150442 C133.38947,289.649549 132.120774,289.109435 130.882365,288.530102 C128.941381,287.624751 128.100384,285.314225 129.003946,283.369397 C129.907507,281.424569 132.213466,280.581906 134.154449,281.487257 C135.241357,281.991933 136.350989,282.463735 137.483347,282.902665 C139.225091,283.577182 140.239707,285.399708 139.897433,287.239017 C139.55516,289.078326 137.95321,290.412009 136.085901,290.412262 L136.085901,290.412262 Z M208.325506,287.319627 C206.424376,287.319085 204.804038,285.937545 204.499272,284.057285 C204.194506,282.177025 205.295213,280.352689 207.09846,279.749335 C208.291418,279.350895 209.489418,278.937274 210.692459,278.508473 C212.710836,277.789643 214.928628,278.846375 215.646037,280.868749 C216.363446,282.891124 215.308803,285.113309 213.290427,285.832139 C212.036894,286.27612 210.790922,286.704908 209.552513,287.118502 C209.156996,287.25134 208.742651,287.319257 208.325506,287.319627 L208.325506,287.319627 Z M119.627013,280.36421 C118.656694,280.364797 117.721482,280.000526 117.006321,279.343434 C115.979936,278.39856 114.990238,277.413222 114.037226,276.387421 C112.579363,274.815603 112.669222,272.35722 114.237933,270.896469 C115.806644,269.435718 118.260167,269.525756 119.718031,271.097574 C120.532261,271.974138 121.375525,272.812751 122.247822,273.613414 C123.427163,274.696148 123.822054,276.393319 123.242186,277.887002 C122.662317,279.380686 121.226669,280.364398 119.62713,280.364054 L119.627013,280.36421 Z M226.393929,280.2959 C224.561478,280.297132 222.978257,279.013016 222.597803,277.216944 C222.217349,275.420871 223.143509,273.603096 224.818481,272.858421 C225.973564,272.346155 227.128634,271.819966 228.283691,271.279852 C229.539288,270.692839 231.012055,270.821596 232.147216,271.617622 C233.282378,272.413647 233.907475,273.756006 233.78704,275.139045 C233.666605,276.522083 232.818935,277.735685 231.563338,278.322698 C230.362818,278.884299 229.162297,279.426938 227.961777,279.962 C227.468284,280.182132 226.934116,280.2959 226.393929,280.295782 L226.393929,280.2959 Z M243.76931,271.666908 C241.997376,271.667913 240.450191,270.465212 240.010783,268.745225 C239.571375,267.025237 240.351549,265.225604 241.906035,264.373434 C243.011867,263.766305 244.120233,263.145252 245.231132,262.510276 C246.433962,261.822943 247.911386,261.830793 249.106873,262.530871 C250.302359,263.230949 251.034285,264.516896 251.026997,265.904307 C251.019598,267.291718 250.274101,268.569814 249.071271,269.257147 C247.923763,269.913624 246.775001,270.557447 245.624985,271.188616 C245.056899,271.503085 244.418326,271.667621 243.76931,271.666752 L243.76931,271.666908 Z M260.387274,261.668054 C258.669704,261.670759 257.154905,260.541256 256.664255,258.891996 C256.173605,257.242735 256.823969,255.466548 258.262697,254.526545 C259.32688,253.832118 260.38602,253.127574 261.44012,252.412915 C263.213508,251.220942 265.614934,251.689779 266.811964,253.461674 C268.008994,255.233569 267.551141,257.641693 265.787775,258.848502 C264.693293,259.588444 263.59881,260.318283 262.504328,261.03802 C261.874306,261.448745 261.138909,261.667543 260.387274,261.667893 L260.387274,261.668054 Z M276.217378,250.4511 C274.552282,250.452804 273.071945,249.389276 272.539219,247.808573 C272.006494,246.227871 272.540298,244.482848 273.865549,243.472756 C274.876706,242.702453 275.884088,241.922022 276.887695,241.131461 C277.978225,240.27466 279.44211,240.065886 280.72792,240.583782 C282.013729,241.101678 282.926118,242.267564 283.121399,243.642261 C283.316679,245.016959 282.765183,246.391619 281.674653,247.24842 C280.640772,248.060481 279.603102,248.863683 278.561645,249.658025 C277.88813,250.17265 277.064498,250.451247 276.217495,250.450943 L276.217378,250.4511 Z M291.210643,238.141176 C289.59647,238.140763 288.151264,237.138779 287.581949,235.625346 C287.012633,234.111913 287.438217,232.403394 288.650525,231.335514 C289.608682,230.491202 290.557997,229.641838 291.49847,228.787423 C292.524734,227.854706 293.969655,227.541429 295.288947,227.965602 C296.608238,228.389774 297.601468,229.486953 297.894496,230.843843 C298.187524,232.200732 297.735832,233.611188 296.709568,234.543904 C295.740061,235.42425 294.760459,236.299545 293.770761,237.169788 C293.065437,237.797594 292.154189,238.143351 291.210759,238.141176 L291.210643,238.141176 Z M305.298776,224.789884 C303.736799,224.789606 302.327373,223.850627 301.722823,222.407533 C301.118274,220.964439 301.43656,219.298806 302.530369,218.181539 C303.427926,217.267102 304.315373,216.349427 305.192712,215.428515 C306.149972,214.425304 307.568665,214.010002 308.914383,214.339049 C310.260102,214.668097 311.3284,215.691504 311.716859,217.023762 C312.105318,218.356021 311.754922,219.79473 310.797663,220.797941 C309.896332,221.742816 308.986159,222.685747 308.067144,223.626736 C307.337756,224.371231 306.340089,224.790369 305.298893,224.789729 L305.298776,224.789884 Z M318.349227,210.429085 C316.843108,210.426371 315.474688,209.550392 314.839215,208.182193 C314.203743,206.813993 314.416092,205.200901 315.383894,204.044595 C316.2057,203.063687 317.018676,202.080241 317.822824,201.094255 C318.69659,200.011802 320.081639,199.480587 321.453428,199.70179 C322.825218,199.922992 323.974001,200.862791 324.464713,202.165268 C324.955425,203.467745 324.713036,204.93375 323.829344,206.008082 C323.003738,207.021242 322.168049,208.03251 321.322277,209.041888 C320.585793,209.923308 319.496656,210.431459 318.349382,210.42893 L318.349227,210.429085 Z M330.214321,195.068416 C328.765975,195.067583 327.438794,194.258134 326.772815,192.969439 C326.106835,191.680744 326.213058,190.127595 327.048261,188.941976 C327.786741,187.894648 328.512604,186.847955 329.22585,185.801897 C330.43167,184.028922 332.843618,183.571087 334.613088,184.779295 C336.382559,185.987503 336.839488,188.404229 335.633669,190.177204 C334.898964,191.258674 334.150375,192.340779 333.387904,193.423518 C332.66018,194.456459 331.476352,195.070006 330.214476,195.068222 L330.214321,195.068416 Z M340.659242,178.707838 C339.27681,178.706282 337.999659,177.967719 337.306732,176.769117 C336.613804,175.570516 336.609814,174.093003 337.296256,172.890661 C337.932485,171.782639 338.551056,170.676507 339.151969,169.572267 C339.81167,168.348563 341.073998,167.571662 342.461596,167.535355 C343.849193,167.499047 345.15027,168.208875 345.872813,169.396411 C346.595356,170.583947 346.629083,172.067936 345.961241,173.287198 C345.336374,174.440787 344.688783,175.596241 344.029984,176.753599 C343.336861,177.962845 342.05113,178.708228 340.659397,178.707643 L340.659242,178.707838 Z M349.346913,161.351158 C348.042401,161.349297 346.825973,160.691295 346.108702,159.599513 C345.391432,158.507731 345.269158,157.12805 345.783201,155.92671 C346.286879,154.757967 346.770339,153.591749 347.233583,152.428058 C348.03242,150.438048 350.288904,149.472352 352.27607,150.270049 C354.263236,151.067746 355.230109,153.327377 354.436706,155.319568 C353.944378,156.543333 353.435646,157.770271 352.910509,159.000383 C352.297249,160.426207 350.896595,161.350147 349.347068,161.351003 L349.346913,161.351158 Z M355.754886,143.02853 C354.549305,143.027847 353.412452,142.46602 352.678111,141.508003 C351.943771,140.549985 351.695285,139.304505 352.00561,138.13724 C352.331365,136.917258 352.631808,135.703622 352.906941,134.496332 C353.392176,132.409489 355.471596,131.109894 357.555468,131.591097 C359.63934,132.072301 360.941335,134.152725 360.466068,136.24187 C360.166891,137.535836 359.843722,138.836758 359.496562,140.144636 C359.043915,141.843272 357.509551,143.025882 355.754886,143.02853 Z M358.973959,123.903621 C358.890659,123.903621 358.807204,123.901678 358.72402,123.89581 C357.697177,123.830387 356.738364,123.3588 356.058629,122.584852 C355.378895,121.810904 355.033953,120.798034 355.099733,119.769189 C355.179271,118.526462 355.224721,117.296985 355.243646,116.078893 C355.279935,113.936471 357.040088,112.227733 359.178354,112.25912 C361.31662,112.290508 363.026061,114.050176 362.999699,116.192744 C362.980774,117.536034 362.927775,118.893881 362.8407,120.266287 C362.709828,122.310292 361.018115,123.901638 358.973959,123.903621 L358.973959,123.903621 Z M357.591636,104.588933 C355.777255,104.588255 354.206432,103.325794 353.812073,101.551281 C353.546971,100.371153 353.240219,99.2081991 352.899379,98.0640136 C352.487519,96.7296036 352.822133,95.2763722 353.775817,94.2576325 C354.729502,93.2388928 356.155505,92.8114078 357.510881,93.1379411 C358.866256,93.4644745 359.94244,94.4947793 360.329678,95.8365704 C360.72353,97.1514162 361.073212,98.4909233 361.378723,99.8550917 C361.603897,100.860504 361.421146,101.914366 360.870689,102.784741 C360.320231,103.655117 359.44718,104.270677 358.443677,104.495948 C358.163812,104.557381 357.878177,104.588554 357.591675,104.588933 L357.591636,104.588933 Z M349.968095,86.8698757 C348.696075,86.8715511 347.504258,86.247515 346.779311,85.2002225 C346.105206,84.2269045 345.389439,83.2795042 344.632009,82.3580215 C343.269347,80.7023693 343.50421,78.2533547 345.156589,76.8879943 C346.808969,75.5226339 349.253142,75.7579617 350.615803,77.4136138 C351.509559,78.500783 352.35409,79.6189343 353.149396,80.7680676 C353.972105,81.9553791 354.06909,83.5021305 353.401157,84.7832789 C352.733225,86.0644272 351.410775,86.8682158 349.968212,86.8698757 L349.968095,86.8698757 Z" id="Shape" fill="#6D6DAA" opacity="0.3"></path>
            <path d="M225.5,325 C139.619721,325 70,255.380279 70,169.5 C70,83.6197214 139.619721,14 225.5,14 C311.380279,14 381,83.6197214 381,169.5 C380.901818,255.339577 311.339577,324.901818 225.5,325 Z M225.5,21.775 C143.913735,21.775 77.775,87.9137353 77.775,169.5 C77.775,251.086265 143.913735,317.225 225.5,317.225 C307.086265,317.225 373.225,251.086265 373.225,169.5 C373.132387,87.9521279 307.047872,21.8676135 225.5,21.775 Z" id="Shape" fill="#6D6DAA"></path>
            <circle id="Oval" fill="#FFFFFF" cx="208.5" cy="176.5" r="14.5"></circle>
            <path d="M208.500942,196 C198.283679,196.00052 190.000527,187.718218 190,177.500955 C189.999473,167.283692 198.281769,159.000535 208.499032,159 C218.716295,158.999465 226.999458,167.281756 227,177.499019 C226.987806,187.711023 218.712945,195.986745 208.500942,196 Z M208.500942,166.848777 C204.192753,166.848396 200.308582,169.443344 198.659734,173.423518 C197.010885,177.403693 197.922099,181.985202 200.968448,185.031552 C204.014798,188.077901 208.596307,188.989115 212.576482,187.340266 C216.556656,185.691418 219.151604,181.807247 219.151223,177.499058 C219.143871,171.620118 214.379882,166.856129 208.500942,166.848777 L208.500942,166.848777 Z" id="Shape" fill="#6D6DAA"></path>
            <circle id="Oval" fill="#FFFFFF" cx="216.5" cy="283.5" r="14.5"></circle>
            <path d="M217.502232,302 C210.019783,302.000794 203.273627,297.494186 200.409492,290.581605 C197.545357,283.669024 199.127285,275.711787 204.417626,270.420346 C209.707967,265.128906 217.664876,263.545323 224.578052,266.408021 C231.491228,269.270719 235.999238,276.015938 236,283.498387 C235.988003,293.710071 227.713914,301.985881 217.502232,302 Z M217.502232,272.848827 C213.193756,272.848033 209.309115,275.442889 207.659962,279.423248 C206.010809,283.403608 206.921973,287.985473 209.96852,291.032032 C213.015068,294.07859 217.59693,294.989771 221.577296,293.340633 C225.557661,291.691495 228.152531,287.806863 228.151754,283.498387 C228.143734,277.620138 223.380482,272.856868 217.502232,272.848827 L217.502232,272.848827 Z" id="Shape" fill="#6D6DAA"></path>
            <circle id="Oval" fill="#FFFFFF" cx="117.5" cy="190.5" r="14.5"></circle>
            <path d="M118.498116,209 C108.281094,208.99896 99.9993065,200.715767 100,190.498744 C100.000693,180.281722 108.283605,172 118.500628,172 C128.71765,172 137,180.282977 137,190.5 C136.989659,200.713717 128.711834,208.990699 118.498116,209 Z M118.498116,179.8484 C112.615624,179.849441 107.847668,184.618802 107.848361,190.501295 C107.849055,196.383787 112.618135,201.152025 118.500628,201.151678 C124.38312,201.151331 129.151639,196.382532 129.151639,190.500039 C129.14489,184.619364 124.378793,179.854109 118.498116,179.8484 L118.498116,179.8484 Z" id="Shape" fill="#6D6DAA"></path>
            <circle id="Oval" fill="#FFFFFF" cx="169.5" cy="121.5" r="14.5"></circle>
            <path d="M168.498116,141 C158.281094,140.99896 149.999307,132.715767 150,122.498744 C150.000693,112.281722 158.283605,104 168.500628,104 C178.71765,104 187,112.282977 187,122.5 C186.989659,132.713717 178.711834,140.990699 168.498116,141 Z M168.498116,111.8484 C162.615624,111.849441 157.847668,116.618802 157.848361,122.501295 C157.849055,128.383787 162.618135,133.152025 168.500628,133.151678 C174.38312,133.151331 179.151639,128.382532 179.151639,122.500039 C179.14489,116.619364 174.378793,111.854109 168.498116,111.8484 Z" id="Shape" fill="#6D6DAA"></path>
            <path d="M350.30432,261.999995 C348.711491,261.998991 347.279966,261.027197 346.690427,259.546691 C346.100888,258.066185 346.472289,256.375694 347.62803,255.279037 C348.41764,254.529353 349.144871,253.716529 349.802501,252.848636 C350.645919,251.741138 352.015796,251.167967 353.396113,251.345032 C354.776429,251.522096 355.957482,252.422496 356.49438,253.707058 C357.031278,254.991621 356.842454,256.465191 355.999036,257.572689 C355.083356,258.7704 354.07404,259.893448 352.980609,260.931238 C352.259176,261.618743 351.300624,262.001533 350.30432,261.999995 L350.30432,261.999995 Z M358.641108,244.796379 C358.428328,244.797354 358.215875,244.779536 358.006233,244.743095 C356.987521,244.576435 356.076865,244.011285 355.475,243.172217 C354.873135,242.333149 354.629473,241.28905 354.797722,240.270067 C354.984005,239.117574 355.128466,237.930858 355.231106,236.709919 C355.303772,235.675665 355.790772,234.714591 356.581656,234.044666 C357.372541,233.374742 358.400288,233.052736 359.43181,233.15168 C361.573848,233.330795 363.165214,235.213353 362.986273,237.356546 C362.868425,238.790508 362.698622,240.182627 362.476863,241.532901 C362.169542,243.413762 360.545915,244.795134 358.641108,244.796379 L358.641108,244.796379 Z M358.530864,225.392354 C356.589384,225.389441 354.946695,223.95599 354.679888,222.031896 C354.5088,220.818566 354.318754,219.586189 354.094452,218.332897 C353.71758,216.215428 355.127693,214.193203 357.244026,213.81613 C359.360359,213.439056 361.381501,214.849925 361.758372,216.967393 C361.997882,218.319563 362.208235,219.651454 362.389431,220.963065 C362.531594,221.985963 362.261807,223.02347 361.639419,223.847345 C361.017031,224.67122 360.093027,225.213975 359.070676,225.356209 C358.891763,225.380476 358.711414,225.39251 358.530864,225.39251 L358.530864,225.392354 Z M354.227468,206.420155 C352.509117,206.418427 350.994443,205.291462 350.49818,203.645448 C350.140823,202.45302 349.759395,201.251088 349.353896,200.039653 C348.683121,198.000028 349.788208,195.801897 351.824775,195.12482 C353.861342,194.447743 356.061507,195.547011 356.744154,197.582689 C357.16992,198.866387 357.574147,200.139323 357.956834,201.401495 C358.308669,202.581277 358.083494,203.857994 357.349322,204.846032 C356.615149,205.834069 355.458064,206.417576 354.227546,206.420311 L354.227468,206.420155 Z M347.529153,188.143932 C345.965844,188.14254 344.554622,187.206715 343.944288,185.766697 C343.450086,184.602805 342.941948,183.432564 342.419873,182.255975 C341.546466,180.289749 342.431516,177.987392 344.396688,177.113516 C346.36186,176.23964 348.662983,177.125165 349.53639,179.091391 C350.076189,180.310434 350.602066,181.522506 351.114019,182.727605 C351.6232,183.930797 351.495826,185.309235 350.774797,186.398627 C350.053769,187.48802 348.835057,188.143367 347.529153,188.143932 L347.529153,188.143932 Z M339.192365,170.544756 C337.740935,170.54595 336.409185,169.739732 335.73674,168.452779 C335.147502,167.325006 334.54813,166.192805 333.938624,165.056178 C333.279238,163.831814 333.32278,162.348489 334.052848,161.164955 C334.782917,159.981422 336.088597,159.277488 337.478051,159.318318 C338.867506,159.359148 340.129644,160.13854 340.78903,161.362903 C341.420076,162.526795 342.0372,163.688155 342.6404,164.846984 C343.269205,166.054043 343.222915,167.501909 342.518291,168.66629 C341.813668,169.830671 340.552853,170.542781 339.192404,170.544756 L339.192365,170.544756 Z M329.608718,153.597896 C328.255199,153.600319 326.997944,152.897873 326.289964,151.743658 L324.256139,148.455451 C323.513513,147.275791 323.45781,145.788926 324.110089,144.556952 C324.762368,143.324978 326.023108,142.535863 327.415697,142.487924 C328.808286,142.439986 330.120252,143.140538 330.855616,144.324743 L332.919843,147.662377 C333.658559,148.863382 333.690636,150.370123 333.003706,151.601513 C332.316776,152.832902 331.018175,153.596527 329.608718,153.597896 L329.608718,153.597896 Z M318.990992,137.27479 C317.714131,137.276473 316.517779,136.650965 315.790072,135.601202 L313.573754,132.44246 C312.330828,130.686308 312.746117,128.254535 314.501327,127.010943 C316.256537,125.767351 318.687006,126.182862 319.929932,127.939013 L322.184244,131.158749 C323.010084,132.348861 323.107438,133.899261 322.436963,135.183431 C321.766489,136.467601 320.439007,137.273285 318.990953,137.274907 L318.990992,137.27479 Z M307.476135,121.571753 C306.269668,121.573533 305.130678,121.014984 304.393049,120.059763 C303.613714,119.047992 302.819196,118.040077 302.020903,117.032123 C300.69209,115.346975 300.976591,112.90377 302.657012,111.569411 C304.337434,110.235052 306.780136,110.512689 308.1186,112.190173 C308.939744,113.224755 309.750741,114.259337 310.551591,115.293919 C311.458721,116.468769 311.619667,118.057331 310.966632,119.39042 C310.313596,120.72351 308.960094,121.569398 307.476291,121.571753 L307.476135,121.571753 Z M295.147685,106.496143 C294.013981,106.497099 292.936429,106.002486 292.197694,105.14205 C291.357553,104.168332 290.516141,103.200313 289.673457,102.237994 C288.750787,101.194846 288.455404,99.7379814 288.898853,98.4175522 C289.342302,97.0971229 290.457013,96.1143282 291.82204,95.8402976 C293.187067,95.566267 294.594416,96.0427557 295.512634,97.0898289 C296.379427,98.0730506 297.241108,99.0632571 298.097677,100.060448 C299.09028,101.214331 299.319951,102.841086 298.68563,104.22491 C298.05131,105.608734 296.669289,106.495925 295.147685,106.496143 L295.147685,106.496143 Z M282.051345,92.0861667 C280.99064,92.0874859 279.97557,91.6545749 279.242,90.8880229 C278.352421,89.9599526 277.455212,89.0375688 276.561896,88.126558 C275.587412,87.133212 275.216612,85.6951629 275.589172,84.3541099 C275.961733,83.0130569 277.021052,81.9727379 278.368095,81.625031 C279.715139,81.277324 281.145258,81.6750541 282.119741,82.6684001 C283.035843,83.6021829 283.94948,84.5442098 284.860651,85.4944809 C285.940809,86.6206604 286.244683,88.2832657 285.632773,89.7190362 C285.020862,91.1548067 283.611365,92.0864074 282.051345,92.0861667 L282.051345,92.0861667 Z M268.183299,78.4256377 C267.199622,78.4267754 266.252334,78.0534972 265.533636,77.3814997 C264.590856,76.5066853 263.646804,75.6420236 262.70148,74.7875144 C261.669954,73.8539544 261.214567,72.4407019 261.506858,71.0801157 C261.799149,69.7195294 262.794711,68.6183147 264.118527,68.1912885 C265.442343,67.7642623 266.893293,68.0763 267.924818,69.0098601 C268.898015,69.890387 269.867409,70.7804303 270.833001,71.6799901 C272.005601,72.7695744 272.39186,74.4663741 271.806519,75.9565648 C271.221178,77.4467555 269.783623,78.4263997 268.183338,78.4256377 L268.183299,78.4256377 Z M253.501661,65.6380688 C252.60677,65.6382701 251.739269,65.3292412 251.045859,64.7632413 C250.046062,63.9473693 249.048796,63.1467133 248.054059,62.3612732 C246.367077,61.0273569 246.080281,58.5777013 247.413482,56.8898143 C248.746683,55.2019272 251.195026,54.9149772 252.882008,56.2488935 C253.908431,57.059027 254.936127,57.8837664 255.965094,58.7231114 C257.241936,59.764732 257.725362,61.4976562 257.172235,63.0503225 C256.619108,64.6029889 255.149164,65.6392915 253.5017,65.6380688 L253.501661,65.6380688 Z M237.953334,53.9192144 C237.165822,53.9192144 236.39691,53.6797129 235.748422,53.232665 C234.683979,52.5004289 233.630941,51.7798775 232.577943,51.0779435 C231.410406,50.3104427 230.743427,48.9758382 230.83022,47.5808037 C230.917012,46.1857692 231.744267,44.9442287 232.997922,44.3275248 C234.251578,43.710821 235.73939,43.8135232 236.896521,44.5966414 C237.979961,45.3212176 239.069733,46.0610097 240.165837,46.8160178 C241.568981,47.7846631 242.179318,49.5538455 241.672107,51.1822371 C241.164895,52.8106287 239.658057,53.9196458 237.953334,53.9192144 L237.953334,53.9192144 Z M221.443216,43.6211705 C220.787735,43.6212389 220.14293,43.4550771 219.569035,43.1382063 C218.443787,42.5182204 217.327401,41.9197862 216.219877,41.3429036 C214.315452,40.3498389 213.574857,38.0010703 214.564946,36.0943514 C215.555035,34.1876325 217.901593,33.4436286 219.808558,34.4318023 C220.975641,35.0384677 222.147784,35.6660615 223.324988,36.3145838 C224.882458,37.1720041 225.66148,38.9762113 225.217907,40.6985695 C224.774335,42.4209277 223.22088,43.6237895 221.443216,43.6213689 L221.443216,43.6211705 Z M162.895733,36.6472843 C161.252294,36.6480805 159.785316,35.6163697 159.229578,34.0689159 C158.673841,32.5214621 159.149025,30.7915138 160.417119,29.7455692 C161.585297,28.7840858 162.831392,27.9214999 164.142514,27.166735 C165.347674,26.4650186 166.835967,26.4620784 168.043887,27.1590275 C169.251808,27.8559766 169.99472,29.1462827 169.99135,30.5414044 C169.987956,31.9365261 169.238798,33.2232117 168.027513,33.9142905 C167.091204,34.4547881 166.20115,35.0717984 165.366444,35.7590192 C164.67113,36.3335291 163.797414,36.6475806 162.895655,36.6471281 L162.895733,36.6472843 Z M203.808006,35.4281887 C203.34725,35.4281887 202.89021,35.3457273 202.458455,35.1847591 C201.272453,34.7454434 200.096508,34.3377801 198.930619,33.961769 C196.884621,33.3000649 195.762141,31.1041488 196.42349,29.0570531 C197.08484,27.0099573 199.279579,25.8868756 201.325577,26.5485797 C202.587695,26.9574634 203.865022,27.4005831 205.157556,27.8779387 C206.925044,28.5332783 207.96972,30.3610677 207.637879,32.2175693 C207.306038,34.0740709 205.692951,35.426288 203.808006,35.4280718 L203.808006,35.4281887 Z M184.937108,30.9400098 C184.834456,30.9400098 184.728027,30.936076 184.621598,30.9266504 C183.469723,30.8353546 182.345734,30.7890835 181.249629,30.7878372 C179.079021,30.7971043 177.301417,29.0642427 177.254192,26.8929643 C177.230817,25.8709566 177.619347,24.8825074 178.33228,24.1502315 C179.045213,23.4179555 180.022602,23.0034254 181.044324,23 L181.044324,26.8948728 L181.143161,23 L181.196376,23 C182.583959,23 183.895477,23.0551514 185.244872,23.1635847 C187.327078,23.3301319 188.906655,25.1114408 188.823964,27.1997717 C188.741274,29.2881026 187.025801,30.938799 184.936953,30.9400098 L184.937108,30.9400098 Z" id="Shape" fill="#6D6DAA" opacity="0.3"></path>
            <path d="M266.917415,320 C265.037996,320.000512 263.423246,318.670063 263.070126,316.830083 C262.717005,314.990103 263.725108,313.159538 265.472022,312.468594 C266.56564,312.037895 267.659245,311.551332 268.752837,311.008905 C270.006948,310.390695 271.496676,310.486343 272.660854,311.25982 C273.825031,312.033296 274.486793,313.367091 274.396859,314.758778 C274.306926,316.150465 273.47896,317.388612 272.224848,318.006822 C270.940046,318.63951 269.652699,319.212496 268.362807,319.725781 C267.902661,319.907196 267.412247,320.000237 266.917415,320 Z M283.455321,309.735816 C281.812436,309.736975 280.34353,308.715743 279.777083,307.178584 C279.210636,305.641425 279.667119,303.915262 280.920148,302.856157 C281.85315,302.067197 282.783606,301.242655 283.711517,300.382532 C285.295381,298.915304 287.772637,299.005705 289.244624,300.584449 C290.716611,302.163193 290.625916,304.632441 289.042052,306.09967 C288.024919,307.041104 287.00524,307.944419 285.983016,308.809616 C285.277473,309.407655 284.381477,309.735967 283.455321,309.735816 Z M296.991437,295.683041 C295.485374,295.682441 294.113153,294.820841 293.462234,293.467096 C292.811314,292.113352 292.997093,290.507456 293.940035,289.336908 C294.727743,288.36118 295.510347,287.362582 296.287849,286.341112 C297.134839,285.231329 298.511473,284.65625 299.899186,284.832503 C301.286898,285.008755 302.474863,285.909562 303.015585,287.195597 C303.556308,288.481633 303.367639,289.957518 302.520648,291.067302 C301.702347,292.142137 300.878955,293.194088 300.050474,294.223155 C299.306004,295.147365 298.180649,295.684447 296.991554,295.683041 L296.991437,295.683041 Z M308.206639,279.705507 C306.790273,279.703819 305.485221,278.939882 304.793809,277.707737 C304.102396,276.475593 304.132411,274.967325 304.872299,273.763479 C305.533821,272.684845 306.19024,271.590964 306.841555,270.481835 C307.93426,268.62762 310.326213,268.004414 312.18944,269.088482 C314.052666,270.17255 314.684471,272.555047 313.602017,274.415226 C312.925198,275.577721 312.240744,276.719881 311.548654,277.841707 C310.836839,279.00121 309.570522,279.707442 308.206757,279.705507 L308.206639,279.705507 Z M317.578706,262.569312 C316.231025,262.567154 314.979127,261.874477 314.264505,260.735559 C313.549883,259.59664 313.472937,258.17149 314.060804,256.962703 C314.615248,255.81928 315.164602,254.663147 315.708866,253.494304 C316.297154,252.226236 317.520271,251.368051 318.916334,251.243821 C320.312397,251.119592 321.668681,251.748248 322.473016,252.892392 C323.277351,254.036536 323.407176,255.521829 322.813466,256.787384 C322.24755,257.995608 321.681633,259.188571 321.104243,260.370255 C320.449397,261.716537 319.079729,262.570868 317.578706,262.569312 L317.578706,262.569312 Z M325.390732,244.678412 C324.905226,244.679271 324.423919,244.58875 323.972122,244.41157 C323.004503,244.036707 322.225971,243.293967 321.807874,242.34682 C321.389776,241.399673 321.366379,240.325746 321.742833,239.3614 C322.205522,238.172314 322.66183,236.973613 323.111754,235.765299 C323.60048,234.458072 324.75174,233.510034 326.131866,233.278301 C327.511992,233.046568 328.91131,233.566347 329.802711,234.641841 C330.694111,235.717335 330.942169,237.185152 330.453443,238.492379 C329.986942,239.734909 329.515338,240.967279 329.038631,242.189488 C328.454554,243.689995 327.005601,244.678644 325.390889,244.678412 L325.390732,244.678412 Z M331.830195,226.253947 C331.443935,226.25364 331.059888,226.195825 330.690765,226.082414 C328.622336,225.453836 327.455418,223.274246 328.082998,221.211583 L329.203359,217.506863 C329.814732,215.439722 331.991532,214.257987 334.065377,214.867384 C336.139222,215.476781 337.32479,217.646544 336.713417,219.713686 L335.577902,223.487019 C335.074054,225.129767 333.553568,226.25234 331.830195,226.253947 Z M336.977013,207.419757 C335.778043,207.421146 334.644549,206.874807 333.901118,205.937188 C333.157688,204.999569 332.886311,203.774077 333.164699,202.611644 C333.462961,201.365314 333.753574,200.114523 334.036539,198.859269 C334.515572,196.761826 336.607002,195.446252 338.712572,195.9179 C340.818142,196.389548 342.143795,198.47055 341.676476,200.570617 C341.385863,201.860789 341.087601,203.144612 340.781691,204.422086 C340.361912,206.178317 338.788255,207.418186 336.977013,207.419757 L336.977013,207.419757 Z M340.904052,188.303517 C340.681011,188.304178 340.458352,188.285043 340.238719,188.246322 C339.2148,188.071981 338.302466,187.49893 337.702816,186.653484 C337.103167,185.808038 336.865431,184.759603 337.042011,183.739281 C337.259977,182.470081 337.470283,181.204679 337.672926,179.943077 C337.887338,178.563212 338.825296,177.402802 340.132322,176.900396 C341.439348,176.397989 342.916097,176.630212 344.004467,177.509302 C345.092837,178.388391 345.626833,179.780269 345.404644,181.158911 C345.201974,182.456707 344.984034,183.758249 344.758576,185.061821 C344.436937,186.933703 342.809349,188.302514 340.904052,188.303517 L340.904052,188.303517 Z M343.599842,168.985256 C343.464443,168.985753 343.32912,168.978756 343.194502,168.96427 C341.044405,168.742827 339.480471,166.82749 339.699545,164.684028 C339.83338,163.397668 339.963376,162.118918 340.078103,160.842121 C340.205836,159.45319 341.067255,158.237691 342.337871,157.653488 C343.608488,157.069286 345.095265,157.205135 346.238148,158.009863 C347.381031,158.814591 348.006389,160.16594 347.878656,161.55487 C347.756308,162.858442 347.627577,164.167035 347.492464,165.48065 C347.28711,167.470284 345.606423,168.983413 343.599803,168.985256 L343.599842,168.985256 Z M344.980236,149.525947 L344.838884,149.524034 C343.801117,149.487541 342.820417,149.041547 342.112605,148.284199 C341.404793,147.526851 341.02787,146.520212 341.064786,145.485811 C341.106839,144.197539 341.141257,142.916903 341.16804,141.643904 C341.196717,140.249529 341.969519,138.976322 343.195338,138.30389 C344.421158,137.631457 345.913764,137.661957 347.110906,138.3839 C348.308048,139.105842 349.027851,140.409548 348.999174,141.803923 C348.972392,143.115067 348.938013,144.433821 348.888285,145.760185 C348.816252,147.859963 347.088015,149.52526 344.980197,149.525947 L344.980236,149.525947 Z M344.899928,130.020922 C342.8099,130.017867 341.090281,128.380047 340.992192,126.299069 C340.93103,125.010796 340.865993,123.730174 340.785724,122.460948 C340.66932,120.320582 342.306455,118.487185 344.452778,118.354283 C346.5991,118.221381 348.451295,119.838717 348.601548,121.976987 C348.681843,123.28813 348.753224,124.608159 348.815691,125.937074 C348.916238,128.089857 347.247222,129.916424 345.087483,130.017215 L344.899928,130.020922 Z M343.148612,110.588339 C341.197937,110.586896 339.546033,109.154079 339.275098,107.228555 C339.095373,105.95553 338.904189,104.695853 338.701546,103.449524 C338.356258,101.321371 339.807151,99.3171559 341.942206,98.9729845 C344.077261,98.628813 346.087976,100.075016 346.433264,102.203169 C346.643582,103.502864 346.842414,104.815907 347.029761,106.142297 C347.187932,107.261865 346.851136,108.394775 346.106573,109.247707 C345.36201,110.100639 344.282892,110.589724 343.148612,110.588339 L343.148612,110.588339 Z M339.332461,91.4606447 C337.558964,91.4572738 336.008415,90.2680451 335.550728,88.5601585 C335.22182,87.3214531 334.877681,86.1043308 334.51831,84.9087915 C334.120086,83.5715856 334.467817,82.1241932 335.430514,81.1118329 C336.393212,80.0994726 337.824621,79.6759461 339.185543,80.0007916 C340.546465,80.3256372 341.630144,81.3495031 342.028368,82.686709 C342.403088,83.9521103 342.767627,85.2403697 343.121986,86.5514871 C343.431633,87.7238163 343.178651,88.9729973 342.437007,89.9337953 C341.695363,90.8945932 340.548825,91.458487 339.332618,91.4606447 L339.332461,91.4606447 Z M332.793777,73.0933575 C331.26801,73.094417 329.880402,72.21249 329.237659,70.8331826 C328.70616,69.693533 328.156806,68.5838057 327.589597,67.5040008 C326.940012,66.2689468 327.000801,64.7822807 327.749065,63.6040152 C328.49733,62.4257496 329.81939,61.7348912 331.21724,61.7916796 C332.615089,61.848468 333.876361,62.6442757 334.525946,63.8793297 C335.149226,65.0684161 335.754664,66.2912497 336.34226,67.5478304 C336.904859,68.7559053 336.810496,70.1665564 336.091969,71.2894859 C335.373442,72.4124154 334.129982,73.0925418 332.793777,73.0934745 L332.793777,73.0933575 Z M322.293636,56.7118317 C321.177342,56.7132259 320.113889,56.238024 319.37227,55.4063863 C318.565455,54.5030709 317.734415,53.6505844 316.87915,52.8489268 C315.334734,51.3636688 315.277527,48.9160132 316.750878,47.3606787 C318.224229,45.8053441 320.679064,45.7219579 322.255224,47.1737061 C323.268521,48.1284619 324.255061,49.1410327 325.214845,50.2114186 C326.242556,51.3589488 326.497982,53.0012399 325.867084,54.4050689 C325.236186,55.8088978 323.836713,56.7122577 322.293479,56.7118317 L322.293636,56.7118317 Z M306.356064,45.8053852 C305.936097,45.8053852 305.518943,45.7370812 305.120976,45.6033705 C304.037454,45.2445618 302.932841,44.9524383 301.813379,44.7286504 C300.441802,44.456308 299.320177,43.4752911 298.871009,42.1551392 C298.421841,40.8349873 298.713369,39.376263 299.635778,38.3284535 C300.558187,37.280644 301.97134,36.8029366 303.342917,37.075279 C304.781072,37.3610782 306.199954,37.7359642 307.591308,38.1977558 C309.41491,38.8014724 310.529626,40.6348751 310.222667,42.5256203 C309.915707,44.4163656 308.277774,45.8057643 306.35622,45.8053852 L306.356064,45.8053852 Z" id="Shape" fill="#6D6DAA" opacity="0.3"></path>
            <circle id="Oval" fill="#FFFFFF" cx="342.5" cy="176.5" r="14.5"></circle>
            <path d="M341.497135,196 C331.280368,195.998418 322.999126,187.715185 323,177.498417 C323.000874,167.28165 331.283533,159 341.500301,159 C351.717068,159 359.999458,167.282252 360,177.499019 C359.989658,187.713277 351.711394,195.990698 341.497135,196 L341.497135,196 Z M341.497135,166.848777 C335.614878,166.850359 330.84755,171.619966 330.848777,177.502223 C330.850006,183.384481 335.619325,188.152096 341.501583,188.151222 C347.38384,188.150348 352.151743,183.381315 352.151223,177.499058 C352.14432,171.618446 347.37775,166.853578 341.497135,166.848777 L341.497135,166.848777 Z" id="Shape" fill="#6D6DAA"></path>
            <circle id="Oval" fill="#FFFFFF" cx="258.5" cy="69.5" r="14.5"></circle>
            <path d="M259.502193,87 C252.019576,87.0007777 245.273313,82.4939564 242.409301,75.5811429 C239.545288,68.6683293 241.127572,60.7109505 246.418306,55.4196662 C251.70904,50.1283819 259.666255,48.5452711 266.579366,51.408565 C273.492477,54.271859 278,61.0176533 278,68.5002704 C277.987807,78.7115836 269.713505,86.9867455 259.502193,87 L259.502193,87 Z M259.502193,57.8487873 C255.193892,57.8480488 251.309382,60.4427104 249.660131,64.4228401 C248.01088,68.4029698 248.921709,72.984681 251.967868,76.0313794 C255.014028,79.0780778 259.595578,79.9897163 263.575999,78.3411695 C267.556421,76.6926226 270.151753,72.8085717 270.151753,68.5002704 C270.144556,62.6213532 265.381109,57.8570463 259.502193,57.8487873 L259.502193,57.8487873 Z" id="Shape" fill="#6D6DAA"></path>
            <circle id="Oval" fill="#FFFFFF" opacity="0.5" cx="193.5" cy="137.5" r="90.5"></circle>
            <path d="M126.675886,441 L126.675886,412.955969 C126.675886,377.175703 79.4536516,355.578618 49.2928331,331.966853 C42.1795306,326.398129 18,249.855978 18,244.208498 L18,163.441336 C18,141.857132 34.4954469,141.541647 42.5814374,155.724828 C48.2312115,166.981982 50.1723912,179.72892 48.1284486,192.149797 C53.1486967,205.196078 54.3104665,219.403328 51.476054,233.087566 C56.6376928,238.647548 63.1873556,256.65856 64.0902193,266.692005 C73.5852099,271.945049 80.6170736,280.719584 83.6583604,291.109619 C83.6583604,291.109619 96.7576859,296.750639 103.711662,293.043687 C106.450954,291.583427 104.319703,287.995304 104.319703,287.995304 C101.157669,277.868242 94.8940996,268.981669 86.4075886,262.582109 C84.49761,261.079338 74.9010635,234.576798 73.3082632,228.010636 C71.5228736,220.50645 72.6872581,212.538088 79.1301856,208.283138 C90.1530254,201.011041 108.967538,215.68095 117.457842,238.164495 C119.405663,243.322617 119.439663,251.158998 123.764924,256.054628 C135.085342,268.867832 148.022934,273.703003 161.283993,286.274448 C187.695105,311.312163 196,338.265959 196,392.970621 L196,441 L126.675886,441 Z" id="Path" fill="#F9E2DC"></path>
            <g id="Group" opacity="0.3" transform="translate(16.000000, 231.000000)" fill="#CC7E54">
                <path d="M109.616667,209.516517 L110.347085,181.44754 C110.347085,167.897 96.7739741,150.702487 87.2171872,141.037893 C73.3392483,127.003405 33.9570666,105.562191 30.7315414,99.4183762 C21.9665275,82.7221747 1.75830076,26.1873845 1.75830076,20.5348734 L0.540937708,0.451036745 C24.6447262,57.3149115 36.6353043,82.8845489 51.1832408,93.8529757 C65.3046522,104.499829 129.758397,133.294727 129.758397,178.543853 L129.626922,209.513226 L109.616667,209.516517 Z" id="Path"></path>
                <path d="M43.8791014,48.3618759 C58.0005128,77.6407221 89.913695,93.9057067 96.4691853,90.2233667 C97.6343089,89.5690692 91.1894915,60.067607 86.5679528,61.4284684 C79.9941923,63.3642599 69.7555263,62.7219643 66.4408707,59.4926769 C64.0872891,47.877928 51.4267134,37.6394107 46.8007338,35.0533095 C47.5311516,19.5669776 38.522665,0.69301068 32.6793223,2.38682823 C25.4504452,4.48228379 36.4006746,32.8563797 43.8791014,48.3618759 Z" id="Path"></path>
            </g>
            <g id="Group" opacity="0.5" transform="translate(17.000000, 145.000000)" fill="#FFFFFF">
                <path d="M99.540467,123.523175 C91.7566832,112.864466 90.4245276,100.423931 86.4053319,92.5160213 C81.076787,82.0317275 80.3728995,84.8611303 78.1350616,86.2176932 C72.7219068,89.6662355 66.2690035,91.1228813 59.8918184,90.3358308 C59.0024432,87.8405301 56.5201557,83.6599519 55.9999265,81.5181716 C54.2096562,73.9991694 55.3772238,66.0145949 61.8377643,61.7511113 C72.8127049,54.4644303 87.8647914,66.1114922 96.8647914,81.3728255 C103.051031,91.8628168 99.1708541,99.5117389 109.756683,112.379979 C137.972899,134.66637 176.516757,155.983788 179.027027,222.668082 L179.027027,295.516133 L163.459459,295.516133 L163.459459,229.625933 C163.459459,198.618624 111.022326,139.245856 99.540467,123.523175 Z" id="Path"></path>
                <path d="M30.9458724,35.5888257 C28.7599914,23.2676294 19.3615395,18.269974 11.5417946,20.0878458 C10.9999265,28.5637675 12.9458724,33.6508786 0.540467027,34.1353654 C-0.0714838398,28.5737983 -0.0714838398,22.9622943 0.540467027,17.4007272 C0.540467027,-4.22707235 16.3512778,-4.86581971 25.1080346,10.8800003 C28.869827,18.5832179 30.8639302,27.0233201 30.9458724,35.5888257 L30.9458724,35.5888257 Z" id="Path"></path>
            </g>
            <path d="M194.154571,453 C193.134519,453 192.156075,452.592584 191.434789,451.865847 C190.713503,451.13911 190.308551,450.153273 190.309143,449.125512 L190.309143,392.782715 C190.309143,338.093433 182.242741,312.807094 157.108522,288.72018 C151.78663,283.800152 146.084334,279.314933 140.055701,275.307053 C132.572873,270.505593 125.731354,264.758074 119.698195,258.204833 C116.685597,254.180886 114.761453,249.437835 114.114056,244.439825 C113.77753,242.626912 113.318327,240.839314 112.739662,239.089545 C107.542335,225.180755 97.579522,213.40026 88.5029652,210.441585 C85.8877745,209.357024 82.9188862,209.572787 80.4852471,211.024269 C74.3791299,215.101199 75.5507934,223.315538 76.3356453,226.660306 C79.5771994,237.839324 83.57339,248.782012 88.2962734,259.411852 C97.1231644,266.239653 103.638346,275.650798 106.94887,286.355426 C107.031376,286.593951 107.091726,286.83968 107.129143,287.089447 C107.155446,287.286194 110.024482,306.980252 116.712681,317.75989 C117.833595,319.573416 117.285731,321.95893 115.488092,323.092004 C113.690454,324.225077 111.32172,323.677929 110.193488,321.869017 C103.110978,310.453653 100.031636,291.614732 99.573492,288.576437 C96.6745602,279.255187 90.9434703,271.086591 83.1891216,265.223583 C79.5990681,262.366924 69.6550211,231.787221 68.8589021,228.46326 C66.4404737,218.19056 69.2006453,209.262966 76.2380868,204.563639 C80.6149155,201.784331 86.031163,201.231194 90.8724797,203.069094 C102.198458,206.763844 113.877447,220.141054 119.934766,236.357915 C120.65549,238.465132 121.222797,240.622481 121.632176,242.812812 C122.074985,246.497109 123.392732,250.019569 125.473759,253.081714 C131.104886,259.15462 137.477059,264.484126 144.438028,268.942898 C150.79749,273.168646 156.807974,277.904797 162.410906,283.105195 C189.020924,308.607227 198,336.284938 198,392.782715 L198,449.125512 C198,450.153273 197.595639,451.13911 196.874353,451.865847 C196.153067,452.592584 195.174623,453 194.154571,453 L194.154571,453 Z" id="Path" fill="#6D6DAA"></path>
            <path d="M126.13352,446 C125.107832,446 124.123982,445.590865 123.398711,444.861063 C122.67344,444.131261 122.266251,443.141264 122.266847,442.109168 L122.266847,413.414289 C122.266847,387.660334 95.3058497,369.140873 69.2322544,351.236981 C61.1855144,345.708499 53.5843311,340.487782 46.6515022,335.008714 C37.487023,327.766593 14,247.863981 14,243.676786 L14,162.4367 C14,146.250221 22.0731881,142.353709 25.5471618,141.430376 C32.7103284,139.522974 40.8175045,144.073028 45.718822,152.75141 C51.6581094,164.558005 53.8049548,177.929861 51.8624629,191.017734 C56.2237995,204.348771 55.7404653,216.353736 55.1778257,230.203421 L55.1325083,231.369892 C61.3967378,241.394019 65.5730738,252.593621 67.408422,264.28998 C75.3315458,270.758066 81.7697552,278.874906 86.2809961,288.08319 C88.8978057,289.443464 96.3441674,292.699739 101.611736,288.96851 C103.357266,287.732504 105.768056,288.154396 106.996388,289.91083 C108.224719,291.667265 107.805448,294.093118 106.059918,295.329124 C95.3850392,302.890409 81.798826,294.512049 81.2286077,294.151253 C80.564827,293.732808 80.0422666,293.122216 79.7294985,292.3996 C75.4522095,283.352529 69.139236,275.432495 61.2910746,269.267404 C60.5516939,268.639147 60.0722531,267.755592 59.946787,266.790034 C58.3871943,255.341558 54.3207013,244.384394 48.0409139,234.709665 C47.5610059,234.015192 47.3196918,233.181978 47.3536901,232.336803 L47.4518649,229.886046 C48.0145045,215.935666 48.4638506,204.916716 44.2270595,192.584999 C44.0082277,191.941187 43.9587927,191.251327 44.0835673,190.582583 C45.9717386,178.996927 44.1924088,167.107144 38.9972295,156.594812 C35.900875,151.121424 31.1845779,147.977244 27.5218331,148.953726 C23.8968271,149.918652 21.7331528,154.959068 21.7331528,162.436739 L21.7331528,243.676786 C22.1787096,250.440139 45.4656323,323.30202 51.4695316,328.925516 C58.156904,334.207008 65.6561618,339.355511 73.5933977,344.807888 C101.324713,363.855491 130,383.548893 130,413.414173 L130,442.109168 C130,443.141231 129.593432,444.131197 128.868203,444.860994 C128.142974,445.590791 127.159174,446 126.13352,446 L126.13352,446 Z" id="Path" fill="#6D6DAA"></path>
            <path d="M319.324114,436 L319.324114,411.752015 C319.324114,375.865054 366.546348,354.203568 396.707167,330.521395 C403.820469,324.936064 428,248.16567 428,242.501349 L428,161.493345 C428,139.844778 411.504553,139.528352 403.418563,153.753827 C397.768789,165.044549 395.827609,177.829498 397.871551,190.287412 C392.851303,203.372597 391.689534,217.622212 394.523946,231.347255 C389.362307,236.923817 382.812644,254.988537 381.909781,265.051901 C372.41479,270.320609 365.382926,279.121309 362.34164,289.542326 C362.34164,289.542326 349.242314,295.200168 342.288338,291.482162 C339.549046,290.017547 341.680297,286.418725 341.680297,286.418725 C344.842331,276.261465 351.1059,267.348393 359.592411,260.92975 C361.50239,259.422497 371.098936,232.840929 372.691737,226.255186 C374.477126,218.728624 373.312742,210.736501 366.869814,206.468862 C355.846975,199.17508 337.032462,213.888734 328.542158,236.439324 C326.594337,241.612827 326.560337,249.472576 322.235076,254.382804 C310.914658,267.234216 297.977066,272.083805 284.716007,284.692737 C258.304895,309.805113 250,336.839284 250,391.707072 L250,436 L319.324114,436 Z" id="Path" fill="#F9E2DC"></path>
            <g id="Group" opacity="0.3" transform="translate(298.000000, 231.000000)" fill="#CC7E54">
                <path d="M20.3833327,207.512158 L19.6529148,183.096607 C19.6529148,169.423899 33.2260259,152.074366 42.7828128,142.322638 C56.6607517,128.161619 96.0429334,106.527098 99.2684586,100.327892 C108.033473,83.4811622 128.241699,26.4366705 128.241699,20.733198 L129.459062,0.468291211 C105.355274,57.8448344 93.3646957,83.6450003 78.8167592,94.7123154 C64.6953478,105.455158 0.241603193,134.509662 0.241603193,180.166741 L0.373078403,207.508837 L20.3833327,207.512158 Z" id="Path"></path>
                <path d="M86.1208986,48.8110808 C71.9994872,78.3538967 40.086305,94.7655217 33.5308147,91.0499828 C32.3656911,90.3897864 38.8105085,60.6223474 43.4320472,61.995478 C50.0058077,63.948722 60.2444737,63.3006356 63.5591293,60.0422339 C65.9127109,48.3227698 78.5732866,37.991945 83.1992662,35.3825281 C82.4688484,19.7565759 91.477335,0.712446714 97.3206777,2.42153524 C104.549555,4.53588283 93.5993254,33.1657915 86.1208986,48.8110808 Z" id="Path"></path>
            </g>
            <g id="Group" opacity="0.5" transform="translate(250.000000, 145.000000)" fill="#FFFFFF">
                <path d="M79.4745602,123.898058 C87.2571689,113.207675 88.5891235,100.730172 92.6077124,92.7987641 C97.9354528,82.2833154 98.6392341,85.1211259 100.876734,86.48172 C106.289072,89.9405099 112.741001,91.4014843 119.117223,90.612095 C120.006464,88.1093793 122.488377,83.9163782 123.008528,81.7682334 C124.798528,74.2268879 123.631136,66.2185866 117.171571,61.9424337 C106.198287,54.6340997 91.1484733,66.3157719 82.149832,81.6224554 C75.9645259,92.1436186 79.8441174,99.81527 69.2598863,112.721749 C41.0479298,135.074366 2.5098913,156.455131 0,223.337582 L0,292.514696 L15.5652174,292.514696 L15.5652174,230.316108 C15.5652174,199.216659 67.9944341,139.66746 79.4745602,123.898058 Z" id="Path"></path>
                <path d="M148.058799,35.7024047 C150.24435,23.3445951 159.641383,18.3320887 167.459948,20.1553625 C168.001734,28.656471 166.056082,33.7586989 178.459615,34.2446254 C179.071473,28.6665316 179.071473,23.0383526 178.459615,17.4602589 C178.459615,-4.23180941 162.651191,-4.87245486 153.895756,10.9201552 C150.134531,18.6462635 148.140729,27.111446 148.058799,35.7024047 Z" id="Path"></path>
            </g>
            <path d="M249.845385,449 C248.825344,449 247.846911,448.592791 247.125634,447.866425 C246.404356,447.140058 246,446.154723 246,445.127486 L246,392.685906 C246,336.216911 254.978972,308.553262 281.588568,283.06426 C287.191436,277.866511 293.20185,273.132773 299.561239,268.909177 C306.522128,264.452678 312.894227,259.125886 318.525289,253.056075 C320.606292,249.99549 321.924024,246.474824 322.366827,242.792403 C322.776202,240.603188 323.343503,238.446938 324.064218,236.340795 C330.121467,220.132196 341.800283,206.761839 353.126169,203.068933 C357.965948,201.231861 363.380797,201.784018 367.756663,204.560818 C374.797754,209.259649 377.557894,218.182695 375.143262,228.433123 C374.343422,231.772391 364.399451,262.336515 360.809439,265.191758 C353.055194,271.051784 347.324184,279.216218 344.425296,288.532714 C343.967157,291.569462 340.88785,310.398785 333.805422,321.808334 C332.676178,323.613822 330.309312,324.158974 328.51301,323.027318 C326.716708,321.895662 326.168102,319.513784 327.286304,317.701339 C333.985694,306.904423 336.843429,287.243129 336.869732,287.046521 C336.907148,286.796881 336.967498,286.551278 337.050003,286.312873 C340.361471,275.614184 346.876386,266.20811 355.702384,259.383026 C360.427506,248.753295 364.424926,237.810456 367.666643,226.631164 C368.447756,223.305101 369.619367,215.094946 363.509591,211.018196 C361.077819,209.565684 358.108972,209.350632 355.49581,210.437706 C346.419358,213.395029 336.45666,225.169523 331.259393,239.071072 C330.680728,240.819898 330.221518,242.606533 329.884976,244.418472 C329.237587,249.413936 327.313465,254.15457 324.300902,258.176467 C318.267812,264.726369 311.426372,270.470961 303.943631,275.269975 C297.915068,279.275813 292.212837,283.758746 286.891007,288.676269 C261.757077,312.751066 253.690769,338.024485 253.690769,392.685906 L253.690769,445.127486 C253.691361,446.154723 253.286413,447.140058 252.565136,447.866425 C251.843858,448.592791 250.865425,449 249.845385,449 Z" id="Path" fill="#6D6DAA"></path>
            <path d="M319.86667,441 C318.840983,441 317.857135,440.592368 317.131864,439.865247 C316.406594,439.138125 316,438.151766 316,437.123461 L316,412.41053 C316,382.655075 344.67522,363.0339 372.406546,344.056268 C380.343774,338.623804 387.843024,333.494213 394.568167,328.198048 C400.534438,322.629323 423.821183,250.035059 424.266739,243.22464 L424.266739,162.354897 C424.266739,154.904695 422.103067,149.88295 418.478064,148.921413 C414.811534,147.948402 410.098992,151.081149 407.002679,156.53633 C401.807343,167.009313 400.027997,178.854872 401.916347,190.397348 C402.041121,191.063636 401.991686,191.750961 401.772855,192.392409 C397.536145,204.678825 397.985491,215.657298 398.548053,229.556432 L398.646227,231.998186 C398.680225,232.840256 398.438912,233.67041 397.959004,234.362331 C391.679223,244.001521 387.612734,254.918433 386.053143,266.324854 C385.927677,267.286866 385.448237,268.167175 384.708857,268.793124 C376.860703,274.935567 370.547736,282.826507 366.270451,291.840345 C365.957683,292.560306 365.435124,293.168655 364.771344,293.585563 C364.197375,293.948988 350.607386,302.296415 339.940058,294.759107 C338.19453,293.527641 337.775259,291.1107 339.003589,289.360717 C340.23192,287.610735 342.642708,287.190393 344.388235,288.421859 C349.63693,292.112904 357.098402,288.87991 359.71896,287.535992 C364.23123,278.363193 370.669356,270.27756 378.591631,263.833829 C380.426978,252.180436 384.60331,241.021976 390.867533,231.034672 L390.822215,229.872486 C390.259576,216.073677 389.776243,204.11289 394.137575,190.830745 C392.194928,177.791617 394.34179,164.469488 400.28121,152.707047 C405.182522,144.05849 413.28969,139.534764 420.45285,141.4257 C423.92682,142.345603 432,146.227839 432,162.354859 L432,243.29655 C432,247.468364 408.513,327.077457 399.34478,334.292974 C392.415708,339.751915 384.814571,344.953454 376.767801,350.461627 C350.694348,368.29975 323.733339,386.751181 323.733339,412.41053 L323.733339,437.123461 C323.733935,438.151766 323.326746,439.138125 322.601475,439.865247 C321.876205,440.592368 320.892357,441 319.86667,441 L319.86667,441 Z" id="Path" fill="#6D6DAA"></path>
        </g>
    </g>
</svg>